<?xml version="1.0" encoding="UTF-8" standalone="no"?><svg xmlns="http://www.w3.org/2000/svg" xmlns:xlink="http://www.w3.org/1999/xlink" contentScriptType="application/ecmascript" contentStyleType="text/css" height="425px" preserveAspectRatio="none" style="width:878px;height:425px;background:#FFFFFF;" version="1.1" viewBox="0 0 878 425" width="878px" zoomAndPan="magnify"><defs><filter height="300%" id="fzd25a7qb5lhp" width="300%" x="-1" y="-1"><feGaussianBlur result="blurOut" stdDeviation="2.0"/><feColorMatrix in="blurOut" result="blurOut2" type="matrix" values="0 0 0 0 0 0 0 0 0 0 0 0 0 0 0 0 0 0 .4 0"/><feOffset dx="4.0" dy="4.0" in="blurOut2" result="blurOut3"/><feBlend in="SourceGraphic" in2="blurOut3" mode="normal"/></filter></defs><g><rect fill="#FFFFFF" filter="url(#fzd25a7qb5lhp)" height="116.5313" style="stroke:#A80036;stroke-width:1.0;" width="10" x="29" y="131.4297"/><rect fill="#FFFFFF" filter="url(#fzd25a7qb5lhp)" height="125.5313" style="stroke:#A80036;stroke-width:1.0;" width="10" x="843" y="206.8281"/><line style="stroke:#A80036;stroke-width:1.0;stroke-dasharray:5.0,5.0;" x1="34" x2="34" y1="88.2969" y2="341.3594"/><line style="stroke:#A80036;stroke-width:1.0;stroke-dasharray:5.0,5.0;" x1="440.5" x2="440.5" y1="88.2969" y2="341.3594"/><line style="stroke:#A80036;stroke-width:1.0;stroke-dasharray:5.0,5.0;" x1="848" x2="848" y1="88.2969" y2="341.3594"/><text fill="#000000" font-family="sans-serif" font-size="14" lengthAdjust="spacing" textLength="52" x="5" y="84.9951">Client 1</text><ellipse cx="34" cy="15" fill="#FEFECE" filter="url(#fzd25a7qb5lhp)" rx="8" ry="8" style="stroke:#A80036;stroke-width:2.0;"/><path d="M34,23 L34,50 M21,31 L47,31 M34,50 L21,65 M34,50 L47,65 " fill="none" filter="url(#fzd25a7qb5lhp)" style="stroke:#A80036;stroke-width:2.0;"/><text fill="#000000" font-family="sans-serif" font-size="14" lengthAdjust="spacing" textLength="52" x="5" y="353.3545">Client 1</text><ellipse cx="34" cy="366.6563" fill="#FEFECE" filter="url(#fzd25a7qb5lhp)" rx="8" ry="8" style="stroke:#A80036;stroke-width:2.0;"/><path d="M34,374.6563 L34,401.6563 M21,382.6563 L47,382.6563 M34,401.6563 L21,416.6563 M34,401.6563 L47,416.6563 " fill="none" filter="url(#fzd25a7qb5lhp)" style="stroke:#A80036;stroke-width:2.0;"/><rect fill="#FEFECE" filter="url(#fzd25a7qb5lhp)" height="30.2969" style="stroke:#A80036;stroke-width:1.5;" width="157" x="360.5" y="53"/><text fill="#000000" font-family="sans-serif" font-size="14" lengthAdjust="spacing" textLength="143" x="367.5" y="72.9951">Admin portal RestAPI</text><rect fill="#FEFECE" filter="url(#fzd25a7qb5lhp)" height="30.2969" style="stroke:#A80036;stroke-width:1.5;" width="157" x="360.5" y="340.3594"/><text fill="#000000" font-family="sans-serif" font-size="14" lengthAdjust="spacing" textLength="143" x="367.5" y="360.3545">Admin portal RestAPI</text><text fill="#000000" font-family="sans-serif" font-size="14" lengthAdjust="spacing" textLength="52" x="819" y="84.9951">Client 2</text><ellipse cx="848" cy="15" fill="#FEFECE" filter="url(#fzd25a7qb5lhp)" rx="8" ry="8" style="stroke:#A80036;stroke-width:2.0;"/><path d="M848,23 L848,50 M835,31 L861,31 M848,50 L835,65 M848,50 L861,65 " fill="none" filter="url(#fzd25a7qb5lhp)" style="stroke:#A80036;stroke-width:2.0;"/><text fill="#000000" font-family="sans-serif" font-size="14" lengthAdjust="spacing" textLength="52" x="819" y="353.3545">Client 2</text><ellipse cx="848" cy="366.6563" fill="#FEFECE" filter="url(#fzd25a7qb5lhp)" rx="8" ry="8" style="stroke:#A80036;stroke-width:2.0;"/><path d="M848,374.6563 L848,401.6563 M835,382.6563 L861,382.6563 M848,401.6563 L835,416.6563 M848,401.6563 L861,416.6563 " fill="none" filter="url(#fzd25a7qb5lhp)" style="stroke:#A80036;stroke-width:2.0;"/><rect fill="#FFFFFF" filter="url(#fzd25a7qb5lhp)" height="116.5313" style="stroke:#A80036;stroke-width:1.0;" width="10" x="29" y="131.4297"/><rect fill="#FFFFFF" filter="url(#fzd25a7qb5lhp)" height="125.5313" style="stroke:#A80036;stroke-width:1.0;" width="10" x="843" y="206.8281"/><polygon fill="#A80036" points="429,115.4297,439,119.4297,429,123.4297,433,119.4297" style="stroke:#A80036;stroke-width:1.0;"/><line style="stroke:#A80036;stroke-width:1.0;" x1="34" x2="435" y1="119.4297" y2="119.4297"/><text fill="#000000" font-family="sans-serif" font-size="13" font-weight="bold" lengthAdjust="spacing" textLength="9" x="41" y="114.3638">1</text><text fill="#000000" font-family="sans-serif" font-size="13" lengthAdjust="spacing" textLength="241" x="54" y="114.3638">GET /versions/1/forms/form1 HTTP/1.1</text><polygon fill="#A80036" points="50,127.4297,40,131.4297,50,135.4297,46,131.4297" style="stroke:#A80036;stroke-width:1.0;"/><line style="stroke:#A80036;stroke-width:1.0;" x1="44" x2="440" y1="131.4297" y2="131.4297"/><text fill="#000000" font-family="sans-serif" font-size="13" font-weight="bold" lengthAdjust="spacing" textLength="9" x="56" y="144.4966">2</text><text fill="#000000" font-family="sans-serif" font-size="13" lengthAdjust="spacing" textLength="208" x="69" y="144.4966">HTTP/1.1 200 OK; Etag: "abcde1"</text><polygon fill="#A80036" points="452,156.5625,442,160.5625,452,164.5625,448,160.5625" style="stroke:#A80036;stroke-width:1.0;"/><line style="stroke:#A80036;stroke-width:1.0;" x1="446" x2="847" y1="160.5625" y2="160.5625"/><text fill="#000000" font-family="sans-serif" font-size="13" font-weight="bold" lengthAdjust="spacing" textLength="9" x="458" y="173.6294">3</text><text fill="#000000" font-family="sans-serif" font-size="13" lengthAdjust="spacing" textLength="241" x="471" y="173.6294">GET /versions/1/forms/form1 HTTP/1.1</text><polygon fill="#A80036" points="831,202.8281,841,206.8281,831,210.8281,835,206.8281" style="stroke:#A80036;stroke-width:1.0;"/><line style="stroke:#A80036;stroke-width:1.0;" x1="441" x2="837" y1="206.8281" y2="206.8281"/><text fill="#000000" font-family="sans-serif" font-size="13" font-weight="bold" lengthAdjust="spacing" textLength="9" x="448" y="201.7622">4</text><text fill="#000000" font-family="sans-serif" font-size="13" lengthAdjust="spacing" textLength="208" x="461" y="201.7622">HTTP/1.1 200 OK; Etag: "abcde1"</text><polygon fill="#A80036" points="429,231.9609,439,235.9609,429,239.9609,433,235.9609" style="stroke:#A80036;stroke-width:1.0;"/><line style="stroke:#A80036;stroke-width:1.0;" x1="39" x2="435" y1="235.9609" y2="235.9609"/><text fill="#000000" font-family="sans-serif" font-size="13" font-weight="bold" lengthAdjust="spacing" textLength="9" x="46" y="230.895">5</text><text fill="#000000" font-family="sans-serif" font-size="13" lengthAdjust="spacing" textLength="365" x="59" y="230.895">PUT /versions/1/forms/form1 HTTP/1.1; If-Match: "abcde1"</text><polygon fill="#A80036" points="45,243.9609,35,247.9609,45,251.9609,41,247.9609" style="stroke:#A80036;stroke-width:1.0;"/><line style="stroke:#A80036;stroke-width:1.0;" x1="39" x2="440" y1="247.9609" y2="247.9609"/><text fill="#000000" font-family="sans-serif" font-size="13" font-weight="bold" lengthAdjust="spacing" textLength="9" x="51" y="261.0278">6</text><text fill="#000000" font-family="sans-serif" font-size="13" lengthAdjust="spacing" textLength="208" x="64" y="261.0278">HTTP/1.1 200 OK; Etag: "abcde2"</text><polygon fill="#A80036" points="452,273.0938,442,277.0938,452,281.0938,448,277.0938" style="stroke:#A80036;stroke-width:1.0;"/><line style="stroke:#A80036;stroke-width:1.0;" x1="446" x2="842" y1="277.0938" y2="277.0938"/><text fill="#000000" font-family="sans-serif" font-size="13" font-weight="bold" lengthAdjust="spacing" textLength="9" x="458" y="290.1606">7</text><text fill="#000000" font-family="sans-serif" font-size="13" lengthAdjust="spacing" textLength="365" x="471" y="290.1606">PUT /versions/1/forms/form1 HTTP/1.1; If-Match: "abcde1"</text><polygon fill="#A80036" points="831,319.3594,841,323.3594,831,327.3594,835,323.3594" style="stroke:#A80036;stroke-width:1.0;"/><line style="stroke:#A80036;stroke-width:1.0;" x1="441" x2="837" y1="323.3594" y2="323.3594"/><text fill="#000000" font-family="sans-serif" font-size="13" font-weight="bold" lengthAdjust="spacing" textLength="9" x="448" y="318.2935">8</text><text fill="#000000" font-family="sans-serif" font-size="13" lengthAdjust="spacing" textLength="212" x="461" y="318.2935">HTTP/1.1 412 Precondition Failed;</text><!--MD5=[2943a8db4430348fd181b400eab24228]
@startuml
autonumber
skinparam responseMessageBelowArrow true

actor "Client 1" as Client1
participant "Admin portal RestAPI" as Service
actor "Client 2" as Client2

Client1 -> Service: GET /versions/1/forms/form1 HTTP/1.1
Client1 <- Service: HTTP/1.1 200 OK; Etag: "abcde1"
activate Client1
Client2 -> Service: GET /versions/1/forms/form1 HTTP/1.1
Client2 <- Service: HTTP/1.1 200 OK; Etag: "abcde1"
activate Client2

Client1->Service: PUT /versions/1/forms/form1 HTTP/1.1; If-Match: "abcde1"
Client1<-Service: HTTP/1.1 200 OK; Etag: "abcde2"
deactivate Client1

Client2->Service: PUT /versions/1/forms/form1 HTTP/1.1; If-Match: "abcde1"
Client2<-Service: HTTP/1.1 412 Precondition Failed;
deactivate Client1
@enduml

PlantUML version 1.2021.7(Sun May 23 12:40:07 UTC 2021)
(GPL source distribution)
Java Runtime: OpenJDK Runtime Environment
JVM: OpenJDK 64-Bit Server VM
Default Encoding: UTF-8
Language: en
Country: null
--></g></svg>