<?xml version="1.0" encoding="UTF-8" standalone="no"?><svg xmlns="http://www.w3.org/2000/svg" xmlns:xlink="http://www.w3.org/1999/xlink" contentScriptType="application/ecmascript" contentStyleType="text/css" height="764px" preserveAspectRatio="none" style="width:744px;height:764px;background:#FFFFFF;" version="1.1" viewBox="0 0 744 764" width="744px" zoomAndPan="magnify"><defs><filter height="300%" id="f16jenuobe2ud1" width="300%" x="-1" y="-1"><feGaussianBlur result="blurOut" stdDeviation="2.0"/><feColorMatrix in="blurOut" result="blurOut2" type="matrix" values="0 0 0 0 0 0 0 0 0 0 0 0 0 0 0 0 0 0 .4 0"/><feOffset dx="4.0" dy="4.0" in="blurOut2" result="blurOut3"/><feBlend in="SourceGraphic" in2="blurOut3" mode="normal"/></filter></defs><g><rect fill="#FFFFFF" filter="url(#f16jenuobe2ud1)" height="29.1328" style="stroke:#A80036;stroke-width:1.0;" width="10" x="50.5" y="495.1563"/><rect fill="#FFFFFF" filter="url(#f16jenuobe2ud1)" height="326.4609" style="stroke:#A80036;stroke-width:1.0;" width="10" x="118.5" y="98.2969"/><rect fill="#FFFFFF" filter="url(#f16jenuobe2ud1)" height="29.1328" style="stroke:#A80036;stroke-width:1.0;" width="10" x="118.5" y="626.4922"/><rect fill="#FFFFFF" filter="url(#f16jenuobe2ud1)" height="305.3281" style="stroke:#A80036;stroke-width:1.0;" width="10" x="520.5" y="119.4297"/><rect fill="#FFFFFF" filter="url(#f16jenuobe2ud1)" height="29.1328" style="stroke:#A80036;stroke-width:1.0;" width="10" x="663" y="495.1563"/><rect fill="#FFFFFF" filter="url(#f16jenuobe2ud1)" height="29.1328" style="stroke:#A80036;stroke-width:1.0;" width="10" x="663" y="626.4922"/><rect fill="#FFFFFF" filter="url(#f16jenuobe2ud1)" height="104.5313" style="stroke:#000000;stroke-width:2.0;" width="525" x="91" y="280.0938"/><rect fill="#FFFFFF" filter="url(#f16jenuobe2ud1)" height="206.7344" style="stroke:#000000;stroke-width:2.0;" width="720" x="10" y="456.8906"/><rect fill="#FFFFFF" height="73.0703" style="stroke:none;stroke-width:1.0;" width="720" x="10" y="590.5547"/><line style="stroke:#A80036;stroke-width:1.0;stroke-dasharray:5.0,5.0;" x1="55" x2="55" y1="88.2969" y2="680.625"/><line style="stroke:#A80036;stroke-width:1.0;stroke-dasharray:5.0,5.0;" x1="123" x2="123" y1="88.2969" y2="680.625"/><line style="stroke:#A80036;stroke-width:1.0;stroke-dasharray:5.0,5.0;" x1="525" x2="525" y1="88.2969" y2="680.625"/><line style="stroke:#A80036;stroke-width:1.0;stroke-dasharray:5.0,5.0;" x1="668" x2="668" y1="88.2969" y2="680.625"/><text fill="#000000" font-family="sans-serif" font-size="14" lengthAdjust="spacing" textLength="65" x="20" y="84.9951">Inspector</text><ellipse cx="55.5" cy="15" fill="#FEFECE" filter="url(#f16jenuobe2ud1)" rx="8" ry="8" style="stroke:#A80036;stroke-width:2.0;"/><path d="M55.5,23 L55.5,50 M42.5,31 L68.5,31 M55.5,50 L42.5,65 M55.5,50 L68.5,65 " fill="none" filter="url(#f16jenuobe2ud1)" style="stroke:#A80036;stroke-width:2.0;"/><text fill="#000000" font-family="sans-serif" font-size="14" lengthAdjust="spacing" textLength="65" x="20" y="692.6201">Inspector</text><ellipse cx="55.5" cy="705.9219" fill="#FEFECE" filter="url(#f16jenuobe2ud1)" rx="8" ry="8" style="stroke:#A80036;stroke-width:2.0;"/><path d="M55.5,713.9219 L55.5,740.9219 M42.5,721.9219 L68.5,721.9219 M55.5,740.9219 L42.5,755.9219 M55.5,740.9219 L68.5,755.9219 " fill="none" filter="url(#f16jenuobe2ud1)" style="stroke:#A80036;stroke-width:2.0;"/><text fill="#000000" font-family="sans-serif" font-size="14" lengthAdjust="spacing" textLength="39" x="101" y="84.9951">Client</text><ellipse cx="123.5" cy="15" fill="#FEFECE" filter="url(#f16jenuobe2ud1)" rx="8" ry="8" style="stroke:#A80036;stroke-width:2.0;"/><path d="M123.5,23 L123.5,50 M110.5,31 L136.5,31 M123.5,50 L110.5,65 M123.5,50 L136.5,65 " fill="none" filter="url(#f16jenuobe2ud1)" style="stroke:#A80036;stroke-width:2.0;"/><text fill="#000000" font-family="sans-serif" font-size="14" lengthAdjust="spacing" textLength="39" x="101" y="692.6201">Client</text><ellipse cx="123.5" cy="705.9219" fill="#FEFECE" filter="url(#f16jenuobe2ud1)" rx="8" ry="8" style="stroke:#A80036;stroke-width:2.0;"/><path d="M123.5,713.9219 L123.5,740.9219 M110.5,721.9219 L136.5,721.9219 M123.5,740.9219 L110.5,755.9219 M123.5,740.9219 L136.5,755.9219 " fill="none" filter="url(#f16jenuobe2ud1)" style="stroke:#A80036;stroke-width:2.0;"/><rect fill="#FEFECE" filter="url(#f16jenuobe2ud1)" height="30.2969" style="stroke:#A80036;stroke-width:1.5;" width="157" x="445" y="53"/><text fill="#000000" font-family="sans-serif" font-size="14" lengthAdjust="spacing" textLength="143" x="452" y="72.9951">Admin portal RestAPI</text><rect fill="#FEFECE" filter="url(#f16jenuobe2ud1)" height="30.2969" style="stroke:#A80036;stroke-width:1.5;" width="157" x="445" y="679.625"/><text fill="#000000" font-family="sans-serif" font-size="14" lengthAdjust="spacing" textLength="143" x="452" y="699.6201">Admin portal RestAPI</text><rect fill="#FEFECE" filter="url(#f16jenuobe2ud1)" height="30.2969" style="stroke:#A80036;stroke-width:1.5;" width="100" x="616" y="53"/><text fill="#000000" font-family="sans-serif" font-size="14" lengthAdjust="spacing" textLength="86" x="623" y="72.9951">Gerrit WebUI</text><rect fill="#FEFECE" filter="url(#f16jenuobe2ud1)" height="30.2969" style="stroke:#A80036;stroke-width:1.5;" width="100" x="616" y="679.625"/><text fill="#000000" font-family="sans-serif" font-size="14" lengthAdjust="spacing" textLength="86" x="623" y="699.6201">Gerrit WebUI</text><rect fill="#FFFFFF" filter="url(#f16jenuobe2ud1)" height="29.1328" style="stroke:#A80036;stroke-width:1.0;" width="10" x="50.5" y="495.1563"/><rect fill="#FFFFFF" filter="url(#f16jenuobe2ud1)" height="326.4609" style="stroke:#A80036;stroke-width:1.0;" width="10" x="118.5" y="98.2969"/><rect fill="#FFFFFF" filter="url(#f16jenuobe2ud1)" height="29.1328" style="stroke:#A80036;stroke-width:1.0;" width="10" x="118.5" y="626.4922"/><rect fill="#FFFFFF" filter="url(#f16jenuobe2ud1)" height="305.3281" style="stroke:#A80036;stroke-width:1.0;" width="10" x="520.5" y="119.4297"/><rect fill="#FFFFFF" filter="url(#f16jenuobe2ud1)" height="29.1328" style="stroke:#A80036;stroke-width:1.0;" width="10" x="663" y="495.1563"/><rect fill="#FFFFFF" filter="url(#f16jenuobe2ud1)" height="29.1328" style="stroke:#A80036;stroke-width:1.0;" width="10" x="663" y="626.4922"/><polygon fill="#A80036" points="508.5,115.4297,518.5,119.4297,508.5,123.4297,512.5,119.4297" style="stroke:#A80036;stroke-width:1.0;"/><line style="stroke:#A80036;stroke-width:1.0;" x1="128.5" x2="514.5" y1="119.4297" y2="119.4297"/><text fill="#000000" font-family="sans-serif" font-size="13" font-weight="bold" lengthAdjust="spacing" textLength="9" x="135.5" y="114.3638">1</text><text fill="#000000" font-family="sans-serif" font-size="13" lengthAdjust="spacing" textLength="146" x="148.5" y="114.3638">GET /versions HTTP/1.1</text><polygon fill="#A80036" points="139.5,127.4297,129.5,131.4297,139.5,135.4297,135.5,131.4297" style="stroke:#A80036;stroke-width:1.0;"/><line style="stroke:#A80036;stroke-width:1.0;" x1="133.5" x2="519.5" y1="131.4297" y2="131.4297"/><text fill="#000000" font-family="sans-serif" font-size="13" font-weight="bold" lengthAdjust="spacing" textLength="9" x="145.5" y="144.4966">2</text><text fill="#000000" font-family="sans-serif" font-size="13" lengthAdjust="spacing" textLength="209" x="158.5" y="144.4966">HTTP/1.1 200 OK; List of versions</text><polygon fill="#A80036" points="508.5,173.6953,518.5,177.6953,508.5,181.6953,512.5,177.6953" style="stroke:#A80036;stroke-width:1.0;"/><line style="stroke:#A80036;stroke-width:1.0;" x1="128.5" x2="514.5" y1="177.6953" y2="177.6953"/><text fill="#000000" font-family="sans-serif" font-size="13" font-weight="bold" lengthAdjust="spacing" textLength="9" x="135.5" y="172.6294">3</text><text fill="#000000" font-family="sans-serif" font-size="13" lengthAdjust="spacing" textLength="158" x="148.5" y="172.6294">GET /versions/1 HTTP/1.1</text><polygon fill="#A80036" points="139.5,185.6953,129.5,189.6953,139.5,193.6953,135.5,189.6953" style="stroke:#A80036;stroke-width:1.0;"/><line style="stroke:#A80036;stroke-width:1.0;" x1="133.5" x2="519.5" y1="189.6953" y2="189.6953"/><text fill="#000000" font-family="sans-serif" font-size="13" font-weight="bold" lengthAdjust="spacing" textLength="9" x="145.5" y="202.7622">4</text><text fill="#000000" font-family="sans-serif" font-size="13" lengthAdjust="spacing" textLength="355" x="158.5" y="202.7622">HTTP/1.1 200 OK; Specific details of version-candidate 1</text><polygon fill="#A80036" points="508.5,231.9609,518.5,235.9609,508.5,239.9609,512.5,235.9609" style="stroke:#A80036;stroke-width:1.0;"/><line style="stroke:#A80036;stroke-width:1.0;" x1="128.5" x2="514.5" y1="235.9609" y2="235.9609"/><text fill="#000000" font-family="sans-serif" font-size="13" font-weight="bold" lengthAdjust="spacing" textLength="9" x="135.5" y="230.895">5</text><text fill="#000000" font-family="sans-serif" font-size="13" lengthAdjust="spacing" textLength="155" x="148.5" y="230.895">POST /versions HTTP/1.1</text><polygon fill="#A80036" points="139.5,243.9609,129.5,247.9609,139.5,251.9609,135.5,247.9609" style="stroke:#A80036;stroke-width:1.0;"/><line style="stroke:#A80036;stroke-width:1.0;" x1="133.5" x2="519.5" y1="247.9609" y2="247.9609"/><text fill="#000000" font-family="sans-serif" font-size="13" font-weight="bold" lengthAdjust="spacing" textLength="9" x="145.5" y="261.0278">6</text><text fill="#000000" font-family="sans-serif" font-size="13" lengthAdjust="spacing" textLength="342" x="158.5" y="261.0278">HTTP/1.1 200 OK; New version-candidate details (id:2)</text><path d="M91,280.0938 L431,280.0938 L431,287.0938 L421,297.0938 L91,297.0938 L91,280.0938 " fill="#EEEEEE" style="stroke:#000000;stroke-width:1.0;"/><rect fill="none" height="104.5313" style="stroke:#000000;stroke-width:2.0;" width="525" x="91" y="280.0938"/><text fill="#000000" font-family="sans-serif" font-size="13" font-weight="bold" lengthAdjust="spacing" textLength="295" x="106" y="293.1606">registry regulations entity management</text><polygon fill="#A80036" points="508.5,314.3594,518.5,318.3594,508.5,322.3594,512.5,318.3594" style="stroke:#A80036;stroke-width:1.0;"/><line style="stroke:#A80036;stroke-width:1.0;" x1="128.5" x2="514.5" y1="318.3594" y2="318.3594"/><text fill="#000000" font-family="sans-serif" font-size="13" font-weight="bold" lengthAdjust="spacing" textLength="9" x="135.5" y="313.2935">7</text><text fill="#000000" font-family="sans-serif" font-size="13" lengthAdjust="spacing" textLength="78" x="148.5" y="313.2935">CRUD forms</text><polygon fill="#A80036" points="508.5,343.4922,518.5,347.4922,508.5,351.4922,512.5,347.4922" style="stroke:#A80036;stroke-width:1.0;"/><line style="stroke:#A80036;stroke-width:1.0;" x1="128.5" x2="514.5" y1="347.4922" y2="347.4922"/><text fill="#000000" font-family="sans-serif" font-size="13" font-weight="bold" lengthAdjust="spacing" textLength="9" x="135.5" y="342.4263">8</text><text fill="#000000" font-family="sans-serif" font-size="13" lengthAdjust="spacing" textLength="167" x="148.5" y="342.4263">CRUD business-processes</text><polygon fill="#A80036" points="508.5,372.625,518.5,376.625,508.5,380.625,512.5,376.625" style="stroke:#A80036;stroke-width:1.0;"/><line style="stroke:#A80036;stroke-width:1.0;" x1="128.5" x2="514.5" y1="376.625" y2="376.625"/><text fill="#000000" font-family="sans-serif" font-size="13" font-weight="bold" lengthAdjust="spacing" textLength="9" x="135.5" y="371.5591">9</text><text fill="#000000" font-family="sans-serif" font-size="13" lengthAdjust="spacing" textLength="109" x="148.5" y="371.5591">Read data model</text><polygon fill="#A80036" points="508.5,408.7578,518.5,412.7578,508.5,416.7578,512.5,412.7578" style="stroke:#A80036;stroke-width:1.0;"/><line style="stroke:#A80036;stroke-width:1.0;" x1="128.5" x2="514.5" y1="412.7578" y2="412.7578"/><text fill="#000000" font-family="sans-serif" font-size="13" font-weight="bold" lengthAdjust="spacing" textLength="18" x="135.5" y="407.6919">10</text><text fill="#000000" font-family="sans-serif" font-size="13" lengthAdjust="spacing" textLength="146" x="157.5" y="407.6919">GET /versions/2/rebase</text><polygon fill="#A80036" points="134.5,420.7578,124.5,424.7578,134.5,428.7578,130.5,424.7578" style="stroke:#A80036;stroke-width:1.0;"/><line style="stroke:#A80036;stroke-width:1.0;" x1="128.5" x2="524.5" y1="424.7578" y2="424.7578"/><text fill="#000000" font-family="sans-serif" font-size="13" font-weight="bold" lengthAdjust="spacing" textLength="18" x="140.5" y="437.8247">11</text><text fill="#000000" font-family="sans-serif" font-size="13" lengthAdjust="spacing" textLength="205" x="162.5" y="437.8247">HTTP/1.1 Rebase response code</text><path d="M10,456.8906 L74,456.8906 L74,463.8906 L64,473.8906 L10,473.8906 L10,456.8906 " fill="#EEEEEE" style="stroke:#000000;stroke-width:1.0;"/><rect fill="none" height="206.7344" style="stroke:#000000;stroke-width:2.0;" width="720" x="10" y="456.8906"/><text fill="#000000" font-family="sans-serif" font-size="13" font-weight="bold" lengthAdjust="spacing" textLength="19" x="25" y="469.9575">alt</text><text fill="#000000" font-family="sans-serif" font-size="11" font-weight="bold" lengthAdjust="spacing" textLength="183" x="89" y="469.1011">[rebase status code == 200]</text><polygon fill="#A80036" points="651,491.1563,661,495.1563,651,499.1563,655,495.1563" style="stroke:#A80036;stroke-width:1.0;"/><line style="stroke:#A80036;stroke-width:1.0;" x1="60.5" x2="657" y1="495.1563" y2="495.1563"/><text fill="#000000" font-family="sans-serif" font-size="13" font-weight="bold" lengthAdjust="spacing" textLength="18" x="67.5" y="490.0903">12</text><text fill="#000000" font-family="sans-serif" font-size="13" lengthAdjust="spacing" textLength="66" x="89.5" y="490.0903">Review MR</text><polygon fill="#A80036" points="656,520.2891,666,524.2891,656,528.2891,660,524.2891" style="stroke:#A80036;stroke-width:1.0;"/><line style="stroke:#A80036;stroke-width:1.0;" x1="55.5" x2="662" y1="524.2891" y2="524.2891"/><text fill="#000000" font-family="sans-serif" font-size="13" font-weight="bold" lengthAdjust="spacing" textLength="18" x="62.5" y="519.2231">13</text><text fill="#000000" font-family="sans-serif" font-size="13" lengthAdjust="spacing" textLength="76" x="84.5" y="519.2231">Approve MR</text><polygon fill="#A80036" points="513.5,549.4219,523.5,553.4219,513.5,557.4219,517.5,553.4219" style="stroke:#A80036;stroke-width:1.0;"/><line style="stroke:#A80036;stroke-width:1.0;" x1="123.5" x2="519.5" y1="553.4219" y2="553.4219"/><text fill="#000000" font-family="sans-serif" font-size="13" font-weight="bold" lengthAdjust="spacing" textLength="18" x="130.5" y="548.356">14</text><text fill="#000000" font-family="sans-serif" font-size="13" lengthAdjust="spacing" textLength="146" x="152.5" y="548.356">GET /versions/2/submit</text><polygon fill="#A80036" points="134.5,561.4219,124.5,565.4219,134.5,569.4219,130.5,565.4219" style="stroke:#A80036;stroke-width:1.0;"/><line style="stroke:#A80036;stroke-width:1.0;" x1="128.5" x2="524.5" y1="565.4219" y2="565.4219"/><text fill="#000000" font-family="sans-serif" font-size="13" font-weight="bold" lengthAdjust="spacing" textLength="18" x="140.5" y="578.4888">15</text><text fill="#000000" font-family="sans-serif" font-size="13" lengthAdjust="spacing" textLength="110" x="162.5" y="578.4888">HTTP/1.1 200 OK;</text><line style="stroke:#000000;stroke-width:1.0;stroke-dasharray:2.0,2.0;" x1="10" x2="730" y1="591.5547" y2="591.5547"/><text fill="#000000" font-family="sans-serif" font-size="11" font-weight="bold" lengthAdjust="spacing" textLength="100" x="15" y="601.7651">[have conflicts]</text><polygon fill="#A80036" points="651,622.4922,661,626.4922,651,630.4922,655,626.4922" style="stroke:#A80036;stroke-width:1.0;"/><line style="stroke:#A80036;stroke-width:1.0;" x1="128.5" x2="657" y1="626.4922" y2="626.4922"/><text fill="#000000" font-family="sans-serif" font-size="13" font-weight="bold" lengthAdjust="spacing" textLength="18" x="135.5" y="621.4263">16</text><text fill="#000000" font-family="sans-serif" font-size="13" lengthAdjust="spacing" textLength="73" x="157.5" y="621.4263">Fix conflicts</text><polygon fill="#A80036" points="656,651.625,666,655.625,656,659.625,660,655.625" style="stroke:#A80036;stroke-width:1.0;"/><line style="stroke:#A80036;stroke-width:1.0;" x1="123.5" x2="662" y1="655.625" y2="655.625"/><text fill="#000000" font-family="sans-serif" font-size="13" font-weight="bold" lengthAdjust="spacing" textLength="18" x="130.5" y="650.5591">17</text><text fill="#000000" font-family="sans-serif" font-size="13" lengthAdjust="spacing" textLength="69" x="152.5" y="650.5591">Submit MR</text><!--MD5=[d0efdca5555a9048cc1e2a5aba1fb1f3]
@startuml
autonumber
skinparam responseMessageBelowArrow true

actor "Inspector" as Inspector

actor "Client" as Client

participant "Admin portal RestAPI" as Service

participant "Gerrit WebUI" as Gerrit

activate Client

Client -> Service: GET /versions HTTP/1.1
activate Service
Client <- Service: HTTP/1.1 200 OK; List of versions

Client -> Service: GET /versions/1 HTTP/1.1
Client <- Service: HTTP/1.1 200 OK; Specific details of version-candidate 1

Client -> Service: POST /versions HTTP/1.1
Client <- Service: HTTP/1.1 200 OK; New version-candidate details (id:2)

group registry regulations entity management

Client -> Service: CRUD forms
Client -> Service: CRUD business-processes
Client -> Service: Read data model

end

Client -> Service: GET /versions/2/rebase
Client <- Service: HTTP/1.1 Rebase response code

deactivate Client
deactivate Service

alt rebase status code == 200

Inspector -> Gerrit: Review MR
activate Inspector
activate Gerrit
Inspector -> Gerrit: Approve MR
deactivate Gerrit
deactivate Inspector

Client -> Service: GET /versions/2/submit
Client <- Service: HTTP/1.1 200 OK;

else have conflicts

Client -> Gerrit: Fix conflicts
activate Client
activate Gerrit

Client -> Gerrit: Submit MR

deactivate Gerrit
deactivate Client

end
@enduml

PlantUML version 1.2021.7(Sun May 23 12:40:07 UTC 2021)
(GPL source distribution)
Java Runtime: OpenJDK Runtime Environment
JVM: OpenJDK 64-Bit Server VM
Default Encoding: UTF-8
Language: en
Country: null
--></g></svg>