<?xml version="1.0" encoding="UTF-8" standalone="no"?><svg xmlns="http://www.w3.org/2000/svg" xmlns:xlink="http://www.w3.org/1999/xlink" contentScriptType="application/ecmascript" contentStyleType="text/css" height="898px" preserveAspectRatio="none" style="width:1258px;height:898px;background:#FFFFFF;" version="1.1" viewBox="0 0 1258 898" width="1258px" zoomAndPan="magnify"><defs><filter height="300%" id="f1ihiiczoehu4t" width="300%" x="-1" y="-1"><feGaussianBlur result="blurOut" stdDeviation="2.0"/><feColorMatrix in="blurOut" result="blurOut2" type="matrix" values="0 0 0 0 0 0 0 0 0 0 0 0 0 0 0 0 0 0 .4 0"/><feOffset dx="4.0" dy="4.0" in="blurOut2" result="blurOut3"/><feBlend in="SourceGraphic" in2="blurOut3" mode="normal"/></filter></defs><g><rect fill="#FFFFFF" filter="url(#f1ihiiczoehu4t)" height="665.2813" style="stroke:#A80036;stroke-width:1.0;" width="10" x="48" y="114.5938"/><rect fill="#FFFFFF" filter="url(#f1ihiiczoehu4t)" height="585.8828" style="stroke:#A80036;stroke-width:1.0;" width="10" x="341" y="135.7266"/><rect fill="#FFFFFF" filter="url(#f1ihiiczoehu4t)" height="427.0234" style="stroke:#A80036;stroke-width:1.0;" width="10" x="566" y="323.7188"/><rect fill="#FFFFFF" filter="url(#f1ihiiczoehu4t)" height="102.5938" style="stroke:#A80036;stroke-width:1.0;" width="10" x="728" y="164.8594"/><rect fill="#FFFFFF" filter="url(#f1ihiiczoehu4t)" height="584.8828" style="stroke:#A80036;stroke-width:1.0;" width="10" x="891.5" y="203.9922"/><rect fill="#FFFFFF" filter="url(#f1ihiiczoehu4t)" height="530.5859" style="stroke:#A80036;stroke-width:1.0;" width="10" x="1079.5" y="249.2891"/><line style="stroke:#A80036;stroke-width:1.0;stroke-dasharray:5.0,5.0;" x1="53" x2="53" y1="104.5938" y2="797.875"/><line style="stroke:#A80036;stroke-width:1.0;stroke-dasharray:5.0,5.0;" x1="345.5" x2="345.5" y1="104.5938" y2="797.875"/><line style="stroke:#A80036;stroke-width:1.0;stroke-dasharray:5.0,5.0;" x1="570.5" x2="570.5" y1="325.2344" y2="797.875"/><line style="stroke:#A80036;stroke-width:1.0;stroke-dasharray:5.0,5.0;" x1="732.5" x2="732.5" y1="104.5938" y2="797.875"/><line style="stroke:#A80036;stroke-width:1.0;stroke-dasharray:5.0,5.0;" x1="896" x2="896" y1="205.5078" y2="797.875"/><line style="stroke:#A80036;stroke-width:1.0;stroke-dasharray:5.0,5.0;" x1="1084" x2="1084" y1="250.8047" y2="797.875"/><text fill="#000000" font-family="sans-serif" font-size="14" lengthAdjust="spacing" textLength="79" x="10.5" y="84.9951">Розробник</text><text fill="#000000" font-family="sans-serif" font-size="14" lengthAdjust="spacing" textLength="86" x="9" y="101.292">регламенту</text><ellipse cx="53" cy="15" fill="#FEFECE" filter="url(#f1ihiiczoehu4t)" rx="8" ry="8" style="stroke:#A80036;stroke-width:2.0;"/><path d="M53,23 L53,50 M40,31 L66,31 M53,50 L40,65 M53,50 L66,65 " fill="none" filter="url(#f1ihiiczoehu4t)" style="stroke:#A80036;stroke-width:2.0;"/><text fill="#000000" font-family="sans-serif" font-size="14" lengthAdjust="spacing" textLength="79" x="10.5" y="809.8701">Розробник</text><text fill="#000000" font-family="sans-serif" font-size="14" lengthAdjust="spacing" textLength="86" x="9" y="826.167">регламенту</text><ellipse cx="53" cy="839.4688" fill="#FEFECE" filter="url(#f1ihiiczoehu4t)" rx="8" ry="8" style="stroke:#A80036;stroke-width:2.0;"/><path d="M53,847.4688 L53,874.4688 M40,855.4688 L66,855.4688 M53,874.4688 L40,889.4688 M53,874.4688 L66,889.4688 " fill="none" filter="url(#f1ihiiczoehu4t)" style="stroke:#A80036;stroke-width:2.0;"/><rect fill="#FEFECE" filter="url(#f1ihiiczoehu4t)" height="30.2969" style="stroke:#A80036;stroke-width:1.5;" width="113" x="287.5" y="69.2969"/><text fill="#000000" font-family="sans-serif" font-size="14" lengthAdjust="spacing" textLength="99" x="294.5" y="89.292">Monaco Editor</text><rect fill="#FEFECE" filter="url(#f1ihiiczoehu4t)" height="30.2969" style="stroke:#A80036;stroke-width:1.5;" width="113" x="287.5" y="796.875"/><text fill="#000000" font-family="sans-serif" font-size="14" lengthAdjust="spacing" textLength="99" x="294.5" y="816.8701">Monaco Editor</text><rect fill="#FEFECE" filter="url(#f1ihiiczoehu4t)" height="30.2969" style="stroke:#A80036;stroke-width:1.5;" width="159" x="489.5" y="796.875"/><text fill="#000000" font-family="sans-serif" font-size="14" lengthAdjust="spacing" textLength="145" x="496.5" y="816.8701">Frontend Websocket</text><rect fill="#FEFECE" filter="url(#f1ihiiczoehu4t)" height="46.5938" style="stroke:#A80036;stroke-width:1.5;" width="137" x="662.5" y="53"/><text fill="#000000" font-family="sans-serif" font-size="14" lengthAdjust="spacing" textLength="123" x="669.5" y="72.9951">Language servers</text><text fill="#000000" font-family="sans-serif" font-size="14" lengthAdjust="spacing" textLength="85" x="690.5" y="89.292">orchestrator</text><rect fill="#FEFECE" filter="url(#f1ihiiczoehu4t)" height="46.5938" style="stroke:#A80036;stroke-width:1.5;" width="137" x="662.5" y="796.875"/><text fill="#000000" font-family="sans-serif" font-size="14" lengthAdjust="spacing" textLength="123" x="669.5" y="816.8701">Language servers</text><text fill="#000000" font-family="sans-serif" font-size="14" lengthAdjust="spacing" textLength="85" x="690.5" y="833.167">orchestrator</text><rect fill="#FEFECE" filter="url(#f1ihiiczoehu4t)" height="30.2969" style="stroke:#A80036;stroke-width:1.5;" width="157" x="816" y="796.875"/><text fill="#000000" font-family="sans-serif" font-size="14" lengthAdjust="spacing" textLength="143" x="823" y="816.8701">Backend Websocket</text><rect fill="#FEFECE" filter="url(#f1ihiiczoehu4t)" height="30.2969" style="stroke:#A80036;stroke-width:1.5;" width="129" x="1018" y="796.875"/><text fill="#000000" font-family="sans-serif" font-size="14" lengthAdjust="spacing" textLength="115" x="1025" y="816.8701">Language server</text><rect fill="#FFFFFF" filter="url(#f1ihiiczoehu4t)" height="665.2813" style="stroke:#A80036;stroke-width:1.0;" width="10" x="48" y="114.5938"/><rect fill="#FFFFFF" filter="url(#f1ihiiczoehu4t)" height="585.8828" style="stroke:#A80036;stroke-width:1.0;" width="10" x="341" y="135.7266"/><rect fill="#FFFFFF" filter="url(#f1ihiiczoehu4t)" height="427.0234" style="stroke:#A80036;stroke-width:1.0;" width="10" x="566" y="323.7188"/><rect fill="#FFFFFF" filter="url(#f1ihiiczoehu4t)" height="102.5938" style="stroke:#A80036;stroke-width:1.0;" width="10" x="728" y="164.8594"/><rect fill="#FFFFFF" filter="url(#f1ihiiczoehu4t)" height="584.8828" style="stroke:#A80036;stroke-width:1.0;" width="10" x="891.5" y="203.9922"/><rect fill="#FFFFFF" filter="url(#f1ihiiczoehu4t)" height="530.5859" style="stroke:#A80036;stroke-width:1.0;" width="10" x="1079.5" y="249.2891"/><polygon fill="#A80036" points="329,131.7266,339,135.7266,329,139.7266,333,135.7266" style="stroke:#A80036;stroke-width:1.0;"/><line style="stroke:#A80036;stroke-width:1.0;" x1="58" x2="335" y1="135.7266" y2="135.7266"/><text fill="#000000" font-family="sans-serif" font-size="13" font-weight="bold" lengthAdjust="spacing" textLength="9" x="65" y="130.6606">1</text><text fill="#000000" font-family="sans-serif" font-size="13" lengthAdjust="spacing" textLength="157" x="78" y="130.6606">open and edit document</text><polygon fill="#A80036" points="716,160.8594,726,164.8594,716,168.8594,720,164.8594" style="stroke:#A80036;stroke-width:1.0;"/><line style="stroke:#A80036;stroke-width:1.0;" x1="351" x2="722" y1="164.8594" y2="164.8594"/><text fill="#000000" font-family="sans-serif" font-size="13" font-weight="bold" lengthAdjust="spacing" textLength="9" x="358" y="159.7935">2</text><text fill="#000000" font-family="sans-serif" font-size="13" lengthAdjust="spacing" textLength="109" x="371" y="159.7935">WSS GET /groovy</text><polygon fill="#A80036" points="804,189.9922,814,193.9922,804,197.9922,808,193.9922" style="stroke:#A80036;stroke-width:1.0;"/><line style="stroke:#A80036;stroke-width:1.0;" x1="738" x2="810" y1="193.9922" y2="193.9922"/><text fill="#000000" font-family="sans-serif" font-size="13" font-weight="bold" lengthAdjust="spacing" textLength="9" x="745" y="188.9263">3</text><text fill="#000000" font-family="sans-serif" font-size="13" lengthAdjust="spacing" textLength="41" x="758" y="188.9263">create</text><rect fill="#FEFECE" filter="url(#f1ihiiczoehu4t)" height="30.2969" style="stroke:#A80036;stroke-width:1.5;" width="157" x="816" y="172.8594"/><text fill="#000000" font-family="sans-serif" font-size="14" lengthAdjust="spacing" textLength="143" x="823" y="192.8545">Backend Websocket</text><polygon fill="#A80036" points="1006,235.2891,1016,239.2891,1006,243.2891,1010,239.2891" style="stroke:#A80036;stroke-width:1.0;"/><line style="stroke:#A80036;stroke-width:1.0;" x1="738" x2="1012" y1="239.2891" y2="239.2891"/><text fill="#000000" font-family="sans-serif" font-size="13" font-weight="bold" lengthAdjust="spacing" textLength="9" x="745" y="234.2231">4</text><text fill="#000000" font-family="sans-serif" font-size="13" lengthAdjust="spacing" textLength="41" x="758" y="234.2231">create</text><rect fill="#FEFECE" filter="url(#f1ihiiczoehu4t)" height="30.2969" style="stroke:#A80036;stroke-width:1.5;" width="129" x="1018" y="218.1563"/><text fill="#000000" font-family="sans-serif" font-size="14" lengthAdjust="spacing" textLength="115" x="1025" y="238.1514">Language server</text><polygon fill="#A80036" points="362,263.4531,352,267.4531,362,271.4531,358,267.4531" style="stroke:#A80036;stroke-width:1.0;"/><line style="stroke:#A80036;stroke-width:1.0;stroke-dasharray:2.0,2.0;" x1="356" x2="732" y1="267.4531" y2="267.4531"/><text fill="#000000" font-family="sans-serif" font-size="13" font-weight="bold" lengthAdjust="spacing" textLength="9" x="368" y="280.52">5</text><text fill="#000000" font-family="sans-serif" font-size="13" lengthAdjust="spacing" textLength="67" x="381" y="280.52">websocket</text><polygon fill="#A80036" points="477.5,309.7188,487.5,313.7188,477.5,317.7188,481.5,313.7188" style="stroke:#A80036;stroke-width:1.0;"/><line style="stroke:#A80036;stroke-width:1.0;" x1="351" x2="483.5" y1="313.7188" y2="313.7188"/><text fill="#000000" font-family="sans-serif" font-size="13" font-weight="bold" lengthAdjust="spacing" textLength="9" x="358" y="308.6528">6</text><text fill="#000000" font-family="sans-serif" font-size="13" lengthAdjust="spacing" textLength="41" x="371" y="308.6528">create</text><rect fill="#FEFECE" filter="url(#f1ihiiczoehu4t)" height="30.2969" style="stroke:#A80036;stroke-width:1.5;" width="159" x="489.5" y="292.5859"/><text fill="#000000" font-family="sans-serif" font-size="14" lengthAdjust="spacing" textLength="145" x="496.5" y="312.5811">Frontend Websocket</text><polygon fill="#A80036" points="329,355.0156,339,359.0156,329,363.0156,333,359.0156" style="stroke:#A80036;stroke-width:1.0;"/><line style="stroke:#A80036;stroke-width:1.0;" x1="58" x2="335" y1="359.0156" y2="359.0156"/><text fill="#000000" font-family="sans-serif" font-size="13" font-weight="bold" lengthAdjust="spacing" textLength="9" x="65" y="353.9497">7</text><text fill="#000000" font-family="sans-serif" font-size="13" lengthAdjust="spacing" textLength="246" x="78" y="353.9497">Focus on variable using mouse pointer</text><polygon fill="#A80036" points="554,384.1484,564,388.1484,554,392.1484,558,388.1484" style="stroke:#A80036;stroke-width:1.0;"/><line style="stroke:#A80036;stroke-width:1.0;" x1="351" x2="560" y1="388.1484" y2="388.1484"/><text fill="#000000" font-family="sans-serif" font-size="13" font-weight="bold" lengthAdjust="spacing" textLength="9" x="358" y="383.0825">8</text><text fill="#000000" font-family="sans-serif" font-size="13" lengthAdjust="spacing" textLength="178" x="371" y="383.0825">[LSP] textDocument/hoover</text><polygon fill="#A80036" points="879.5,413.2813,889.5,417.2813,879.5,421.2813,883.5,417.2813" style="stroke:#A80036;stroke-width:1.0;"/><line style="stroke:#A80036;stroke-width:1.0;" x1="576" x2="885.5" y1="417.2813" y2="417.2813"/><text fill="#000000" font-family="sans-serif" font-size="13" font-weight="bold" lengthAdjust="spacing" textLength="9" x="583" y="412.2153">9</text><text fill="#000000" font-family="sans-serif" font-size="13" lengthAdjust="spacing" textLength="183" x="596" y="412.2153">[WSS] textDocument/hoover</text><polygon fill="#A80036" points="1067.5,442.4141,1077.5,446.4141,1067.5,450.4141,1071.5,446.4141" style="stroke:#A80036;stroke-width:1.0;"/><line style="stroke:#A80036;stroke-width:1.0;" x1="901.5" x2="1073.5" y1="446.4141" y2="446.4141"/><text fill="#000000" font-family="sans-serif" font-size="13" font-weight="bold" lengthAdjust="spacing" textLength="18" x="908.5" y="441.3481">10</text><text fill="#000000" font-family="sans-serif" font-size="13" lengthAdjust="spacing" textLength="132" x="930.5" y="441.3481">textDocument/hover</text><line style="stroke:#A80036;stroke-width:1.0;" x1="1089.5" x2="1131.5" y1="475.5469" y2="475.5469"/><line style="stroke:#A80036;stroke-width:1.0;" x1="1131.5" x2="1131.5" y1="475.5469" y2="488.5469"/><line style="stroke:#A80036;stroke-width:1.0;" x1="1090.5" x2="1131.5" y1="488.5469" y2="488.5469"/><polygon fill="#A80036" points="1100.5,484.5469,1090.5,488.5469,1100.5,492.5469,1096.5,488.5469" style="stroke:#A80036;stroke-width:1.0;"/><text fill="#000000" font-family="sans-serif" font-size="13" font-weight="bold" lengthAdjust="spacing" textLength="18" x="1096.5" y="470.481">11</text><text fill="#000000" font-family="sans-serif" font-size="13" lengthAdjust="spacing" textLength="133" x="1118.5" y="470.481">process hover action</text><polygon fill="#A80036" points="912.5,496.5469,902.5,500.5469,912.5,504.5469,908.5,500.5469" style="stroke:#A80036;stroke-width:1.0;"/><line style="stroke:#A80036;stroke-width:1.0;stroke-dasharray:2.0,2.0;" x1="906.5" x2="1078.5" y1="500.5469" y2="500.5469"/><text fill="#000000" font-family="sans-serif" font-size="13" font-weight="bold" lengthAdjust="spacing" textLength="18" x="918.5" y="513.6138">12</text><text fill="#000000" font-family="sans-serif" font-size="13" lengthAdjust="spacing" textLength="114" x="940.5" y="513.6138">[LSP] hover result</text><polygon fill="#A80036" points="587,525.6797,577,529.6797,587,533.6797,583,529.6797" style="stroke:#A80036;stroke-width:1.0;"/><line style="stroke:#A80036;stroke-width:1.0;stroke-dasharray:2.0,2.0;" x1="581" x2="890.5" y1="529.6797" y2="529.6797"/><text fill="#000000" font-family="sans-serif" font-size="13" font-weight="bold" lengthAdjust="spacing" textLength="18" x="593" y="542.7466">13</text><text fill="#000000" font-family="sans-serif" font-size="13" lengthAdjust="spacing" textLength="119" x="615" y="542.7466">[WSS] hover result</text><polygon fill="#A80036" points="362,554.8125,352,558.8125,362,562.8125,358,558.8125" style="stroke:#A80036;stroke-width:1.0;"/><line style="stroke:#A80036;stroke-width:1.0;stroke-dasharray:2.0,2.0;" x1="356" x2="565" y1="558.8125" y2="558.8125"/><text fill="#000000" font-family="sans-serif" font-size="13" font-weight="bold" lengthAdjust="spacing" textLength="18" x="368" y="571.8794">14</text><text fill="#000000" font-family="sans-serif" font-size="13" lengthAdjust="spacing" textLength="114" x="390" y="571.8794">[LSP] hover result</text><polygon fill="#A80036" points="69,583.9453,59,587.9453,69,591.9453,65,587.9453" style="stroke:#A80036;stroke-width:1.0;"/><line style="stroke:#A80036;stroke-width:1.0;stroke-dasharray:2.0,2.0;" x1="63" x2="340" y1="587.9453" y2="587.9453"/><text fill="#000000" font-family="sans-serif" font-size="13" font-weight="bold" lengthAdjust="spacing" textLength="18" x="75" y="601.0122">15</text><text fill="#000000" font-family="sans-serif" font-size="13" lengthAdjust="spacing" textLength="82" x="97" y="601.0122">Hover popup</text><polygon fill="#A80036" points="1067.5,630.2109,1077.5,634.2109,1067.5,638.2109,1071.5,634.2109" style="stroke:#A80036;stroke-width:1.0;"/><line style="stroke:#A80036;stroke-width:1.0;" x1="901.5" x2="1073.5" y1="634.2109" y2="634.2109"/><text fill="#000000" font-family="sans-serif" font-size="13" font-weight="bold" lengthAdjust="spacing" textLength="18" x="908.5" y="629.145">16</text><text fill="#000000" font-family="sans-serif" font-size="13" lengthAdjust="spacing" textLength="132" x="930.5" y="629.145">textDocument/hover</text><polygon fill="#A80036" points="912.5,642.2109,902.5,646.2109,912.5,650.2109,908.5,646.2109" style="stroke:#A80036;stroke-width:1.0;"/><line style="stroke:#A80036;stroke-width:1.0;stroke-dasharray:2.0,2.0;" x1="906.5" x2="1078.5" y1="646.2109" y2="646.2109"/><text fill="#000000" font-family="sans-serif" font-size="13" font-weight="bold" lengthAdjust="spacing" textLength="18" x="918.5" y="659.2778">17</text><text fill="#000000" font-family="sans-serif" font-size="13" lengthAdjust="spacing" textLength="123" x="940.5" y="659.2778">Hoover information</text><polygon fill="#A80036" points="329,688.4766,339,692.4766,329,696.4766,333,692.4766" style="stroke:#A80036;stroke-width:1.0;"/><line style="stroke:#A80036;stroke-width:1.0;" x1="58" x2="335" y1="692.4766" y2="692.4766"/><text fill="#000000" font-family="sans-serif" font-size="13" font-weight="bold" lengthAdjust="spacing" textLength="18" x="65" y="687.4106">18</text><text fill="#000000" font-family="sans-serif" font-size="13" lengthAdjust="spacing" textLength="102" x="87" y="687.4106">close document</text><polygon fill="#A80036" points="554,717.6094,564,721.6094,554,725.6094,558,721.6094" style="stroke:#A80036;stroke-width:1.0;"/><line style="stroke:#A80036;stroke-width:1.0;" x1="346" x2="560" y1="721.6094" y2="721.6094"/><text fill="#000000" font-family="sans-serif" font-size="13" font-weight="bold" lengthAdjust="spacing" textLength="18" x="353" y="716.5435">19</text><text fill="#000000" font-family="sans-serif" font-size="13" lengthAdjust="spacing" textLength="33" x="375" y="716.5435">close</text><polygon fill="#A80036" points="879.5,746.7422,889.5,750.7422,879.5,754.7422,883.5,750.7422" style="stroke:#A80036;stroke-width:1.0;"/><line style="stroke:#A80036;stroke-width:1.0;stroke-dasharray:2.0,2.0;" x1="571" x2="885.5" y1="750.7422" y2="750.7422"/><text fill="#000000" font-family="sans-serif" font-size="13" font-weight="bold" lengthAdjust="spacing" textLength="18" x="578" y="745.6763">20</text><text fill="#000000" font-family="sans-serif" font-size="13" lengthAdjust="spacing" textLength="33" x="600" y="745.6763">close</text><polygon fill="#A80036" points="1072.5,775.875,1082.5,779.875,1072.5,783.875,1076.5,779.875" style="stroke:#A80036;stroke-width:1.0;"/><line style="stroke:#A80036;stroke-width:1.0;" x1="901.5" x2="1078.5" y1="779.875" y2="779.875"/><text fill="#000000" font-family="sans-serif" font-size="13" font-weight="bold" lengthAdjust="spacing" textLength="18" x="908.5" y="774.8091">21</text><text fill="#000000" font-family="sans-serif" font-size="13" lengthAdjust="spacing" textLength="83" x="930.5" y="774.8091">close stream</text><!--MD5=[2e5f673b5f94afc983f787259b3e09c0]
@startuml
autonumber
skinparam responseMessageBelowArrow true

actor "Розробник\n регламенту" as Client

participant "Monaco Editor" as Monaco
participant "Frontend Websocket" as FEWebsocket
participant "Language servers\n orchestrator" as ServiceOrchestrator
participant "Backend Websocket" as BEWebsocket
participant "Language server" as LanguageServer

activate Client

Client -> Monaco: open and edit document
activate Monaco
Monaco -> ServiceOrchestrator: WSS GET /groovy
activate ServiceOrchestrator

ServiceOrchestrator -> BEWebsocket ** : create
activate BEWebsocket
ServiceOrchestrator -> LanguageServer ** : create
activate LanguageServer

Monaco <- - ServiceOrchestrator: websocket
deactivate ServiceOrchestrator

Monaco -> FEWebsocket ** : create
activate FEWebsocket

Client -> Monaco: Focus on variable using mouse pointer

Monaco -> FEWebsocket: [LSP] textDocument/hoover

FEWebsocket -> BEWebsocket: [WSS] textDocument/hoover

BEWebsocket -> LanguageServer: textDocument/hover
LanguageServer -> LanguageServer: process hover action
LanguageServer - -> BEWebsocket: [LSP] hover result
BEWebsocket - -> FEWebsocket: [WSS] hover result
FEWebsocket - -> Monaco: [LSP] hover result

Monaco - -> Client: Hover popup

BEWebsocket -> LanguageServer: textDocument/hover
BEWebsocket <- - LanguageServer: Hoover information

Client -> Monaco: close document

Monaco -> FEWebsocket: close
deactivate Monaco
FEWebsocket - -> BEWebsocket: close
deactivate FEWebsocket

BEWebsocket -> LanguageServer: close stream

deactivate LanguageServer

deactivate Client
@enduml

PlantUML version 1.2021.7(Sun May 23 12:40:07 UTC 2021)
(GPL source distribution)
Java Runtime: OpenJDK Runtime Environment
JVM: OpenJDK 64-Bit Server VM
Default Encoding: UTF-8
Language: en
Country: null
--></g></svg>