<?xml version="1.0" encoding="UTF-8" standalone="no"?><svg xmlns="http://www.w3.org/2000/svg" xmlns:xlink="http://www.w3.org/1999/xlink" contentScriptType="application/ecmascript" contentStyleType="text/css" height="202px" preserveAspectRatio="none" style="width:590px;height:202px;background:#FFFFFF;" version="1.1" viewBox="0 0 590 202" width="590px" zoomAndPan="magnify"><defs><filter height="300%" id="fe13gnedpuvpp" width="300%" x="-1" y="-1"><feGaussianBlur result="blurOut" stdDeviation="2.0"/><feColorMatrix in="blurOut" result="blurOut2" type="matrix" values="0 0 0 0 0 0 0 0 0 0 0 0 0 0 0 0 0 0 .4 0"/><feOffset dx="4.0" dy="4.0" in="blurOut2" result="blurOut3"/><feBlend in="SourceGraphic" in2="blurOut3" mode="normal"/></filter></defs><g><!--MD5=[73ddb4f63b29484386a9c08542b879f4]
class AbstractBpmnParseListener--><rect codeLine="1" fill="#FEFECE" filter="url(#fe13gnedpuvpp)" height="60.8047" id="AbstractBpmnParseListener" style="stroke:#A80036;stroke-width:1.5;" width="206" x="51" y="7"/><ellipse cx="66" cy="23" fill="#ADD1B2" rx="11" ry="11" style="stroke:#A80036;stroke-width:1.0;"/><path d="M68.9688,28.6406 Q68.3906,28.9375 67.75,29.0781 Q67.1094,29.2344 66.4063,29.2344 Q63.9063,29.2344 62.5781,27.5938 Q61.2656,25.9375 61.2656,22.8125 Q61.2656,19.6875 62.5781,18.0313 Q63.9063,16.375 66.4063,16.375 Q67.1094,16.375 67.75,16.5313 Q68.4063,16.6875 68.9688,16.9844 L68.9688,19.7031 Q68.3438,19.125 67.75,18.8594 Q67.1563,18.5781 66.5313,18.5781 Q65.1875,18.5781 64.5,19.6563 Q63.8125,20.7188 63.8125,22.8125 Q63.8125,24.9063 64.5,25.9844 Q65.1875,27.0469 66.5313,27.0469 Q67.1563,27.0469 67.75,26.7813 Q68.3438,26.5 68.9688,25.9219 L68.9688,28.6406 Z " fill="#000000"/><text fill="#000000" font-family="sans-serif" font-size="12" lengthAdjust="spacing" textLength="174" x="80" y="27.1543">AbstractBpmnParseListener</text><line style="stroke:#A80036;stroke-width:1.5;" x1="52" x2="256" y1="39" y2="39"/><line style="stroke:#A80036;stroke-width:1.5;" x1="52" x2="256" y1="47" y2="47"/><text fill="#000000" font-family="sans-serif" font-size="11" lengthAdjust="spacing" textLength="95" x="57" y="61.2104">parseUserTask()</text><!--MD5=[7fb4d2ef619a14f9e0140d67e29ba253]
class CamundaSystemVariablesSupportListener--><rect codeLine="5" fill="#ADD8E6" filter="url(#fe13gnedpuvpp)" height="60.8047" id="CamundaSystemVariablesSupportListener" style="stroke:#008000;stroke-width:1.5;" width="294" x="7" y="128"/><ellipse cx="22" cy="144" fill="#ADD1B2" rx="11" ry="11" style="stroke:#008000;stroke-width:1.0;"/><path d="M24.9688,149.6406 Q24.3906,149.9375 23.75,150.0781 Q23.1094,150.2344 22.4063,150.2344 Q19.9063,150.2344 18.5781,148.5938 Q17.2656,146.9375 17.2656,143.8125 Q17.2656,140.6875 18.5781,139.0313 Q19.9063,137.375 22.4063,137.375 Q23.1094,137.375 23.75,137.5313 Q24.4063,137.6875 24.9688,137.9844 L24.9688,140.7031 Q24.3438,140.125 23.75,139.8594 Q23.1563,139.5781 22.5313,139.5781 Q21.1875,139.5781 20.5,140.6563 Q19.8125,141.7188 19.8125,143.8125 Q19.8125,145.9063 20.5,146.9844 Q21.1875,148.0469 22.5313,148.0469 Q23.1563,148.0469 23.75,147.7813 Q24.3438,147.5 24.9688,146.9219 L24.9688,149.6406 Z " fill="#000000"/><text fill="#000000" font-family="sans-serif" font-size="12" lengthAdjust="spacing" textLength="262" x="36" y="148.1543">CamundaSystemVariablesSupportListener</text><line style="stroke:#008000;stroke-width:1.5;" x1="8" x2="300" y1="160" y2="160"/><line style="stroke:#008000;stroke-width:1.5;" x1="8" x2="300" y1="168" y2="168"/><text fill="#000000" font-family="sans-serif" font-size="11" lengthAdjust="spacing" textLength="95" x="13" y="182.2104">parseUserTask()</text><!--MD5=[f07a6b9028fecad46d8107b21f4f9098]
class TaskListener--><rect codeLine="9" fill="#FEFECE" filter="url(#fe13gnedpuvpp)" height="60.8047" id="TaskListener" style="stroke:#A80036;stroke-width:1.5;" width="128" x="392" y="7"/><ellipse cx="414.65" cy="23" fill="#B4A7E5" rx="11" ry="11" style="stroke:#A80036;stroke-width:1.0;"/><path d="M410.5719,18.7656 L410.5719,16.6094 L417.9625,16.6094 L417.9625,18.7656 L415.4938,18.7656 L415.4938,26.8438 L417.9625,26.8438 L417.9625,29 L410.5719,29 L410.5719,26.8438 L413.0406,26.8438 L413.0406,18.7656 L410.5719,18.7656 Z " fill="#000000"/><text fill="#000000" font-family="sans-serif" font-size="12" font-style="italic" lengthAdjust="spacing" textLength="79" x="430.35" y="27.1543">TaskListener</text><line style="stroke:#A80036;stroke-width:1.5;" x1="393" x2="519" y1="39" y2="39"/><line style="stroke:#A80036;stroke-width:1.5;" x1="393" x2="519" y1="47" y2="47"/><text fill="#000000" font-family="sans-serif" font-size="11" lengthAdjust="spacing" textLength="116" x="398" y="61.2104">notify(DelegateTask)</text><!--MD5=[1af19cd4b85a46a64401b0f01da4275b]
class PutFormDataToCephTaskListener--><rect codeLine="13" fill="#ADD8E6" filter="url(#fe13gnedpuvpp)" height="60.8047" id="PutFormDataToCephTaskListener" style="stroke:#008000;stroke-width:1.5;" width="240" x="336" y="128"/><ellipse cx="351" cy="144" fill="#ADD1B2" rx="11" ry="11" style="stroke:#008000;stroke-width:1.0;"/><path d="M353.9688,149.6406 Q353.3906,149.9375 352.75,150.0781 Q352.1094,150.2344 351.4063,150.2344 Q348.9063,150.2344 347.5781,148.5938 Q346.2656,146.9375 346.2656,143.8125 Q346.2656,140.6875 347.5781,139.0313 Q348.9063,137.375 351.4063,137.375 Q352.1094,137.375 352.75,137.5313 Q353.4063,137.6875 353.9688,137.9844 L353.9688,140.7031 Q353.3438,140.125 352.75,139.8594 Q352.1563,139.5781 351.5313,139.5781 Q350.1875,139.5781 349.5,140.6563 Q348.8125,141.7188 348.8125,143.8125 Q348.8125,145.9063 349.5,146.9844 Q350.1875,148.0469 351.5313,148.0469 Q352.1563,148.0469 352.75,147.7813 Q353.3438,147.5 353.9688,146.9219 L353.9688,149.6406 Z " fill="#000000"/><text fill="#000000" font-family="sans-serif" font-size="12" lengthAdjust="spacing" textLength="208" x="365" y="148.1543">PutFormDataToCephTaskListener</text><line style="stroke:#008000;stroke-width:1.5;" x1="337" x2="575" y1="160" y2="160"/><line style="stroke:#008000;stroke-width:1.5;" x1="337" x2="575" y1="168" y2="168"/><text fill="#000000" font-family="sans-serif" font-size="11" lengthAdjust="spacing" textLength="143" x="342" y="182.2104">void notify(DelegateTask)</text><!--MD5=[821cc3d72b4c0662a01f85ff1f765faa]
reverse link AbstractBpmnParseListener to CamundaSystemVariablesSupportListener--><path d="M154,88.33 C154,101.73 154,115.81 154,127.74 " fill="none" id="AbstractBpmnParseListener-backto-CamundaSystemVariablesSupportListener" style="stroke:#A80036;stroke-width:1.0;"/><polygon fill="none" points="147,88.22,154,68.22,161,88.22,147,88.22" style="stroke:#A80036;stroke-width:1.0;"/><!--MD5=[4ef48ac354150afb3f87cc7570466783]
reverse link TaskListener to PutFormDataToCephTaskListener--><path d="M456,88.33 C456,101.73 456,115.81 456,127.74 " fill="none" id="TaskListener-backto-PutFormDataToCephTaskListener" style="stroke:#A80036;stroke-width:1.0;stroke-dasharray:7.0,7.0;"/><polygon fill="none" points="449,88.22,456,68.22,463,88.22,449,88.22" style="stroke:#A80036;stroke-width:1.0;"/><!--MD5=[82bcfd4a03ec4f628597321985961751]
reverse link CamundaSystemVariablesSupportListener to PutFormDataToCephTaskListener--><path codeLine="17" d="M314.21,158.5 C321.45,158.5 328.7,158.5 335.94,158.5 " fill="none" id="CamundaSystemVariablesSupportListener-backto-PutFormDataToCephTaskListener" style="stroke:#A80036;stroke-width:1.0;"/><polygon fill="#FFFFFF" points="301.17,158.5,307.17,162.5,313.17,158.5,307.17,154.5,301.17,158.5" style="stroke:#A80036;stroke-width:1.0;"/><!--MD5=[ce8fc30eabbddf74f1ae42173dacdfaf]
@startuml
class AbstractBpmnParseListener {
  parseUserTask()
}

class CamundaSystemVariablesSupportListener #back:lightblue;line:green;text:black extends AbstractBpmnParseListener {
  parseUserTask()
}

interface TaskListener {
  notify(DelegateTask)
}

class PutFormDataToCephTaskListener #back:lightblue;line:green;text:black implements TaskListener {
  void notify(DelegateTask)
}

CamundaSystemVariablesSupportListener o- PutFormDataToCephTaskListener
@enduml

PlantUML version 1.2021.7(Sun May 23 12:40:07 UTC 2021)
(GPL source distribution)
Java Runtime: OpenJDK Runtime Environment
JVM: OpenJDK 64-Bit Server VM
Default Encoding: UTF-8
Language: en
Country: null
--></g></svg>