<?xml version="1.0" encoding="UTF-8" standalone="no"?><svg xmlns="http://www.w3.org/2000/svg" xmlns:xlink="http://www.w3.org/1999/xlink" contentScriptType="application/ecmascript" contentStyleType="text/css" height="554px" preserveAspectRatio="none" style="width:1255px;height:554px;background:#FFFFFF;" version="1.1" viewBox="0 0 1255 554" width="1255px" zoomAndPan="magnify"><defs><filter height="300%" id="f1ltyj1n3o9m4f" width="300%" x="-1" y="-1"><feGaussianBlur result="blurOut" stdDeviation="2.0"/><feColorMatrix in="blurOut" result="blurOut2" type="matrix" values="0 0 0 0 0 0 0 0 0 0 0 0 0 0 0 0 0 0 .4 0"/><feOffset dx="4.0" dy="4.0" in="blurOut2" result="blurOut3"/><feBlend in="SourceGraphic" in2="blurOut3" mode="normal"/></filter></defs><g><line style="stroke:#A80036;stroke-width:1.0;stroke-dasharray:5.0,5.0;" x1="129" x2="129" y1="88.2969" y2="469.8906"/><line style="stroke:#A80036;stroke-width:1.0;stroke-dasharray:5.0,5.0;" x1="364" x2="364" y1="88.2969" y2="469.8906"/><line style="stroke:#A80036;stroke-width:1.0;stroke-dasharray:5.0,5.0;" x1="603.5" x2="603.5" y1="88.2969" y2="469.8906"/><line style="stroke:#A80036;stroke-width:1.0;stroke-dasharray:5.0,5.0;" x1="801.5" x2="801.5" y1="88.2969" y2="469.8906"/><line style="stroke:#A80036;stroke-width:1.0;stroke-dasharray:5.0,5.0;" x1="1011" x2="1011" y1="88.2969" y2="469.8906"/><line style="stroke:#A80036;stroke-width:1.0;stroke-dasharray:5.0,5.0;" x1="1178" x2="1178" y1="88.2969" y2="469.8906"/><text fill="#000000" font-family="sans-serif" font-size="14" lengthAdjust="spacing" textLength="243" x="5" y="84.9951">Технічний адміністратор реєстру</text><ellipse cx="129.5" cy="15" fill="#FEFECE" filter="url(#f1ltyj1n3o9m4f)" rx="8" ry="8" style="stroke:#A80036;stroke-width:2.0;"/><path d="M129.5,23 L129.5,50 M116.5,31 L142.5,31 M129.5,50 L116.5,65 M129.5,50 L142.5,65 " fill="none" filter="url(#f1ltyj1n3o9m4f)" style="stroke:#A80036;stroke-width:2.0;"/><text fill="#000000" font-family="sans-serif" font-size="14" lengthAdjust="spacing" textLength="243" x="5" y="481.8857">Технічний адміністратор реєстру</text><ellipse cx="129.5" cy="495.1875" fill="#FEFECE" filter="url(#f1ltyj1n3o9m4f)" rx="8" ry="8" style="stroke:#A80036;stroke-width:2.0;"/><path d="M129.5,503.1875 L129.5,530.1875 M116.5,511.1875 L142.5,511.1875 M129.5,530.1875 L116.5,545.1875 M129.5,530.1875 L142.5,545.1875 " fill="none" filter="url(#f1ltyj1n3o9m4f)" style="stroke:#A80036;stroke-width:2.0;"/><rect fill="#FEFECE" filter="url(#f1ltyj1n3o9m4f)" height="30.2969" style="stroke:#A80036;stroke-width:1.5;" width="196" x="264" y="53"/><text fill="#000000" font-family="sans-serif" font-size="14" lengthAdjust="spacing" textLength="182" x="271" y="72.9951">Інтерфейс адмін-консолі</text><rect fill="#FEFECE" filter="url(#f1ltyj1n3o9m4f)" height="30.2969" style="stroke:#A80036;stroke-width:1.5;" width="196" x="264" y="468.8906"/><text fill="#000000" font-family="sans-serif" font-size="14" lengthAdjust="spacing" textLength="182" x="271" y="488.8857">Інтерфейс адмін-консолі</text><rect fill="#FEFECE" filter="url(#f1ltyj1n3o9m4f)" height="46.5938" style="stroke:#A80036;stroke-width:1.5;" width="205" x="499.5" y="36.7031"/><text fill="#000000" font-family="sans-serif" font-size="14" lengthAdjust="spacing" textLength="191" x="506.5" y="56.6982">Система контролю версій</text><text fill="#000000" font-family="sans-serif" font-size="14" lengthAdjust="spacing" textLength="38" x="583" y="72.9951">Gerrit</text><rect fill="#FEFECE" filter="url(#f1ltyj1n3o9m4f)" height="46.5938" style="stroke:#A80036;stroke-width:1.5;" width="205" x="499.5" y="468.8906"/><text fill="#000000" font-family="sans-serif" font-size="14" lengthAdjust="spacing" textLength="191" x="506.5" y="488.8857">Система контролю версій</text><text fill="#000000" font-family="sans-serif" font-size="14" lengthAdjust="spacing" textLength="38" x="583" y="505.1826">Gerrit</text><rect fill="#FEFECE" filter="url(#f1ltyj1n3o9m4f)" height="46.5938" style="stroke:#A80036;stroke-width:1.5;" width="162" x="718.5" y="36.7031"/><text fill="#000000" font-family="sans-serif" font-size="14" lengthAdjust="spacing" textLength="145" x="727" y="56.6982">Сервіс розгортання</text><text fill="#000000" font-family="sans-serif" font-size="14" lengthAdjust="spacing" textLength="148" x="725.5" y="72.9951">конфігурацій Jenkins</text><rect fill="#FEFECE" filter="url(#f1ltyj1n3o9m4f)" height="46.5938" style="stroke:#A80036;stroke-width:1.5;" width="162" x="718.5" y="468.8906"/><text fill="#000000" font-family="sans-serif" font-size="14" lengthAdjust="spacing" textLength="145" x="727" y="488.8857">Сервіс розгортання</text><text fill="#000000" font-family="sans-serif" font-size="14" lengthAdjust="spacing" textLength="148" x="725.5" y="505.1826">конфігурацій Jenkins</text><rect fill="#FEFECE" filter="url(#f1ltyj1n3o9m4f)" height="30.2969" style="stroke:#A80036;stroke-width:1.5;" width="177" x="921" y="53"/><text fill="#000000" font-family="sans-serif" font-size="14" lengthAdjust="spacing" textLength="163" x="928" y="72.9951">bp-webservice-gateway</text><rect fill="#FEFECE" filter="url(#f1ltyj1n3o9m4f)" height="30.2969" style="stroke:#A80036;stroke-width:1.5;" width="177" x="921" y="468.8906"/><text fill="#000000" font-family="sans-serif" font-size="14" lengthAdjust="spacing" textLength="163" x="928" y="488.8857">bp-webservice-gateway</text><rect fill="#FEFECE" filter="url(#f1ltyj1n3o9m4f)" height="30.2969" style="stroke:#A80036;stroke-width:1.5;" width="129" x="1112" y="53"/><text fill="#000000" font-family="sans-serif" font-size="14" lengthAdjust="spacing" textLength="115" x="1119" y="72.9951">registry-soap-api</text><rect fill="#FEFECE" filter="url(#f1ltyj1n3o9m4f)" height="30.2969" style="stroke:#A80036;stroke-width:1.5;" width="129" x="1112" y="468.8906"/><text fill="#000000" font-family="sans-serif" font-size="14" lengthAdjust="spacing" textLength="115" x="1119" y="488.8857">registry-soap-api</text><polygon fill="#A80036" points="352,130.5625,362,134.5625,352,138.5625,356,134.5625" style="stroke:#A80036;stroke-width:1.0;"/><line style="stroke:#A80036;stroke-width:1.0;" x1="129.5" x2="358" y1="134.5625" y2="134.5625"/><ellipse cx="142" cy="109.9297" fill="#000000" rx="2.5" ry="2.5" style="stroke:#000000;stroke-width:0.0;"/><text fill="#000000" font-family="sans-serif" font-size="13" lengthAdjust="spacing" textLength="182" x="147.5" y="114.3638">ввімкнення доступу до API</text><ellipse cx="142" cy="125.0625" fill="#000000" rx="2.5" ry="2.5" style="stroke:#000000;stroke-width:0.0;"/><text fill="#000000" font-family="sans-serif" font-size="13" lengthAdjust="spacing" textLength="112" x="147.5" y="129.4966">перелік IP-адрес</text><line style="stroke:#A80036;stroke-width:1.0;" x1="364" x2="406" y1="163.6953" y2="163.6953"/><line style="stroke:#A80036;stroke-width:1.0;" x1="406" x2="406" y1="163.6953" y2="176.6953"/><line style="stroke:#A80036;stroke-width:1.0;" x1="365" x2="406" y1="176.6953" y2="176.6953"/><polygon fill="#A80036" points="375,172.6953,365,176.6953,375,180.6953,371,176.6953" style="stroke:#A80036;stroke-width:1.0;"/><text fill="#000000" font-family="sans-serif" font-size="13" lengthAdjust="spacing" textLength="126" x="371" y="158.6294">валідація IP-адрес</text><polygon fill="#A80036" points="140.5,201.8281,130.5,205.8281,140.5,209.8281,136.5,205.8281" style="stroke:#A80036;stroke-width:1.0;"/><line style="stroke:#A80036;stroke-width:1.0;stroke-dasharray:2.0,2.0;" x1="134.5" x2="363" y1="205.8281" y2="205.8281"/><text fill="#000000" font-family="sans-serif" font-size="13" lengthAdjust="spacing" textLength="179" x="146.5" y="200.7622">валідаційне повідомлення</text><polygon fill="#A80036" points="592,230.9609,602,234.9609,592,238.9609,596,234.9609" style="stroke:#A80036;stroke-width:1.0;"/><line style="stroke:#A80036;stroke-width:1.0;" x1="364" x2="598" y1="234.9609" y2="234.9609"/><text fill="#000000" font-family="sans-serif" font-size="13" lengthAdjust="spacing" textLength="152" x="371" y="229.895">оновлення values.yaml</text><polygon fill="#A80036" points="375,260.0938,365,264.0938,375,268.0938,371,264.0938" style="stroke:#A80036;stroke-width:1.0;"/><line style="stroke:#A80036;stroke-width:1.0;stroke-dasharray:2.0,2.0;" x1="369" x2="603" y1="264.0938" y2="264.0938"/><text fill="#000000" font-family="sans-serif" font-size="13" lengthAdjust="spacing" textLength="216" x="381" y="259.0278">запит створено та інтегровано</text><polygon fill="#A80036" points="789.5,289.2266,799.5,293.2266,789.5,297.2266,793.5,293.2266" style="stroke:#A80036;stroke-width:1.0;"/><line style="stroke:#A80036;stroke-width:1.0;" x1="604" x2="795.5" y1="293.2266" y2="293.2266"/><ellipse cx="616.5" cy="283.7266" fill="#000000" rx="2.5" ry="2.5" style="stroke:#000000;stroke-width:0.0;"/><text fill="#000000" font-family="sans-serif" font-size="13" lengthAdjust="spacing" textLength="112" x="622" y="288.1606">перелік IP-адрес</text><line style="stroke:#A80036;stroke-width:1.0;" x1="801.5" x2="843.5" y1="322.3594" y2="322.3594"/><line style="stroke:#A80036;stroke-width:1.0;" x1="843.5" x2="843.5" y1="322.3594" y2="335.3594"/><line style="stroke:#A80036;stroke-width:1.0;" x1="802.5" x2="843.5" y1="335.3594" y2="335.3594"/><polygon fill="#A80036" points="812.5,331.3594,802.5,335.3594,812.5,339.3594,808.5,335.3594" style="stroke:#A80036;stroke-width:1.0;"/><text fill="#000000" font-family="sans-serif" font-size="13" lengthAdjust="spacing" textLength="126" x="808.5" y="317.2935">валідація IP-адрес</text><polygon fill="#A80036" points="140.5,360.4922,130.5,364.4922,140.5,368.4922,136.5,364.4922" style="stroke:#A80036;stroke-width:1.0;"/><line style="stroke:#A80036;stroke-width:1.0;stroke-dasharray:2.0,2.0;" x1="134.5" x2="800.5" y1="364.4922" y2="364.4922"/><text fill="#000000" font-family="sans-serif" font-size="13" lengthAdjust="spacing" textLength="179" x="146.5" y="359.4263">валідаційне повідомлення</text><polygon fill="#A80036" points="999.5,389.625,1009.5,393.625,999.5,397.625,1003.5,393.625" style="stroke:#A80036;stroke-width:1.0;"/><line style="stroke:#A80036;stroke-width:1.0;" x1="801.5" x2="1005.5" y1="393.625" y2="393.625"/><ellipse cx="814" cy="384.125" fill="#000000" rx="2.5" ry="2.5" style="stroke:#000000;stroke-width:0.0;"/><text fill="#000000" font-family="sans-serif" font-size="13" lengthAdjust="spacing" textLength="175" x="819.5" y="388.5591">розгортання конфігурації</text><polygon fill="#A80036" points="1166.5,418.7578,1176.5,422.7578,1166.5,426.7578,1170.5,422.7578" style="stroke:#A80036;stroke-width:1.0;"/><line style="stroke:#A80036;stroke-width:1.0;" x1="801.5" x2="1172.5" y1="422.7578" y2="422.7578"/><ellipse cx="814" cy="413.2578" fill="#000000" rx="2.5" ry="2.5" style="stroke:#000000;stroke-width:0.0;"/><text fill="#000000" font-family="sans-serif" font-size="13" lengthAdjust="spacing" textLength="175" x="819.5" y="417.6919">розгортання конфігурації</text><polygon fill="#A80036" points="140.5,447.8906,130.5,451.8906,140.5,455.8906,136.5,451.8906" style="stroke:#A80036;stroke-width:1.0;"/><line style="stroke:#A80036;stroke-width:1.0;stroke-dasharray:2.0,2.0;" x1="134.5" x2="800.5" y1="451.8906" y2="451.8906"/><text fill="#000000" font-family="sans-serif" font-size="13" lengthAdjust="spacing" textLength="226" x="146.5" y="446.8247">статус розгортання конфігурації</text><!--MD5=[cefeeda7f8959eff75f22d4481f6c231]
@startuml
actor "Технічний адміністратор реєстру" as admin
participant "Інтерфейс адмін-консолі" as cp
participant "Система контролю версій\nGerrit" as vcs
participant "Сервіс розгортання\nконфігурацій Jenkins" as jenkins
participant "bp-webservice-gateway" as gateway
participant "registry-soap-api" as soap
admin -> cp: * ввімкнення доступу до API\n*перелік IP-адрес
cp -> cp: валідація IP-адрес
cp - -> admin: валідаційне повідомлення
cp -> vcs: оновлення values.yaml
return запит створено та інтегровано
vcs -> jenkins: *перелік IP-адрес
jenkins -> jenkins: валідація IP-адрес
jenkins - -> admin: валідаційне повідомлення
jenkins -> gateway: *розгортання конфігурації
jenkins -> soap: *розгортання конфігурації
jenkins - -> admin: статус розгортання конфігурації
@enduml

PlantUML version 1.2021.7(Sun May 23 12:40:07 UTC 2021)
(GPL source distribution)
Java Runtime: OpenJDK Runtime Environment
JVM: OpenJDK 64-Bit Server VM
Default Encoding: UTF-8
Language: en
Country: null
--></g></svg>