<?xml version="1.0" encoding="UTF-8" standalone="no"?><svg xmlns="http://www.w3.org/2000/svg" xmlns:xlink="http://www.w3.org/1999/xlink" contentScriptType="application/ecmascript" contentStyleType="text/css" height="506px" preserveAspectRatio="none" style="width:863px;height:506px;background:#FFFFFF;" version="1.1" viewBox="0 0 863 506" width="863px" zoomAndPan="magnify"><defs><filter height="300%" id="faghnza18wpll" width="300%" x="-1" y="-1"><feGaussianBlur result="blurOut" stdDeviation="2.0"/><feColorMatrix in="blurOut" result="blurOut2" type="matrix" values="0 0 0 0 0 0 0 0 0 0 0 0 0 0 0 0 0 0 .4 0"/><feOffset dx="4.0" dy="4.0" in="blurOut2" result="blurOut3"/><feBlend in="SourceGraphic" in2="blurOut3" mode="normal"/></filter></defs><g><rect fill="#FFFFFF" filter="url(#faghnza18wpll)" height="105.6641" style="stroke:#000000;stroke-width:2.0;" width="631.5" x="218" y="180.9922"/><line style="stroke:#A80036;stroke-width:1.0;stroke-dasharray:5.0,5.0;" x1="98" x2="98" y1="104.5938" y2="406.1875"/><line style="stroke:#A80036;stroke-width:1.0;stroke-dasharray:5.0,5.0;" x1="328" x2="328" y1="104.5938" y2="406.1875"/><line style="stroke:#A80036;stroke-width:1.0;stroke-dasharray:5.0,5.0;" x1="575.5" x2="575.5" y1="104.5938" y2="406.1875"/><line style="stroke:#A80036;stroke-width:1.0;stroke-dasharray:5.0,5.0;" x1="764.5" x2="764.5" y1="104.5938" y2="406.1875"/><text fill="#000000" font-family="sans-serif" font-size="14" lengthAdjust="spacing" textLength="180" x="5" y="84.9951">Технічний адміністратор</text><text fill="#000000" font-family="sans-serif" font-size="14" lengthAdjust="spacing" textLength="59" x="65.5" y="101.292">реєстру</text><ellipse cx="98" cy="15" fill="#FEFECE" filter="url(#faghnza18wpll)" rx="8" ry="8" style="stroke:#A80036;stroke-width:2.0;"/><path d="M98,23 L98,50 M85,31 L111,31 M98,50 L85,65 M98,50 L111,65 " fill="none" filter="url(#faghnza18wpll)" style="stroke:#A80036;stroke-width:2.0;"/><text fill="#000000" font-family="sans-serif" font-size="14" lengthAdjust="spacing" textLength="180" x="5" y="418.1826">Технічний адміністратор</text><text fill="#000000" font-family="sans-serif" font-size="14" lengthAdjust="spacing" textLength="59" x="65.5" y="434.4795">реєстру</text><ellipse cx="98" cy="447.7813" fill="#FEFECE" filter="url(#faghnza18wpll)" rx="8" ry="8" style="stroke:#A80036;stroke-width:2.0;"/><path d="M98,455.7813 L98,482.7813 M85,463.7813 L111,463.7813 M98,482.7813 L85,497.7813 M98,482.7813 L111,497.7813 " fill="none" filter="url(#faghnza18wpll)" style="stroke:#A80036;stroke-width:2.0;"/><rect fill="#FEFECE" filter="url(#faghnza18wpll)" height="30.2969" style="stroke:#A80036;stroke-width:1.5;" width="196" x="228" y="69.2969"/><text fill="#000000" font-family="sans-serif" font-size="14" lengthAdjust="spacing" textLength="182" x="235" y="89.292">Інтерфейс адмін-консолі</text><rect fill="#FEFECE" filter="url(#faghnza18wpll)" height="30.2969" style="stroke:#A80036;stroke-width:1.5;" width="196" x="228" y="405.1875"/><text fill="#000000" font-family="sans-serif" font-size="14" lengthAdjust="spacing" textLength="182" x="235" y="425.1826">Інтерфейс адмін-консолі</text><rect fill="#FEFECE" filter="url(#faghnza18wpll)" height="30.2969" style="stroke:#A80036;stroke-width:1.5;" width="205" x="471.5" y="69.2969"/><text fill="#000000" font-family="sans-serif" font-size="14" lengthAdjust="spacing" textLength="191" x="478.5" y="89.292">Система контролю версій</text><rect fill="#FEFECE" filter="url(#faghnza18wpll)" height="30.2969" style="stroke:#A80036;stroke-width:1.5;" width="205" x="471.5" y="405.1875"/><text fill="#000000" font-family="sans-serif" font-size="14" lengthAdjust="spacing" textLength="191" x="478.5" y="425.1826">Система контролю версій</text><rect fill="#FEFECE" filter="url(#faghnza18wpll)" height="46.5938" style="stroke:#A80036;stroke-width:1.5;" width="145" x="690.5" y="53"/><text fill="#000000" font-family="sans-serif" font-size="14" lengthAdjust="spacing" textLength="90" x="718" y="72.9951">Центральне</text><text fill="#000000" font-family="sans-serif" font-size="14" lengthAdjust="spacing" textLength="131" x="697.5" y="89.292">сховище секретів</text><rect fill="#FEFECE" filter="url(#faghnza18wpll)" height="46.5938" style="stroke:#A80036;stroke-width:1.5;" width="145" x="690.5" y="405.1875"/><text fill="#000000" font-family="sans-serif" font-size="14" lengthAdjust="spacing" textLength="90" x="718" y="425.1826">Центральне</text><text fill="#000000" font-family="sans-serif" font-size="14" lengthAdjust="spacing" textLength="131" x="697.5" y="441.4795">сховище секретів</text><polygon fill="#A80036" points="316,161.9922,326,165.9922,316,169.9922,320,165.9922" style="stroke:#A80036;stroke-width:1.0;"/><line style="stroke:#A80036;stroke-width:1.0;" x1="98" x2="322" y1="165.9922" y2="165.9922"/><text fill="#000000" font-family="sans-serif" font-size="13" lengthAdjust="spacing" textLength="174" x="105" y="130.6606">змінна аутентифікаційної</text><text fill="#000000" font-family="sans-serif" font-size="13" lengthAdjust="spacing" textLength="125" x="105" y="145.7935">послідовності для</text><text fill="#000000" font-family="sans-serif" font-size="13" lengthAdjust="spacing" textLength="175" x="105" y="160.9263">кабінету посадової особи</text><path d="M218,180.9922 L282,180.9922 L282,187.9922 L272,197.9922 L218,197.9922 L218,180.9922 " fill="#EEEEEE" style="stroke:#000000;stroke-width:1.0;"/><rect fill="none" height="105.6641" style="stroke:#000000;stroke-width:2.0;" width="631.5" x="218" y="180.9922"/><text fill="#000000" font-family="sans-serif" font-size="13" font-weight="bold" lengthAdjust="spacing" textLength="19" x="233" y="194.0591">alt</text><text fill="#000000" font-family="sans-serif" font-size="11" font-weight="bold" lengthAdjust="spacing" textLength="69" x="297" y="193.2026">[id.gov.ua]</text><polygon fill="#A80036" points="753,245.5234,763,249.5234,753,253.5234,757,249.5234" style="stroke:#A80036;stroke-width:1.0;"/><line style="stroke:#A80036;stroke-width:1.0;" x1="328" x2="759" y1="249.5234" y2="249.5234"/><text fill="#000000" font-family="sans-serif" font-size="13" lengthAdjust="spacing" textLength="83" x="335" y="214.1919">збереження</text><text fill="#000000" font-family="sans-serif" font-size="13" lengthAdjust="spacing" textLength="164" x="335" y="229.3247">ідентифікатора клієнта</text><text fill="#000000" font-family="sans-serif" font-size="13" lengthAdjust="spacing" textLength="170" x="335" y="244.4575">та клієнтського секрета</text><polygon fill="#A80036" points="339,274.6563,329,278.6563,339,282.6563,335,278.6563" style="stroke:#A80036;stroke-width:1.0;"/><line style="stroke:#A80036;stroke-width:1.0;stroke-dasharray:2.0,2.0;" x1="333" x2="764" y1="278.6563" y2="278.6563"/><text fill="#000000" font-family="sans-serif" font-size="13" lengthAdjust="spacing" textLength="131" x="345" y="273.5903">успішно збережено</text><polygon fill="#A80036" points="564,325.9219,574,329.9219,564,333.9219,568,329.9219" style="stroke:#A80036;stroke-width:1.0;"/><line style="stroke:#A80036;stroke-width:1.0;" x1="328" x2="570" y1="329.9219" y2="329.9219"/><text fill="#000000" font-family="sans-serif" font-size="13" lengthAdjust="spacing" textLength="110" x="335" y="309.7231">зміна посилання</text><text fill="#000000" font-family="sans-serif" font-size="13" lengthAdjust="spacing" textLength="181" x="335" y="324.856">до ресурсу аутентифікації</text><polygon fill="#A80036" points="339,355.0547,329,359.0547,339,363.0547,335,359.0547" style="stroke:#A80036;stroke-width:1.0;"/><line style="stroke:#A80036;stroke-width:1.0;stroke-dasharray:2.0,2.0;" x1="333" x2="575" y1="359.0547" y2="359.0547"/><text fill="#000000" font-family="sans-serif" font-size="13" lengthAdjust="spacing" textLength="224" x="345" y="353.9888">запит створенно та інтегровано</text><polygon fill="#A80036" points="109,384.1875,99,388.1875,109,392.1875,105,388.1875" style="stroke:#A80036;stroke-width:1.0;"/><line style="stroke:#A80036;stroke-width:1.0;stroke-dasharray:2.0,2.0;" x1="103" x2="327" y1="388.1875" y2="388.1875"/><text fill="#000000" font-family="sans-serif" font-size="13" lengthAdjust="spacing" textLength="206" x="115" y="383.1216">метод аутентифікації змінено</text><!--MD5=[2ab1b71234c26fe6ce790f448974fcbe]
@startuml
actor "Технічний адміністратор\nреєстру" as admin
participant "Інтерфейс адмін-консолі" as cp
participant "Система контролю версій" as gerrit
participant "Центральне\nсховище секретів" as registry
admin -> cp: змінна аутентифікаційної\nпослідовності для\nкабінету посадової особи
alt id.gov.ua
cp -> registry: збереження\nідентифікатора клієнта\nта клієнтського секрета
return успішно збережено
end
cp -> gerrit: зміна посилання\nдо ресурсу аутентифікації
return запит створенно та інтегровано
cp - -> admin: метод аутентифікації змінено
@enduml

PlantUML version 1.2021.7(Sun May 23 12:40:07 UTC 2021)
(GPL source distribution)
Java Runtime: OpenJDK Runtime Environment
JVM: OpenJDK 64-Bit Server VM
Default Encoding: UTF-8
Language: en
Country: null
--></g></svg>