<?xml version="1.0" encoding="UTF-8" standalone="no"?><svg xmlns="http://www.w3.org/2000/svg" xmlns:xlink="http://www.w3.org/1999/xlink" contentScriptType="application/ecmascript" contentStyleType="text/css" height="1027px" preserveAspectRatio="none" style="width:1669px;height:1027px;background:#FFFFFF;" version="1.1" viewBox="0 0 1669 1027" width="1669px" zoomAndPan="magnify"><defs/><g><rect fill="#FFFFFF" height="70.2656" style="stroke:#2688D4;stroke-width:1.0;" width="10" x="342" y="220.3203"/><rect fill="#FFFFFF" height="143.6641" style="stroke:#2688D4;stroke-width:1.0;" width="10" x="342" y="749.9063"/><rect fill="#FFFFFF" height="12" style="stroke:#2688D4;stroke-width:1.0;" width="10" x="628" y="249.4531"/><rect fill="#FFFFFF" height="12" style="stroke:#2688D4;stroke-width:1.0;" width="10" x="628" y="779.0391"/><rect fill="#FFFFFF" height="366.7891" style="stroke:#2688D4;stroke-width:1.0;" width="10" x="986" y="336.8516"/><rect fill="#FFFFFF" height="12" style="stroke:#2688D4;stroke-width:1.0;" width="10" x="1170" y="390.1172"/><rect fill="#FFFFFF" height="12" style="stroke:#2688D4;stroke-width:1.0;" width="10" x="1480" y="597.2422"/><rect fill="#FFFFFF" height="12" style="stroke:#2688D4;stroke-width:1.0;" width="10" x="1480" y="655.5078"/><rect fill="#FFFFFF" height="12" style="stroke:#2688D4;stroke-width:1.0;" width="10" x="1480" y="852.4375"/><rect fill="#FFFFFF" height="193.125" style="stroke:#000000;stroke-width:2.0;" width="602.5" x="949.5" y="351.8516"/><rect fill="#FFFFFF" height="133.6641" style="stroke:#000000;stroke-width:2.0;" width="602.5" x="949.5" y="558.9766"/><line style="stroke:#2688D4;stroke-width:1.0;stroke-dasharray:5.0,5.0;" x1="53" x2="53" y1="100.5938" y2="928.7031"/><line style="stroke:#2688D4;stroke-width:1.0;stroke-dasharray:5.0,5.0;" x1="347" x2="347" y1="100.5938" y2="928.7031"/><line style="stroke:#2688D4;stroke-width:1.0;stroke-dasharray:5.0,5.0;" x1="633" x2="633" y1="100.5938" y2="928.7031"/><line style="stroke:#2688D4;stroke-width:1.0;stroke-dasharray:5.0,5.0;" x1="990.5" x2="990.5" y1="100.5938" y2="928.7031"/><line style="stroke:#2688D4;stroke-width:1.0;stroke-dasharray:5.0,5.0;" x1="1174.5" x2="1174.5" y1="164.8906" y2="928.7031"/><line style="stroke:#2688D4;stroke-width:1.0;stroke-dasharray:5.0,5.0;" x1="1485" x2="1485" y1="481.5469" y2="928.7031"/><line style="stroke:#2688D4;stroke-width:1.0;stroke-dasharray:5.0,5.0;" x1="1607" x2="1607" y1="100.5938" y2="928.7031"/><text fill="#000000" font-family="sans-serif" font-size="14" lengthAdjust="spacing" textLength="79" x="10.5" y="80.9951">Розробник</text><text fill="#000000" font-family="sans-serif" font-size="14" lengthAdjust="spacing" textLength="86" x="9" y="97.292">регламенту</text><ellipse cx="53" cy="15" fill="#FEFECE" rx="8" ry="8" style="stroke:#2688D4;stroke-width:2.0;"/><path d="M53,23 L53,50 M40,31 L66,31 M53,50 L40,65 M53,50 L66,65 " fill="none" style="stroke:#2688D4;stroke-width:2.0;"/><text fill="#000000" font-family="sans-serif" font-size="14" lengthAdjust="spacing" textLength="79" x="10.5" y="940.6982">Розробник</text><text fill="#000000" font-family="sans-serif" font-size="14" lengthAdjust="spacing" textLength="86" x="9" y="956.9951">регламенту</text><ellipse cx="53" cy="970.2969" fill="#FEFECE" rx="8" ry="8" style="stroke:#2688D4;stroke-width:2.0;"/><path d="M53,978.2969 L53,1005.2969 M40,986.2969 L66,986.2969 M53,1005.2969 L40,1020.2969 M53,1005.2969 L66,1020.2969 " fill="none" style="stroke:#2688D4;stroke-width:2.0;"/><rect fill="#FFFFFF" height="46.5938" style="stroke:#2688D4;stroke-width:1.5;" width="148" x="273" y="53"/><text fill="#000000" font-family="sans-serif" font-size="14" lengthAdjust="spacing" textLength="134" x="280" y="72.9951">Registry Regulation</text><text fill="#000000" font-family="sans-serif" font-size="14" lengthAdjust="spacing" textLength="91" x="301.5" y="89.292">Management</text><rect fill="#FFFFFF" height="46.5938" style="stroke:#2688D4;stroke-width:1.5;" width="148" x="273" y="927.7031"/><text fill="#000000" font-family="sans-serif" font-size="14" lengthAdjust="spacing" textLength="134" x="280" y="947.6982">Registry Regulation</text><text fill="#000000" font-family="sans-serif" font-size="14" lengthAdjust="spacing" textLength="91" x="301.5" y="963.9951">Management</text><rect fill="#FFFFFF" height="30.2969" style="stroke:#2688D4;stroke-width:1.5;" width="52" x="607" y="69.2969"/><text fill="#000000" font-family="sans-serif" font-size="14" lengthAdjust="spacing" textLength="38" x="614" y="89.292">Gerrit</text><rect fill="#FFFFFF" height="30.2969" style="stroke:#2688D4;stroke-width:1.5;" width="52" x="607" y="927.7031"/><text fill="#000000" font-family="sans-serif" font-size="14" lengthAdjust="spacing" textLength="38" x="614" y="947.6982">Gerrit</text><rect fill="#FFFFFF" height="30.2969" style="stroke:#2688D4;stroke-width:1.5;" width="63" x="959.5" y="69.2969"/><text fill="#000000" font-family="sans-serif" font-size="14" lengthAdjust="spacing" textLength="49" x="966.5" y="89.292">Jenkins</text><rect fill="#FFFFFF" height="30.2969" style="stroke:#2688D4;stroke-width:1.5;" width="63" x="959.5" y="927.7031"/><text fill="#000000" font-family="sans-serif" font-size="14" lengthAdjust="spacing" textLength="49" x="966.5" y="947.6982">Jenkins</text><text fill="#000000" font-family="sans-serif" font-size="14" lengthAdjust="spacing" textLength="65" x="1139.5" y="940.6982">Template</text><text fill="#000000" font-family="sans-serif" font-size="14" lengthAdjust="spacing" textLength="81" x="1131.5" y="956.9951">DB Schema</text><path d="M1157,970.2969 C1157,960.2969 1175,960.2969 1175,960.2969 C1175,960.2969 1193,960.2969 1193,970.2969 L1193,996.2969 C1193,1006.2969 1175,1006.2969 1175,1006.2969 C1175,1006.2969 1157,1006.2969 1157,996.2969 L1157,970.2969 " fill="#FFFFFF" style="stroke:#2688D4;stroke-width:1.5;"/><path d="M1157,970.2969 C1157,980.2969 1175,980.2969 1175,980.2969 C1175,980.2969 1193,980.2969 1193,970.2969 " fill="none" style="stroke:#2688D4;stroke-width:1.5;"/><text fill="#000000" font-family="sans-serif" font-size="14" lengthAdjust="spacing" textLength="108" x="1428" y="940.6982">Registry dev VC</text><text fill="#000000" font-family="sans-serif" font-size="14" lengthAdjust="spacing" textLength="81" x="1441.5" y="956.9951">DB Schema</text><path d="M1467,970.2969 C1467,960.2969 1485,960.2969 1485,960.2969 C1485,960.2969 1503,960.2969 1503,970.2969 L1503,996.2969 C1503,1006.2969 1485,1006.2969 1485,1006.2969 C1485,1006.2969 1467,1006.2969 1467,996.2969 L1467,970.2969 " fill="#FFFFFF" style="stroke:#2688D4;stroke-width:1.5;"/><path d="M1467,970.2969 C1467,980.2969 1485,980.2969 1485,980.2969 C1485,980.2969 1503,980.2969 1503,970.2969 " fill="none" style="stroke:#2688D4;stroke-width:1.5;"/><rect fill="#FFFFFF" height="30.2969" style="stroke:#2688D4;stroke-width:1.5;" width="111" x="1552" y="69.2969"/><text fill="#000000" font-family="sans-serif" font-size="14" lengthAdjust="spacing" textLength="97" x="1559" y="89.292">run-db-scripts</text><rect fill="#FFFFFF" height="30.2969" style="stroke:#2688D4;stroke-width:1.5;" width="111" x="1552" y="927.7031"/><text fill="#000000" font-family="sans-serif" font-size="14" lengthAdjust="spacing" textLength="97" x="1559" y="947.6982">run-db-scripts</text><rect fill="#FFFFFF" height="70.2656" style="stroke:#2688D4;stroke-width:1.0;" width="10" x="342" y="220.3203"/><rect fill="#FFFFFF" height="143.6641" style="stroke:#2688D4;stroke-width:1.0;" width="10" x="342" y="749.9063"/><rect fill="#FFFFFF" height="12" style="stroke:#2688D4;stroke-width:1.0;" width="10" x="628" y="249.4531"/><rect fill="#FFFFFF" height="12" style="stroke:#2688D4;stroke-width:1.0;" width="10" x="628" y="779.0391"/><rect fill="#FFFFFF" height="366.7891" style="stroke:#2688D4;stroke-width:1.0;" width="10" x="986" y="336.8516"/><rect fill="#FFFFFF" height="12" style="stroke:#2688D4;stroke-width:1.0;" width="10" x="1170" y="390.1172"/><rect fill="#FFFFFF" height="12" style="stroke:#2688D4;stroke-width:1.0;" width="10" x="1480" y="597.2422"/><rect fill="#FFFFFF" height="12" style="stroke:#2688D4;stroke-width:1.0;" width="10" x="1480" y="655.5078"/><rect fill="#FFFFFF" height="12" style="stroke:#2688D4;stroke-width:1.0;" width="10" x="1480" y="852.4375"/><polygon fill="#2688D4" points="1229.5,110.5938,1219.5,114.5938,1229.5,118.5938,1225.5,114.5938" style="stroke:#2688D4;stroke-width:1.0;"/><line style="stroke:#2688D4;stroke-width:1.0;" x1="1223.5" x2="1606.5" y1="114.5938" y2="114.5938"/><text fill="#000000" font-family="sans-serif" font-size="13" lengthAdjust="spacing" textLength="155" x="1235.5" y="127.6606">Створює та розгортає</text><text fill="#000000" font-family="sans-serif" font-size="14" lengthAdjust="spacing" textLength="65" x="1139.5" y="169.5889">Template</text><text fill="#000000" font-family="sans-serif" font-size="14" lengthAdjust="spacing" textLength="81" x="1131.5" y="185.8857">DB Schema</text><path d="M1157,120.5938 C1157,110.5938 1175,110.5938 1175,110.5938 C1175,110.5938 1193,110.5938 1193,120.5938 L1193,146.5938 C1193,156.5938 1175,156.5938 1175,156.5938 C1175,156.5938 1157,156.5938 1157,146.5938 L1157,120.5938 " fill="#FFFFFF" style="stroke:#2688D4;stroke-width:1.5;"/><path d="M1157,120.5938 C1157,130.5938 1175,130.5938 1175,130.5938 C1175,130.5938 1193,130.5938 1193,120.5938 " fill="none" style="stroke:#2688D4;stroke-width:1.5;"/><polygon fill="#2688D4" points="330,216.3203,340,220.3203,330,224.3203,334,220.3203" style="stroke:#2688D4;stroke-width:1.0;"/><line style="stroke:#2688D4;stroke-width:1.0;" x1="53" x2="336" y1="220.3203" y2="220.3203"/><text fill="#000000" font-family="sans-serif" font-size="13" lengthAdjust="spacing" textLength="183" x="60" y="215.2544">Створює версію-кандидат</text><polygon fill="#2688D4" points="616,245.4531,626,249.4531,616,253.4531,620,249.4531" style="stroke:#2688D4;stroke-width:1.0;"/><line style="stroke:#2688D4;stroke-width:1.0;" x1="352" x2="622" y1="249.4531" y2="249.4531"/><text fill="#000000" font-family="sans-serif" font-size="13" lengthAdjust="spacing" textLength="83" x="359" y="244.3872">Створює MR</text><polygon fill="#2688D4" points="363,257.4531,353,261.4531,363,265.4531,359,261.4531" style="stroke:#2688D4;stroke-width:1.0;"/><line style="stroke:#2688D4;stroke-width:1.0;stroke-dasharray:2.0,2.0;" x1="357" x2="632" y1="261.4531" y2="261.4531"/><text fill="#000000" font-family="sans-serif" font-size="13" lengthAdjust="spacing" textLength="36" x="369" y="274.52">result</text><polygon fill="#2688D4" points="64,286.5859,54,290.5859,64,294.5859,60,290.5859" style="stroke:#2688D4;stroke-width:1.0;"/><line style="stroke:#2688D4;stroke-width:1.0;stroke-dasharray:2.0,2.0;" x1="58" x2="346" y1="290.5859" y2="290.5859"/><text fill="#000000" font-family="sans-serif" font-size="13" lengthAdjust="spacing" textLength="116" x="70" y="303.6528">версія-кандидат</text><polygon fill="#2688D4" points="974,332.8516,984,336.8516,974,340.8516,978,336.8516" style="stroke:#2688D4;stroke-width:1.0;"/><line style="stroke:#2688D4;stroke-width:1.0;" x1="633" x2="980" y1="336.8516" y2="336.8516"/><text fill="#000000" font-family="sans-serif" font-size="13" lengthAdjust="spacing" textLength="275" x="640" y="331.7856">запуск пайплайну перевірки регламенту</text><path d="M949.5,351.8516 L1204.5,351.8516 L1204.5,358.8516 L1194.5,368.8516 L949.5,368.8516 L949.5,351.8516 " fill="#EEEEEE" style="stroke:#000000;stroke-width:1.0;"/><rect fill="none" height="193.125" style="stroke:#000000;stroke-width:2.0;" width="602.5" x="949.5" y="351.8516"/><text fill="#000000" font-family="sans-serif" font-size="13" font-weight="bold" lengthAdjust="spacing" textLength="210" x="964.5" y="364.9185">"Створення тимчасової БД"</text><polygon fill="#2688D4" points="1158,386.1172,1168,390.1172,1158,394.1172,1162,390.1172" style="stroke:#2688D4;stroke-width:1.0;"/><line style="stroke:#2688D4;stroke-width:1.0;" x1="996" x2="1164" y1="390.1172" y2="390.1172"/><text fill="#000000" font-family="sans-serif" font-size="13" lengthAdjust="spacing" textLength="155" x="1003" y="385.0513">отримує еталонну БДc</text><polygon fill="#2688D4" points="1007,398.1172,997,402.1172,1007,406.1172,1003,402.1172" style="stroke:#2688D4;stroke-width:1.0;"/><line style="stroke:#2688D4;stroke-width:1.0;stroke-dasharray:2.0,2.0;" x1="1001" x2="1174" y1="402.1172" y2="402.1172"/><text fill="#000000" font-family="sans-serif" font-size="13" lengthAdjust="spacing" textLength="36" x="1013" y="415.1841">result</text><polygon fill="#2688D4" points="1416,444.3828,1426,448.3828,1416,452.3828,1420,448.3828" style="stroke:#2688D4;stroke-width:1.0;"/><line style="stroke:#2688D4;stroke-width:1.0;" x1="996" x2="1422" y1="448.3828" y2="448.3828"/><text fill="#000000" font-family="sans-serif" font-size="13" lengthAdjust="spacing" textLength="202" x="1003" y="443.3169">Створює тимчасову схему БД</text><text fill="#000000" font-family="sans-serif" font-size="14" lengthAdjust="spacing" textLength="108" x="1428" y="486.2451">Registry dev VC</text><text fill="#000000" font-family="sans-serif" font-size="14" lengthAdjust="spacing" textLength="81" x="1441.5" y="502.542">DB Schema</text><path d="M1467,437.25 C1467,427.25 1485,427.25 1485,427.25 C1485,427.25 1503,427.25 1503,437.25 L1503,463.25 C1503,473.25 1485,473.25 1485,473.25 C1485,473.25 1467,473.25 1467,463.25 L1467,437.25 " fill="#FFFFFF" style="stroke:#2688D4;stroke-width:1.5;"/><path d="M1467,437.25 C1467,447.25 1485,447.25 1485,447.25 C1485,447.25 1503,447.25 1503,437.25 " fill="none" style="stroke:#2688D4;stroke-width:1.5;"/><polygon fill="#2688D4" points="1007,515.8438,997,519.8438,1007,523.8438,1003,519.8438" style="stroke:#2688D4;stroke-width:1.0;"/><line style="stroke:#2688D4;stroke-width:1.0;stroke-dasharray:2.0,2.0;" x1="1001" x2="1484" y1="519.8438" y2="519.8438"/><text fill="#000000" font-family="sans-serif" font-size="13" lengthAdjust="spacing" textLength="36" x="1013" y="532.9106">result</text><path d="M949.5,558.9766 L1510.5,558.9766 L1510.5,565.9766 L1500.5,575.9766 L949.5,575.9766 L949.5,558.9766 " fill="#EEEEEE" style="stroke:#000000;stroke-width:1.0;"/><rect fill="none" height="133.6641" style="stroke:#000000;stroke-width:2.0;" width="602.5" x="949.5" y="558.9766"/><text fill="#000000" font-family="sans-serif" font-size="13" font-weight="bold" lengthAdjust="spacing" textLength="516" x="964.5" y="572.0435">"Розгортання тимчасової БД моделлю даних регламенту реєстру"</text><polygon fill="#2688D4" points="1468,593.2422,1478,597.2422,1468,601.2422,1472,597.2422" style="stroke:#2688D4;stroke-width:1.0;"/><line style="stroke:#2688D4;stroke-width:1.0;" x1="996" x2="1474" y1="597.2422" y2="597.2422"/><text fill="#000000" font-family="sans-serif" font-size="13" lengthAdjust="spacing" textLength="445" x="1003" y="592.1763">Розгортання моделі даних по liquibase changelog's майстер версії</text><polygon fill="#2688D4" points="1007,605.2422,997,609.2422,1007,613.2422,1003,609.2422" style="stroke:#2688D4;stroke-width:1.0;"/><line style="stroke:#2688D4;stroke-width:1.0;stroke-dasharray:2.0,2.0;" x1="1001" x2="1484" y1="609.2422" y2="609.2422"/><text fill="#000000" font-family="sans-serif" font-size="13" lengthAdjust="spacing" textLength="36" x="1013" y="622.3091">result</text><polygon fill="#2688D4" points="1468,651.5078,1478,655.5078,1468,659.5078,1472,655.5078" style="stroke:#2688D4;stroke-width:1.0;"/><line style="stroke:#2688D4;stroke-width:1.0;" x1="996" x2="1474" y1="655.5078" y2="655.5078"/><text fill="#000000" font-family="sans-serif" font-size="13" lengthAdjust="spacing" textLength="465" x="1003" y="650.4419">Розгортання моделі даних по liquibase changelog's версії-кандидату</text><polygon fill="#2688D4" points="1007,663.5078,997,667.5078,1007,671.5078,1003,667.5078" style="stroke:#2688D4;stroke-width:1.0;"/><line style="stroke:#2688D4;stroke-width:1.0;stroke-dasharray:2.0,2.0;" x1="1001" x2="1484" y1="667.5078" y2="667.5078"/><text fill="#000000" font-family="sans-serif" font-size="13" lengthAdjust="spacing" textLength="36" x="1013" y="680.5747">result</text><polygon fill="#2688D4" points="644,699.6406,634,703.6406,644,707.6406,640,703.6406" style="stroke:#2688D4;stroke-width:1.0;"/><line style="stroke:#2688D4;stroke-width:1.0;stroke-dasharray:2.0,2.0;" x1="638" x2="990" y1="703.6406" y2="703.6406"/><text fill="#000000" font-family="sans-serif" font-size="13" lengthAdjust="spacing" textLength="329" x="650" y="716.7075">публікація результату розгортання (Verified +1)</text><polygon fill="#2688D4" points="330,745.9063,340,749.9063,330,753.9063,334,749.9063" style="stroke:#2688D4;stroke-width:1.0;"/><line style="stroke:#2688D4;stroke-width:1.0;" x1="53" x2="336" y1="749.9063" y2="749.9063"/><text fill="#000000" font-family="sans-serif" font-size="13" lengthAdjust="spacing" textLength="270" x="60" y="744.8403">Отримує перелік таблиць моделі даних</text><polygon fill="#2688D4" points="616,775.0391,626,779.0391,616,783.0391,620,779.0391" style="stroke:#2688D4;stroke-width:1.0;"/><line style="stroke:#2688D4;stroke-width:1.0;" x1="352" x2="622" y1="779.0391" y2="779.0391"/><text fill="#000000" font-family="sans-serif" font-size="13" lengthAdjust="spacing" textLength="257" x="359" y="773.9731">зчитує стан розгортання регламенту</text><polygon fill="#2688D4" points="363,787.0391,353,791.0391,363,795.0391,359,791.0391" style="stroke:#2688D4;stroke-width:1.0;"/><line style="stroke:#2688D4;stroke-width:1.0;stroke-dasharray:2.0,2.0;" x1="357" x2="632" y1="791.0391" y2="791.0391"/><text fill="#000000" font-family="sans-serif" font-size="13" lengthAdjust="spacing" textLength="36" x="369" y="804.106">result</text><polygon fill="#2688D4" points="1468,848.4375,1478,852.4375,1468,856.4375,1472,852.4375" style="stroke:#2688D4;stroke-width:1.0;"/><line style="stroke:#2688D4;stroke-width:1.0;" x1="352" x2="1474" y1="852.4375" y2="852.4375"/><text fill="#000000" font-family="sans-serif" font-size="13" lengthAdjust="spacing" textLength="156" x="359" y="832.2388">Зчитування структури</text><text fill="#000000" font-family="sans-serif" font-size="13" lengthAdjust="spacing" textLength="101" x="359" y="847.3716">тимчасової БД</text><polygon fill="#2688D4" points="363,860.4375,353,864.4375,363,868.4375,359,864.4375" style="stroke:#2688D4;stroke-width:1.0;"/><line style="stroke:#2688D4;stroke-width:1.0;stroke-dasharray:2.0,2.0;" x1="357" x2="1484" y1="864.4375" y2="864.4375"/><text fill="#000000" font-family="sans-serif" font-size="13" lengthAdjust="spacing" textLength="36" x="369" y="877.5044">result</text><polygon fill="#2688D4" points="64,889.5703,54,893.5703,64,897.5703,60,893.5703" style="stroke:#2688D4;stroke-width:1.0;"/><line style="stroke:#2688D4;stroke-width:1.0;stroke-dasharray:2.0,2.0;" x1="58" x2="346" y1="893.5703" y2="893.5703"/><text fill="#000000" font-family="sans-serif" font-size="13" lengthAdjust="spacing" textLength="113" x="70" y="906.6372">перелік таблиць</text><!--MD5=[0e72d322a04767fa6dd0ee0829bf0a35]
@startuml
autoactivate on

skinparam shadowing false
skinparam DatabaseBackgroundColor white
skinparam DatabaseBorderColor #2688d4
skinparam QueueBackgroundColor white
skinparam QueueBorderColor #2688d4
skinparam NoteBackgroundColor white
skinparam NoteBorderColor #2688d4
skinparam sequence {
    ArrowColor #2688d4
    ActorBorderColor #2688d4
    LifeLineBorderColor #2688d4
    ParticipantBorderColor #2688d4
    ParticipantBackgroundColor white
    BoxBorderColor #2688d4
    BoxBackgroundColor white
}

skinparam responseMessageBelowArrow true

actor "Розробник\n регламенту" as Dev

participant "Registry Regulation\nManagement" as rrm
participant "Gerrit" as gerrit
participant "Jenkins" as jenkins
database "Template\nDB Schema" as TemplateDB
database "Registry dev VC\nDB Schema" as VCTemplateDB
participant "run-db-scripts" as OkdJob

OkdJob -> TemplateDB ** : Створює та розгортає

Dev -> rrm: Створює версію-кандидат
  rrm -> gerrit: Створює MR
  gerrit - -> rrm: result
rrm - -> Dev: версія-кандидат

gerrit -> jenkins: запуск пайплайну перевірки регламенту

  group "Створення тимчасової БД"
    jenkins -> TemplateDB: отримує еталонну БДc
    jenkins <- - TemplateDB: result
    jenkins -> VCTemplateDB ** : Створює тимчасову схему БД
    jenkins <- - VCTemplateDB: result
  end group

  group "Розгортання тимчасової БД моделлю даних регламенту реєстру"
    jenkins -> VCTemplateDB: Розгортання моделі даних по liquibase changelog's майстер версії
    jenkins <- - VCTemplateDB: result
    jenkins -> VCTemplateDB: Розгортання моделі даних по liquibase changelog's версії-кандидату
    jenkins <- - VCTemplateDB: result
  end group

jenkins - -> gerrit: публікація результату розгортання (Verified +1)

Dev -> rrm: Отримує перелік таблиць моделі даних
  rrm -> gerrit: зчитує стан розгортання регламенту
  rrm <- - gerrit: result

  rrm -> VCTemplateDB: Зчитування структури\nтимчасової БД
  VCTemplateDB - -> rrm: result
rrm - -> Dev: перелік таблиць
@enduml

PlantUML version 1.2021.7(Sun May 23 12:40:07 UTC 2021)
(GPL source distribution)
Java Runtime: OpenJDK Runtime Environment
JVM: OpenJDK 64-Bit Server VM
Default Encoding: UTF-8
Language: en
Country: null
--></g></svg>