<?xml version="1.0" encoding="UTF-8" standalone="no"?><svg xmlns="http://www.w3.org/2000/svg" xmlns:xlink="http://www.w3.org/1999/xlink" contentScriptType="application/ecmascript" contentStyleType="text/css" height="691px" preserveAspectRatio="none" style="width:647px;height:691px;background:#FFFFFF;" version="1.1" viewBox="0 0 647 691" width="647px" zoomAndPan="magnify"><defs><filter height="300%" id="fdn4htg44y27n" width="300%" x="-1" y="-1"><feGaussianBlur result="blurOut" stdDeviation="2.0"/><feColorMatrix in="blurOut" result="blurOut2" type="matrix" values="0 0 0 0 0 0 0 0 0 0 0 0 0 0 0 0 0 0 .4 0"/><feOffset dx="4.0" dy="4.0" in="blurOut2" result="blurOut3"/><feBlend in="SourceGraphic" in2="blurOut3" mode="normal"/></filter></defs><g><rect fill="#FFFFFF" filter="url(#fdn4htg44y27n)" height="143.3359" style="stroke:#000000;stroke-width:2.0;" width="204.5" x="114" y="149.5625"/><rect fill="#FFFFFF" height="59.0703" style="stroke:none;stroke-width:1.0;" width="204.5" x="114" y="233.8281"/><line style="stroke:#383838;stroke-width:1.0;" x1="59" x2="59" y1="88.2969" y2="205.8281"/><line style="stroke:#383838;stroke-width:1.0;stroke-dasharray:1.0,4.0;" x1="59" x2="59" y1="205.8281" y2="233.8281"/><line style="stroke:#383838;stroke-width:1.0;" x1="59" x2="59" y1="233.8281" y2="413.5625"/><line style="stroke:#383838;stroke-width:1.0;stroke-dasharray:1.0,4.0;" x1="59" x2="59" y1="413.5625" y2="441.5625"/><line style="stroke:#383838;stroke-width:1.0;" x1="59" x2="59" y1="441.5625" y2="514.9609"/><line style="stroke:#383838;stroke-width:1.0;stroke-dasharray:1.0,4.0;" x1="59" x2="59" y1="514.9609" y2="542.9609"/><line style="stroke:#383838;stroke-width:1.0;" x1="59" x2="59" y1="542.9609" y2="607.2266"/><line style="stroke:#383838;stroke-width:1.0;" x1="177" x2="177" y1="88.2969" y2="205.8281"/><line style="stroke:#383838;stroke-width:1.0;stroke-dasharray:1.0,4.0;" x1="177" x2="177" y1="205.8281" y2="233.8281"/><line style="stroke:#383838;stroke-width:1.0;" x1="177" x2="177" y1="233.8281" y2="413.5625"/><line style="stroke:#383838;stroke-width:1.0;stroke-dasharray:1.0,4.0;" x1="177" x2="177" y1="413.5625" y2="441.5625"/><line style="stroke:#383838;stroke-width:1.0;" x1="177" x2="177" y1="441.5625" y2="514.9609"/><line style="stroke:#383838;stroke-width:1.0;stroke-dasharray:1.0,4.0;" x1="177" x2="177" y1="514.9609" y2="542.9609"/><line style="stroke:#383838;stroke-width:1.0;" x1="177" x2="177" y1="542.9609" y2="607.2266"/><line style="stroke:#383838;stroke-width:1.0;" x1="270.5" x2="270.5" y1="88.2969" y2="205.8281"/><line style="stroke:#383838;stroke-width:1.0;stroke-dasharray:1.0,4.0;" x1="270.5" x2="270.5" y1="205.8281" y2="233.8281"/><line style="stroke:#383838;stroke-width:1.0;" x1="270.5" x2="270.5" y1="233.8281" y2="413.5625"/><line style="stroke:#383838;stroke-width:1.0;stroke-dasharray:1.0,4.0;" x1="270.5" x2="270.5" y1="413.5625" y2="441.5625"/><line style="stroke:#383838;stroke-width:1.0;" x1="270.5" x2="270.5" y1="441.5625" y2="514.9609"/><line style="stroke:#383838;stroke-width:1.0;stroke-dasharray:1.0,4.0;" x1="270.5" x2="270.5" y1="514.9609" y2="542.9609"/><line style="stroke:#383838;stroke-width:1.0;" x1="270.5" x2="270.5" y1="542.9609" y2="607.2266"/><line style="stroke:#383838;stroke-width:1.0;" x1="343" x2="343" y1="88.2969" y2="205.8281"/><line style="stroke:#383838;stroke-width:1.0;stroke-dasharray:1.0,4.0;" x1="343" x2="343" y1="205.8281" y2="233.8281"/><line style="stroke:#383838;stroke-width:1.0;" x1="343" x2="343" y1="233.8281" y2="413.5625"/><line style="stroke:#383838;stroke-width:1.0;stroke-dasharray:1.0,4.0;" x1="343" x2="343" y1="413.5625" y2="441.5625"/><line style="stroke:#383838;stroke-width:1.0;" x1="343" x2="343" y1="441.5625" y2="514.9609"/><line style="stroke:#383838;stroke-width:1.0;stroke-dasharray:1.0,4.0;" x1="343" x2="343" y1="514.9609" y2="542.9609"/><line style="stroke:#383838;stroke-width:1.0;" x1="343" x2="343" y1="542.9609" y2="607.2266"/><line style="stroke:#383838;stroke-width:1.0;" x1="504" x2="504" y1="88.2969" y2="205.8281"/><line style="stroke:#383838;stroke-width:1.0;stroke-dasharray:1.0,4.0;" x1="504" x2="504" y1="205.8281" y2="233.8281"/><line style="stroke:#383838;stroke-width:1.0;" x1="504" x2="504" y1="233.8281" y2="413.5625"/><line style="stroke:#383838;stroke-width:1.0;stroke-dasharray:1.0,4.0;" x1="504" x2="504" y1="413.5625" y2="441.5625"/><line style="stroke:#383838;stroke-width:1.0;" x1="504" x2="504" y1="441.5625" y2="514.9609"/><line style="stroke:#383838;stroke-width:1.0;stroke-dasharray:1.0,4.0;" x1="504" x2="504" y1="514.9609" y2="542.9609"/><line style="stroke:#383838;stroke-width:1.0;" x1="504" x2="504" y1="542.9609" y2="607.2266"/><line style="stroke:#383838;stroke-width:1.0;" x1="589" x2="589" y1="88.2969" y2="205.8281"/><line style="stroke:#383838;stroke-width:1.0;stroke-dasharray:1.0,4.0;" x1="589" x2="589" y1="205.8281" y2="233.8281"/><line style="stroke:#383838;stroke-width:1.0;" x1="589" x2="589" y1="233.8281" y2="413.5625"/><line style="stroke:#383838;stroke-width:1.0;stroke-dasharray:1.0,4.0;" x1="589" x2="589" y1="413.5625" y2="441.5625"/><line style="stroke:#383838;stroke-width:1.0;" x1="589" x2="589" y1="441.5625" y2="514.9609"/><line style="stroke:#383838;stroke-width:1.0;stroke-dasharray:1.0,4.0;" x1="589" x2="589" y1="514.9609" y2="542.9609"/><line style="stroke:#383838;stroke-width:1.0;" x1="589" x2="589" y1="542.9609" y2="607.2266"/><text fill="#000000" font-family="sans-serif" font-size="14" lengthAdjust="spacing" textLength="103" x="5" y="84.9951">Registry Admin</text><ellipse cx="59.5" cy="15" fill="#F8F8F8" filter="url(#fdn4htg44y27n)" rx="8" ry="8" style="stroke:#383838;stroke-width:2.0;"/><path d="M59.5,23 L59.5,50 M46.5,31 L72.5,31 M59.5,50 L46.5,65 M59.5,50 L72.5,65 " fill="none" filter="url(#fdn4htg44y27n)" style="stroke:#383838;stroke-width:2.0;"/><text fill="#000000" font-family="sans-serif" font-size="14" lengthAdjust="spacing" textLength="103" x="5" y="619.2217">Registry Admin</text><ellipse cx="59.5" cy="632.5234" fill="#F8F8F8" filter="url(#fdn4htg44y27n)" rx="8" ry="8" style="stroke:#383838;stroke-width:2.0;"/><path d="M59.5,640.5234 L59.5,667.5234 M46.5,648.5234 L72.5,648.5234 M59.5,667.5234 L46.5,682.5234 M59.5,667.5234 L72.5,682.5234 " fill="none" filter="url(#fdn4htg44y27n)" style="stroke:#383838;stroke-width:2.0;"/><text fill="#000000" font-family="sans-serif" font-size="14" lengthAdjust="spacing" textLength="101" x="124" y="84.9951">Change Admin</text><ellipse cx="177.5" cy="15" fill="#F8F8F8" filter="url(#fdn4htg44y27n)" rx="8" ry="8" style="stroke:#383838;stroke-width:2.0;"/><path d="M177.5,23 L177.5,50 M164.5,31 L190.5,31 M177.5,50 L164.5,65 M177.5,50 L190.5,65 " fill="none" filter="url(#fdn4htg44y27n)" style="stroke:#383838;stroke-width:2.0;"/><text fill="#000000" font-family="sans-serif" font-size="14" lengthAdjust="spacing" textLength="101" x="124" y="619.2217">Change Admin</text><ellipse cx="177.5" cy="632.5234" fill="#F8F8F8" filter="url(#fdn4htg44y27n)" rx="8" ry="8" style="stroke:#383838;stroke-width:2.0;"/><path d="M177.5,640.5234 L177.5,667.5234 M164.5,648.5234 L190.5,648.5234 M177.5,667.5234 L164.5,682.5234 M177.5,667.5234 L190.5,682.5234 " fill="none" filter="url(#fdn4htg44y27n)" style="stroke:#383838;stroke-width:2.0;"/><rect fill="#F8F8F8" filter="url(#fdn4htg44y27n)" height="30.2969" style="stroke:#383838;stroke-width:1.5;" width="52" x="242.5" y="53"/><text fill="#000000" font-family="sans-serif" font-size="14" lengthAdjust="spacing" textLength="38" x="249.5" y="72.9951">Gerrit</text><rect fill="#F8F8F8" filter="url(#fdn4htg44y27n)" height="30.2969" style="stroke:#383838;stroke-width:1.5;" width="52" x="242.5" y="606.2266"/><text fill="#000000" font-family="sans-serif" font-size="14" lengthAdjust="spacing" textLength="38" x="249.5" y="626.2217">Gerrit</text><rect fill="#F8F8F8" filter="url(#fdn4htg44y27n)" height="30.2969" style="stroke:#383838;stroke-width:1.5;" width="63" x="310" y="53"/><text fill="#000000" font-family="sans-serif" font-size="14" lengthAdjust="spacing" textLength="49" x="317" y="72.9951">Jenkins</text><rect fill="#F8F8F8" filter="url(#fdn4htg44y27n)" height="30.2969" style="stroke:#383838;stroke-width:1.5;" width="63" x="310" y="606.2266"/><text fill="#000000" font-family="sans-serif" font-size="14" lengthAdjust="spacing" textLength="49" x="317" y="626.2217">Jenkins</text><rect fill="#F8F8F8" filter="url(#fdn4htg44y27n)" height="30.2969" style="stroke:#383838;stroke-width:1.5;" width="49" x="478" y="53"/><text fill="#000000" font-family="sans-serif" font-size="14" lengthAdjust="spacing" textLength="35" x="485" y="72.9951">Citus</text><rect fill="#F8F8F8" filter="url(#fdn4htg44y27n)" height="30.2969" style="stroke:#383838;stroke-width:1.5;" width="49" x="478" y="606.2266"/><text fill="#000000" font-family="sans-serif" font-size="14" lengthAdjust="spacing" textLength="35" x="485" y="626.2217">Citus</text><rect fill="#F8F8F8" filter="url(#fdn4htg44y27n)" height="30.2969" style="stroke:#383838;stroke-width:1.5;" width="92" x="541" y="53"/><text fill="#000000" font-family="sans-serif" font-size="14" lengthAdjust="spacing" textLength="78" x="548" y="72.9951">Datafactory</text><rect fill="#F8F8F8" filter="url(#fdn4htg44y27n)" height="30.2969" style="stroke:#383838;stroke-width:1.5;" width="92" x="541" y="606.2266"/><text fill="#000000" font-family="sans-serif" font-size="14" lengthAdjust="spacing" textLength="78" x="548" y="626.2217">Datafactory</text><polygon fill="#383838" points="258.5,130.5625,268.5,134.5625,258.5,138.5625,262.5,134.5625" style="stroke:#383838;stroke-width:1.0;"/><line style="stroke:#383838;stroke-width:1.0;" x1="59.5" x2="264.5" y1="134.5625" y2="134.5625"/><text fill="#000000" font-family="sans-serif" font-size="13" lengthAdjust="spacing" textLength="49" x="66.5" y="114.3638">commit</text><text fill="#000000" font-family="sans-serif" font-size="13" lengthAdjust="spacing" textLength="69" x="66.5" y="129.4966">changeSet</text><path d="M275,105.8633 L275,130.8633 L509,130.8633 L509,115.8633 L499,105.8633 L275,105.8633 " fill="#EBEBEB" filter="url(#fdn4htg44y27n)" style="stroke:#383838;stroke-width:1.0;"/><path d="M499,105.8633 L499,115.8633 L509,115.8633 L499,105.8633 " fill="#EBEBEB" style="stroke:#383838;stroke-width:1.0;"/><text fill="#000000" font-family="sans-serif" font-size="13" lengthAdjust="spacing" textLength="213" x="281" y="122.9302">data-model/role_permissions.xml</text><path d="M114,149.5625 L184,149.5625 L184,156.5625 L174,166.5625 L114,166.5625 L114,149.5625 " fill="#EEEEEE" style="stroke:#000000;stroke-width:1.0;"/><rect fill="none" height="143.3359" style="stroke:#000000;stroke-width:2.0;" width="204.5" x="114" y="149.5625"/><text fill="#000000" font-family="sans-serif" font-size="13" font-weight="bold" lengthAdjust="spacing" textLength="25" x="129" y="162.6294">opt</text><path d="M139,171.6953 L139,196.6953 L308,196.6953 L308,181.6953 L298,171.6953 L139,171.6953 " fill="#EBEBEB" filter="url(#fdn4htg44y27n)" style="stroke:#383838;stroke-width:1.0;"/><path d="M298,171.6953 L298,181.6953 L308,181.6953 L298,171.6953 " fill="#EBEBEB" style="stroke:#383838;stroke-width:1.0;"/><text fill="#000000" font-family="sans-serif" font-size="13" lengthAdjust="spacing" textLength="94" x="170.25" y="188.7622">review process</text><line style="stroke:#000000;stroke-width:1.0;stroke-dasharray:2.0,2.0;" x1="114" x2="318.5" y1="234.8281" y2="234.8281"/><text fill="#000000" font-family="sans-serif" font-size="11" font-weight="bold" lengthAdjust="spacing" textLength="81" x="119" y="245.0386">[on success]</text><polygon fill="#383838" points="258.5,280.8984,268.5,284.8984,258.5,288.8984,262.5,284.8984" style="stroke:#383838;stroke-width:1.0;"/><line style="stroke:#383838;stroke-width:1.0;" x1="177.5" x2="264.5" y1="284.8984" y2="284.8984"/><text fill="#000000" font-family="sans-serif" font-size="13" lengthAdjust="spacing" textLength="42" x="184.5" y="264.6997">merge</text><text fill="#000000" font-family="sans-serif" font-size="13" lengthAdjust="spacing" textLength="69" x="184.5" y="279.8325">changeSet</text><polygon fill="#383838" points="331.5,332.1641,341.5,336.1641,331.5,340.1641,335.5,336.1641" style="stroke:#383838;stroke-width:1.0;"/><line style="stroke:#383838;stroke-width:1.0;" x1="270.5" x2="337.5" y1="336.1641" y2="336.1641"/><text fill="#000000" font-family="sans-serif" font-size="13" lengthAdjust="spacing" textLength="30" x="277.5" y="315.9653">start</text><text fill="#000000" font-family="sans-serif" font-size="13" lengthAdjust="spacing" textLength="49" x="277.5" y="331.0981">pipeline</text><path d="M269,349.1641 L269,404.1641 L414,404.1641 L414,359.1641 L404,349.1641 L269,349.1641 " fill="#EBEBEB" filter="url(#fdn4htg44y27n)" style="stroke:#383838;stroke-width:1.0;"/><path d="M404,349.1641 L404,359.1641 L414,359.1641 L404,349.1641 " fill="#EBEBEB" style="stroke:#383838;stroke-width:1.0;"/><text fill="#000000" font-family="sans-serif" font-size="13" lengthAdjust="spacing" textLength="124" x="275" y="366.231">registry-regulations</text><text fill="#000000" font-family="sans-serif" font-size="13" lengthAdjust="spacing" textLength="74" x="275" y="381.3638">data-model</text><text fill="#000000" font-family="sans-serif" font-size="13" lengthAdjust="spacing" textLength="97" x="275" y="396.4966">create-schema</text><polygon fill="#383838" points="492.5,473.8281,502.5,477.8281,492.5,481.8281,496.5,477.8281" style="stroke:#383838;stroke-width:1.0;"/><line style="stroke:#383838;stroke-width:1.0;" x1="343.5" x2="498.5" y1="477.8281" y2="477.8281"/><text fill="#000000" font-family="sans-serif" font-size="13" lengthAdjust="spacing" textLength="118" x="350.5" y="457.6294">redefine values for</text><text fill="#000000" font-family="sans-serif" font-size="13" lengthAdjust="spacing" textLength="137" x="350.5" y="472.7622">ddm_role_permission</text><polygon fill="#383838" points="577,502.9609,587,506.9609,577,510.9609,581,506.9609" style="stroke:#383838;stroke-width:1.0;"/><line style="stroke:#383838;stroke-width:1.0;" x1="343.5" x2="583" y1="506.9609" y2="506.9609"/><text fill="#000000" font-family="sans-serif" font-size="13" lengthAdjust="spacing" textLength="95" x="350.5" y="501.895">regenerate API</text><path d="M469,547.9609 L469,587.9609 L623,587.9609 L623,557.9609 L613,547.9609 L469,547.9609 " fill="#EBEBEB" filter="url(#fdn4htg44y27n)" style="stroke:#383838;stroke-width:1.0;"/><path d="M613,547.9609 L613,557.9609 L623,557.9609 L613,547.9609 " fill="#EBEBEB" style="stroke:#383838;stroke-width:1.0;"/><text fill="#000000" font-family="sans-serif" font-size="13" lengthAdjust="spacing" textLength="128" x="475.5" y="565.0278">permission changes</text><text fill="#000000" font-family="sans-serif" font-size="13" lengthAdjust="spacing" textLength="76" x="475.5" y="580.1606">are in effect</text><!--MD5=[12d667e3f64402316e81468aeddf4917]
@startuml
skinparam monochrome true
'skinparam backgroundColor #aaaaaa

Actor "Registry Admin" as RegAdmin
Actor "Change Admin" as ChAdmin
participant Gerrit

RegAdmin -> Gerrit: commit\nchangeSet
note right: data-model/role_permissions.xml
opt
note over ChAdmin, Gerrit: review process
...
else on success
ChAdmin -> Gerrit: merge\nchangeSet

end
Gerrit -> Jenkins: start\npipeline
note over Jenkins: registry-regulations\ndata-model\ncreate-schema
...
Jenkins -> Citus: redefine values for\nddm_role_permission
Jenkins -> Datafactory: regenerate API
...
note over Citus,Datafactory:permission changes\nare in effect
@enduml

@startuml
skinparam monochrome true

Actor "Registry Admin" as RegAdmin
Actor "Change Admin" as ChAdmin
participant Gerrit

RegAdmin -> Gerrit: commit\nchangeSet
note right: data-model/role_permissions.xml
opt
note over ChAdmin, Gerrit: review process
...
else on success
ChAdmin -> Gerrit: merge\nchangeSet

end
Gerrit -> Jenkins: start\npipeline
note over Jenkins: registry-regulations\ndata-model\ncreate-schema
...
Jenkins -> Citus: redefine values for\nddm_role_permission
Jenkins -> Datafactory: regenerate API
...
note over Citus,Datafactory:permission changes\nare in effect
@enduml

PlantUML version 1.2021.7(Sun May 23 12:40:07 UTC 2021)
(GPL source distribution)
Java Runtime: OpenJDK Runtime Environment
JVM: OpenJDK 64-Bit Server VM
Default Encoding: UTF-8
Language: en
Country: null
--></g></svg>