<?xml version="1.0" encoding="UTF-8" standalone="no"?><svg xmlns="http://www.w3.org/2000/svg" xmlns:xlink="http://www.w3.org/1999/xlink" contentScriptType="application/ecmascript" contentStyleType="text/css" height="627px" preserveAspectRatio="none" style="width:1152px;height:627px;background:#FFFFFF;" version="1.1" viewBox="0 0 1152 627" width="1152px" zoomAndPan="magnify"><defs/><g><rect fill="#FFFFFF" height="70.2656" style="stroke:#2688D4;stroke-width:1.0;" width="10" x="507" y="131.7266"/><rect fill="#FFFFFF" height="128.5313" style="stroke:#2688D4;stroke-width:1.0;" width="10" x="507" y="248.2578"/><rect fill="#FFFFFF" height="70.2656" style="stroke:#2688D4;stroke-width:1.0;" width="10" x="507" y="423.0547"/><rect fill="#FFFFFF" height="12" style="stroke:#2688D4;stroke-width:1.0;" width="10" x="927" y="160.8594"/><rect fill="#FFFFFF" height="12" style="stroke:#2688D4;stroke-width:1.0;" width="10" x="927" y="452.1875"/><rect fill="#FFFFFF" height="12" style="stroke:#2688D4;stroke-width:1.0;" width="10" x="1076" y="277.3906"/><rect fill="#FFFFFF" height="12" style="stroke:#2688D4;stroke-width:1.0;" width="10" x="1076" y="335.6563"/><line style="stroke:#2688D4;stroke-width:1.0;stroke-dasharray:5.0,5.0;" x1="53" x2="53" y1="100.5938" y2="528.4531"/><line style="stroke:#2688D4;stroke-width:1.0;stroke-dasharray:5.0,5.0;" x1="512" x2="512" y1="100.5938" y2="528.4531"/><line style="stroke:#2688D4;stroke-width:1.0;stroke-dasharray:5.0,5.0;" x1="932" x2="932" y1="100.5938" y2="528.4531"/><line style="stroke:#2688D4;stroke-width:1.0;stroke-dasharray:5.0,5.0;" x1="1081" x2="1081" y1="100.5938" y2="528.4531"/><text fill="#000000" font-family="sans-serif" font-size="14" lengthAdjust="spacing" textLength="79" x="10.5" y="80.9951">Розробник</text><text fill="#000000" font-family="sans-serif" font-size="14" lengthAdjust="spacing" textLength="86" x="9" y="97.292">регламенту</text><ellipse cx="53" cy="15" fill="#FEFECE" rx="8" ry="8" style="stroke:#2688D4;stroke-width:2.0;"/><path d="M53,23 L53,50 M40,31 L66,31 M53,50 L40,65 M53,50 L66,65 " fill="none" style="stroke:#2688D4;stroke-width:2.0;"/><text fill="#000000" font-family="sans-serif" font-size="14" lengthAdjust="spacing" textLength="79" x="10.5" y="540.4482">Розробник</text><text fill="#000000" font-family="sans-serif" font-size="14" lengthAdjust="spacing" textLength="86" x="9" y="556.7451">регламенту</text><ellipse cx="53" cy="570.0469" fill="#FEFECE" rx="8" ry="8" style="stroke:#2688D4;stroke-width:2.0;"/><path d="M53,578.0469 L53,605.0469 M40,586.0469 L66,586.0469 M53,605.0469 L40,620.0469 M53,605.0469 L66,620.0469 " fill="none" style="stroke:#2688D4;stroke-width:2.0;"/><rect fill="#FFFFFF" height="30.2969" style="stroke:#2688D4;stroke-width:1.5;" width="100" x="462" y="69.2969"/><text fill="#000000" font-family="sans-serif" font-size="14" lengthAdjust="spacing" textLength="86" x="469" y="89.292">Admin portal</text><rect fill="#FFFFFF" height="30.2969" style="stroke:#2688D4;stroke-width:1.5;" width="100" x="462" y="527.4531"/><text fill="#000000" font-family="sans-serif" font-size="14" lengthAdjust="spacing" textLength="86" x="469" y="547.4482">Admin portal</text><rect fill="#FFFFFF" height="46.5938" style="stroke:#2688D4;stroke-width:1.5;" width="148" x="858" y="53"/><text fill="#000000" font-family="sans-serif" font-size="14" lengthAdjust="spacing" textLength="134" x="865" y="72.9951">Registry Regulation</text><text fill="#000000" font-family="sans-serif" font-size="14" lengthAdjust="spacing" textLength="91" x="886.5" y="89.292">Management</text><rect fill="#FFFFFF" height="46.5938" style="stroke:#2688D4;stroke-width:1.5;" width="148" x="858" y="527.4531"/><text fill="#000000" font-family="sans-serif" font-size="14" lengthAdjust="spacing" textLength="134" x="865" y="547.4482">Registry Regulation</text><text fill="#000000" font-family="sans-serif" font-size="14" lengthAdjust="spacing" textLength="91" x="886.5" y="563.7451">Management</text><rect fill="#FFFFFF" height="30.2969" style="stroke:#2688D4;stroke-width:1.5;" width="130" x="1016" y="69.2969"/><text fill="#000000" font-family="sans-serif" font-size="14" lengthAdjust="spacing" textLength="116" x="1023" y="89.292">Language Server</text><rect fill="#FFFFFF" height="30.2969" style="stroke:#2688D4;stroke-width:1.5;" width="130" x="1016" y="527.4531"/><text fill="#000000" font-family="sans-serif" font-size="14" lengthAdjust="spacing" textLength="116" x="1023" y="547.4482">Language Server</text><rect fill="#FFFFFF" height="70.2656" style="stroke:#2688D4;stroke-width:1.0;" width="10" x="507" y="131.7266"/><rect fill="#FFFFFF" height="128.5313" style="stroke:#2688D4;stroke-width:1.0;" width="10" x="507" y="248.2578"/><rect fill="#FFFFFF" height="70.2656" style="stroke:#2688D4;stroke-width:1.0;" width="10" x="507" y="423.0547"/><rect fill="#FFFFFF" height="12" style="stroke:#2688D4;stroke-width:1.0;" width="10" x="927" y="160.8594"/><rect fill="#FFFFFF" height="12" style="stroke:#2688D4;stroke-width:1.0;" width="10" x="927" y="452.1875"/><rect fill="#FFFFFF" height="12" style="stroke:#2688D4;stroke-width:1.0;" width="10" x="1076" y="277.3906"/><rect fill="#FFFFFF" height="12" style="stroke:#2688D4;stroke-width:1.0;" width="10" x="1076" y="335.6563"/><polygon fill="#2688D4" points="495,127.7266,505,131.7266,495,135.7266,499,131.7266" style="stroke:#2688D4;stroke-width:1.0;"/><line style="stroke:#2688D4;stroke-width:1.0;" x1="53" x2="501" y1="131.7266" y2="131.7266"/><text fill="#000000" font-family="sans-serif" font-size="13" lengthAdjust="spacing" textLength="388" x="60" y="126.6606">відкриває перспективу редагування структури таблиць</text><polygon fill="#2688D4" points="915,156.8594,925,160.8594,915,164.8594,919,160.8594" style="stroke:#2688D4;stroke-width:1.0;"/><line style="stroke:#2688D4;stroke-width:1.0;" x1="517" x2="921" y1="160.8594" y2="160.8594"/><text fill="#000000" font-family="sans-serif" font-size="13" lengthAdjust="spacing" textLength="380" x="524" y="155.7935">[HTTPS] GET /versions/candidate/&lt;vcId&gt;/data-model/tables</text><polygon fill="#2688D4" points="528,168.8594,518,172.8594,528,176.8594,524,172.8594" style="stroke:#2688D4;stroke-width:1.0;"/><line style="stroke:#2688D4;stroke-width:1.0;stroke-dasharray:2.0,2.0;" x1="522" x2="931" y1="172.8594" y2="172.8594"/><text fill="#000000" font-family="sans-serif" font-size="13" lengthAdjust="spacing" textLength="276" x="534" y="185.9263">200, (text/xml) createTables.xml document</text><polygon fill="#2688D4" points="64,197.9922,54,201.9922,64,205.9922,60,201.9922" style="stroke:#2688D4;stroke-width:1.0;"/><line style="stroke:#2688D4;stroke-width:1.0;stroke-dasharray:2.0,2.0;" x1="58" x2="511" y1="201.9922" y2="201.9922"/><text fill="#000000" font-family="sans-serif" font-size="13" lengthAdjust="spacing" textLength="211" x="70" y="215.0591">MonacoEditor з createTables.xml</text><polygon fill="#2688D4" points="495,244.2578,505,248.2578,495,252.2578,499,248.2578" style="stroke:#2688D4;stroke-width:1.0;"/><line style="stroke:#2688D4;stroke-width:1.0;" x1="53" x2="501" y1="248.2578" y2="248.2578"/><text fill="#000000" font-family="sans-serif" font-size="13" lengthAdjust="spacing" textLength="258" x="60" y="243.1919">редагування структури моделі даних</text><polygon fill="#2688D4" points="1064,273.3906,1074,277.3906,1064,281.3906,1068,277.3906" style="stroke:#2688D4;stroke-width:1.0;"/><line style="stroke:#2688D4;stroke-width:1.0;" x1="517" x2="1070" y1="277.3906" y2="277.3906"/><text fill="#000000" font-family="sans-serif" font-size="13" lengthAdjust="spacing" textLength="256" x="524" y="272.3247">[LSP] ініціалізація редагування файлу</text><polygon fill="#2688D4" points="528,285.3906,518,289.3906,528,293.3906,524,289.3906" style="stroke:#2688D4;stroke-width:1.0;"/><line style="stroke:#2688D4;stroke-width:1.0;stroke-dasharray:2.0,2.0;" x1="522" x2="1080" y1="289.3906" y2="289.3906"/><text fill="#000000" font-family="sans-serif" font-size="13" lengthAdjust="spacing" textLength="36" x="534" y="302.4575">result</text><polygon fill="#2688D4" points="1064,331.6563,1074,335.6563,1064,339.6563,1068,335.6563" style="stroke:#2688D4;stroke-width:1.0;"/><line style="stroke:#2688D4;stroke-width:1.0;" x1="517" x2="1070" y1="335.6563" y2="335.6563"/><text fill="#000000" font-family="sans-serif" font-size="13" lengthAdjust="spacing" textLength="267" x="524" y="330.5903">[LSP] validation, autocompletion requests</text><polygon fill="#2688D4" points="528,343.6563,518,347.6563,528,351.6563,524,347.6563" style="stroke:#2688D4;stroke-width:1.0;"/><line style="stroke:#2688D4;stroke-width:1.0;stroke-dasharray:2.0,2.0;" x1="522" x2="1080" y1="347.6563" y2="347.6563"/><text fill="#000000" font-family="sans-serif" font-size="13" lengthAdjust="spacing" textLength="36" x="534" y="360.7231">result</text><polygon fill="#2688D4" points="64,372.7891,54,376.7891,64,380.7891,60,376.7891" style="stroke:#2688D4;stroke-width:1.0;"/><line style="stroke:#2688D4;stroke-width:1.0;stroke-dasharray:2.0,2.0;" x1="58" x2="511" y1="376.7891" y2="376.7891"/><text fill="#000000" font-family="sans-serif" font-size="13" lengthAdjust="spacing" textLength="183" x="70" y="389.856">підказки, автодоповнення</text><polygon fill="#2688D4" points="495,419.0547,505,423.0547,495,427.0547,499,423.0547" style="stroke:#2688D4;stroke-width:1.0;"/><line style="stroke:#2688D4;stroke-width:1.0;" x1="53" x2="501" y1="423.0547" y2="423.0547"/><text fill="#000000" font-family="sans-serif" font-size="13" lengthAdjust="spacing" textLength="241" x="60" y="417.9888">Зберігає зміни в структурі таблиць</text><polygon fill="#2688D4" points="915,448.1875,925,452.1875,915,456.1875,919,452.1875" style="stroke:#2688D4;stroke-width:1.0;"/><line style="stroke:#2688D4;stroke-width:1.0;" x1="517" x2="921" y1="452.1875" y2="452.1875"/><text fill="#000000" font-family="sans-serif" font-size="13" lengthAdjust="spacing" textLength="391" x="524" y="447.1216">PUT (text/xml) /versions/candidate/&lt;vcId&gt;/data-model/tables</text><polygon fill="#2688D4" points="528,460.1875,518,464.1875,528,468.1875,524,464.1875" style="stroke:#2688D4;stroke-width:1.0;"/><line style="stroke:#2688D4;stroke-width:1.0;stroke-dasharray:2.0,2.0;" x1="522" x2="931" y1="464.1875" y2="464.1875"/><text fill="#000000" font-family="sans-serif" font-size="13" lengthAdjust="spacing" textLength="72" x="534" y="477.2544">status: 200</text><polygon fill="#2688D4" points="64,489.3203,54,493.3203,64,497.3203,60,493.3203" style="stroke:#2688D4;stroke-width:1.0;"/><line style="stroke:#2688D4;stroke-width:1.0;stroke-dasharray:2.0,2.0;" x1="58" x2="511" y1="493.3203" y2="493.3203"/><text fill="#000000" font-family="sans-serif" font-size="13" lengthAdjust="spacing" textLength="430" x="70" y="506.3872">статус збереження змін (включаючи optimistic locking статуси)</text><!--MD5=[bc1ddd45520cafe5880d9da9c1c7d8ea]
@startuml
autoactivate on

skinparam shadowing false
skinparam DatabaseBackgroundColor white
skinparam DatabaseBorderColor #2688d4
skinparam QueueBackgroundColor white
skinparam QueueBorderColor #2688d4
skinparam NoteBackgroundColor white
skinparam NoteBorderColor #2688d4
skinparam sequence {
    ArrowColor #2688d4
    ActorBorderColor #2688d4
    LifeLineBorderColor #2688d4
    ParticipantBorderColor #2688d4
    ParticipantBackgroundColor white
    BoxBorderColor #2688d4
    BoxBackgroundColor white
}

skinparam responseMessageBelowArrow true

actor "Розробник\n регламенту" as Dev

participant "Admin portal" as ap
participant "Registry Regulation\nManagement" as rrm
participant "Language Server" as ls

Dev -> ap: відкриває перспективу редагування структури таблиць
  ap -> rrm: [HTTPS] GET /versions/candidate/<vcId>/data-model/tables
  rrm - -> ap: 200, (text/xml) createTables.xml document
ap - -> Dev: MonacoEditor з createTables.xml

Dev -> ap: редагування структури моделі даних
  ap -> ls: [LSP] ініціалізація редагування файлу
  ls - -> ap: result

  ap -> ls: [LSP] validation, autocompletion requests
  ls - -> ap: result

ap - -> Dev: підказки, автодоповнення


Dev -> ap: Зберігає зміни в структурі таблиць
  ap -> rrm: PUT (text/xml) /versions/candidate/<vcId>/data-model/tables
  rrm - -> ap: status: 200
ap - -> Dev: статус збереження змін (включаючи optimistic locking статуси)
@enduml

PlantUML version 1.2021.7(Sun May 23 12:40:07 UTC 2021)
(GPL source distribution)
Java Runtime: OpenJDK Runtime Environment
JVM: OpenJDK 64-Bit Server VM
Default Encoding: UTF-8
Language: en
Country: null
--></g></svg>