<?xml version="1.0" encoding="UTF-8" standalone="no"?><svg xmlns="http://www.w3.org/2000/svg" xmlns:xlink="http://www.w3.org/1999/xlink" contentScriptType="application/ecmascript" contentStyleType="text/css" height="341px" preserveAspectRatio="none" style="width:975px;height:341px;background:#FFFFFF;" version="1.1" viewBox="0 0 975 341" width="975px" zoomAndPan="magnify"><defs><filter height="300%" id="fkp9uribi8yu4" width="300%" x="-1" y="-1"><feGaussianBlur result="blurOut" stdDeviation="2.0"/><feColorMatrix in="blurOut" result="blurOut2" type="matrix" values="0 0 0 0 0 0 0 0 0 0 0 0 0 0 0 0 0 0 .4 0"/><feOffset dx="4.0" dy="4.0" in="blurOut2" result="blurOut3"/><feBlend in="SourceGraphic" in2="blurOut3" mode="normal"/></filter></defs><g><!--MD5=[a606d3ee136a6aec9479e1ecef9506a2]
class SpringProcessEngineConfiguration--><rect codeLine="1" fill="#FEFECE" filter="url(#fkp9uribi8yu4)" height="60.8047" id="SpringProcessEngineConfiguration" style="stroke:#A80036;stroke-width:1.5;" width="277" x="89" y="7"/><ellipse cx="116.6" cy="23" fill="#ADD1B2" rx="11" ry="11" style="stroke:#A80036;stroke-width:1.0;"/><path d="M119.5688,28.6406 Q118.9906,28.9375 118.35,29.0781 Q117.7094,29.2344 117.0063,29.2344 Q114.5063,29.2344 113.1781,27.5938 Q111.8656,25.9375 111.8656,22.8125 Q111.8656,19.6875 113.1781,18.0313 Q114.5063,16.375 117.0063,16.375 Q117.7094,16.375 118.35,16.5313 Q119.0063,16.6875 119.5688,16.9844 L119.5688,19.7031 Q118.9438,19.125 118.35,18.8594 Q117.7563,18.5781 117.1313,18.5781 Q115.7875,18.5781 115.1,19.6563 Q114.4125,20.7188 114.4125,22.8125 Q114.4125,24.9063 115.1,25.9844 Q115.7875,27.0469 117.1313,27.0469 Q117.7563,27.0469 118.35,26.7813 Q118.9438,26.5 119.5688,25.9219 L119.5688,28.6406 Z " fill="#000000"/><text fill="#000000" font-family="sans-serif" font-size="12" lengthAdjust="spacing" textLength="217" x="133.4" y="27.1543">SpringProcessEngineConfiguration</text><line style="stroke:#A80036;stroke-width:1.5;" x1="90" x2="365" y1="39" y2="39"/><text fill="#000000" font-family="sans-serif" font-size="11" lengthAdjust="spacing" textLength="265" x="95" y="53.2104">SpringExpressionManager expressionManager</text><line style="stroke:#A80036;stroke-width:1.5;" x1="90" x2="365" y1="59.8047" y2="59.8047"/><!--MD5=[c4af4f728bb4d15cfe60fa28abf53741]
class LowcodeSpringProcessEngineConfiguration--><rect codeLine="5" fill="#ADD8E6" filter="url(#fkp9uribi8yu4)" height="48" id="LowcodeSpringProcessEngineConfiguration" style="stroke:#008000;stroke-width:1.5;" width="303" x="7" y="135.5"/><ellipse cx="22" cy="151.5" fill="#ADD1B2" rx="11" ry="11" style="stroke:#008000;stroke-width:1.0;"/><path d="M24.9688,157.1406 Q24.3906,157.4375 23.75,157.5781 Q23.1094,157.7344 22.4063,157.7344 Q19.9063,157.7344 18.5781,156.0938 Q17.2656,154.4375 17.2656,151.3125 Q17.2656,148.1875 18.5781,146.5313 Q19.9063,144.875 22.4063,144.875 Q23.1094,144.875 23.75,145.0313 Q24.4063,145.1875 24.9688,145.4844 L24.9688,148.2031 Q24.3438,147.625 23.75,147.3594 Q23.1563,147.0781 22.5313,147.0781 Q21.1875,147.0781 20.5,148.1563 Q19.8125,149.2188 19.8125,151.3125 Q19.8125,153.4063 20.5,154.4844 Q21.1875,155.5469 22.5313,155.5469 Q23.1563,155.5469 23.75,155.2813 Q24.3438,155 24.9688,154.4219 L24.9688,157.1406 Z " fill="#000000"/><text fill="#000000" font-family="sans-serif" font-size="12" lengthAdjust="spacing" textLength="271" x="36" y="155.6543">LowcodeSpringProcessEngineConfiguration</text><line style="stroke:#008000;stroke-width:1.5;" x1="8" x2="309" y1="167.5" y2="167.5"/><line style="stroke:#008000;stroke-width:1.5;" x1="8" x2="309" y1="175.5" y2="175.5"/><!--MD5=[8ecc5a6e224d0d5c8643558f1065d979]
class SpringExpressionManager--><rect codeLine="7" fill="#FEFECE" filter="url(#fkp9uribi8yu4)" height="60.8047" id="SpringExpressionManager" style="stroke:#A80036;stroke-width:1.5;" width="195" x="412" y="7"/><ellipse cx="427" cy="23" fill="#ADD1B2" rx="11" ry="11" style="stroke:#A80036;stroke-width:1.0;"/><path d="M429.9688,28.6406 Q429.3906,28.9375 428.75,29.0781 Q428.1094,29.2344 427.4063,29.2344 Q424.9063,29.2344 423.5781,27.5938 Q422.2656,25.9375 422.2656,22.8125 Q422.2656,19.6875 423.5781,18.0313 Q424.9063,16.375 427.4063,16.375 Q428.1094,16.375 428.75,16.5313 Q429.4063,16.6875 429.9688,16.9844 L429.9688,19.7031 Q429.3438,19.125 428.75,18.8594 Q428.1563,18.5781 427.5313,18.5781 Q426.1875,18.5781 425.5,19.6563 Q424.8125,20.7188 424.8125,22.8125 Q424.8125,24.9063 425.5,25.9844 Q426.1875,27.0469 427.5313,27.0469 Q428.1563,27.0469 428.75,26.7813 Q429.3438,26.5 429.9688,25.9219 L429.9688,28.6406 Z " fill="#000000"/><text fill="#000000" font-family="sans-serif" font-size="12" lengthAdjust="spacing" textLength="163" x="441" y="27.1543">SpringExpressionManager</text><line style="stroke:#A80036;stroke-width:1.5;" x1="413" x2="606" y1="39" y2="39"/><line style="stroke:#A80036;stroke-width:1.5;" x1="413" x2="606" y1="47" y2="47"/><text fill="#000000" font-family="sans-serif" font-size="11" lengthAdjust="spacing" textLength="166" x="418" y="61.2104">ElResolver createElResolver()</text><!--MD5=[c50f942f1ca95c76aad36991a7ed5411]
class CamundaSpringExpressionManager--><rect codeLine="11" fill="#ADD8E6" filter="url(#fkp9uribi8yu4)" height="60.8047" id="CamundaSpringExpressionManager" style="stroke:#008000;stroke-width:1.5;" width="254" x="382.5" y="129"/><ellipse cx="397.5" cy="145" fill="#ADD1B2" rx="11" ry="11" style="stroke:#008000;stroke-width:1.0;"/><path d="M400.4688,150.6406 Q399.8906,150.9375 399.25,151.0781 Q398.6094,151.2344 397.9063,151.2344 Q395.4063,151.2344 394.0781,149.5938 Q392.7656,147.9375 392.7656,144.8125 Q392.7656,141.6875 394.0781,140.0313 Q395.4063,138.375 397.9063,138.375 Q398.6094,138.375 399.25,138.5313 Q399.9063,138.6875 400.4688,138.9844 L400.4688,141.7031 Q399.8438,141.125 399.25,140.8594 Q398.6563,140.5781 398.0313,140.5781 Q396.6875,140.5781 396,141.6563 Q395.3125,142.7188 395.3125,144.8125 Q395.3125,146.9063 396,147.9844 Q396.6875,149.0469 398.0313,149.0469 Q398.6563,149.0469 399.25,148.7813 Q399.8438,148.5 400.4688,147.9219 L400.4688,150.6406 Z " fill="#000000"/><text fill="#000000" font-family="sans-serif" font-size="12" lengthAdjust="spacing" textLength="222" x="411.5" y="149.1543">CamundaSpringExpressionManager</text><line style="stroke:#008000;stroke-width:1.5;" x1="383.5" x2="635.5" y1="161" y2="161"/><line style="stroke:#008000;stroke-width:1.5;" x1="383.5" x2="635.5" y1="169" y2="169"/><text fill="#000000" font-family="sans-serif" font-size="11" lengthAdjust="spacing" textLength="227" x="388.5" y="183.2104">CompositeElResolver createElResolver()</text><!--MD5=[9450765a5f3b12ab962e3c4b9b86e9b8]
class ElResolver--><rect codeLine="15" fill="#FEFECE" filter="url(#fkp9uribi8yu4)" height="60.8047" id="ElResolver" style="stroke:#A80036;stroke-width:1.5;" width="96" x="754.5" y="7"/><ellipse cx="769.5" cy="23" fill="#A9DCDF" rx="11" ry="11" style="stroke:#A80036;stroke-width:1.0;"/><path d="M769.6094,18.3438 L768.4531,23.4219 L770.7813,23.4219 L769.6094,18.3438 Z M768.125,16.1094 L771.1094,16.1094 L774.4688,28.5 L772.0156,28.5 L771.25,25.4375 L767.9688,25.4375 L767.2188,28.5 L764.7813,28.5 L768.125,16.1094 Z " fill="#000000"/><text fill="#000000" font-family="sans-serif" font-size="12" font-style="italic" lengthAdjust="spacing" textLength="64" x="783.5" y="27.1543">ElResolver</text><line style="stroke:#A80036;stroke-width:1.5;" x1="755.5" x2="849.5" y1="39" y2="39"/><line style="stroke:#A80036;stroke-width:1.5;" x1="755.5" x2="849.5" y1="47" y2="47"/><text fill="#000000" font-family="sans-serif" font-size="11" lengthAdjust="spacing" textLength="57" x="760.5" y="61.2104">getValue()</text><!--MD5=[f5d0281a25ed5235c930ef140b9ba968]
class CompositeElResolver--><rect codeLine="19" fill="#FEFECE" filter="url(#fkp9uribi8yu4)" height="60.8047" id="CompositeElResolver" style="stroke:#A80036;stroke-width:1.5;" width="162" x="721.5" y="129"/><ellipse cx="736.5" cy="145" fill="#ADD1B2" rx="11" ry="11" style="stroke:#A80036;stroke-width:1.0;"/><path d="M739.4688,150.6406 Q738.8906,150.9375 738.25,151.0781 Q737.6094,151.2344 736.9063,151.2344 Q734.4063,151.2344 733.0781,149.5938 Q731.7656,147.9375 731.7656,144.8125 Q731.7656,141.6875 733.0781,140.0313 Q734.4063,138.375 736.9063,138.375 Q737.6094,138.375 738.25,138.5313 Q738.9063,138.6875 739.4688,138.9844 L739.4688,141.7031 Q738.8438,141.125 738.25,140.8594 Q737.6563,140.5781 737.0313,140.5781 Q735.6875,140.5781 735,141.6563 Q734.3125,142.7188 734.3125,144.8125 Q734.3125,146.9063 735,147.9844 Q735.6875,149.0469 737.0313,149.0469 Q737.6563,149.0469 738.25,148.7813 Q738.8438,148.5 739.4688,147.9219 L739.4688,150.6406 Z " fill="#000000"/><text fill="#000000" font-family="sans-serif" font-size="12" lengthAdjust="spacing" textLength="130" x="750.5" y="149.1543">CompositeElResolver</text><line style="stroke:#A80036;stroke-width:1.5;" x1="722.5" x2="882.5" y1="161" y2="161"/><line style="stroke:#A80036;stroke-width:1.5;" x1="722.5" x2="882.5" y1="169" y2="169"/><text fill="#000000" font-family="sans-serif" font-size="11" lengthAdjust="spacing" textLength="57" x="727.5" y="183.2104">getValue()</text><!--MD5=[a32cb4cb5600d14260c1f5229ee39556]
class TransientVariableScopeElResolver--><rect codeLine="23" fill="#ADD8E6" filter="url(#fkp9uribi8yu4)" height="60.8047" id="TransientVariableScopeElResolver" style="stroke:#008000;stroke-width:1.5;" width="245" x="677" y="267"/><ellipse cx="692" cy="283" fill="#ADD1B2" rx="11" ry="11" style="stroke:#008000;stroke-width:1.0;"/><path d="M694.9688,288.6406 Q694.3906,288.9375 693.75,289.0781 Q693.1094,289.2344 692.4063,289.2344 Q689.9063,289.2344 688.5781,287.5938 Q687.2656,285.9375 687.2656,282.8125 Q687.2656,279.6875 688.5781,278.0313 Q689.9063,276.375 692.4063,276.375 Q693.1094,276.375 693.75,276.5313 Q694.4063,276.6875 694.9688,276.9844 L694.9688,279.7031 Q694.3438,279.125 693.75,278.8594 Q693.1563,278.5781 692.5313,278.5781 Q691.1875,278.5781 690.5,279.6563 Q689.8125,280.7188 689.8125,282.8125 Q689.8125,284.9063 690.5,285.9844 Q691.1875,287.0469 692.5313,287.0469 Q693.1563,287.0469 693.75,286.7813 Q694.3438,286.5 694.9688,285.9219 L694.9688,288.6406 Z " fill="#000000"/><text fill="#000000" font-family="sans-serif" font-size="12" lengthAdjust="spacing" textLength="213" x="706" y="287.1543">TransientVariableScopeElResolver</text><line style="stroke:#008000;stroke-width:1.5;" x1="678" x2="921" y1="299" y2="299"/><line style="stroke:#008000;stroke-width:1.5;" x1="678" x2="921" y1="307" y2="307"/><text fill="#000000" font-family="sans-serif" font-size="11" lengthAdjust="spacing" textLength="57" x="683" y="321.2104">getValue()</text><!--MD5=[fd8edb5619baaaa475b9e5076d1376a3]
class CamundaConfiguration--><rect codeLine="27" fill="#ADD8E6" filter="url(#fkp9uribi8yu4)" height="60.8047" id="CamundaConfiguration" style="stroke:#008000;stroke-width:1.5;" width="204" x="82.5" y="267"/><ellipse cx="110.55" cy="283" fill="#ADD1B2" rx="11" ry="11" style="stroke:#008000;stroke-width:1.0;"/><path d="M113.5188,288.6406 Q112.9406,288.9375 112.3,289.0781 Q111.6594,289.2344 110.9563,289.2344 Q108.4563,289.2344 107.1281,287.5938 Q105.8156,285.9375 105.8156,282.8125 Q105.8156,279.6875 107.1281,278.0313 Q108.4563,276.375 110.9563,276.375 Q111.6594,276.375 112.3,276.5313 Q112.9563,276.6875 113.5188,276.9844 L113.5188,279.7031 Q112.8938,279.125 112.3,278.8594 Q111.7063,278.5781 111.0813,278.5781 Q109.7375,278.5781 109.05,279.6563 Q108.3625,280.7188 108.3625,282.8125 Q108.3625,284.9063 109.05,285.9844 Q109.7375,287.0469 111.0813,287.0469 Q111.7063,287.0469 112.3,286.7813 Q112.8938,286.5 113.5188,285.9219 L113.5188,288.6406 Z " fill="#000000"/><text fill="#000000" font-family="sans-serif" font-size="12" lengthAdjust="spacing" textLength="143" x="127.45" y="287.1543">CamundaConfiguration</text><line style="stroke:#008000;stroke-width:1.5;" x1="83.5" x2="285.5" y1="299" y2="299"/><line style="stroke:#008000;stroke-width:1.5;" x1="83.5" x2="285.5" y1="307" y2="307"/><text fill="#000000" font-family="sans-serif" font-size="11" lengthAdjust="spacing" textLength="192" x="88.5" y="321.2104">processEngineConfigurationImpl()</text><!--MD5=[44482a6bd75c016f3cf60b25ecc51a1c]
reverse link SpringProcessEngineConfiguration to LowcodeSpringProcessEngineConfiguration--><path d="M200.33,85.75 C190.57,102.73 179.98,121.14 171.9,135.19 " fill="none" id="SpringProcessEngineConfiguration-backto-LowcodeSpringProcessEngineConfiguration" style="stroke:#A80036;stroke-width:1.0;"/><polygon fill="none" points="194.41,82.01,210.44,68.16,206.54,88.99,194.41,82.01" style="stroke:#A80036;stroke-width:1.0;"/><!--MD5=[75d3179a62d9c308b121d764b74cbf8c]
reverse link SpringExpressionManager to CamundaSpringExpressionManager--><path d="M509.5,88.62 C509.5,102.28 509.5,116.64 509.5,128.76 " fill="none" id="SpringExpressionManager-backto-CamundaSpringExpressionManager" style="stroke:#A80036;stroke-width:1.0;"/><polygon fill="none" points="502.5,88.16,509.5,68.16,516.5,88.16,502.5,88.16" style="stroke:#A80036;stroke-width:1.0;"/><!--MD5=[8c6c4d02877d4fa1bdbf86b5a8638d52]
reverse link ElResolver to CompositeElResolver--><path d="M802.5,88.62 C802.5,102.28 802.5,116.64 802.5,128.76 " fill="none" id="ElResolver-backto-CompositeElResolver" style="stroke:#A80036;stroke-width:1.0;"/><polygon fill="none" points="795.5,88.16,802.5,68.16,809.5,88.16,795.5,88.16" style="stroke:#A80036;stroke-width:1.0;"/><!--MD5=[98d3d590fc861e06adfa7d6ecb23b9d4]
reverse link ElResolver to TransientVariableScopeElResolver--><path d="M862.29,80.47 C911.8,120.57 968.76,182.77 933.5,237 C925.45,249.38 914.17,259.2 901.54,266.99 " fill="none" id="ElResolver-backto-TransientVariableScopeElResolver" style="stroke:#A80036;stroke-width:1.0;"/><polygon fill="none" points="857.76,85.81,846.26,68.01,866.35,74.76,857.76,85.81" style="stroke:#A80036;stroke-width:1.0;"/><!--MD5=[74c9ccff449e0bb64faf2e9364fe989a]
reverse link SpringProcessEngineConfiguration to SpringExpressionManager--><path codeLine="31" d="M379.31,37.5 C390.2,37.5 401.09,37.5 411.98,37.5 " fill="none" id="SpringProcessEngineConfiguration-backto-SpringExpressionManager" style="stroke:#A80036;stroke-width:1.0;"/><polygon fill="#FFFFFF" points="366.02,37.5,372.02,41.5,378.02,37.5,372.02,33.5,366.02,37.5" style="stroke:#A80036;stroke-width:1.0;"/><!--MD5=[adeb10db4cb3d25018b840800982301f]
link SpringExpressionManager to ElResolver--><path codeLine="32" d="M607.06,37.5 C654.38,37.5 709.4,37.5 748.98,37.5 " fill="none" id="SpringExpressionManager-to-ElResolver" style="stroke:#A80036;stroke-width:1.0;"/><polygon fill="#A80036" points="754.21,37.5,745.21,33.5,749.21,37.5,745.21,41.5,754.21,37.5" style="stroke:#A80036;stroke-width:1.0;"/><text fill="#000000" font-family="sans-serif" font-size="13" lengthAdjust="spacing" textLength="48" x="656.75" y="30.5669">creates</text><!--MD5=[ec06d56937f35f4fddf7863a8a1aaf47]
reverse link LowcodeSpringProcessEngineConfiguration to CamundaConfiguration--><path codeLine="33" d="M142,188.63 C135.57,203.19 130.92,221.19 136.5,237 C140.3,247.76 146.96,258.01 154.14,266.87 " fill="none" id="LowcodeSpringProcessEngineConfiguration-backto-CamundaConfiguration" style="stroke:#A80036;stroke-width:1.0;"/><polygon fill="#A80036" points="144.24,183.83,136.8082,190.2928,142.1248,188.3606,144.0571,193.6772,144.24,183.83" style="stroke:#A80036;stroke-width:1.0;"/><text fill="#000000" font-family="sans-serif" font-size="13" lengthAdjust="spacing" textLength="48" x="137.5" y="233.0669">creates</text><!--MD5=[4f9ac9e69afe36760fb30d09c69adc84]
reverse link CamundaSpringExpressionManager to CamundaConfiguration--><path codeLine="34" d="M377.02,183.52 C310.5,195.99 241.3,210.69 228.5,220 C212.64,231.53 201.64,250.66 194.6,266.9 " fill="none" id="CamundaSpringExpressionManager-backto-CamundaConfiguration" style="stroke:#A80036;stroke-width:1.0;"/><polygon fill="#A80036" points="382.21,182.55,372.6238,180.2906,377.2969,183.4783,374.1092,188.1515,382.21,182.55" style="stroke:#A80036;stroke-width:1.0;"/><text fill="#000000" font-family="sans-serif" font-size="13" lengthAdjust="spacing" textLength="372" x="229.5" y="233.0669">creates and injects into SpringProcessEngineConfiguration</text><!--MD5=[c345ed248c1182c13968455e521f3220]
link CamundaSpringExpressionManager to CompositeElResolver--><path codeLine="35" d="M636.74,159.5 C663.55,159.5 691.25,159.5 716.14,159.5 " fill="none" id="CamundaSpringExpressionManager-to-CompositeElResolver" style="stroke:#A80036;stroke-width:1.0;"/><polygon fill="#A80036" points="721.41,159.5,712.41,155.5,716.41,159.5,712.41,163.5,721.41,159.5" style="stroke:#A80036;stroke-width:1.0;"/><text fill="#000000" font-family="sans-serif" font-size="13" lengthAdjust="spacing" textLength="48" x="655" y="152.5669">creates</text><!--MD5=[a073ff2e0ffcad55be0239a706a76d32]
link CamundaSpringExpressionManager to TransientVariableScopeElResolver--><path codeLine="36" d="M555.74,190.11 C580.36,205.2 611.47,223.22 640.5,237 C661.75,247.09 685.21,256.67 707.43,265.09 " fill="none" id="CamundaSpringExpressionManager-to-TransientVariableScopeElResolver" style="stroke:#A80036;stroke-width:1.0;"/><polygon fill="#A80036" points="712.15,266.86,705.1275,259.9546,707.4684,265.1044,702.3185,267.4452,712.15,266.86" style="stroke:#A80036;stroke-width:1.0;"/><text fill="#000000" font-family="sans-serif" font-size="13" lengthAdjust="spacing" textLength="287" x="641.5" y="233.0669">creates and injects into CompositeElResolver</text><!--MD5=[fddafbed67ca6f9d9b2444fbaa4cb7a5]
@startuml
class SpringProcessEngineConfiguration {
  SpringExpressionManager expressionManager
}

class LowcodeSpringProcessEngineConfiguration #back:lightblue;line:green;text:black extends SpringProcessEngineConfiguration

class SpringExpressionManager {
  ElResolver createElResolver()
}

class CamundaSpringExpressionManager #back:lightblue;line:green;text:black extends SpringExpressionManager{
  CompositeElResolver createElResolver()
}

abstract class ElResolver {
  getValue()
}

class CompositeElResolver extends ElResolver {
  getValue()
}

class TransientVariableScopeElResolver #back:lightblue;line:green;text:black extends ElResolver {
  getValue()
}

class CamundaConfiguration #back:lightblue;line:green;text:black {
  processEngineConfigurationImpl()
}

SpringProcessEngineConfiguration o- SpringExpressionManager
SpringExpressionManager -> ElResolver : creates
LowcodeSpringProcessEngineConfiguration <- - CamundaConfiguration : creates
CamundaSpringExpressionManager <- - CamundaConfiguration : creates and injects into SpringProcessEngineConfiguration
CamundaSpringExpressionManager -> CompositeElResolver : creates
CamundaSpringExpressionManager - -> TransientVariableScopeElResolver : creates and injects into CompositeElResolver
@enduml

PlantUML version 1.2021.7(Sun May 23 12:40:07 UTC 2021)
(GPL source distribution)
Java Runtime: OpenJDK Runtime Environment
JVM: OpenJDK 64-Bit Server VM
Default Encoding: UTF-8
Language: en
Country: null
--></g></svg>