<?xml version="1.0" encoding="UTF-8" standalone="no"?><svg xmlns="http://www.w3.org/2000/svg" xmlns:xlink="http://www.w3.org/1999/xlink" contentScriptType="application/ecmascript" contentStyleType="text/css" height="353px" preserveAspectRatio="none" style="width:739px;height:353px;background:#FFFFFF;" version="1.1" viewBox="0 0 739 353" width="739px" zoomAndPan="magnify"><defs/><g><rect fill="#FFFFFF" height="91.3984" style="stroke:#2688D4;stroke-width:1.0;" width="10" x="55" y="126.8906"/><rect fill="#FFFFFF" height="91.3984" style="stroke:#2688D4;stroke-width:1.0;" width="10" x="318" y="126.8906"/><rect fill="#FFFFFF" height="70.2656" style="stroke:#2688D4;stroke-width:1.0;" width="10" x="485.5" y="148.0234"/><rect fill="#FFFFFF" height="41.1328" style="stroke:#2688D4;stroke-width:1.0;" width="10" x="649" y="177.1563"/><line style="stroke:#2688D4;stroke-width:1.0;stroke-dasharray:5.0,5.0;" x1="60" x2="60" y1="116.8906" y2="238.2891"/><line style="stroke:#2688D4;stroke-width:1.0;stroke-dasharray:5.0,5.0;" x1="322.5" x2="322.5" y1="116.8906" y2="238.2891"/><line style="stroke:#2688D4;stroke-width:1.0;stroke-dasharray:5.0,5.0;" x1="490.5" x2="490.5" y1="116.8906" y2="238.2891"/><line style="stroke:#2688D4;stroke-width:1.0;stroke-dasharray:5.0,5.0;" x1="653.5" x2="653.5" y1="116.8906" y2="238.2891"/><text fill="#000000" font-family="sans-serif" font-size="14" lengthAdjust="spacing" textLength="72" x="21" y="80.9951">Технічний</text><text fill="#000000" font-family="sans-serif" font-size="14" lengthAdjust="spacing" textLength="104" x="5" y="97.292">адміністратор</text><text fill="#000000" font-family="sans-serif" font-size="14" lengthAdjust="spacing" textLength="59" x="29.5" y="113.5889">реєстру</text><ellipse cx="60" cy="15" fill="#FFFFFF" rx="8" ry="8" style="stroke:#2688D4;stroke-width:2.0;"/><path d="M60,23 L60,50 M47,31 L73,31 M60,50 L47,65 M60,50 L73,65 " fill="none" style="stroke:#2688D4;stroke-width:2.0;"/><text fill="#000000" font-family="sans-serif" font-size="14" lengthAdjust="spacing" textLength="72" x="21" y="250.2842">Технічний</text><text fill="#000000" font-family="sans-serif" font-size="14" lengthAdjust="spacing" textLength="104" x="5" y="266.5811">адміністратор</text><text fill="#000000" font-family="sans-serif" font-size="14" lengthAdjust="spacing" textLength="59" x="29.5" y="282.8779">реєстру</text><ellipse cx="60" cy="296.1797" fill="#FFFFFF" rx="8" ry="8" style="stroke:#2688D4;stroke-width:2.0;"/><path d="M60,304.1797 L60,331.1797 M47,312.1797 L73,312.1797 M60,331.1797 L47,346.1797 M60,331.1797 L73,346.1797 " fill="none" style="stroke:#2688D4;stroke-width:2.0;"/><rect fill="#FFFFFF" height="30.2969" style="stroke:#2688D4;stroke-width:1.5;" width="167" x="239.5" y="85.5938"/><text fill="#000000" font-family="sans-serif" font-size="14" lengthAdjust="spacing" textLength="153" x="246.5" y="105.5889">Control Plane Console</text><rect fill="#FFFFFF" height="30.2969" style="stroke:#2688D4;stroke-width:1.5;" width="167" x="239.5" y="237.2891"/><text fill="#000000" font-family="sans-serif" font-size="14" lengthAdjust="spacing" textLength="153" x="246.5" y="257.2842">Control Plane Console</text><rect fill="#FFFFFF" height="30.2969" style="stroke:#2688D4;stroke-width:1.5;" width="148" x="416.5" y="85.5938"/><text fill="#000000" font-family="sans-serif" font-size="14" lengthAdjust="spacing" textLength="134" x="423.5" y="105.5889">Control Plane Gerrit</text><rect fill="#FFFFFF" height="30.2969" style="stroke:#2688D4;stroke-width:1.5;" width="148" x="416.5" y="237.2891"/><text fill="#000000" font-family="sans-serif" font-size="14" lengthAdjust="spacing" textLength="134" x="423.5" y="257.2842">Control Plane Gerrit</text><rect fill="#FFFFFF" height="30.2969" style="stroke:#2688D4;stroke-width:1.5;" width="159" x="574.5" y="85.5938"/><text fill="#000000" font-family="sans-serif" font-size="14" lengthAdjust="spacing" textLength="145" x="581.5" y="105.5889">Control Plane Jenkins</text><rect fill="#FFFFFF" height="30.2969" style="stroke:#2688D4;stroke-width:1.5;" width="159" x="574.5" y="237.2891"/><text fill="#000000" font-family="sans-serif" font-size="14" lengthAdjust="spacing" textLength="145" x="581.5" y="257.2842">Control Plane Jenkins</text><rect fill="#FFFFFF" height="91.3984" style="stroke:#2688D4;stroke-width:1.0;" width="10" x="55" y="126.8906"/><rect fill="#FFFFFF" height="91.3984" style="stroke:#2688D4;stroke-width:1.0;" width="10" x="318" y="126.8906"/><rect fill="#FFFFFF" height="70.2656" style="stroke:#2688D4;stroke-width:1.0;" width="10" x="485.5" y="148.0234"/><rect fill="#FFFFFF" height="41.1328" style="stroke:#2688D4;stroke-width:1.0;" width="10" x="649" y="177.1563"/><polygon fill="#2688D4" points="306,144.0234,316,148.0234,306,152.0234,310,148.0234" style="stroke:#2688D4;stroke-width:1.0;"/><line style="stroke:#2688D4;stroke-width:1.0;" x1="65" x2="312" y1="148.0234" y2="148.0234"/><text fill="#000000" font-family="sans-serif" font-size="13" lengthAdjust="spacing" textLength="229" x="72" y="142.9575">Enable mocking for external system</text><polygon fill="#2688D4" points="473.5,173.1563,483.5,177.1563,473.5,181.1563,477.5,177.1563" style="stroke:#2688D4;stroke-width:1.0;"/><line style="stroke:#2688D4;stroke-width:1.0;" x1="328" x2="479.5" y1="177.1563" y2="177.1563"/><text fill="#000000" font-family="sans-serif" font-size="13" lengthAdjust="spacing" textLength="119" x="335" y="172.0903">Save configuration</text><polygon fill="#2688D4" points="637,202.2891,647,206.2891,637,210.2891,641,206.2891" style="stroke:#2688D4;stroke-width:1.0;"/><line style="stroke:#2688D4;stroke-width:1.0;" x1="495.5" x2="643" y1="206.2891" y2="206.2891"/><text fill="#000000" font-family="sans-serif" font-size="13" lengthAdjust="spacing" textLength="118" x="502.5" y="201.2231">Start registry build</text><polygon fill="#2688D4" points="501.5,214.2891,491.5,218.2891,501.5,222.2891,497.5,218.2891" style="stroke:#2688D4;stroke-width:1.0;"/><line style="stroke:#2688D4;stroke-width:1.0;stroke-dasharray:2.0,2.0;" x1="495.5" x2="653" y1="218.2891" y2="218.2891"/><!--MD5=[f5ff576486be6cbdfe521bf0ad59f508]
@startuml
skinparam shadowing false
skinparam DatabaseBackgroundColor white
skinparam DatabaseBorderColor #2688d4
skinparam QueueBackgroundColor white
skinparam QueueBorderColor #2688d4
skinparam NoteBackgroundColor white
skinparam NoteBorderColor #2688d4
skinparam EntityBackgroundColor white
skinparam EntityBorderColor #2688d4
skinparam ControlBackgroundColor white
skinparam ControlBorderColor #2688d4
skinparam ActorBackgroundColor white

skinparam sequence {
    ArrowColor #2688d4
    ActorBorderColor #2688d4
    LifeLineBorderColor #2688d4
    ParticipantBorderColor #2688d4
    ParticipantBackgroundColor white
    BoxBorderColor #2688d4
    BoxBackgroundColor white
}

skinparam responseMessageBelowArrow true

actor "Технічний\nадміністратор\n реєстру" as Client

participant "Control Plane Console" as CP
participant "Control Plane Gerrit" as Gerrit
participant "Control Plane Jenkins" as Jenkins

activate Client

activate CP
Client -> CP :Enable mocking for external system
activate Gerrit
CP -> Gerrit :Save configuration
activate Jenkins
Gerrit -> Jenkins : Start registry build
Gerrit <- - Jenkins

deactivate CP
deactivate Client
deactivate Gerrit
deactivate Jenkins
@enduml

PlantUML version 1.2021.7(Sun May 23 12:40:07 UTC 2021)
(GPL source distribution)
Java Runtime: OpenJDK Runtime Environment
JVM: OpenJDK 64-Bit Server VM
Default Encoding: UTF-8
Language: en
Country: null
--></g></svg>