<?xml version="1.0" encoding="UTF-8" standalone="no"?><svg xmlns="http://www.w3.org/2000/svg" xmlns:xlink="http://www.w3.org/1999/xlink" contentScriptType="application/ecmascript" contentStyleType="text/css" height="856px" preserveAspectRatio="none" style="width:1755px;height:856px;background:#FFFFFF;" version="1.1" viewBox="0 0 1755 856" width="1755px" zoomAndPan="magnify"><defs><filter height="300%" id="f8mfq51a70my8" width="300%" x="-1" y="-1"><feGaussianBlur result="blurOut" stdDeviation="2.0"/><feColorMatrix in="blurOut" result="blurOut2" type="matrix" values="0 0 0 0 0 0 0 0 0 0 0 0 0 0 0 0 0 0 .4 0"/><feOffset dx="4.0" dy="4.0" in="blurOut2" result="blurOut3"/><feBlend in="SourceGraphic" in2="blurOut3" mode="normal"/></filter></defs><g><!--MD5=[cef50494b824aadaaba3c7240f0be1a2]
cluster keycloak--><polygon fill="#FFFFFF" filter="url(#f8mfq51a70my8)" points="16,6,95,6,102,28.2969,715,28.2969,715,522,16,522,16,6" style="stroke:#000000;stroke-width:1.5;"/><line style="stroke:#000000;stroke-width:1.5;" x1="16" x2="102" y1="28.2969" y2="28.2969"/><text fill="#000000" font-family="sans-serif" font-size="14" font-weight="bold" lengthAdjust="spacing" textLength="73" x="20" y="20.9951">KeyCloak</text><!--MD5=[e0855858cf5b04284d36445901569ae3]
cluster registryRealms--><polygon fill="#FFFFFF" filter="url(#f8mfq51a70my8)" points="56,150,185,150,192,172.2969,479,172.2969,479,482,56,482,56,150" style="stroke:#000000;stroke-width:1.5;"/><line style="stroke:#000000;stroke-width:1.5;" x1="56" x2="192" y1="172.2969" y2="172.2969"/><text fill="#000000" font-family="sans-serif" font-size="14" font-weight="bold" lengthAdjust="spacing" textLength="123" x="60" y="164.9951">Registry realms</text><!--MD5=[08c6ed3649cdde5d7f5befdab2eaba39]
cluster openshift--><polygon fill="#FFFFFF" filter="url(#f8mfq51a70my8)" points="755,310,838,310,845,332.2969,1738,332.2969,1738,849,755,849,755,310" style="stroke:#000000;stroke-width:1.5;"/><line style="stroke:#000000;stroke-width:1.5;" x1="755" x2="845" y1="332.2969" y2="332.2969"/><text fill="#000000" font-family="sans-serif" font-size="14" font-weight="bold" lengthAdjust="spacing" textLength="77" x="759" y="324.9951">Openshift</text><!--MD5=[cfca2cada396048ba66ff4963e6ef4fc]
cluster ocBasedAuth--><polygon fill="#FFFFFF" filter="url(#f8mfq51a70my8)" points="1113,571,1314,571,1321,593.2969,1698,593.2969,1698,809,1113,809,1113,571" style="stroke:#000000;stroke-width:1.5;"/><line style="stroke:#000000;stroke-width:1.5;" x1="1113" x2="1321" y1="593.2969" y2="593.2969"/><text fill="#000000" font-family="sans-serif" font-size="14" font-weight="bold" lengthAdjust="spacing" textLength="195" x="1117" y="585.9951">Auth based on openshift</text><!--MD5=[f38df8ab770b2e12ac79eaafe82436e3]
cluster keycloakBasedAuth--><polygon fill="#FFFFFF" filter="url(#f8mfq51a70my8)" points="803,369,1002,369,1009,391.2969,1073,391.2969,1073,684,803,684,803,369" style="stroke:#000000;stroke-width:1.5;"/><line style="stroke:#000000;stroke-width:1.5;" x1="803" x2="1009" y1="391.2969" y2="391.2969"/><text fill="#000000" font-family="sans-serif" font-size="14" font-weight="bold" lengthAdjust="spacing" textLength="193" x="807" y="383.9951">Auth based on KeyCloak</text><!--MD5=[028b54db7056df1d161ce9e3a83b7348]
entity platformRealm--><rect fill="#FEFECE" filter="url(#f8mfq51a70my8)" height="46.2969" style="stroke:#A80036;stroke-width:1.5;" width="107" x="539.5" y="49"/><rect fill="#FEFECE" height="10" style="stroke:#A80036;stroke-width:1.5;" width="15" x="626.5" y="54"/><rect fill="#FEFECE" height="2" style="stroke:#A80036;stroke-width:1.5;" width="4" x="624.5" y="56"/><rect fill="#FEFECE" height="2" style="stroke:#A80036;stroke-width:1.5;" width="4" x="624.5" y="60"/><text fill="#000000" font-family="sans-serif" font-size="14" lengthAdjust="spacing" textLength="67" x="554.5" y="81.9951">Openshift</text><!--MD5=[1358d146547cf2e16156d20455ab22aa]
entity controlPlaneAdminRealm--><rect fill="#FEFECE" filter="url(#f8mfq51a70my8)" height="46.2969" style="stroke:#A80036;stroke-width:1.5;" width="179" x="503.5" y="193"/><rect fill="#FEFECE" height="10" style="stroke:#A80036;stroke-width:1.5;" width="15" x="662.5" y="198"/><rect fill="#FEFECE" height="2" style="stroke:#A80036;stroke-width:1.5;" width="4" x="660.5" y="200"/><rect fill="#FEFECE" height="2" style="stroke:#A80036;stroke-width:1.5;" width="4" x="660.5" y="204"/><text fill="#000000" font-family="sans-serif" font-size="14" lengthAdjust="spacing" textLength="139" x="518.5" y="225.9951">Control Plane Realm</text><!--MD5=[58fbb1d4a7fc8e4c1a4e7071885a27b6]
entity Admin Realm--><rect fill="#FEFECE" filter="url(#f8mfq51a70my8)" height="46.2969" style="stroke:#A80036;stroke-width:1.5;" width="130" x="99" y="193"/><rect fill="#FEFECE" height="10" style="stroke:#A80036;stroke-width:1.5;" width="15" x="209" y="198"/><rect fill="#FEFECE" height="2" style="stroke:#A80036;stroke-width:1.5;" width="4" x="207" y="200"/><rect fill="#FEFECE" height="2" style="stroke:#A80036;stroke-width:1.5;" width="4" x="207" y="204"/><text fill="#000000" font-family="sans-serif" font-size="14" lengthAdjust="spacing" textLength="90" x="114" y="225.9951">Admin Realm</text><!--MD5=[0275ec6d14572234a8368ca2252b0ace]
entity Officer Realm--><rect fill="#FEFECE" filter="url(#f8mfq51a70my8)" height="46.2969" style="stroke:#A80036;stroke-width:1.5;" width="131" x="264.5" y="193"/><rect fill="#FEFECE" height="10" style="stroke:#A80036;stroke-width:1.5;" width="15" x="375.5" y="198"/><rect fill="#FEFECE" height="2" style="stroke:#A80036;stroke-width:1.5;" width="4" x="373.5" y="200"/><rect fill="#FEFECE" height="2" style="stroke:#A80036;stroke-width:1.5;" width="4" x="373.5" y="204"/><text fill="#000000" font-family="sans-serif" font-size="14" lengthAdjust="spacing" textLength="91" x="279.5" y="225.9951">Officer Realm</text><!--MD5=[d7e52ff7aff960628088f2485acea714]
entity Citizen Realm--><rect fill="#FEFECE" filter="url(#f8mfq51a70my8)" height="46.2969" style="stroke:#A80036;stroke-width:1.5;" width="134" x="88" y="412"/><rect fill="#FEFECE" height="10" style="stroke:#A80036;stroke-width:1.5;" width="15" x="202" y="417"/><rect fill="#FEFECE" height="2" style="stroke:#A80036;stroke-width:1.5;" width="4" x="200" y="419"/><rect fill="#FEFECE" height="2" style="stroke:#A80036;stroke-width:1.5;" width="4" x="200" y="423"/><text fill="#000000" font-family="sans-serif" font-size="14" lengthAdjust="spacing" textLength="94" x="103" y="444.9951">Citizen Realm</text><!--MD5=[f1600190c2bb70c09a2522d1612c0a1a]
entity External System Realm--><rect fill="#FEFECE" filter="url(#f8mfq51a70my8)" height="46.2969" style="stroke:#A80036;stroke-width:1.5;" width="197" x="257.5" y="412"/><rect fill="#FEFECE" height="10" style="stroke:#A80036;stroke-width:1.5;" width="15" x="434.5" y="417"/><rect fill="#FEFECE" height="2" style="stroke:#A80036;stroke-width:1.5;" width="4" x="432.5" y="419"/><rect fill="#FEFECE" height="2" style="stroke:#A80036;stroke-width:1.5;" width="4" x="432.5" y="423"/><text fill="#000000" font-family="sans-serif" font-size="14" lengthAdjust="spacing" textLength="157" x="272.5" y="444.9951">External System Realm</text><!--MD5=[c36bec9f7be86a43ccad5df081a554aa]
entity openshiftOAuth--><rect fill="#FEFECE" filter="url(#f8mfq51a70my8)" height="46.2969" style="stroke:#A80036;stroke-width:1.5;" width="83" x="1097.5" y="412"/><rect fill="#FEFECE" height="10" style="stroke:#A80036;stroke-width:1.5;" width="15" x="1160.5" y="417"/><rect fill="#FEFECE" height="2" style="stroke:#A80036;stroke-width:1.5;" width="4" x="1158.5" y="419"/><rect fill="#FEFECE" height="2" style="stroke:#A80036;stroke-width:1.5;" width="4" x="1158.5" y="423"/><text fill="#000000" font-family="sans-serif" font-size="14" lengthAdjust="spacing" textLength="43" x="1112.5" y="444.9951">OAuth</text><!--MD5=[7e952ee6e1ea6549ddf2963282e45359]
entity Openshift Console--><rect fill="#FEFECE" filter="url(#f8mfq51a70my8)" height="46.2969" style="stroke:#A80036;stroke-width:1.5;" width="168" x="1156" y="614"/><rect fill="#FEFECE" height="10" style="stroke:#A80036;stroke-width:1.5;" width="15" x="1304" y="619"/><rect fill="#FEFECE" height="2" style="stroke:#A80036;stroke-width:1.5;" width="4" x="1302" y="621"/><rect fill="#FEFECE" height="2" style="stroke:#A80036;stroke-width:1.5;" width="4" x="1302" y="625"/><text fill="#000000" font-family="sans-serif" font-size="14" lengthAdjust="spacing" textLength="128" x="1171" y="646.9951">Openshift Console</text><!--MD5=[0b16701dea8f038bfacbd37916b4f312]
entity Control Plane Console--><rect fill="#FEFECE" filter="url(#f8mfq51a70my8)" height="46.2969" style="stroke:#A80036;stroke-width:1.5;" width="193" x="1359.5" y="614"/><rect fill="#FEFECE" height="10" style="stroke:#A80036;stroke-width:1.5;" width="15" x="1532.5" y="619"/><rect fill="#FEFECE" height="2" style="stroke:#A80036;stroke-width:1.5;" width="4" x="1530.5" y="621"/><rect fill="#FEFECE" height="2" style="stroke:#A80036;stroke-width:1.5;" width="4" x="1530.5" y="625"/><text fill="#000000" font-family="sans-serif" font-size="14" lengthAdjust="spacing" textLength="153" x="1374.5" y="646.9951">Control Plane Console</text><!--MD5=[9b8f59e66ae7ec468b34308e0cee7a31]
entity Kibana--><rect fill="#FEFECE" filter="url(#f8mfq51a70my8)" height="46.2969" style="stroke:#A80036;stroke-width:1.5;" width="86" x="1588" y="614"/><rect fill="#FEFECE" height="10" style="stroke:#A80036;stroke-width:1.5;" width="15" x="1654" y="619"/><rect fill="#FEFECE" height="2" style="stroke:#A80036;stroke-width:1.5;" width="4" x="1652" y="621"/><rect fill="#FEFECE" height="2" style="stroke:#A80036;stroke-width:1.5;" width="4" x="1652" y="625"/><text fill="#000000" font-family="sans-serif" font-size="14" lengthAdjust="spacing" textLength="46" x="1603" y="646.9951">Kibana</text><!--MD5=[1e38ee63cc23f89100e14039e3aadfb2]
entity Grafana--><rect fill="#FEFECE" filter="url(#f8mfq51a70my8)" height="46.2969" style="stroke:#A80036;stroke-width:1.5;" width="93" x="1193.5" y="739"/><rect fill="#FEFECE" height="10" style="stroke:#A80036;stroke-width:1.5;" width="15" x="1266.5" y="744"/><rect fill="#FEFECE" height="2" style="stroke:#A80036;stroke-width:1.5;" width="4" x="1264.5" y="746"/><rect fill="#FEFECE" height="2" style="stroke:#A80036;stroke-width:1.5;" width="4" x="1264.5" y="750"/><text fill="#000000" font-family="sans-serif" font-size="14" lengthAdjust="spacing" textLength="53" x="1208.5" y="771.9951">Grafana</text><!--MD5=[5fa47ae5783f3a296fdc41681a4ac4cb]
entity Kiali--><rect fill="#FEFECE" filter="url(#f8mfq51a70my8)" height="46.2969" style="stroke:#A80036;stroke-width:1.5;" width="66" x="1322" y="739"/><rect fill="#FEFECE" height="10" style="stroke:#A80036;stroke-width:1.5;" width="15" x="1368" y="744"/><rect fill="#FEFECE" height="2" style="stroke:#A80036;stroke-width:1.5;" width="4" x="1366" y="746"/><rect fill="#FEFECE" height="2" style="stroke:#A80036;stroke-width:1.5;" width="4" x="1366" y="750"/><text fill="#000000" font-family="sans-serif" font-size="14" lengthAdjust="spacing" textLength="26" x="1337" y="771.9951">Kiali</text><!--MD5=[e0cf6a2e2ce81c4d2f9549f12937479d]
entity Jaeger--><rect fill="#FEFECE" filter="url(#f8mfq51a70my8)" height="46.2969" style="stroke:#A80036;stroke-width:1.5;" width="83" x="1423.5" y="739"/><rect fill="#FEFECE" height="10" style="stroke:#A80036;stroke-width:1.5;" width="15" x="1486.5" y="744"/><rect fill="#FEFECE" height="2" style="stroke:#A80036;stroke-width:1.5;" width="4" x="1484.5" y="746"/><rect fill="#FEFECE" height="2" style="stroke:#A80036;stroke-width:1.5;" width="4" x="1484.5" y="750"/><text fill="#000000" font-family="sans-serif" font-size="14" lengthAdjust="spacing" textLength="43" x="1438.5" y="771.9951">Jaeger</text><!--MD5=[fe771890ff5e7fb46737c7a9152e5b9a]
entity Jenkins--><rect fill="#FEFECE" filter="url(#f8mfq51a70my8)" height="46.2969" style="stroke:#A80036;stroke-width:1.5;" width="89" x="846.5" y="412"/><rect fill="#FEFECE" height="10" style="stroke:#A80036;stroke-width:1.5;" width="15" x="915.5" y="417"/><rect fill="#FEFECE" height="2" style="stroke:#A80036;stroke-width:1.5;" width="4" x="913.5" y="419"/><rect fill="#FEFECE" height="2" style="stroke:#A80036;stroke-width:1.5;" width="4" x="913.5" y="423"/><text fill="#000000" font-family="sans-serif" font-size="14" lengthAdjust="spacing" textLength="49" x="861.5" y="444.9951">Jenkins</text><!--MD5=[733f2b4df5998baa1aa92a5eb8e8a377]
entity Gerrit--><rect fill="#FEFECE" filter="url(#f8mfq51a70my8)" height="46.2969" style="stroke:#A80036;stroke-width:1.5;" width="78" x="971" y="412"/><rect fill="#FEFECE" height="10" style="stroke:#A80036;stroke-width:1.5;" width="15" x="1029" y="417"/><rect fill="#FEFECE" height="2" style="stroke:#A80036;stroke-width:1.5;" width="4" x="1027" y="419"/><rect fill="#FEFECE" height="2" style="stroke:#A80036;stroke-width:1.5;" width="4" x="1027" y="423"/><text fill="#000000" font-family="sans-serif" font-size="14" lengthAdjust="spacing" textLength="38" x="986" y="444.9951">Gerrit</text><!--MD5=[3337be62b4085cbd88469065495fef9c]
entity Nexus--><rect fill="#FEFECE" filter="url(#f8mfq51a70my8)" height="46.2969" style="stroke:#A80036;stroke-width:1.5;" width="83" x="849.5" y="614"/><rect fill="#FEFECE" height="10" style="stroke:#A80036;stroke-width:1.5;" width="15" x="912.5" y="619"/><rect fill="#FEFECE" height="2" style="stroke:#A80036;stroke-width:1.5;" width="4" x="910.5" y="621"/><rect fill="#FEFECE" height="2" style="stroke:#A80036;stroke-width:1.5;" width="4" x="910.5" y="625"/><text fill="#000000" font-family="sans-serif" font-size="14" lengthAdjust="spacing" textLength="43" x="864.5" y="646.9951">Nexus</text><!--MD5=[ac4eefd90ef95fc4dbe445e297850b11]
reverse link keycloak to openshift--><!--MD5=[a7612970375d34db4e6b4542a55b8205]
reverse link openshiftOAuth to ocBasedAuth--><path d="M1136.55,463.18 C1134.13,490.08 1130.3275,532.3375 1127.0888,568.3325 C1127.0381,568.8949 1126.9877,569.4558 1126.9374,570.0151 C1126.9122,570.2947 1126.8871,570.574 1126.862,570.8528 " fill="none" id="openshiftOAuth-backto-ocBasedAuth" style="stroke:#A80036;stroke-width:1.0;"/><polygon fill="#A80036" points="1137,458.17,1132.2194,466.7808,1136.5576,463.1504,1140.188,467.4886,1137,458.17" style="stroke:#A80036;stroke-width:1.0;"/><!--MD5=[c02d5187a83d1e50ce5c25ccee8bee11]
reverse link platformRealm to openshiftOAuth--><path d="M649.7,97.13 C767.94,147.79 1032.57,263.1 1065,294 C1100.23,327.57 1122.12,381.64 1132.27,411.82 " fill="none" id="platformRealm-backto-openshiftOAuth" style="stroke:#A80036;stroke-width:1.0;"/><polygon fill="#A80036" points="644.87,95.06,651.5666,102.2819,649.4657,97.0296,654.718,94.9287,644.87,95.06" style="stroke:#A80036;stroke-width:1.0;"/><text fill="#000000" font-family="sans-serif" font-size="13" lengthAdjust="spacing" textLength="140" x="965" y="220.5669">integrated via OAuth2</text><!--MD5=[e67a44c93a56c6d3f07800a4f31334ff]
reverse link controlPlaneAdminRealm to keycloakBasedAuth--><path d="M581.67,244.32 C577.75,258.56 576.59,275.21 587,286 C603.98,303.61 789.77,276.64 807,294 C817.79,304.875 823.5113,318.8763 826.0052,333.8064 C827.2521,341.2715 827.6922,348.9688 827.5557,356.6237 C827.4874,360.4511 827.275,364.2679 826.9471,368.0398 C826.9267,368.2755 826.9057,368.5111 826.8843,368.7465 " fill="none" id="controlPlaneAdminRealm-backto-keycloakBasedAuth" style="stroke:#A80036;stroke-width:1.0;"/><polygon fill="#A80036" points="583.22,239.2,576.772,246.6447,581.7636,243.9832,584.4251,248.9749,583.22,239.2" style="stroke:#A80036;stroke-width:1.0;"/><text fill="#000000" font-family="sans-serif" font-size="13" lengthAdjust="spacing" textLength="140" x="588" y="282.0669">integrated via OAuth2</text><!--MD5=[a009d5ff5e6838eb1bba5aae0df5a90a]
reverse link platformRealm to controlPlaneAdminRealm--><path d="M593,100.39 C593,127.36 593,168.02 593,192.97 " fill="none" id="platformRealm-backto-controlPlaneAdminRealm" style="stroke:#A80036;stroke-width:1.0;"/><polygon fill="#A80036" points="593,95.19,589,104.19,593,100.19,597,104.19,593,95.19" style="stroke:#A80036;stroke-width:1.0;"/><!--MD5=[b51e302b43fbc9d43427a09dddc4924f]
reverse link platformRealm to registryRealms--><path d="M534.13,75.79 C404.63,82.51 103.94,101.48 72,134 C68.9313,137.125 66.4884,140.6809 64.565,144.5176 C64.0841,145.4768 63.6357,146.4535 63.2181,147.4454 C63.0093,147.9414 62.8081,148.4411 62.6145,148.9444 C62.5177,149.196 62.4228,149.4485 62.3297,149.7019 " fill="none" id="platformRealm-backto-registryRealms" style="stroke:#A80036;stroke-width:1.0;"/><polygon fill="#A80036" points="539.42,75.52,530.2264,71.9875,534.4266,75.7768,530.6373,79.977,539.42,75.52" style="stroke:#A80036;stroke-width:1.0;"/><!--MD5=[b18a6d24146534941ab7c85a7cd37e0c]
link Admin Realm to Officer Realm--><!--MD5=[810bae1fb27f7db614547b78cf70b475]
link Admin Realm to Citizen Realm--><!--MD5=[872ea5b21fc2e18ad9c233a9e405a652]
link Citizen Realm to External System Realm--><!--MD5=[ee0ab37ae8405c13f49e2c5a7f0bd44c]
link Openshift Console to Control Plane Console--><!--MD5=[df9e8b03a600adf336b7530aa485cf47]
link Control Plane Console to Kibana--><!--MD5=[bba169397901a39654ce551cf411a94d]
link Openshift Console to Grafana--><!--MD5=[cb54283ac0b3a292d27f2baeea6b396a]
link Grafana to Kiali--><!--MD5=[72dc2b23c9942f35d37b926c4b985f54]
link Kiali to Jaeger--><!--MD5=[1681cdcf1711770a35a5118ae55bd838]
link Jenkins to Gerrit--><!--MD5=[e704e5259cb357d8629ea6541d2e129c]
link Jenkins to Nexus--><!--MD5=[084dbe6b1ae4ad805ce92220cc98a0a3]
@startuml
package "KeyCloak" as keycloak {
  [Openshift] as platformRealm
  package "Registry realms" as registryRealms {
    [Admin Realm]
    [Officer Realm]
    [Citizen Realm]
    [External System Realm]
  }
  [Control Plane Realm] as controlPlaneAdminRealm
}

package "Openshift" as openshift{
[OAuth] as openshiftOAuth
  package "Auth based on openshift" as ocBasedAuth{
    [Openshift Console]
    [Control Plane Console]
    [Kibana]
    [Grafana]
    [Kiali]
    [Jaeger]
  }
  package "Auth based on KeyCloak" as keycloakBasedAuth{
    [Jenkins]
    [Gerrit]
    [Nexus]
  }
}

openshift -[hidden]u- -> keycloak

ocBasedAuth -u-> openshiftOAuth
openshiftOAuth -u-> platformRealm: integrated via OAuth2
keycloakBasedAuth -u-> controlPlaneAdminRealm: integrated via OAuth2
controlPlaneAdminRealm -u-> platformRealm
registryRealms -u-> platformRealm
@enduml

PlantUML version 1.2021.7(Sun May 23 12:40:07 UTC 2021)
(GPL source distribution)
Java Runtime: OpenJDK Runtime Environment
JVM: OpenJDK 64-Bit Server VM
Default Encoding: UTF-8
Language: en
Country: null
--></g></svg>