<?xml version="1.0" encoding="UTF-8" standalone="no"?><svg xmlns="http://www.w3.org/2000/svg" xmlns:xlink="http://www.w3.org/1999/xlink" contentScriptType="application/ecmascript" contentStyleType="text/css" height="568px" preserveAspectRatio="none" style="width:918px;height:568px;background:#FFFFFF;" version="1.1" viewBox="0 0 918 568" width="918px" zoomAndPan="magnify"><defs><filter height="300%" id="f1b0xjiza3hir0" width="300%" x="-1" y="-1"><feGaussianBlur result="blurOut" stdDeviation="2.0"/><feColorMatrix in="blurOut" result="blurOut2" type="matrix" values="0 0 0 0 0 0 0 0 0 0 0 0 0 0 0 0 0 0 .4 0"/><feOffset dx="4.0" dy="4.0" in="blurOut2" result="blurOut3"/><feBlend in="SourceGraphic" in2="blurOut3" mode="normal"/></filter></defs><g><!--MD5=[117def285a7ca2b63d94d10a9d22ea03]
class ExceptionMapper--><rect codeLine="1" fill="#FEFECE" filter="url(#f1b0xjiza3hir0)" height="60.8047" id="ExceptionMapper" style="stroke:#A80036;stroke-width:1.5;" width="208" x="380.4" y="10"/><ellipse cx="395.4" cy="26" fill="#B4A7E5" rx="11" ry="11" style="stroke:#A80036;stroke-width:1.0;"/><path d="M391.3219,21.7656 L391.3219,19.6094 L398.7125,19.6094 L398.7125,21.7656 L396.2438,21.7656 L396.2438,29.8438 L398.7125,29.8438 L398.7125,32 L391.3219,32 L391.3219,29.8438 L393.7906,29.8438 L393.7906,21.7656 L391.3219,21.7656 Z " fill="#000000"/><text fill="#000000" font-family="sans-serif" font-size="12" font-style="italic" lengthAdjust="spacing" textLength="108" x="409.4" y="30.1543">ExceptionMapper</text><rect fill="#FFFFFF" height="15.9688" style="stroke:#000000;stroke-width:1.0;stroke-dasharray:2.0,2.0;" width="66" x="525.4" y="7"/><text fill="#000000" font-family="sans-serif" font-size="12" font-style="italic" lengthAdjust="spacing" textLength="64" x="526.4" y="19.1387">Throwable</text><line style="stroke:#A80036;stroke-width:1.5;" x1="381.4" x2="587.4" y1="42" y2="42"/><line style="stroke:#A80036;stroke-width:1.5;" x1="381.4" x2="587.4" y1="50" y2="50"/><text fill="#000000" font-family="sans-serif" font-size="11" lengthAdjust="spacing" textLength="75" x="386.4" y="64.2104">toResponse()</text><!--MD5=[25f4031ea0a1b0b2e243cdd5aaf89242]
class CamundaSystemExceptionMapper--><rect codeLine="5" fill="#ADD8E6" filter="url(#f1b0xjiza3hir0)" height="60.8047" id="CamundaSystemExceptionMapper" style="stroke:#008000;stroke-width:1.5;" width="354" x="148.4" y="252"/><ellipse cx="163.4" cy="268" fill="#ADD1B2" rx="11" ry="11" style="stroke:#008000;stroke-width:1.0;"/><path d="M166.3687,273.6406 Q165.7906,273.9375 165.15,274.0781 Q164.5094,274.2344 163.8062,274.2344 Q161.3062,274.2344 159.9781,272.5938 Q158.6656,270.9375 158.6656,267.8125 Q158.6656,264.6875 159.9781,263.0313 Q161.3062,261.375 163.8062,261.375 Q164.5094,261.375 165.15,261.5313 Q165.8062,261.6875 166.3687,261.9844 L166.3687,264.7031 Q165.7437,264.125 165.15,263.8594 Q164.5562,263.5781 163.9312,263.5781 Q162.5875,263.5781 161.9,264.6563 Q161.2125,265.7188 161.2125,267.8125 Q161.2125,269.9063 161.9,270.9844 Q162.5875,272.0469 163.9312,272.0469 Q164.5562,272.0469 165.15,271.7813 Q165.7437,271.5 166.3687,270.9219 L166.3687,273.6406 Z " fill="#000000"/><text fill="#000000" font-family="sans-serif" font-size="12" lengthAdjust="spacing" textLength="212" x="177.4" y="272.1543">CamundaSystemExceptionMapper</text><rect fill="#ADD8E6" height="15.9688" style="stroke:#000000;stroke-width:1.0;stroke-dasharray:2.0,2.0;" width="108" x="397.4" y="249"/><text fill="#000000" font-family="sans-serif" font-size="12" font-style="italic" lengthAdjust="spacing" textLength="106" x="398.4" y="261.1387">SystemException</text><line style="stroke:#008000;stroke-width:1.5;" x1="149.4" x2="501.4" y1="284" y2="284"/><line style="stroke:#008000;stroke-width:1.5;" x1="149.4" x2="501.4" y1="292" y2="292"/><text fill="#000000" font-family="sans-serif" font-size="11" lengthAdjust="spacing" textLength="75" x="154.4" y="306.2104">toResponse()</text><!--MD5=[bbc43493bd5187d9f022923f8c86a9bd]
class CamundaRestExceptionMapper--><rect codeLine="9" fill="#ADD8E6" filter="url(#f1b0xjiza3hir0)" height="60.8047" id="CamundaRestExceptionMapper" style="stroke:#008000;stroke-width:1.5;" width="320" x="111.4" y="131"/><ellipse cx="126.4" cy="147" fill="#ADD1B2" rx="11" ry="11" style="stroke:#008000;stroke-width:1.0;"/><path d="M129.3688,152.6406 Q128.7906,152.9375 128.15,153.0781 Q127.5094,153.2344 126.8063,153.2344 Q124.3063,153.2344 122.9781,151.5938 Q121.6656,149.9375 121.6656,146.8125 Q121.6656,143.6875 122.9781,142.0313 Q124.3063,140.375 126.8063,140.375 Q127.5094,140.375 128.15,140.5313 Q128.8063,140.6875 129.3688,140.9844 L129.3688,143.7031 Q128.7438,143.125 128.15,142.8594 Q127.5563,142.5781 126.9313,142.5781 Q125.5875,142.5781 124.9,143.6563 Q124.2125,144.7188 124.2125,146.8125 Q124.2125,148.9063 124.9,149.9844 Q125.5875,151.0469 126.9313,151.0469 Q127.5563,151.0469 128.15,150.7813 Q128.7438,150.5 129.3688,149.9219 L129.3688,152.6406 Z " fill="#000000"/><text fill="#000000" font-family="sans-serif" font-size="12" lengthAdjust="spacing" textLength="195" x="140.4" y="151.1543">CamundaRestExceptionMapper</text><rect fill="#ADD8E6" height="15.9688" style="stroke:#000000;stroke-width:1.0;stroke-dasharray:2.0,2.0;" width="91" x="343.4" y="128"/><text fill="#000000" font-family="sans-serif" font-size="12" font-style="italic" lengthAdjust="spacing" textLength="89" x="344.4" y="140.1387">RestException</text><line style="stroke:#008000;stroke-width:1.5;" x1="112.4" x2="430.4" y1="163" y2="163"/><line style="stroke:#008000;stroke-width:1.5;" x1="112.4" x2="430.4" y1="171" y2="171"/><text fill="#000000" font-family="sans-serif" font-size="11" lengthAdjust="spacing" textLength="75" x="117.4" y="185.2104">toResponse()</text><!--MD5=[5b04b2875815906c1da18fc0934e2363]
class UserDataValidationExceptionMapper--><rect codeLine="13" fill="#ADD8E6" filter="url(#f1b0xjiza3hir0)" height="60.8047" id="UserDataValidationExceptionMapper" style="stroke:#008000;stroke-width:1.5;" width="388" x="199.4" y="373"/><ellipse cx="214.4" cy="389" fill="#ADD1B2" rx="11" ry="11" style="stroke:#008000;stroke-width:1.0;"/><path d="M217.3687,394.6406 Q216.7906,394.9375 216.15,395.0781 Q215.5094,395.2344 214.8062,395.2344 Q212.3062,395.2344 210.9781,393.5938 Q209.6656,391.9375 209.6656,388.8125 Q209.6656,385.6875 210.9781,384.0313 Q212.3062,382.375 214.8062,382.375 Q215.5094,382.375 216.15,382.5313 Q216.8062,382.6875 217.3687,382.9844 L217.3687,385.7031 Q216.7437,385.125 216.15,384.8594 Q215.5562,384.5781 214.9312,384.5781 Q213.5875,384.5781 212.9,385.6563 Q212.2125,386.7188 212.2125,388.8125 Q212.2125,390.9063 212.9,391.9844 Q213.5875,393.0469 214.9312,393.0469 Q215.5562,393.0469 216.15,392.7813 Q216.7437,392.5 217.3687,391.9219 L217.3687,394.6406 Z " fill="#000000"/><text fill="#000000" font-family="sans-serif" font-size="12" lengthAdjust="spacing" textLength="229" x="228.4" y="393.1543">UserDataValidationExceptionMapper</text><rect fill="#ADD8E6" height="15.9688" style="stroke:#000000;stroke-width:1.0;stroke-dasharray:2.0,2.0;" width="125" x="465.4" y="370"/><text fill="#000000" font-family="sans-serif" font-size="12" font-style="italic" lengthAdjust="spacing" textLength="123" x="466.4" y="382.1387">ValidationException</text><line style="stroke:#008000;stroke-width:1.5;" x1="200.4" x2="586.4" y1="405" y2="405"/><line style="stroke:#008000;stroke-width:1.5;" x1="200.4" x2="586.4" y1="413" y2="413"/><text fill="#000000" font-family="sans-serif" font-size="11" lengthAdjust="spacing" textLength="75" x="205.4" y="427.2104">toResponse()</text><!--MD5=[edb821d880c00eb898dc412f708734fd]
class TaskAlreadyInCompletionExceptionMapper--><rect codeLine="18" fill="#ADD8E6" filter="url(#f1b0xjiza3hir0)" height="60.8047" id="TaskAlreadyInCompletionExceptionMapper" style="stroke:#008000;stroke-width:1.5;" width="517" x="103.9" y="494"/><ellipse cx="118.9" cy="510" fill="#ADD1B2" rx="11" ry="11" style="stroke:#008000;stroke-width:1.0;"/><path d="M121.8688,515.6406 Q121.2906,515.9375 120.65,516.0781 Q120.0094,516.2344 119.3063,516.2344 Q116.8063,516.2344 115.4781,514.5938 Q114.1656,512.9375 114.1656,509.8125 Q114.1656,506.6875 115.4781,505.0313 Q116.8063,503.375 119.3063,503.375 Q120.0094,503.375 120.65,503.5313 Q121.3063,503.6875 121.8688,503.9844 L121.8688,506.7031 Q121.2438,506.125 120.65,505.8594 Q120.0563,505.5781 119.4313,505.5781 Q118.0875,505.5781 117.4,506.6563 Q116.7125,507.7188 116.7125,509.8125 Q116.7125,511.9063 117.4,512.9844 Q118.0875,514.0469 119.4313,514.0469 Q120.0563,514.0469 120.65,513.7813 Q121.2438,513.5 121.8688,512.9219 L121.8688,515.6406 Z " fill="#000000"/><text fill="#000000" font-family="sans-serif" font-size="12" lengthAdjust="spacing" textLength="264" x="132.9" y="514.1543">TaskAlreadyInCompletionExceptionMapper</text><rect fill="#ADD8E6" height="15.9688" style="stroke:#000000;stroke-width:1.0;stroke-dasharray:2.0,2.0;" width="219" x="404.9" y="491"/><text fill="#000000" font-family="sans-serif" font-size="12" font-style="italic" lengthAdjust="spacing" textLength="217" x="405.9" y="503.1387">TaskAlreadyInCompletionException</text><line style="stroke:#008000;stroke-width:1.5;" x1="104.9" x2="619.9" y1="526" y2="526"/><line style="stroke:#008000;stroke-width:1.5;" x1="104.9" x2="619.9" y1="534" y2="534"/><text fill="#000000" font-family="sans-serif" font-size="11" lengthAdjust="spacing" textLength="75" x="109.9" y="548.2104">toResponse()</text><!--MD5=[6e3b729d5d064696180d07fcad41883d]
class RestException--><rect codeLine="22" fill="#FEFECE" filter="url(#f1b0xjiza3hir0)" height="48" id="RestException" style="stroke:#A80036;stroke-width:1.5;" width="121" x="608.9" y="137.5"/><ellipse cx="623.9" cy="153.5" fill="#ADD1B2" rx="11" ry="11" style="stroke:#A80036;stroke-width:1.0;"/><path d="M626.8688,159.1406 Q626.2906,159.4375 625.65,159.5781 Q625.0094,159.7344 624.3063,159.7344 Q621.8063,159.7344 620.4781,158.0938 Q619.1656,156.4375 619.1656,153.3125 Q619.1656,150.1875 620.4781,148.5313 Q621.8063,146.875 624.3063,146.875 Q625.0094,146.875 625.65,147.0313 Q626.3063,147.1875 626.8688,147.4844 L626.8688,150.2031 Q626.2438,149.625 625.65,149.3594 Q625.0563,149.0781 624.4313,149.0781 Q623.0875,149.0781 622.4,150.1563 Q621.7125,151.2188 621.7125,153.3125 Q621.7125,155.4063 622.4,156.4844 Q623.0875,157.5469 624.4313,157.5469 Q625.0563,157.5469 625.65,157.2813 Q626.2438,157 626.8688,156.4219 L626.8688,159.1406 Z " fill="#000000"/><text fill="#000000" font-family="sans-serif" font-size="12" lengthAdjust="spacing" textLength="89" x="637.9" y="157.6543">RestException</text><line style="stroke:#A80036;stroke-width:1.5;" x1="609.9" x2="728.9" y1="169.5" y2="169.5"/><line style="stroke:#A80036;stroke-width:1.5;" x1="609.9" x2="728.9" y1="177.5" y2="177.5"/><!--MD5=[1171ddf7f6a3c83b7d2312c80850c25d]
class Throwable--><rect fill="#FEFECE" filter="url(#f1b0xjiza3hir0)" height="48" id="Throwable" style="stroke:#A80036;stroke-width:1.5;" width="96" x="735.4" y="16.5"/><ellipse cx="750.4" cy="32.5" fill="#ADD1B2" rx="11" ry="11" style="stroke:#A80036;stroke-width:1.0;"/><path d="M753.3688,38.1406 Q752.7906,38.4375 752.15,38.5781 Q751.5094,38.7344 750.8063,38.7344 Q748.3063,38.7344 746.9781,37.0938 Q745.6656,35.4375 745.6656,32.3125 Q745.6656,29.1875 746.9781,27.5313 Q748.3063,25.875 750.8063,25.875 Q751.5094,25.875 752.15,26.0313 Q752.8063,26.1875 753.3688,26.4844 L753.3688,29.2031 Q752.7438,28.625 752.15,28.3594 Q751.5563,28.0781 750.9313,28.0781 Q749.5875,28.0781 748.9,29.1563 Q748.2125,30.2188 748.2125,32.3125 Q748.2125,34.4063 748.9,35.4844 Q749.5875,36.5469 750.9313,36.5469 Q751.5563,36.5469 752.15,36.2813 Q752.7438,36 753.3688,35.4219 L753.3688,38.1406 Z " fill="#000000"/><text fill="#000000" font-family="sans-serif" font-size="12" lengthAdjust="spacing" textLength="64" x="764.4" y="36.6543">Throwable</text><line style="stroke:#A80036;stroke-width:1.5;" x1="736.4" x2="830.4" y1="48.5" y2="48.5"/><line style="stroke:#A80036;stroke-width:1.5;" x1="736.4" x2="830.4" y1="56.5" y2="56.5"/><!--MD5=[66422815084ba23d8870f01e7424f1b1]
class SystemException--><rect codeLine="23" fill="#90EE90" filter="url(#f1b0xjiza3hir0)" height="48" id="SystemException" style="stroke:#008000;stroke-width:1.5;" width="138" x="638.4" y="258.5"/><ellipse cx="653.4" cy="274.5" fill="#ADD1B2" rx="11" ry="11" style="stroke:#008000;stroke-width:1.0;"/><path d="M656.3688,280.1406 Q655.7906,280.4375 655.15,280.5781 Q654.5094,280.7344 653.8063,280.7344 Q651.3063,280.7344 649.9781,279.0938 Q648.6656,277.4375 648.6656,274.3125 Q648.6656,271.1875 649.9781,269.5313 Q651.3063,267.875 653.8063,267.875 Q654.5094,267.875 655.15,268.0313 Q655.8063,268.1875 656.3688,268.4844 L656.3688,271.2031 Q655.7438,270.625 655.15,270.3594 Q654.5563,270.0781 653.9313,270.0781 Q652.5875,270.0781 651.9,271.1563 Q651.2125,272.2188 651.2125,274.3125 Q651.2125,276.4063 651.9,277.4844 Q652.5875,278.5469 653.9313,278.5469 Q654.5563,278.5469 655.15,278.2813 Q655.7438,278 656.3688,277.4219 L656.3688,280.1406 Z " fill="#000000"/><text fill="#000000" font-family="sans-serif" font-size="12" lengthAdjust="spacing" textLength="106" x="667.4" y="278.6543">SystemException</text><line style="stroke:#008000;stroke-width:1.5;" x1="639.4" x2="775.4" y1="290.5" y2="290.5"/><line style="stroke:#008000;stroke-width:1.5;" x1="639.4" x2="775.4" y1="298.5" y2="298.5"/><!--MD5=[6fc27bdb16febdb188a9742425b96ec7]
class ValidationException--><rect codeLine="24" fill="#90EE90" filter="url(#f1b0xjiza3hir0)" height="48" id="ValidationException" style="stroke:#008000;stroke-width:1.5;" width="155" x="672.9" y="379.5"/><ellipse cx="687.9" cy="395.5" fill="#ADD1B2" rx="11" ry="11" style="stroke:#008000;stroke-width:1.0;"/><path d="M690.8688,401.1406 Q690.2906,401.4375 689.65,401.5781 Q689.0094,401.7344 688.3063,401.7344 Q685.8063,401.7344 684.4781,400.0938 Q683.1656,398.4375 683.1656,395.3125 Q683.1656,392.1875 684.4781,390.5313 Q685.8063,388.875 688.3063,388.875 Q689.0094,388.875 689.65,389.0313 Q690.3063,389.1875 690.8688,389.4844 L690.8688,392.2031 Q690.2438,391.625 689.65,391.3594 Q689.0563,391.0781 688.4313,391.0781 Q687.0875,391.0781 686.4,392.1563 Q685.7125,393.2188 685.7125,395.3125 Q685.7125,397.4063 686.4,398.4844 Q687.0875,399.5469 688.4313,399.5469 Q689.0563,399.5469 689.65,399.2813 Q690.2438,399 690.8688,398.4219 L690.8688,401.1406 Z " fill="#000000"/><text fill="#000000" font-family="sans-serif" font-size="12" lengthAdjust="spacing" textLength="123" x="701.9" y="399.6543">ValidationException</text><line style="stroke:#008000;stroke-width:1.5;" x1="673.9" x2="826.9" y1="411.5" y2="411.5"/><line style="stroke:#008000;stroke-width:1.5;" x1="673.9" x2="826.9" y1="419.5" y2="419.5"/><!--MD5=[23ecee8f3a6b157c68a79d5c5d38c707]
class TaskAlreadyInCompletionException--><rect codeLine="25" fill="#ADD8E6" filter="url(#f1b0xjiza3hir0)" height="48" id="TaskAlreadyInCompletionException" style="stroke:#008000;stroke-width:1.5;" width="249" x="655.9" y="500.5"/><ellipse cx="670.9" cy="516.5" fill="#ADD1B2" rx="11" ry="11" style="stroke:#008000;stroke-width:1.0;"/><path d="M673.8688,522.1406 Q673.2906,522.4375 672.65,522.5781 Q672.0094,522.7344 671.3063,522.7344 Q668.8063,522.7344 667.4781,521.0938 Q666.1656,519.4375 666.1656,516.3125 Q666.1656,513.1875 667.4781,511.5313 Q668.8063,509.875 671.3063,509.875 Q672.0094,509.875 672.65,510.0313 Q673.3063,510.1875 673.8688,510.4844 L673.8688,513.2031 Q673.2438,512.625 672.65,512.3594 Q672.0563,512.0781 671.4313,512.0781 Q670.0875,512.0781 669.4,513.1563 Q668.7125,514.2188 668.7125,516.3125 Q668.7125,518.4063 669.4,519.4844 Q670.0875,520.5469 671.4313,520.5469 Q672.0563,520.5469 672.65,520.2813 Q673.2438,520 673.8688,519.4219 L673.8688,522.1406 Z " fill="#000000"/><text fill="#000000" font-family="sans-serif" font-size="12" lengthAdjust="spacing" textLength="217" x="684.9" y="520.6543">TaskAlreadyInCompletionException</text><line style="stroke:#008000;stroke-width:1.5;" x1="656.9" x2="903.9" y1="532.5" y2="532.5"/><line style="stroke:#008000;stroke-width:1.5;" x1="656.9" x2="903.9" y1="540.5" y2="540.5"/><!--MD5=[8d9227fb68c99d044e3808809d150012]
reverse link ExceptionMapper to CamundaSystemExceptionMapper--><path d="M481.28,91.01 C477.31,122.18 468.38,162.04 448.4,192 C431.91,216.72 406.16,236.99 382.47,251.96 " fill="none" id="ExceptionMapper-backto-CamundaSystemExceptionMapper" style="stroke:#A80036;stroke-width:1.0;stroke-dasharray:7.0,7.0;"/><polygon fill="none" points="474.32,90.24,483.31,71.05,488.25,91.66,474.32,90.24" style="stroke:#A80036;stroke-width:1.0;"/><!--MD5=[e0909e0656153723e56a57d01f1bc7b7]
reverse link ExceptionMapper to CamundaRestExceptionMapper--><path d="M413.92,80.87 C384.74,97.18 351.47,115.76 324.42,130.88 " fill="none" id="ExceptionMapper-backto-CamundaRestExceptionMapper" style="stroke:#A80036;stroke-width:1.0;stroke-dasharray:7.0,7.0;"/><polygon fill="none" points="410.6,74.71,431.47,71.07,417.43,86.93,410.6,74.71" style="stroke:#A80036;stroke-width:1.0;"/><!--MD5=[d6f6191e83e6a7932195a4205b5b14d8]
reverse link ExceptionMapper to UserDataValidationExceptionMapper--><path d="M506.66,89.83 C529.28,146.51 556.18,241.76 519.4,313 C506.16,338.63 481.83,358.52 458.04,372.96 " fill="none" id="ExceptionMapper-backto-UserDataValidationExceptionMapper" style="stroke:#A80036;stroke-width:1.0;stroke-dasharray:7.0,7.0;"/><polygon fill="none" points="500.11,92.3,498.8,71.16,513.01,86.87,500.11,92.3" style="stroke:#A80036;stroke-width:1.0;"/><!--MD5=[b96c33c8bb323de1a4ed82f82dc86807]
reverse link ExceptionMapper to TaskAlreadyInCompletionExceptionMapper--><path d="M360.26,53.23 C258.64,65.71 126.46,89.52 93.4,131 C6,240.66 85.27,331.9 181.4,434 C206.15,460.29 240.28,479.91 272.24,493.98 " fill="none" id="ExceptionMapper-backto-TaskAlreadyInCompletionExceptionMapper" style="stroke:#A80036;stroke-width:1.0;stroke-dasharray:7.0,7.0;"/><polygon fill="none" points="359.45,46.28,380.13,50.89,361.09,60.18,359.45,46.28" style="stroke:#A80036;stroke-width:1.0;"/><!--MD5=[e73c274e08b2cd61f2f69b667d6f4924]
reverse link Throwable to RestException--><path d="M747.09,79.39 C728.86,98.43 707.35,120.88 691.59,137.33 " fill="none" id="Throwable-backto-RestException" style="stroke:#A80036;stroke-width:1.0;"/><polygon fill="none" points="742.26,74.33,761.15,64.73,752.37,84.01,742.26,74.33" style="stroke:#A80036;stroke-width:1.0;"/><!--MD5=[dd717d45b7343d9a783e75f5c65e43aa]
reverse link Throwable to SystemException--><path d="M775.32,84.52 C769.08,114.95 759.46,156.49 747.4,192 C739.51,215.21 727.84,240.62 719.14,258.42 " fill="none" id="Throwable-backto-SystemException" style="stroke:#A80036;stroke-width:1.0;"/><polygon fill="none" points="768.52,82.83,779.26,64.57,782.25,85.54,768.52,82.83" style="stroke:#A80036;stroke-width:1.0;"/><!--MD5=[21c212af1d804c0e36427bcf32a6ca61]
reverse link Throwable to ValidationException--><path d="M792.14,84.65 C801.51,138.77 812.75,234.05 794.4,313 C788.83,336.95 775.9,361.87 765.49,379.31 " fill="none" id="Throwable-backto-ValidationException" style="stroke:#A80036;stroke-width:1.0;"/><polygon fill="none" points="785.21,85.71,788.45,64.77,798.98,83.16,785.21,85.71" style="stroke:#A80036;stroke-width:1.0;"/><!--MD5=[6f937ac58b88aff77b20220254f52efb]
reverse link Throwable to TaskAlreadyInCompletionException--><path d="M806.97,82.41 C814.46,97.25 821.94,114.45 826.4,131 C861.49,261.29 887.08,305.67 845.4,434 C837.15,459.39 818.7,483.59 803.55,500.41 " fill="none" id="Throwable-backto-TaskAlreadyInCompletionException" style="stroke:#A80036;stroke-width:1.0;"/><polygon fill="none" points="800.66,85.44,797.39,64.51,813,78.83,800.66,85.44" style="stroke:#A80036;stroke-width:1.0;"/><!--MD5=[f6e3c795cddd24828ec0b90e3a4cfb64]
link ExceptionMapper to Throwable--><path codeLine="27" d="M588.64,40.5 C635.74,40.5 682.84,40.5 729.94,40.5 " fill="none" id="ExceptionMapper-to-Throwable" style="stroke:#A80036;stroke-width:1.0;stroke-dasharray:7.0,7.0;"/><polygon fill="#A80036" points="735.09,40.5,726.09,36.5,730.09,40.5,726.09,44.5,735.09,40.5" style="stroke:#A80036;stroke-width:1.0;"/><!--MD5=[69846ac71bc32537c31c4fd78d3d48d6]
link CamundaRestExceptionMapper to RestException--><path codeLine="28" d="M431.53,161.5 C488.8,161.5 546.08,161.5 603.35,161.5 " fill="none" id="CamundaRestExceptionMapper-to-RestException" style="stroke:#A80036;stroke-width:1.0;stroke-dasharray:7.0,7.0;"/><polygon fill="#A80036" points="608.54,161.5,599.54,157.5,603.54,161.5,599.54,165.5,608.54,161.5" style="stroke:#A80036;stroke-width:1.0;"/><!--MD5=[314c9718dd84d4a4905161df53b99ca1]
link CamundaSystemExceptionMapper to SystemException--><path codeLine="29" d="M502.59,282.5 C546.12,282.5 589.64,282.5 633.16,282.5 " fill="none" id="CamundaSystemExceptionMapper-to-SystemException" style="stroke:#A80036;stroke-width:1.0;stroke-dasharray:7.0,7.0;"/><polygon fill="#A80036" points="638.2,282.5,629.2,278.5,633.2,282.5,629.2,286.5,638.2,282.5" style="stroke:#A80036;stroke-width:1.0;"/><!--MD5=[b6551ce0beb68f2afc47de127f6454f0]
link UserDataValidationExceptionMapper to ValidationException--><path codeLine="30" d="M587.59,403.5 C614.22,403.5 640.85,403.5 667.48,403.5 " fill="none" id="UserDataValidationExceptionMapper-to-ValidationException" style="stroke:#A80036;stroke-width:1.0;stroke-dasharray:7.0,7.0;"/><polygon fill="#A80036" points="672.81,403.5,663.81,399.5,667.81,403.5,663.81,407.5,672.81,403.5" style="stroke:#A80036;stroke-width:1.0;"/><!--MD5=[3fe675cdb4115d3a3d42e23cd0217fb6]
link TaskAlreadyInCompletionExceptionMapper to TaskAlreadyInCompletionException--><path codeLine="31" d="M621.2,524.5 C630.99,524.5 640.79,524.5 650.59,524.5 " fill="none" id="TaskAlreadyInCompletionExceptionMapper-to-TaskAlreadyInCompletionException" style="stroke:#A80036;stroke-width:1.0;stroke-dasharray:7.0,7.0;"/><polygon fill="#A80036" points="655.71,524.5,646.71,520.5,650.71,524.5,646.71,528.5,655.71,524.5" style="stroke:#A80036;stroke-width:1.0;"/><!--MD5=[926255e282e42c53b178233d48937290]
link CamundaRestExceptionMapper to CamundaSystemExceptionMapper--><!--MD5=[2b4b0fb7049d0eb59a57b96233838b3a]
link CamundaSystemExceptionMapper to UserDataValidationExceptionMapper--><!--MD5=[55d7af0e380aa0439f5efc8bdab18411]
link UserDataValidationExceptionMapper to TaskAlreadyInCompletionExceptionMapper--><!--MD5=[e1ddce709ff126e5744929efb3ddfe0f]
link RestException to SystemException--><!--MD5=[3b78a9816af5dd9ed49856e73bd4d0b2]
link SystemException to ValidationException--><!--MD5=[c0518cb71af8de2a2a648801193fcc5e]
link ValidationException to TaskAlreadyInCompletionException--><!--MD5=[1d9c64d4429bc1fa843edf76e262b46d]
@startuml
interface ExceptionMapper<Throwable> {
  toResponse()
}

class CamundaSystemExceptionMapper<SystemException> #back:lightblue;line:green;text:black implements ExceptionMapper {
  toResponse()
}

class CamundaRestExceptionMapper<RestException> #back:lightblue;line:green;text:black implements ExceptionMapper {
  toResponse()
}

class UserDataValidationExceptionMapper<ValidationException> #back:lightblue;line:green;text:black implements ExceptionMapper {
  toResponse()
}


class TaskAlreadyInCompletionExceptionMapper<TaskAlreadyInCompletionException> #back:lightblue;line:green;text:black implements ExceptionMapper {
  toResponse()
}

class RestException extends Throwable
class SystemException #back:lightgreen;line:green;text:black extends Throwable
class ValidationException #back:lightgreen;line:green;text:black extends Throwable
class TaskAlreadyInCompletionException #back:lightblue;line:green;text:black extends Throwable

ExceptionMapper .> Throwable
CamundaRestExceptionMapper .> RestException
CamundaSystemExceptionMapper .> SystemException
UserDataValidationExceptionMapper .> ValidationException
TaskAlreadyInCompletionExceptionMapper .> TaskAlreadyInCompletionException

CamundaRestExceptionMapper - -[hidden]> CamundaSystemExceptionMapper
CamundaSystemExceptionMapper - -[hidden]> UserDataValidationExceptionMapper
UserDataValidationExceptionMapper - -[hidden]> TaskAlreadyInCompletionExceptionMapper
RestException - -[hidden]> SystemException
SystemException - -[hidden]> ValidationException
ValidationException - -[hidden]> TaskAlreadyInCompletionException
@enduml

PlantUML version 1.2021.7(Sun May 23 12:40:07 UTC 2021)
(GPL source distribution)
Java Runtime: OpenJDK Runtime Environment
JVM: OpenJDK 64-Bit Server VM
Default Encoding: UTF-8
Language: en
Country: null
--></g></svg>