<?xml version="1.0" encoding="UTF-8" standalone="no"?><svg xmlns="http://www.w3.org/2000/svg" xmlns:xlink="http://www.w3.org/1999/xlink" contentScriptType="application/ecmascript" contentStyleType="text/css" height="501px" preserveAspectRatio="none" style="width:1339px;height:501px;background:#FFFFFF;" version="1.1" viewBox="0 0 1339 501" width="1339px" zoomAndPan="magnify"><defs><filter height="300%" id="fam05tthgkbpt" width="300%" x="-1" y="-1"><feGaussianBlur result="blurOut" stdDeviation="2.0"/><feColorMatrix in="blurOut" result="blurOut2" type="matrix" values="0 0 0 0 0 0 0 0 0 0 0 0 0 0 0 0 0 0 .4 0"/><feOffset dx="4.0" dy="4.0" in="blurOut2" result="blurOut3"/><feBlend in="SourceGraphic" in2="blurOut3" mode="normal"/></filter></defs><g><!--MD5=[6fc27bdb16febdb188a9742425b96ec7]
class ValidationException--><rect codeLine="1" fill="#90EE90" filter="url(#fam05tthgkbpt)" height="48" id="ValidationException" style="stroke:#008000;stroke-width:1.5;" width="155" x="344" y="115"/><ellipse cx="359" cy="131" fill="#ADD1B2" rx="11" ry="11" style="stroke:#008000;stroke-width:1.0;"/><path d="M361.9688,136.6406 Q361.3906,136.9375 360.75,137.0781 Q360.1094,137.2344 359.4063,137.2344 Q356.9063,137.2344 355.5781,135.5938 Q354.2656,133.9375 354.2656,130.8125 Q354.2656,127.6875 355.5781,126.0313 Q356.9063,124.375 359.4063,124.375 Q360.1094,124.375 360.75,124.5313 Q361.4063,124.6875 361.9688,124.9844 L361.9688,127.7031 Q361.3438,127.125 360.75,126.8594 Q360.1563,126.5781 359.5313,126.5781 Q358.1875,126.5781 357.5,127.6563 Q356.8125,128.7188 356.8125,130.8125 Q356.8125,132.9063 357.5,133.9844 Q358.1875,135.0469 359.5313,135.0469 Q360.1563,135.0469 360.75,134.7813 Q361.3438,134.5 361.9688,133.9219 L361.9688,136.6406 Z " fill="#000000"/><text fill="#000000" font-family="sans-serif" font-size="12" lengthAdjust="spacing" textLength="123" x="373" y="135.1543">ValidationException</text><line style="stroke:#008000;stroke-width:1.5;" x1="345" x2="498" y1="147" y2="147"/><line style="stroke:#008000;stroke-width:1.5;" x1="345" x2="498" y1="155" y2="155"/><!--MD5=[5c6c7d52e42032554528404b62c1d271]
class RuntimeException--><rect fill="#FEFECE" filter="url(#fam05tthgkbpt)" height="48" id="RuntimeException" style="stroke:#A80036;stroke-width:1.5;" width="144" x="440.5" y="7"/><ellipse cx="455.5" cy="23" fill="#ADD1B2" rx="11" ry="11" style="stroke:#A80036;stroke-width:1.0;"/><path d="M458.4688,28.6406 Q457.8906,28.9375 457.25,29.0781 Q456.6094,29.2344 455.9063,29.2344 Q453.4063,29.2344 452.0781,27.5938 Q450.7656,25.9375 450.7656,22.8125 Q450.7656,19.6875 452.0781,18.0313 Q453.4063,16.375 455.9063,16.375 Q456.6094,16.375 457.25,16.5313 Q457.9063,16.6875 458.4688,16.9844 L458.4688,19.7031 Q457.8438,19.125 457.25,18.8594 Q456.6563,18.5781 456.0313,18.5781 Q454.6875,18.5781 454,19.6563 Q453.3125,20.7188 453.3125,22.8125 Q453.3125,24.9063 454,25.9844 Q454.6875,27.0469 456.0313,27.0469 Q456.6563,27.0469 457.25,26.7813 Q457.8438,26.5 458.4688,25.9219 L458.4688,28.6406 Z " fill="#000000"/><text fill="#000000" font-family="sans-serif" font-size="12" lengthAdjust="spacing" textLength="112" x="469.5" y="27.1543">RuntimeException</text><line style="stroke:#A80036;stroke-width:1.5;" x1="441.5" x2="583.5" y1="39" y2="39"/><line style="stroke:#A80036;stroke-width:1.5;" x1="441.5" x2="583.5" y1="47" y2="47"/><!--MD5=[66422815084ba23d8870f01e7424f1b1]
class SystemException--><rect codeLine="2" fill="#90EE90" filter="url(#fam05tthgkbpt)" height="48" id="SystemException" style="stroke:#008000;stroke-width:1.5;" width="138" x="542.5" y="115"/><ellipse cx="557.5" cy="131" fill="#ADD1B2" rx="11" ry="11" style="stroke:#008000;stroke-width:1.0;"/><path d="M560.4688,136.6406 Q559.8906,136.9375 559.25,137.0781 Q558.6094,137.2344 557.9063,137.2344 Q555.4063,137.2344 554.0781,135.5938 Q552.7656,133.9375 552.7656,130.8125 Q552.7656,127.6875 554.0781,126.0313 Q555.4063,124.375 557.9063,124.375 Q558.6094,124.375 559.25,124.5313 Q559.9063,124.6875 560.4688,124.9844 L560.4688,127.7031 Q559.8438,127.125 559.25,126.8594 Q558.6563,126.5781 558.0313,126.5781 Q556.6875,126.5781 556,127.6563 Q555.3125,128.7188 555.3125,130.8125 Q555.3125,132.9063 556,133.9844 Q556.6875,135.0469 558.0313,135.0469 Q558.6563,135.0469 559.25,134.7813 Q559.8438,134.5 560.4688,133.9219 L560.4688,136.6406 Z " fill="#000000"/><text fill="#000000" font-family="sans-serif" font-size="12" lengthAdjust="spacing" textLength="106" x="571.5" y="135.1543">SystemException</text><line style="stroke:#008000;stroke-width:1.5;" x1="543.5" x2="679.5" y1="147" y2="147"/><line style="stroke:#008000;stroke-width:1.5;" x1="543.5" x2="679.5" y1="155" y2="155"/><!--MD5=[33c963e1e7c0ef772a6d7168b7cbb845]
class RestSystemException--><rect codeLine="3" fill="#90EE90" filter="url(#fam05tthgkbpt)" height="48" id="RestSystemException" style="stroke:#008000;stroke-width:1.5;" width="166" x="536.5" y="223"/><ellipse cx="551.5" cy="239" fill="#ADD1B2" rx="11" ry="11" style="stroke:#008000;stroke-width:1.0;"/><path d="M554.4688,244.6406 Q553.8906,244.9375 553.25,245.0781 Q552.6094,245.2344 551.9063,245.2344 Q549.4063,245.2344 548.0781,243.5938 Q546.7656,241.9375 546.7656,238.8125 Q546.7656,235.6875 548.0781,234.0313 Q549.4063,232.375 551.9063,232.375 Q552.6094,232.375 553.25,232.5313 Q553.9063,232.6875 554.4688,232.9844 L554.4688,235.7031 Q553.8438,235.125 553.25,234.8594 Q552.6563,234.5781 552.0313,234.5781 Q550.6875,234.5781 550,235.6563 Q549.3125,236.7188 549.3125,238.8125 Q549.3125,240.9063 550,241.9844 Q550.6875,243.0469 552.0313,243.0469 Q552.6563,243.0469 553.25,242.7813 Q553.8438,242.5 554.4688,241.9219 L554.4688,244.6406 Z " fill="#000000"/><text fill="#000000" font-family="sans-serif" font-size="12" lengthAdjust="spacing" textLength="134" x="565.5" y="243.1543">RestSystemException</text><line style="stroke:#008000;stroke-width:1.5;" x1="537.5" x2="701.5" y1="255" y2="255"/><line style="stroke:#008000;stroke-width:1.5;" x1="537.5" x2="701.5" y1="263" y2="263"/><!--MD5=[0c8b03f510509d316887e5dbdb0b6b2c]
class ClientValidationException--><rect codeLine="5" fill="#ADD8E6" filter="url(#fam05tthgkbpt)" height="48" id="ClientValidationException" style="stroke:#008000;stroke-width:1.5;" width="190" x="311.5" y="223"/><ellipse cx="326.5" cy="239" fill="#ADD1B2" rx="11" ry="11" style="stroke:#008000;stroke-width:1.0;"/><path d="M329.4688,244.6406 Q328.8906,244.9375 328.25,245.0781 Q327.6094,245.2344 326.9063,245.2344 Q324.4063,245.2344 323.0781,243.5938 Q321.7656,241.9375 321.7656,238.8125 Q321.7656,235.6875 323.0781,234.0313 Q324.4063,232.375 326.9063,232.375 Q327.6094,232.375 328.25,232.5313 Q328.9063,232.6875 329.4688,232.9844 L329.4688,235.7031 Q328.8438,235.125 328.25,234.8594 Q327.6563,234.5781 327.0313,234.5781 Q325.6875,234.5781 325,235.6563 Q324.3125,236.7188 324.3125,238.8125 Q324.3125,240.9063 325,241.9844 Q325.6875,243.0469 327.0313,243.0469 Q327.6563,243.0469 328.25,242.7813 Q328.8438,242.5 329.4688,241.9219 L329.4688,244.6406 Z " fill="#000000"/><text fill="#000000" font-family="sans-serif" font-size="12" lengthAdjust="spacing" textLength="158" x="340.5" y="243.1543">ClientValidationException</text><line style="stroke:#008000;stroke-width:1.5;" x1="312.5" x2="500.5" y1="255" y2="255"/><line style="stroke:#008000;stroke-width:1.5;" x1="312.5" x2="500.5" y1="263" y2="263"/><!--MD5=[2174ec9d12e3fa4d80b116ea420bb8c6]
class AuthenticationException--><rect codeLine="7" fill="#ADD8E6" filter="url(#fam05tthgkbpt)" height="48" id="AuthenticationException" style="stroke:#008000;stroke-width:1.5;" width="185" x="7" y="331"/><ellipse cx="22" cy="347" fill="#ADD1B2" rx="11" ry="11" style="stroke:#008000;stroke-width:1.0;"/><path d="M24.9688,352.6406 Q24.3906,352.9375 23.75,353.0781 Q23.1094,353.2344 22.4063,353.2344 Q19.9063,353.2344 18.5781,351.5938 Q17.2656,349.9375 17.2656,346.8125 Q17.2656,343.6875 18.5781,342.0313 Q19.9063,340.375 22.4063,340.375 Q23.1094,340.375 23.75,340.5313 Q24.4063,340.6875 24.9688,340.9844 L24.9688,343.7031 Q24.3438,343.125 23.75,342.8594 Q23.1563,342.5781 22.5313,342.5781 Q21.1875,342.5781 20.5,343.6563 Q19.8125,344.7188 19.8125,346.8125 Q19.8125,348.9063 20.5,349.9844 Q21.1875,351.0469 22.5313,351.0469 Q23.1563,351.0469 23.75,350.7813 Q24.3438,350.5 24.9688,349.9219 L24.9688,352.6406 Z " fill="#000000"/><text fill="#000000" font-family="sans-serif" font-size="12" lengthAdjust="spacing" textLength="153" x="36" y="351.1543">AuthenticationException</text><line style="stroke:#008000;stroke-width:1.5;" x1="8" x2="191" y1="363" y2="363"/><line style="stroke:#008000;stroke-width:1.5;" x1="8" x2="191" y1="371" y2="371"/><!--MD5=[31c5e4be895061522ab085888306d9de]
class AuthorizationException--><rect codeLine="8" fill="#ADD8E6" filter="url(#fam05tthgkbpt)" height="48" id="AuthorizationException" style="stroke:#008000;stroke-width:1.5;" width="175" x="227" y="331"/><ellipse cx="242" cy="347" fill="#ADD1B2" rx="11" ry="11" style="stroke:#008000;stroke-width:1.0;"/><path d="M244.9688,352.6406 Q244.3906,352.9375 243.75,353.0781 Q243.1094,353.2344 242.4063,353.2344 Q239.9063,353.2344 238.5781,351.5938 Q237.2656,349.9375 237.2656,346.8125 Q237.2656,343.6875 238.5781,342.0313 Q239.9063,340.375 242.4063,340.375 Q243.1094,340.375 243.75,340.5313 Q244.4063,340.6875 244.9688,340.9844 L244.9688,343.7031 Q244.3438,343.125 243.75,342.8594 Q243.1563,342.5781 242.5313,342.5781 Q241.1875,342.5781 240.5,343.6563 Q239.8125,344.7188 239.8125,346.8125 Q239.8125,348.9063 240.5,349.9844 Q241.1875,351.0469 242.5313,351.0469 Q243.1563,351.0469 243.75,350.7813 Q244.3438,350.5 244.9688,349.9219 L244.9688,352.6406 Z " fill="#000000"/><text fill="#000000" font-family="sans-serif" font-size="12" lengthAdjust="spacing" textLength="143" x="256" y="351.1543">AuthorizationException</text><line style="stroke:#008000;stroke-width:1.5;" x1="228" x2="401" y1="363" y2="363"/><line style="stroke:#008000;stroke-width:1.5;" x1="228" x2="401" y1="371" y2="371"/><!--MD5=[c9e1d14f292a3467233ab5a09264c0db]
class BadRequestException--><rect codeLine="9" fill="#ADD8E6" filter="url(#fam05tthgkbpt)" height="48" id="BadRequestException" style="stroke:#008000;stroke-width:1.5;" width="169" x="437" y="331"/><ellipse cx="452" cy="347" fill="#ADD1B2" rx="11" ry="11" style="stroke:#008000;stroke-width:1.0;"/><path d="M454.9688,352.6406 Q454.3906,352.9375 453.75,353.0781 Q453.1094,353.2344 452.4063,353.2344 Q449.9063,353.2344 448.5781,351.5938 Q447.2656,349.9375 447.2656,346.8125 Q447.2656,343.6875 448.5781,342.0313 Q449.9063,340.375 452.4063,340.375 Q453.1094,340.375 453.75,340.5313 Q454.4063,340.6875 454.9688,340.9844 L454.9688,343.7031 Q454.3438,343.125 453.75,342.8594 Q453.1563,342.5781 452.5313,342.5781 Q451.1875,342.5781 450.5,343.6563 Q449.8125,344.7188 449.8125,346.8125 Q449.8125,348.9063 450.5,349.9844 Q451.1875,351.0469 452.5313,351.0469 Q453.1563,351.0469 453.75,350.7813 Q454.3438,350.5 454.9688,349.9219 L454.9688,352.6406 Z " fill="#000000"/><text fill="#000000" font-family="sans-serif" font-size="12" lengthAdjust="spacing" textLength="137" x="466" y="351.1543">BadRequestException</text><line style="stroke:#008000;stroke-width:1.5;" x1="438" x2="605" y1="363" y2="363"/><line style="stroke:#008000;stroke-width:1.5;" x1="438" x2="605" y1="371" y2="371"/><!--MD5=[22f5a9737ba966f876d941936177618a]
class NotFoundException--><rect codeLine="10" fill="#ADD8E6" filter="url(#fam05tthgkbpt)" height="48" id="NotFoundException" style="stroke:#008000;stroke-width:1.5;" width="154" x="641.5" y="331"/><ellipse cx="656.5" cy="347" fill="#ADD1B2" rx="11" ry="11" style="stroke:#008000;stroke-width:1.0;"/><path d="M659.4688,352.6406 Q658.8906,352.9375 658.25,353.0781 Q657.6094,353.2344 656.9063,353.2344 Q654.4063,353.2344 653.0781,351.5938 Q651.7656,349.9375 651.7656,346.8125 Q651.7656,343.6875 653.0781,342.0313 Q654.4063,340.375 656.9063,340.375 Q657.6094,340.375 658.25,340.5313 Q658.9063,340.6875 659.4688,340.9844 L659.4688,343.7031 Q658.8438,343.125 658.25,342.8594 Q657.6563,342.5781 657.0313,342.5781 Q655.6875,342.5781 655,343.6563 Q654.3125,344.7188 654.3125,346.8125 Q654.3125,348.9063 655,349.9844 Q655.6875,351.0469 657.0313,351.0469 Q657.6563,351.0469 658.25,350.7813 Q658.8438,350.5 659.4688,349.9219 L659.4688,352.6406 Z " fill="#000000"/><text fill="#000000" font-family="sans-serif" font-size="12" lengthAdjust="spacing" textLength="122" x="670.5" y="351.1543">NotFoundException</text><line style="stroke:#008000;stroke-width:1.5;" x1="642.5" x2="794.5" y1="363" y2="363"/><line style="stroke:#008000;stroke-width:1.5;" x1="642.5" x2="794.5" y1="371" y2="371"/><!--MD5=[dfaf9013946fa881efaa2d6ed516af4d]
class CamundaCommunicationException--><rect codeLine="11" fill="#ADD8E6" filter="url(#fam05tthgkbpt)" height="48" id="CamundaCommunicationException" style="stroke:#008000;stroke-width:1.5;" width="248" x="830.5" y="331"/><ellipse cx="845.5" cy="347" fill="#ADD1B2" rx="11" ry="11" style="stroke:#008000;stroke-width:1.0;"/><path d="M848.4688,352.6406 Q847.8906,352.9375 847.25,353.0781 Q846.6094,353.2344 845.9063,353.2344 Q843.4063,353.2344 842.0781,351.5938 Q840.7656,349.9375 840.7656,346.8125 Q840.7656,343.6875 842.0781,342.0313 Q843.4063,340.375 845.9063,340.375 Q846.6094,340.375 847.25,340.5313 Q847.9063,340.6875 848.4688,340.9844 L848.4688,343.7031 Q847.8438,343.125 847.25,342.8594 Q846.6563,342.5781 846.0313,342.5781 Q844.6875,342.5781 844,343.6563 Q843.3125,344.7188 843.3125,346.8125 Q843.3125,348.9063 844,349.9844 Q844.6875,351.0469 846.0313,351.0469 Q846.6563,351.0469 847.25,350.7813 Q847.8438,350.5 848.4688,349.9219 L848.4688,352.6406 Z " fill="#000000"/><text fill="#000000" font-family="sans-serif" font-size="12" lengthAdjust="spacing" textLength="216" x="859.5" y="351.1543">CamundaCommunicationException</text><line style="stroke:#008000;stroke-width:1.5;" x1="831.5" x2="1077.5" y1="363" y2="363"/><line style="stroke:#008000;stroke-width:1.5;" x1="831.5" x2="1077.5" y1="371" y2="371"/><!--MD5=[af580a66360266e50d1d542452566e5b]
class InternalServerErrorException--><rect codeLine="12" fill="#ADD8E6" filter="url(#fam05tthgkbpt)" height="48" id="InternalServerErrorException" style="stroke:#008000;stroke-width:1.5;" width="212" x="1113.5" y="331"/><ellipse cx="1128.5" cy="347" fill="#ADD1B2" rx="11" ry="11" style="stroke:#008000;stroke-width:1.0;"/><path d="M1131.4688,352.6406 Q1130.8906,352.9375 1130.25,353.0781 Q1129.6094,353.2344 1128.9063,353.2344 Q1126.4063,353.2344 1125.0781,351.5938 Q1123.7656,349.9375 1123.7656,346.8125 Q1123.7656,343.6875 1125.0781,342.0313 Q1126.4063,340.375 1128.9063,340.375 Q1129.6094,340.375 1130.25,340.5313 Q1130.9063,340.6875 1131.4688,340.9844 L1131.4688,343.7031 Q1130.8438,343.125 1130.25,342.8594 Q1129.6563,342.5781 1129.0313,342.5781 Q1127.6875,342.5781 1127,343.6563 Q1126.3125,344.7188 1126.3125,346.8125 Q1126.3125,348.9063 1127,349.9844 Q1127.6875,351.0469 1129.0313,351.0469 Q1129.6563,351.0469 1130.25,350.7813 Q1130.8438,350.5 1131.4688,349.9219 L1131.4688,352.6406 Z " fill="#000000"/><text fill="#000000" font-family="sans-serif" font-size="12" lengthAdjust="spacing" textLength="180" x="1142.5" y="351.1543">InternalServerErrorException</text><line style="stroke:#008000;stroke-width:1.5;" x1="1114.5" x2="1324.5" y1="363" y2="363"/><line style="stroke:#008000;stroke-width:1.5;" x1="1114.5" x2="1324.5" y1="371" y2="371"/><!--MD5=[80d0b9db9b0a856f6522301a1400c359]
class ProcessDefinitionNotFoundException--><rect codeLine="14" fill="#ADD8E6" filter="url(#fam05tthgkbpt)" height="48" id="ProcessDefinitionNotFoundException" style="stroke:#008000;stroke-width:1.5;" width="263" x="131" y="439"/><ellipse cx="146" cy="455" fill="#ADD1B2" rx="11" ry="11" style="stroke:#008000;stroke-width:1.0;"/><path d="M148.9688,460.6406 Q148.3906,460.9375 147.75,461.0781 Q147.1094,461.2344 146.4063,461.2344 Q143.9063,461.2344 142.5781,459.5938 Q141.2656,457.9375 141.2656,454.8125 Q141.2656,451.6875 142.5781,450.0313 Q143.9063,448.375 146.4063,448.375 Q147.1094,448.375 147.75,448.5313 Q148.4063,448.6875 148.9688,448.9844 L148.9688,451.7031 Q148.3438,451.125 147.75,450.8594 Q147.1563,450.5781 146.5313,450.5781 Q145.1875,450.5781 144.5,451.6563 Q143.8125,452.7188 143.8125,454.8125 Q143.8125,456.9063 144.5,457.9844 Q145.1875,459.0469 146.5313,459.0469 Q147.1563,459.0469 147.75,458.7813 Q148.3438,458.5 148.9688,457.9219 L148.9688,460.6406 Z " fill="#000000"/><text fill="#000000" font-family="sans-serif" font-size="12" lengthAdjust="spacing" textLength="231" x="160" y="459.1543">ProcessDefinitionNotFoundException</text><line style="stroke:#008000;stroke-width:1.5;" x1="132" x2="393" y1="471" y2="471"/><line style="stroke:#008000;stroke-width:1.5;" x1="132" x2="393" y1="479" y2="479"/><!--MD5=[64dae874297b7050ea1f6d42f7b84912]
class ProcessInstanceNotFoundException--><rect codeLine="15" fill="#ADD8E6" filter="url(#fam05tthgkbpt)" height="48" id="ProcessInstanceNotFoundException" style="stroke:#008000;stroke-width:1.5;" width="258" x="429.5" y="439"/><ellipse cx="444.5" cy="455" fill="#ADD1B2" rx="11" ry="11" style="stroke:#008000;stroke-width:1.0;"/><path d="M447.4688,460.6406 Q446.8906,460.9375 446.25,461.0781 Q445.6094,461.2344 444.9063,461.2344 Q442.4063,461.2344 441.0781,459.5938 Q439.7656,457.9375 439.7656,454.8125 Q439.7656,451.6875 441.0781,450.0313 Q442.4063,448.375 444.9063,448.375 Q445.6094,448.375 446.25,448.5313 Q446.9063,448.6875 447.4688,448.9844 L447.4688,451.7031 Q446.8438,451.125 446.25,450.8594 Q445.6563,450.5781 445.0313,450.5781 Q443.6875,450.5781 443,451.6563 Q442.3125,452.7188 442.3125,454.8125 Q442.3125,456.9063 443,457.9844 Q443.6875,459.0469 445.0313,459.0469 Q445.6563,459.0469 446.25,458.7813 Q446.8438,458.5 447.4688,457.9219 L447.4688,460.6406 Z " fill="#000000"/><text fill="#000000" font-family="sans-serif" font-size="12" lengthAdjust="spacing" textLength="226" x="458.5" y="459.1543">ProcessInstanceNotFoundException</text><line style="stroke:#008000;stroke-width:1.5;" x1="430.5" x2="686.5" y1="471" y2="471"/><line style="stroke:#008000;stroke-width:1.5;" x1="430.5" x2="686.5" y1="479" y2="479"/><!--MD5=[2c1f9658931f2ab3559f7a3446987815]
class ProcessInstanceVariableNotFoundException--><rect codeLine="16" fill="#ADD8E6" filter="url(#fam05tthgkbpt)" height="48" id="ProcessInstanceVariableNotFoundException" style="stroke:#008000;stroke-width:1.5;" width="309" x="723" y="439"/><ellipse cx="738" cy="455" fill="#ADD1B2" rx="11" ry="11" style="stroke:#008000;stroke-width:1.0;"/><path d="M740.9688,460.6406 Q740.3906,460.9375 739.75,461.0781 Q739.1094,461.2344 738.4063,461.2344 Q735.9063,461.2344 734.5781,459.5938 Q733.2656,457.9375 733.2656,454.8125 Q733.2656,451.6875 734.5781,450.0313 Q735.9063,448.375 738.4063,448.375 Q739.1094,448.375 739.75,448.5313 Q740.4063,448.6875 740.9688,448.9844 L740.9688,451.7031 Q740.3438,451.125 739.75,450.8594 Q739.1563,450.5781 738.5313,450.5781 Q737.1875,450.5781 736.5,451.6563 Q735.8125,452.7188 735.8125,454.8125 Q735.8125,456.9063 736.5,457.9844 Q737.1875,459.0469 738.5313,459.0469 Q739.1563,459.0469 739.75,458.7813 Q740.3438,458.5 740.9688,457.9219 L740.9688,460.6406 Z " fill="#000000"/><text fill="#000000" font-family="sans-serif" font-size="12" lengthAdjust="spacing" textLength="277" x="752" y="459.1543">ProcessInstanceVariableNotFoundException</text><line style="stroke:#008000;stroke-width:1.5;" x1="724" x2="1031" y1="471" y2="471"/><line style="stroke:#008000;stroke-width:1.5;" x1="724" x2="1031" y1="479" y2="479"/><!--MD5=[cce4bb4b697ed45d988ae7ab33aa6f77]
class TaskNotFoundException--><rect codeLine="17" fill="#ADD8E6" filter="url(#fam05tthgkbpt)" height="48" id="TaskNotFoundException" style="stroke:#008000;stroke-width:1.5;" width="183" x="1067" y="439"/><ellipse cx="1082" cy="455" fill="#ADD1B2" rx="11" ry="11" style="stroke:#008000;stroke-width:1.0;"/><path d="M1084.9688,460.6406 Q1084.3906,460.9375 1083.75,461.0781 Q1083.1094,461.2344 1082.4063,461.2344 Q1079.9063,461.2344 1078.5781,459.5938 Q1077.2656,457.9375 1077.2656,454.8125 Q1077.2656,451.6875 1078.5781,450.0313 Q1079.9063,448.375 1082.4063,448.375 Q1083.1094,448.375 1083.75,448.5313 Q1084.4063,448.6875 1084.9688,448.9844 L1084.9688,451.7031 Q1084.3438,451.125 1083.75,450.8594 Q1083.1563,450.5781 1082.5313,450.5781 Q1081.1875,450.5781 1080.5,451.6563 Q1079.8125,452.7188 1079.8125,454.8125 Q1079.8125,456.9063 1080.5,457.9844 Q1081.1875,459.0469 1082.5313,459.0469 Q1083.1563,459.0469 1083.75,458.7813 Q1084.3438,458.5 1084.9688,457.9219 L1084.9688,460.6406 Z " fill="#000000"/><text fill="#000000" font-family="sans-serif" font-size="12" lengthAdjust="spacing" textLength="151" x="1096" y="459.1543">TaskNotFoundException</text><line style="stroke:#008000;stroke-width:1.5;" x1="1068" x2="1249" y1="471" y2="471"/><line style="stroke:#008000;stroke-width:1.5;" x1="1068" x2="1249" y1="479" y2="479"/><!--MD5=[b2b63795c3090187ad014a5d26b0dca7]
reverse link RuntimeException to ValidationException--><path d="M479.68,70.23 C466.92,85.1 452.7,101.65 441.52,114.68 " fill="none" id="RuntimeException-backto-ValidationException" style="stroke:#A80036;stroke-width:1.0;"/><polygon fill="none" points="474.42,65.62,492.75,55,485.04,74.74,474.42,65.62" style="stroke:#A80036;stroke-width:1.0;"/><!--MD5=[74298a7477348c461b09e865d8b18dee]
reverse link RuntimeException to SystemException--><path d="M547.76,69.75 C561.76,84.74 577.42,101.51 589.72,114.68 " fill="none" id="RuntimeException-backto-SystemException" style="stroke:#A80036;stroke-width:1.0;"/><polygon fill="none" points="542.52,74.39,533.98,55,552.75,64.84,542.52,74.39" style="stroke:#A80036;stroke-width:1.0;"/><!--MD5=[fe147d7691d4d733dbe423ccccbc2510]
reverse link SystemException to RestSystemException--><path d="M614.75,183.02 C615.77,196.58 616.86,211.04 617.74,222.68 " fill="none" id="SystemException-backto-RestSystemException" style="stroke:#A80036;stroke-width:1.0;"/><polygon fill="none" points="607.76,183.47,613.24,163,621.72,182.42,607.76,183.47" style="stroke:#A80036;stroke-width:1.0;"/><!--MD5=[96d005ce5bd2a3a81caccdd303608af3]
reverse link ValidationException to ClientValidationException--><path d="M415.41,183.02 C413.49,196.58 411.45,211.04 409.8,222.68 " fill="none" id="ValidationException-backto-ClientValidationException" style="stroke:#A80036;stroke-width:1.0;"/><polygon fill="none" points="408.51,181.82,418.25,163,422.37,183.78,408.51,181.82" style="stroke:#A80036;stroke-width:1.0;"/><!--MD5=[273d50ee7de88e9f86399675c0055f8b]
reverse link RestSystemException to AuthenticationException--><path d="M516.69,271.51 C378.92,300.4 341.03,304.52 209.5,331 C203.86,332.14 198.06,333.32 192.2,334.51 " fill="none" id="RestSystemException-backto-AuthenticationException" style="stroke:#A80036;stroke-width:1.0;"/><polygon fill="none" points="515.32,264.64,536.34,267.36,518.21,278.34,515.32,264.64" style="stroke:#A80036;stroke-width:1.0;"/><!--MD5=[55ccd2f0845cfac25ed5ed44691bc2cd]
reverse link RestSystemException to AuthorizationException--><path d="M534.31,277.61 C485.76,294.48 425.83,315.31 380.81,330.95 " fill="none" id="RestSystemException-backto-AuthorizationException" style="stroke:#A80036;stroke-width:1.0;"/><polygon fill="none" points="532.13,270.95,553.32,271,536.73,284.18,532.13,270.95" style="stroke:#A80036;stroke-width:1.0;"/><!--MD5=[5998616c5dd522d294f77a3a239253ad]
reverse link RestSystemException to BadRequestException--><path d="M584.6,285.75 C570.74,300.74 555.23,317.51 543.06,330.68 " fill="none" id="RestSystemException-backto-BadRequestException" style="stroke:#A80036;stroke-width:1.0;"/><polygon fill="none" points="579.52,280.93,598.24,271,589.8,290.44,579.52,280.93" style="stroke:#A80036;stroke-width:1.0;"/><!--MD5=[fbea51dd6672deda6a8798f2c253048a]
reverse link RestSystemException to NotFoundException--><path d="M654.76,285.75 C668.76,300.74 684.42,317.51 696.72,330.68 " fill="none" id="RestSystemException-backto-NotFoundException" style="stroke:#A80036;stroke-width:1.0;"/><polygon fill="none" points="649.52,290.39,640.98,271,659.75,280.84,649.52,290.39" style="stroke:#A80036;stroke-width:1.0;"/><!--MD5=[54418ddd604e1e65420d50d1702ed7de]
reverse link RestSystemException to CamundaCommunicationException--><path d="M711.3,277.05 C764.93,294.02 831.67,315.13 881.66,330.95 " fill="none" id="RestSystemException-backto-CamundaCommunicationException" style="stroke:#A80036;stroke-width:1.0;"/><polygon fill="none" points="709.15,283.71,692.19,271,713.37,270.36,709.15,283.71" style="stroke:#A80036;stroke-width:1.0;"/><!--MD5=[feee65acd1b2df1c323074c38c5e4732]
reverse link RestSystemException to InternalServerErrorException--><path d="M722.52,265.54 C819.17,282.09 967.72,307.76 1096.5,331 C1101.95,331.98 1107.54,333 1113.18,334.03 " fill="none" id="RestSystemException-backto-InternalServerErrorException" style="stroke:#A80036;stroke-width:1.0;"/><polygon fill="none" points="721.24,272.42,702.71,262.15,723.6,258.62,721.24,272.42" style="stroke:#A80036;stroke-width:1.0;"/><!--MD5=[a7a7f24f43a7be678190b94c2c024485]
reverse link NotFoundException to ProcessDefinitionNotFoundException--><path d="M621.61,379.42 C523.69,402.47 431.96,423.51 364.11,438.97 " fill="none" id="NotFoundException-backto-ProcessDefinitionNotFoundException" style="stroke:#A80036;stroke-width:1.0;"/><polygon fill="none" points="620.19,372.56,641.27,374.78,623.41,386.18,620.19,372.56" style="stroke:#A80036;stroke-width:1.0;"/><!--MD5=[dc0efe9e8ad0669a88e7379759567684]
reverse link NotFoundException to ProcessInstanceNotFoundException--><path d="M667.11,390.05 C643.04,405.99 614.99,424.58 593.43,438.86 " fill="none" id="NotFoundException-backto-ProcessInstanceNotFoundException" style="stroke:#A80036;stroke-width:1.0;"/><polygon fill="none" points="663.24,384.21,683.78,379,670.98,395.88,663.24,384.21" style="stroke:#A80036;stroke-width:1.0;"/><!--MD5=[1b079022defdb4140e4f8ede4a0925e0]
reverse link NotFoundException to ProcessInstanceVariableNotFoundException--><path d="M769.92,390.28 C793.76,406.17 821.47,424.65 842.79,438.86 " fill="none" id="NotFoundException-backto-ProcessInstanceVariableNotFoundException" style="stroke:#A80036;stroke-width:1.0;"/><polygon fill="none" points="765.76,395.92,753,379,773.52,384.27,765.76,395.92" style="stroke:#A80036;stroke-width:1.0;"/><!--MD5=[874580c2a1c446a2b0a719e1afddf430]
reverse link NotFoundException to TaskNotFoundException--><path d="M815.42,379.46 C911.76,402.7 1001.85,424.37 1066.97,440.02 " fill="none" id="NotFoundException-backto-TaskNotFoundException" style="stroke:#A80036;stroke-width:1.0;"/><polygon fill="none" points="813.55,386.21,795.75,374.71,816.83,372.6,813.55,386.21" style="stroke:#A80036;stroke-width:1.0;"/><!--MD5=[ceb068dfcd9f6f74cceed5f3cb4b150b]
@startuml
class ValidationException #back:lightgreen;line:green;text:black extends RuntimeException
class SystemException #back:lightgreen;line:green;text:black extends RuntimeException
class RestSystemException #back:lightgreen;line:green;text:black extends SystemException

class ClientValidationException #back:lightblue;line:green;text:black extends ValidationException

class AuthenticationException #back:lightblue;line:green;text:black extends RestSystemException
class AuthorizationException #back:lightblue;line:green;text:black extends RestSystemException
class BadRequestException #back:lightblue;line:green;text:black extends RestSystemException
class NotFoundException #back:lightblue;line:green;text:black extends RestSystemException
class CamundaCommunicationException #back:lightblue;line:green;text:black extends RestSystemException
class InternalServerErrorException #back:lightblue;line:green;text:black extends RestSystemException

class ProcessDefinitionNotFoundException #back:lightblue;line:green;text:black extends NotFoundException
class ProcessInstanceNotFoundException #back:lightblue;line:green;text:black extends NotFoundException
class ProcessInstanceVariableNotFoundException #back:lightblue;line:green;text:black extends NotFoundException
class TaskNotFoundException #back:lightblue;line:green;text:black extends NotFoundException
@enduml

PlantUML version 1.2021.7(Sun May 23 12:40:07 UTC 2021)
(GPL source distribution)
Java Runtime: OpenJDK Runtime Environment
JVM: OpenJDK 64-Bit Server VM
Default Encoding: UTF-8
Language: en
Country: null
--></g></svg>