<?xml version="1.0" encoding="UTF-8" standalone="no"?><svg xmlns="http://www.w3.org/2000/svg" xmlns:xlink="http://www.w3.org/1999/xlink" contentScriptType="application/ecmascript" contentStyleType="text/css" height="285px" preserveAspectRatio="none" style="width:1034px;height:285px;background:#FFFFFF;" version="1.1" viewBox="0 0 1034 285" width="1034px" zoomAndPan="magnify"><defs><filter height="300%" id="f1hdqglxk0bsod" width="300%" x="-1" y="-1"><feGaussianBlur result="blurOut" stdDeviation="2.0"/><feColorMatrix in="blurOut" result="blurOut2" type="matrix" values="0 0 0 0 0 0 0 0 0 0 0 0 0 0 0 0 0 0 .4 0"/><feOffset dx="4.0" dy="4.0" in="blurOut2" result="blurOut3"/><feBlend in="SourceGraphic" in2="blurOut3" mode="normal"/></filter></defs><g><!--MD5=[267781d749e03027506ea333c89baafc]
class BaseFeignClient--><rect codeLine="1" fill="#ADD8E6" filter="url(#f1hdqglxk0bsod)" height="48" id="BaseFeignClient" style="stroke:#008000;stroke-width:1.5;" width="132" x="422.5" y="7"/><ellipse cx="437.5" cy="23" fill="#B4A7E5" rx="11" ry="11" style="stroke:#008000;stroke-width:1.0;"/><path d="M433.4219,18.7656 L433.4219,16.6094 L440.8125,16.6094 L440.8125,18.7656 L438.3438,18.7656 L438.3438,26.8438 L440.8125,26.8438 L440.8125,29 L433.4219,29 L433.4219,26.8438 L435.8906,26.8438 L435.8906,18.7656 L433.4219,18.7656 Z " fill="#000000"/><text fill="#000000" font-family="sans-serif" font-size="12" font-style="italic" lengthAdjust="spacing" textLength="100" x="451.5" y="27.1543">BaseFeignClient</text><line style="stroke:#008000;stroke-width:1.5;" x1="423.5" x2="553.5" y1="39" y2="39"/><line style="stroke:#008000;stroke-width:1.5;" x1="423.5" x2="553.5" y1="47" y2="47"/><!--MD5=[1a569c0bfa2b4f6afaaa82198e961064]
class CamundaTaskRestClient--><rect codeLine="2" fill="#ADD8E6" filter="url(#f1hdqglxk0bsod)" height="48" id="CamundaTaskRestClient" style="stroke:#008000;stroke-width:1.5;" width="183" x="204" y="7"/><ellipse cx="219" cy="23" fill="#B4A7E5" rx="11" ry="11" style="stroke:#008000;stroke-width:1.0;"/><path d="M214.9219,18.7656 L214.9219,16.6094 L222.3125,16.6094 L222.3125,18.7656 L219.8438,18.7656 L219.8438,26.8438 L222.3125,26.8438 L222.3125,29 L214.9219,29 L214.9219,26.8438 L217.3906,26.8438 L217.3906,18.7656 L214.9219,18.7656 Z " fill="#000000"/><text fill="#000000" font-family="sans-serif" font-size="12" font-style="italic" lengthAdjust="spacing" textLength="151" x="233" y="27.1543">CamundaTaskRestClient</text><line style="stroke:#008000;stroke-width:1.5;" x1="205" x2="386" y1="39" y2="39"/><line style="stroke:#008000;stroke-width:1.5;" x1="205" x2="386" y1="47" y2="47"/><!--MD5=[c4f81c0e17a5c3dd0bedc556d244f9f5]
class HistoryTaskRestClient--><rect codeLine="3" fill="#ADD8E6" filter="url(#f1hdqglxk0bsod)" height="48" id="HistoryTaskRestClient" style="stroke:#008000;stroke-width:1.5;" width="167" x="7" y="115"/><ellipse cx="22" cy="131" fill="#B4A7E5" rx="11" ry="11" style="stroke:#008000;stroke-width:1.0;"/><path d="M17.9219,126.7656 L17.9219,124.6094 L25.3125,124.6094 L25.3125,126.7656 L22.8438,126.7656 L22.8438,134.8438 L25.3125,134.8438 L25.3125,137 L17.9219,137 L17.9219,134.8438 L20.3906,134.8438 L20.3906,126.7656 L17.9219,126.7656 Z " fill="#000000"/><text fill="#000000" font-family="sans-serif" font-size="12" font-style="italic" lengthAdjust="spacing" textLength="135" x="36" y="135.1543">HistoryTaskRestClient</text><line style="stroke:#008000;stroke-width:1.5;" x1="8" x2="173" y1="147" y2="147"/><line style="stroke:#008000;stroke-width:1.5;" x1="8" x2="173" y1="155" y2="155"/><!--MD5=[5e392c0e2ecb7032301f8411036b07e9]
class HistoryVariableInstanceClient--><rect codeLine="4" fill="#ADD8E6" filter="url(#f1hdqglxk0bsod)" height="48" id="HistoryVariableInstanceClient" style="stroke:#008000;stroke-width:1.5;" width="215" x="52" y="223"/><ellipse cx="67" cy="239" fill="#B4A7E5" rx="11" ry="11" style="stroke:#008000;stroke-width:1.0;"/><path d="M62.9219,234.7656 L62.9219,232.6094 L70.3125,232.6094 L70.3125,234.7656 L67.8438,234.7656 L67.8438,242.8438 L70.3125,242.8438 L70.3125,245 L62.9219,245 L62.9219,242.8438 L65.3906,242.8438 L65.3906,234.7656 L62.9219,234.7656 Z " fill="#000000"/><text fill="#000000" font-family="sans-serif" font-size="12" font-style="italic" lengthAdjust="spacing" textLength="183" x="81" y="243.1543">HistoryVariableInstanceClient</text><line style="stroke:#008000;stroke-width:1.5;" x1="53" x2="266" y1="255" y2="255"/><line style="stroke:#008000;stroke-width:1.5;" x1="53" x2="266" y1="263" y2="263"/><!--MD5=[15e09967dcd23dd47530d66ad61ff206]
class ProcessInstanceHistoryRestClient--><rect codeLine="5" fill="#ADD8E6" filter="url(#f1hdqglxk0bsod)" height="48" id="ProcessInstanceHistoryRestClient" style="stroke:#008000;stroke-width:1.5;" width="242" x="280.5" y="115"/><ellipse cx="295.5" cy="131" fill="#B4A7E5" rx="11" ry="11" style="stroke:#008000;stroke-width:1.0;"/><path d="M291.4219,126.7656 L291.4219,124.6094 L298.8125,124.6094 L298.8125,126.7656 L296.3438,126.7656 L296.3438,134.8438 L298.8125,134.8438 L298.8125,137 L291.4219,137 L291.4219,134.8438 L293.8906,134.8438 L293.8906,126.7656 L291.4219,126.7656 Z " fill="#000000"/><text fill="#000000" font-family="sans-serif" font-size="12" font-style="italic" lengthAdjust="spacing" textLength="210" x="309.5" y="135.1543">ProcessInstanceHistoryRestClient</text><line style="stroke:#008000;stroke-width:1.5;" x1="281.5" x2="521.5" y1="147" y2="147"/><line style="stroke:#008000;stroke-width:1.5;" x1="281.5" x2="521.5" y1="155" y2="155"/><!--MD5=[2826ff30a4671f6008d51999a292b3d9]
class ProcessDefinitionRestClient--><rect codeLine="6" fill="#ADD8E6" filter="url(#f1hdqglxk0bsod)" height="48" id="ProcessDefinitionRestClient" style="stroke:#008000;stroke-width:1.5;" width="204" x="549.5" y="223"/><ellipse cx="564.5" cy="239" fill="#B4A7E5" rx="11" ry="11" style="stroke:#008000;stroke-width:1.0;"/><path d="M560.4219,234.7656 L560.4219,232.6094 L567.8125,232.6094 L567.8125,234.7656 L565.3438,234.7656 L565.3438,242.8438 L567.8125,242.8438 L567.8125,245 L560.4219,245 L560.4219,242.8438 L562.8906,242.8438 L562.8906,234.7656 L560.4219,234.7656 Z " fill="#000000"/><text fill="#000000" font-family="sans-serif" font-size="12" font-style="italic" lengthAdjust="spacing" textLength="172" x="578.5" y="243.1543">ProcessDefinitionRestClient</text><line style="stroke:#008000;stroke-width:1.5;" x1="550.5" x2="752.5" y1="255" y2="255"/><line style="stroke:#008000;stroke-width:1.5;" x1="550.5" x2="752.5" y1="263" y2="263"/><!--MD5=[67d34338f8487b562df5a1d66bc09059]
class ProcessInstanceRestClient--><rect codeLine="7" fill="#ADD8E6" filter="url(#f1hdqglxk0bsod)" height="48" id="ProcessInstanceRestClient" style="stroke:#008000;stroke-width:1.5;" width="199" x="629" y="115"/><ellipse cx="644" cy="131" fill="#B4A7E5" rx="11" ry="11" style="stroke:#008000;stroke-width:1.0;"/><path d="M639.9219,126.7656 L639.9219,124.6094 L647.3125,124.6094 L647.3125,126.7656 L644.8438,126.7656 L644.8438,134.8438 L647.3125,134.8438 L647.3125,137 L639.9219,137 L639.9219,134.8438 L642.3906,134.8438 L642.3906,126.7656 L639.9219,126.7656 Z " fill="#000000"/><text fill="#000000" font-family="sans-serif" font-size="12" font-style="italic" lengthAdjust="spacing" textLength="167" x="658" y="135.1543">ProcessInstanceRestClient</text><line style="stroke:#008000;stroke-width:1.5;" x1="630" x2="827" y1="147" y2="147"/><line style="stroke:#008000;stroke-width:1.5;" x1="630" x2="827" y1="155" y2="155"/><!--MD5=[c54a82077f93fedf7b278d9e81607466]
class TaskPropertyRestClient--><rect codeLine="8" fill="#ADD8E6" filter="url(#f1hdqglxk0bsod)" height="48" id="TaskPropertyRestClient" style="stroke:#008000;stroke-width:1.5;" width="177" x="590" y="7"/><ellipse cx="605" cy="23" fill="#B4A7E5" rx="11" ry="11" style="stroke:#008000;stroke-width:1.0;"/><path d="M600.9219,18.7656 L600.9219,16.6094 L608.3125,16.6094 L608.3125,18.7656 L605.8438,18.7656 L605.8438,26.8438 L608.3125,26.8438 L608.3125,29 L600.9219,29 L600.9219,26.8438 L603.3906,26.8438 L603.3906,18.7656 L600.9219,18.7656 Z " fill="#000000"/><text fill="#000000" font-family="sans-serif" font-size="12" font-style="italic" lengthAdjust="spacing" textLength="145" x="619" y="27.1543">TaskPropertyRestClient</text><line style="stroke:#008000;stroke-width:1.5;" x1="591" x2="766" y1="39" y2="39"/><line style="stroke:#008000;stroke-width:1.5;" x1="591" x2="766" y1="47" y2="47"/><!--MD5=[843a7b24a93c1b718328b5a7eb976133]
class StartFormRestClient--><rect codeLine="9" fill="#ADD8E6" filter="url(#f1hdqglxk0bsod)" height="48" id="StartFormRestClient" style="stroke:#008000;stroke-width:1.5;" width="157" x="863" y="115"/><ellipse cx="878" cy="131" fill="#B4A7E5" rx="11" ry="11" style="stroke:#008000;stroke-width:1.0;"/><path d="M873.9219,126.7656 L873.9219,124.6094 L881.3125,124.6094 L881.3125,126.7656 L878.8438,126.7656 L878.8438,134.8438 L881.3125,134.8438 L881.3125,137 L873.9219,137 L873.9219,134.8438 L876.3906,134.8438 L876.3906,126.7656 L873.9219,126.7656 Z " fill="#000000"/><text fill="#000000" font-family="sans-serif" font-size="12" font-style="italic" lengthAdjust="spacing" textLength="125" x="892" y="135.1543">StartFormRestClient</text><line style="stroke:#008000;stroke-width:1.5;" x1="864" x2="1019" y1="147" y2="147"/><line style="stroke:#008000;stroke-width:1.5;" x1="864" x2="1019" y1="155" y2="155"/><!--MD5=[368799a0b811c66f79b28d2a57d4488e]
reverse link BaseFeignClient to HistoryTaskRestClient--><path d="M402.9,55.4 C314.45,79.17 233.15,100.61 174.18,116.09 " fill="none" id="BaseFeignClient-backto-HistoryTaskRestClient" style="stroke:#A80036;stroke-width:1.0;"/><polygon fill="none" points="401.35,48.57,422.48,50.13,404.99,62.09,401.35,48.57" style="stroke:#A80036;stroke-width:1.0;"/><!--MD5=[4e4e99cdab8b96b211fbec54c6af2dab]
reverse link BaseFeignClient to HistoryVariableInstanceClient--><path d="M403.12,57.99 C349.32,75.39 285.77,98.1 262.5,115 C222.01,144.42 189.2,193.9 172.19,222.89 " fill="none" id="BaseFeignClient-backto-HistoryVariableInstanceClient" style="stroke:#A80036;stroke-width:1.0;"/><polygon fill="none" points="401.23,51.25,422.41,51.85,405.48,64.59,401.23,51.25" style="stroke:#A80036;stroke-width:1.0;"/><!--MD5=[2472ea7f90c06ee79b2e7be814e8d2bd]
reverse link BaseFeignClient to ProcessInstanceHistoryRestClient--><path d="M456.74,70.7 C444.63,85.45 431.22,101.79 420.64,114.68 " fill="none" id="BaseFeignClient-backto-ProcessInstanceHistoryRestClient" style="stroke:#A80036;stroke-width:1.0;"/><polygon fill="none" points="451.52,66.02,469.62,55,462.34,74.9,451.52,66.02" style="stroke:#A80036;stroke-width:1.0;"/><!--MD5=[efa4fc969a1fd06e5b86fd9f67344e9a]
reverse link BaseFeignClient to ProcessDefinitionRestClient--><path d="M518.55,71.45 C552.34,115.82 606.1,186.4 633.77,222.72 " fill="none" id="BaseFeignClient-backto-ProcessDefinitionRestClient" style="stroke:#A80036;stroke-width:1.0;"/><polygon fill="none" points="512.8,75.46,506.25,55.31,523.94,66.98,512.8,75.46" style="stroke:#A80036;stroke-width:1.0;"/><!--MD5=[0aa38cf33ff286837aec251d294d0121]
reverse link BaseFeignClient to ProcessInstanceRestClient--><path d="M559.08,63.17 C596.55,79.72 641.8,99.71 676.11,114.86 " fill="none" id="BaseFeignClient-backto-ProcessInstanceRestClient" style="stroke:#A80036;stroke-width:1.0;"/><polygon fill="none" points="556.04,69.48,540.58,55,561.7,56.68,556.04,69.48" style="stroke:#A80036;stroke-width:1.0;"/><!--MD5=[8570c5199695938d61371631f1d6fd09]
reverse link BaseFeignClient to StartFormRestClient--><path d="M574.41,55.31 C696.39,85.05 730.33,88.55 845.5,115 C851.18,116.3 857.04,117.67 862.94,119.05 " fill="none" id="BaseFeignClient-backto-StartFormRestClient" style="stroke:#A80036;stroke-width:1.0;"/><polygon fill="none" points="572.66,62.09,554.9,50.52,576,48.49,572.66,62.09" style="stroke:#A80036;stroke-width:1.0;"/><!--MD5=[eae6e2b6d45929a8a5b60c0f0a3507fb]
link CamundaTaskRestClient to BaseFeignClient--><path codeLine="11" d="M387.1,31 C392.15,31 397.2,31 402.25,31 " fill="none" id="CamundaTaskRestClient-to-BaseFeignClient" style="stroke:#A80036;stroke-width:1.0;"/><polygon fill="none" points="402.35,24,422.35,31,402.35,38,402.35,24" style="stroke:#A80036;stroke-width:1.0;"/><!--MD5=[c05707d7d29ce3439b8e542fcfdedd2b]
reverse link BaseFeignClient to TaskPropertyRestClient--><path codeLine="12" d="M574.71,31 C579.77,31 584.84,31 589.9,31 " fill="none" id="BaseFeignClient-backto-TaskPropertyRestClient" style="stroke:#A80036;stroke-width:1.0;"/><polygon fill="none" points="574.55,38,554.55,31,574.55,24,574.55,38" style="stroke:#A80036;stroke-width:1.0;"/><!--MD5=[95d3ff707c1683df3c3b60b9515bcc5d]
reverse link ProcessInstanceRestClient to ProcessDefinitionRestClient--><!--MD5=[d445570bcfff9f958ba4b365d7a192ee]
link HistoryTaskRestClient to HistoryVariableInstanceClient--><!--MD5=[da528779d6188f0c58445cbcfc478993]
@startuml
interface BaseFeignClient  #back:lightblue;line:green;text:black
interface CamundaTaskRestClient #back:lightblue;line:green;text:black
interface HistoryTaskRestClient  #back:lightblue;line:green;text:black extends BaseFeignClient
interface HistoryVariableInstanceClient  #back:lightblue;line:green;text:black extends BaseFeignClient
interface ProcessInstanceHistoryRestClient  #back:lightblue;line:green;text:black extends BaseFeignClient
interface ProcessDefinitionRestClient  #back:lightblue;line:green;text:black extends BaseFeignClient
interface ProcessInstanceRestClient  #back:lightblue;line:green;text:black extends BaseFeignClient
interface TaskPropertyRestClient  #back:lightblue;line:green;text:black
interface StartFormRestClient #back:lightblue;line:green;text:black extends BaseFeignClient

CamundaTaskRestClient -|> BaseFeignClient
BaseFeignClient <|- TaskPropertyRestClient
ProcessInstanceRestClient <-[hidden]- ProcessDefinitionRestClient
HistoryTaskRestClient  - -[hidden]> HistoryVariableInstanceClient
@enduml

PlantUML version 1.2021.7(Sun May 23 12:40:07 UTC 2021)
(GPL source distribution)
Java Runtime: OpenJDK Runtime Environment
JVM: OpenJDK 64-Bit Server VM
Default Encoding: UTF-8
Language: en
Country: null
--></g></svg>