<?xml version="1.0" encoding="UTF-8" standalone="no"?><svg xmlns="http://www.w3.org/2000/svg" xmlns:xlink="http://www.w3.org/1999/xlink" contentScriptType="application/ecmascript" contentStyleType="text/css" height="370px" preserveAspectRatio="none" style="width:728px;height:370px;background:#FFFFFF;" version="1.1" viewBox="0 0 728 370" width="728px" zoomAndPan="magnify"><defs><filter height="300%" id="f6h9a9xa4knqs" width="300%" x="-1" y="-1"><feGaussianBlur result="blurOut" stdDeviation="2.0"/><feColorMatrix in="blurOut" result="blurOut2" type="matrix" values="0 0 0 0 0 0 0 0 0 0 0 0 0 0 0 0 0 0 .4 0"/><feOffset dx="4.0" dy="4.0" in="blurOut2" result="blurOut3"/><feBlend in="SourceGraphic" in2="blurOut3" mode="normal"/></filter></defs><g><!--MD5=[59c77a504eba5b642215a383ec5594bf]
class Decoder--><rect codeLine="1" fill="#FEFECE" filter="url(#f6h9a9xa4knqs)" height="60.8047" id="Decoder" style="stroke:#A80036;stroke-width:1.5;" width="85" x="544.5" y="7"/><ellipse cx="559.5" cy="23" fill="#B4A7E5" rx="11" ry="11" style="stroke:#A80036;stroke-width:1.0;"/><path d="M555.4219,18.7656 L555.4219,16.6094 L562.8125,16.6094 L562.8125,18.7656 L560.3438,18.7656 L560.3438,26.8438 L562.8125,26.8438 L562.8125,29 L555.4219,29 L555.4219,26.8438 L557.8906,26.8438 L557.8906,18.7656 L555.4219,18.7656 Z " fill="#000000"/><text fill="#000000" font-family="sans-serif" font-size="12" font-style="italic" lengthAdjust="spacing" textLength="53" x="573.5" y="27.1543">Decoder</text><line style="stroke:#A80036;stroke-width:1.5;" x1="545.5" x2="628.5" y1="39" y2="39"/><line style="stroke:#A80036;stroke-width:1.5;" x1="545.5" x2="628.5" y1="47" y2="47"/><text fill="#000000" font-family="sans-serif" font-size="11" lengthAdjust="spacing" textLength="49" x="550.5" y="61.2104">decode()</text><!--MD5=[810759395829a299dc2f1ae3b7787c8f]
class BpmsResponseDecoder--><rect codeLine="5" fill="#ADD8E6" filter="url(#f6h9a9xa4knqs)" height="60.8047" id="BpmsResponseDecoder" style="stroke:#008000;stroke-width:1.5;" width="181" x="523.5" y="289.5"/><ellipse cx="538.5" cy="305.5" fill="#ADD1B2" rx="11" ry="11" style="stroke:#008000;stroke-width:1.0;"/><path d="M541.4688,311.1406 Q540.8906,311.4375 540.25,311.5781 Q539.6094,311.7344 538.9063,311.7344 Q536.4063,311.7344 535.0781,310.0938 Q533.7656,308.4375 533.7656,305.3125 Q533.7656,302.1875 535.0781,300.5313 Q536.4063,298.875 538.9063,298.875 Q539.6094,298.875 540.25,299.0313 Q540.9063,299.1875 541.4688,299.4844 L541.4688,302.2031 Q540.8438,301.625 540.25,301.3594 Q539.6563,301.0781 539.0313,301.0781 Q537.6875,301.0781 537,302.1563 Q536.3125,303.2188 536.3125,305.3125 Q536.3125,307.4063 537,308.4844 Q537.6875,309.5469 539.0313,309.5469 Q539.6563,309.5469 540.25,309.2813 Q540.8438,309 541.4688,308.4219 L541.4688,311.1406 Z " fill="#000000"/><text fill="#000000" font-family="sans-serif" font-size="12" lengthAdjust="spacing" textLength="149" x="552.5" y="309.6543">BpmsResponseDecoder</text><line style="stroke:#008000;stroke-width:1.5;" x1="524.5" x2="703.5" y1="321.5" y2="321.5"/><line style="stroke:#008000;stroke-width:1.5;" x1="524.5" x2="703.5" y1="329.5" y2="329.5"/><text fill="#000000" font-family="sans-serif" font-size="11" lengthAdjust="spacing" textLength="49" x="529.5" y="343.7104">decode()</text><!--MD5=[b4589d42cc9af838d8639bcf40e6e8c2]
class ErrorDecoder--><rect codeLine="9" fill="#FEFECE" filter="url(#f6h9a9xa4knqs)" height="60.8047" id="ErrorDecoder" style="stroke:#A80036;stroke-width:1.5;" width="116" x="121" y="7"/><ellipse cx="136" cy="23" fill="#B4A7E5" rx="11" ry="11" style="stroke:#A80036;stroke-width:1.0;"/><path d="M131.9219,18.7656 L131.9219,16.6094 L139.3125,16.6094 L139.3125,18.7656 L136.8438,18.7656 L136.8438,26.8438 L139.3125,26.8438 L139.3125,29 L131.9219,29 L131.9219,26.8438 L134.3906,26.8438 L134.3906,18.7656 L131.9219,18.7656 Z " fill="#000000"/><text fill="#000000" font-family="sans-serif" font-size="12" font-style="italic" lengthAdjust="spacing" textLength="84" x="150" y="27.1543">ErrorDecoder</text><line style="stroke:#A80036;stroke-width:1.5;" x1="122" x2="236" y1="39" y2="39"/><line style="stroke:#A80036;stroke-width:1.5;" x1="122" x2="236" y1="47" y2="47"/><text fill="#000000" font-family="sans-serif" font-size="11" lengthAdjust="spacing" textLength="49" x="127" y="61.2104">decode()</text><!--MD5=[d71cf3e055eb0f10318269a02ee82f38]
class BpmsAnnotationErrorDecoder--><rect codeLine="13" fill="#ADD8E6" filter="url(#f6h9a9xa4knqs)" height="73.6094" id="BpmsAnnotationErrorDecoder" style="stroke:#008000;stroke-width:1.5;" width="219" x="174.5" y="283"/><ellipse cx="189.5" cy="299" fill="#ADD1B2" rx="11" ry="11" style="stroke:#008000;stroke-width:1.0;"/><path d="M192.4688,304.6406 Q191.8906,304.9375 191.25,305.0781 Q190.6094,305.2344 189.9063,305.2344 Q187.4063,305.2344 186.0781,303.5938 Q184.7656,301.9375 184.7656,298.8125 Q184.7656,295.6875 186.0781,294.0313 Q187.4063,292.375 189.9063,292.375 Q190.6094,292.375 191.25,292.5313 Q191.9063,292.6875 192.4688,292.9844 L192.4688,295.7031 Q191.8438,295.125 191.25,294.8594 Q190.6563,294.5781 190.0313,294.5781 Q188.6875,294.5781 188,295.6563 Q187.3125,296.7188 187.3125,298.8125 Q187.3125,300.9063 188,301.9844 Q188.6875,303.0469 190.0313,303.0469 Q190.6563,303.0469 191.25,302.7813 Q191.8438,302.5 192.4688,301.9219 L192.4688,304.6406 Z " fill="#000000"/><text fill="#000000" font-family="sans-serif" font-size="12" lengthAdjust="spacing" textLength="187" x="203.5" y="303.1543">BpmsAnnotationErrorDecoder</text><line style="stroke:#008000;stroke-width:1.5;" x1="175.5" x2="392.5" y1="315" y2="315"/><text fill="#000000" font-family="sans-serif" font-size="11" lengthAdjust="spacing" textLength="177" x="180.5" y="329.2104">List&lt;BaseFeignClients&gt; clients</text><line style="stroke:#008000;stroke-width:1.5;" x1="175.5" x2="392.5" y1="335.8047" y2="335.8047"/><text fill="#000000" font-family="sans-serif" font-size="11" lengthAdjust="spacing" textLength="49" x="180.5" y="350.0151">decode()</text><!--MD5=[1405e2bde8c6bb201e54d529baef0c4c]
class AnnotationErrorDecoder--><rect codeLine="18" fill="#FEFECE" filter="url(#f6h9a9xa4knqs)" height="60.8047" id="AnnotationErrorDecoder" style="stroke:#A80036;stroke-width:1.5;" width="185" x="191.5" y="145"/><ellipse cx="206.5" cy="161" fill="#ADD1B2" rx="11" ry="11" style="stroke:#A80036;stroke-width:1.0;"/><path d="M209.4688,166.6406 Q208.8906,166.9375 208.25,167.0781 Q207.6094,167.2344 206.9063,167.2344 Q204.4063,167.2344 203.0781,165.5938 Q201.7656,163.9375 201.7656,160.8125 Q201.7656,157.6875 203.0781,156.0313 Q204.4063,154.375 206.9063,154.375 Q207.6094,154.375 208.25,154.5313 Q208.9063,154.6875 209.4688,154.9844 L209.4688,157.7031 Q208.8438,157.125 208.25,156.8594 Q207.6563,156.5781 207.0313,156.5781 Q205.6875,156.5781 205,157.6563 Q204.3125,158.7188 204.3125,160.8125 Q204.3125,162.9063 205,163.9844 Q205.6875,165.0469 207.0313,165.0469 Q207.6563,165.0469 208.25,164.7813 Q208.8438,164.5 209.4688,163.9219 L209.4688,166.6406 Z " fill="#000000"/><text fill="#000000" font-family="sans-serif" font-size="12" lengthAdjust="spacing" textLength="153" x="220.5" y="165.1543">AnnotationErrorDecoder</text><line style="stroke:#A80036;stroke-width:1.5;" x1="192.5" x2="375.5" y1="177" y2="177"/><line style="stroke:#A80036;stroke-width:1.5;" x1="192.5" x2="375.5" y1="185" y2="185"/><text fill="#000000" font-family="sans-serif" font-size="11" lengthAdjust="spacing" textLength="49" x="197.5" y="199.2104">decode()</text><!--MD5=[267781d749e03027506ea333c89baafc]
class BaseFeignClient--><rect codeLine="22" fill="#ADD8E6" filter="url(#f6h9a9xa4knqs)" height="48" id="BaseFeignClient" style="stroke:#008000;stroke-width:1.5;" width="132" x="7" y="296"/><ellipse cx="22" cy="312" fill="#ADD1B2" rx="11" ry="11" style="stroke:#008000;stroke-width:1.0;"/><path d="M24.9688,317.6406 Q24.3906,317.9375 23.75,318.0781 Q23.1094,318.2344 22.4063,318.2344 Q19.9063,318.2344 18.5781,316.5938 Q17.2656,314.9375 17.2656,311.8125 Q17.2656,308.6875 18.5781,307.0313 Q19.9063,305.375 22.4063,305.375 Q23.1094,305.375 23.75,305.5313 Q24.4063,305.6875 24.9688,305.9844 L24.9688,308.7031 Q24.3438,308.125 23.75,307.8594 Q23.1563,307.5781 22.5313,307.5781 Q21.1875,307.5781 20.5,308.6563 Q19.8125,309.7188 19.8125,311.8125 Q19.8125,313.9063 20.5,314.9844 Q21.1875,316.0469 22.5313,316.0469 Q23.1563,316.0469 23.75,315.7813 Q24.3438,315.5 24.9688,314.9219 L24.9688,317.6406 Z " fill="#000000"/><text fill="#000000" font-family="sans-serif" font-size="12" lengthAdjust="spacing" textLength="100" x="36" y="316.1543">BaseFeignClient</text><line style="stroke:#008000;stroke-width:1.5;" x1="8" x2="138" y1="328" y2="328"/><line style="stroke:#008000;stroke-width:1.5;" x1="8" x2="138" y1="336" y2="336"/><!--MD5=[c1764a90405c899d7bd62ea155a4a337]
reverse link Decoder to BpmsResponseDecoder--><path d="M647.51,61.77 C662.76,70.7 677.27,82.57 686,98 C721.86,161.4 671.36,245.26 638.45,289.21 " fill="none" id="Decoder-backto-BpmsResponseDecoder" style="stroke:#A80036;stroke-width:1.0;stroke-dasharray:7.0,7.0;"/><polygon fill="none" points="644.19,67.94,629.57,52.61,650.56,55.47,644.19,67.94" style="stroke:#A80036;stroke-width:1.0;"/><!--MD5=[43e2ff216014127074bc9eadf2a63cf3]
reverse link ErrorDecoder to BpmsAnnotationErrorDecoder--><path d="M167.3,87.91 C161.56,122.29 158.76,168.5 174,206 C186.37,236.44 211.31,263.17 234.32,282.98 " fill="none" id="ErrorDecoder-backto-BpmsAnnotationErrorDecoder" style="stroke:#A80036;stroke-width:1.0;stroke-dasharray:7.0,7.0;"/><polygon fill="none" points="160.44,86.52,171.11,68.22,174.18,89.18,160.44,86.52" style="stroke:#A80036;stroke-width:1.0;"/><!--MD5=[b1885a1d229b425a1e1cc3b595751419]
reverse link ErrorDecoder to AnnotationErrorDecoder--><path d="M187.81,87.47 C190.96,97.14 195.23,106.82 201,115 C209.07,126.44 220.07,136.49 231.41,144.91 " fill="none" id="ErrorDecoder-backto-AnnotationErrorDecoder" style="stroke:#A80036;stroke-width:1.0;stroke-dasharray:7.0,7.0;"/><polygon fill="none" points="181.04,89.23,182.78,68.11,194.59,85.71,181.04,89.23" style="stroke:#A80036;stroke-width:1.0;"/><!--MD5=[b1885a1d229b425a1e1cc3b595751419]
reverse link ErrorDecoder to AnnotationErrorDecoder--><path codeLine="25" d="M202.55,72.41 C212.09,85.84 223.35,101.31 234,115 C241.7,124.9 250.41,135.47 258.37,144.9 " fill="none" id="ErrorDecoder-backto-AnnotationErrorDecoder-1" style="stroke:#A80036;stroke-width:1.0;"/><polygon fill="#A80036" points="199.64,68.31,201.5809,77.9657,202.5313,72.3893,208.1077,73.3397,199.64,68.31" style="stroke:#A80036;stroke-width:1.0;"/><text fill="#000000" font-family="sans-serif" font-size="13" lengthAdjust="spacing" textLength="188" x="235" y="111.0669">uses as default error decoder</text><!--MD5=[71b12b68515a32bb1014c9ee906307f2]
reverse link Decoder to AnnotationErrorDecoder--><path codeLine="24" d="M539.59,61.48 C496.84,82.17 439.03,110.07 428,115 C405.4,125.1 380.56,135.58 357.97,144.88 " fill="none" id="Decoder-backto-AnnotationErrorDecoder" style="stroke:#A80036;stroke-width:1.0;"/><polygon fill="#A80036" points="544.2,59.25,534.3568,59.5841,539.7025,61.4345,537.852,66.7802,544.2,59.25" style="stroke:#A80036;stroke-width:1.0;"/><text fill="#000000" font-family="sans-serif" font-size="13" lengthAdjust="spacing" textLength="216" x="463" y="111.0669">uses as default response decoder</text><!--MD5=[1fa6e609aeb53f96f6b8485cac59324a]
reverse link AnnotationErrorDecoder to BpmsAnnotationErrorDecoder--><path codeLine="26" d="M284,211.13 C284,232.89 284,260.91 284,282.94 " fill="none" id="AnnotationErrorDecoder-backto-BpmsAnnotationErrorDecoder" style="stroke:#A80036;stroke-width:1.0;"/><polygon fill="#A80036" points="284,206.03,280,215.03,284,211.03,288,215.03,284,206.03" style="stroke:#A80036;stroke-width:1.0;"/><text fill="#000000" font-family="sans-serif" font-size="13" lengthAdjust="spacing" textLength="48" x="285" y="249.0669">creates</text><!--MD5=[77bc1cff35e79ca2a9071d6e3ce3770c]
reverse link BpmsAnnotationErrorDecoder to BpmsResponseDecoder--><path codeLine="27" d="M406.73,320 C445.54,320 484.35,320 523.16,320 " fill="none" id="BpmsAnnotationErrorDecoder-backto-BpmsResponseDecoder" style="stroke:#A80036;stroke-width:1.0;"/><polygon fill="#FFFFFF" points="393.57,320,399.57,324,405.57,320,399.57,316,393.57,320" style="stroke:#A80036;stroke-width:1.0;"/><!--MD5=[bf5e2aad8f40dd4f473188855b04fbec]
link BaseFeignClient to BpmsAnnotationErrorDecoder--><path codeLine="28" d="M139.35,320 C146.65,320 153.95,320 161.24,320 " fill="none" id="BaseFeignClient-to-BpmsAnnotationErrorDecoder" style="stroke:#A80036;stroke-width:1.0;"/><polygon fill="#FFFFFF" points="174.38,320,168.38,316,162.38,320,168.38,324,174.38,320" style="stroke:#A80036;stroke-width:1.0;"/><!--MD5=[ae874585ba3e1e01f1a3cf702c0436da]
@startuml
interface Decoder {
  decode()
}

class BpmsResponseDecoder #back:lightblue;line:green;text:black implements Decoder {
  decode()
}

interface ErrorDecoder {
  decode()
}

class BpmsAnnotationErrorDecoder #back:lightblue;line:green;text:black implements ErrorDecoder {
  List<BaseFeignClients> clients
  decode()
}

class AnnotationErrorDecoder implements ErrorDecoder {
  decode()
}

class BaseFeignClient #back:lightblue;line:green;text:black

Decoder <- - AnnotationErrorDecoder : uses as default response decoder
ErrorDecoder <- - AnnotationErrorDecoder : uses as default error decoder
AnnotationErrorDecoder <- - BpmsAnnotationErrorDecoder : creates
BpmsAnnotationErrorDecoder o- BpmsResponseDecoder
BaseFeignClient -o BpmsAnnotationErrorDecoder
@enduml

PlantUML version 1.2021.7(Sun May 23 12:40:07 UTC 2021)
(GPL source distribution)
Java Runtime: OpenJDK Runtime Environment
JVM: OpenJDK 64-Bit Server VM
Default Encoding: UTF-8
Language: en
Country: null
--></g></svg>