<?xml version="1.0" encoding="UTF-8" standalone="no"?><svg xmlns="http://www.w3.org/2000/svg" xmlns:xlink="http://www.w3.org/1999/xlink" contentScriptType="application/ecmascript" contentStyleType="text/css" height="245px" preserveAspectRatio="none" style="width:1202px;height:245px;background:#FFFFFF;" version="1.1" viewBox="0 0 1202 245" width="1202px" zoomAndPan="magnify"><defs><filter height="300%" id="f1tnsphjila8ar" width="300%" x="-1" y="-1"><feGaussianBlur result="blurOut" stdDeviation="2.0"/><feColorMatrix in="blurOut" result="blurOut2" type="matrix" values="0 0 0 0 0 0 0 0 0 0 0 0 0 0 0 0 0 0 .4 0"/><feOffset dx="4.0" dy="4.0" in="blurOut2" result="blurOut3"/><feBlend in="SourceGraphic" in2="blurOut3" mode="normal"/></filter></defs><g><rect fill="#FEFECE" filter="url(#f1tnsphjila8ar)" height="33.9688" rx="12.5" ry="12.5" style="stroke:#A80036;stroke-width:1.5;" width="124" x="337" y="11"/><text fill="#000000" font-family="sans-serif" font-size="12" lengthAdjust="spacing" textLength="104" x="347" y="32.1387">Вхід для бізнесу</text><polygon fill="#FEFECE" filter="url(#f1tnsphjila8ar)" points="310,64.9688,488,64.9688,500,76.9688,488,88.9688,310,88.9688,298,76.9688,310,64.9688" style="stroke:#A80036;stroke-width:1.5;"/><text fill="#000000" font-family="sans-serif" font-size="11" lengthAdjust="spacing" textLength="178" x="310" y="80.7769">Активована перевірка в ЕДР?</text><text fill="#000000" font-family="sans-serif" font-size="11" lengthAdjust="spacing" textLength="21" x="277" y="74.3745">так</text><text fill="#000000" font-family="sans-serif" font-size="11" lengthAdjust="spacing" textLength="10" x="500" y="74.3745">ні</text><rect fill="#FEFECE" filter="url(#f1tnsphjila8ar)" height="33.9688" rx="12.5" ry="12.5" style="stroke:#A80036;stroke-width:1.5;" width="189" x="11" y="98.9688"/><text fill="#000000" font-family="sans-serif" font-size="12" lengthAdjust="spacing" textLength="169" x="21" y="120.1074">Пошук користувача в ЕДР</text><rect fill="#FEFECE" filter="url(#f1tnsphjila8ar)" height="33.9688" rx="12.5" ry="12.5" style="stroke:#A80036;stroke-width:1.5;" width="32" x="89.5" y="167.9375"/><text fill="#000000" font-family="sans-serif" font-size="12" lengthAdjust="spacing" textLength="12" x="99.5" y="189.0762">...</text><polygon fill="#FEFECE" filter="url(#f1tnsphjila8ar)" points="270.5,123.9688,374.5,123.9688,386.5,135.9688,374.5,147.9688,270.5,147.9688,258.5,135.9688,270.5,123.9688" style="stroke:#A80036;stroke-width:1.5;"/><text fill="#000000" font-family="sans-serif" font-size="11" lengthAdjust="spacing" textLength="10" x="326.5" y="158.1792">ні</text><text fill="#000000" font-family="sans-serif" font-size="11" lengthAdjust="spacing" textLength="104" x="270.5" y="139.7769">Містить ЄДРПОУ?</text><rect fill="#FEFECE" filter="url(#f1tnsphjila8ar)" height="33.9688" rx="12.5" ry="12.5" style="stroke:#A80036;stroke-width:1.5;" width="225" x="210" y="180.7734"/><text fill="#000000" font-family="sans-serif" font-size="12" lengthAdjust="spacing" textLength="205" x="220" y="201.9121">Упішна автентифікація як ФОП</text><polygon fill="#FEFECE" filter="url(#f1tnsphjila8ar)" points="482.5,123.9688,652.5,123.9688,664.5,135.9688,652.5,147.9688,482.5,147.9688,470.5,135.9688,482.5,123.9688" style="stroke:#A80036;stroke-width:1.5;"/><text fill="#000000" font-family="sans-serif" font-size="11" lengthAdjust="spacing" textLength="21" x="571.5" y="158.1792">так</text><text fill="#000000" font-family="sans-serif" font-size="11" lengthAdjust="spacing" textLength="170" x="482.5" y="139.7769">ЄДРПОУ і РНОКПП однакові?</text><rect fill="#FEFECE" filter="url(#f1tnsphjila8ar)" height="33.9688" rx="12.5" ry="12.5" style="stroke:#A80036;stroke-width:1.5;" width="225" x="455" y="180.7734"/><text fill="#000000" font-family="sans-serif" font-size="12" lengthAdjust="spacing" textLength="205" x="465" y="201.9121">Упішна автентифікація як ФОП</text><polygon fill="#FEFECE" filter="url(#f1tnsphjila8ar)" points="747,123.9688,916,123.9688,928,135.9688,916,147.9688,747,147.9688,735,135.9688,747,123.9688" style="stroke:#A80036;stroke-width:1.5;"/><text fill="#000000" font-family="sans-serif" font-size="11" lengthAdjust="spacing" textLength="120" x="835.5" y="158.1792">довжина 8 символів</text><text fill="#000000" font-family="sans-serif" font-size="11" lengthAdjust="spacing" textLength="169" x="747" y="139.7769">Перевірка довжини ЄДРПОУ</text><text fill="#000000" font-family="sans-serif" font-size="11" lengthAdjust="spacing" textLength="127" x="928" y="133.3745">довжина 10 символів</text><rect fill="#FEFECE" filter="url(#f1tnsphjila8ar)" height="47.9375" rx="12.5" ry="12.5" style="stroke:#A80036;stroke-width:1.5;" width="283" x="690" y="180.7734"/><text fill="#000000" font-family="sans-serif" font-size="12" lengthAdjust="spacing" textLength="263" x="700" y="201.9121">Упішна автентифікація як представник</text><text fill="#000000" font-family="sans-serif" font-size="12" lengthAdjust="spacing" textLength="112" x="700" y="215.8809">юредичної особи</text><rect fill="#FEFECE" filter="url(#f1tnsphjila8ar)" height="47.9375" rx="12.5" ry="12.5" style="stroke:#A80036;stroke-width:1.5;" width="192" x="993" y="177.3711"/><text fill="#000000" font-family="sans-serif" font-size="12" lengthAdjust="spacing" textLength="172" x="1003" y="198.5098">Упішна автентифікація як</text><text fill="#000000" font-family="sans-serif" font-size="12" lengthAdjust="spacing" textLength="120" x="1003" y="212.4785">представник ФОП</text><line style="stroke:#A80036;stroke-width:1.5;" x1="105.5" x2="105.5" y1="132.9375" y2="167.9375"/><polygon fill="#A80036" points="101.5,157.9375,105.5,167.9375,109.5,157.9375,105.5,161.9375" style="stroke:#A80036;stroke-width:1.0;"/><line style="stroke:#A80036;stroke-width:1.5;" x1="322.5" x2="322.5" y1="147.9688" y2="180.7734"/><polygon fill="#A80036" points="318.5,170.7734,322.5,180.7734,326.5,170.7734,322.5,174.7734" style="stroke:#A80036;stroke-width:1.0;"/><line style="stroke:#A80036;stroke-width:1.5;" x1="567.5" x2="567.5" y1="147.9688" y2="180.7734"/><polygon fill="#A80036" points="563.5,170.7734,567.5,180.7734,571.5,170.7734,567.5,174.7734" style="stroke:#A80036;stroke-width:1.0;"/><line style="stroke:#A80036;stroke-width:1.5;" x1="831.5" x2="831.5" y1="147.9688" y2="180.7734"/><polygon fill="#A80036" points="827.5,170.7734,831.5,180.7734,835.5,170.7734,831.5,174.7734" style="stroke:#A80036;stroke-width:1.0;"/><line style="stroke:#A80036;stroke-width:1.5;" x1="386.5" x2="470.5" y1="135.9688" y2="135.9688"/><polygon fill="#A80036" points="460.5,131.9688,470.5,135.9688,460.5,139.9688,464.5,135.9688" style="stroke:#A80036;stroke-width:1.0;"/><line style="stroke:#A80036;stroke-width:1.5;" x1="664.5" x2="735" y1="135.9688" y2="135.9688"/><polygon fill="#A80036" points="725,131.9688,735,135.9688,725,139.9688,729,135.9688" style="stroke:#A80036;stroke-width:1.0;"/><line style="stroke:#A80036;stroke-width:1.5;" x1="500" x2="692.5" y1="76.9688" y2="76.9688"/><line style="stroke:#A80036;stroke-width:1.5;" x1="692.5" x2="692.5" y1="76.9688" y2="98.9688"/><line style="stroke:#A80036;stroke-width:1.5;" x1="692.5" x2="322.5" y1="98.9688" y2="98.9688"/><line style="stroke:#A80036;stroke-width:1.5;" x1="322.5" x2="322.5" y1="98.9688" y2="123.9688"/><polygon fill="#A80036" points="318.5,113.9688,322.5,123.9688,326.5,113.9688,322.5,117.9688" style="stroke:#A80036;stroke-width:1.0;"/><line style="stroke:#A80036;stroke-width:1.5;" x1="928" x2="1089" y1="135.9688" y2="135.9688"/><line style="stroke:#A80036;stroke-width:1.5;" x1="1089" x2="1089" y1="135.9688" y2="177.3711"/><polygon fill="#A80036" points="1085,167.3711,1089,177.3711,1093,167.3711,1089,171.3711" style="stroke:#A80036;stroke-width:1.0;"/><line style="stroke:#A80036;stroke-width:1.5;" x1="298" x2="105.5" y1="76.9688" y2="76.9688"/><line style="stroke:#A80036;stroke-width:1.5;" x1="105.5" x2="105.5" y1="76.9688" y2="98.9688"/><polygon fill="#A80036" points="101.5,88.9688,105.5,98.9688,109.5,88.9688,105.5,92.9688" style="stroke:#A80036;stroke-width:1.0;"/><line style="stroke:#A80036;stroke-width:1.5;" x1="399" x2="399" y1="44.9688" y2="64.9688"/><polygon fill="#A80036" points="395,54.9688,399,64.9688,403,54.9688,399,58.9688" style="stroke:#A80036;stroke-width:1.0;"/><!--MD5=[30731c11b3b8a10990b39d668ff9434f]
@startuml
:Вхід для бізнесу;
if (Активована перевірка в ЕДР?) then (так)
:Пошук користувача в ЕДР;
:...;
kill
else (ні)
    if (Містить ЄДРПОУ?) then (ні)
        :Упішна автентифікація як ФОП;
        kill
    elseif  (ЄДРПОУ і РНОКПП однакові?) then (так)
         :Упішна автентифікація як ФОП;
        kill
    elseif (Перевірка довжини ЄДРПОУ) then (довжина 8 символів)
        :Упішна автентифікація як представник\nюредичної особи;
        kill
    else (довжина 10 символів)
        :Упішна автентифікація як\nпредставник ФОП;
        kill
    endif
endif
@enduml

PlantUML version 1.2021.7(Sun May 23 12:40:07 UTC 2021)
(GPL source distribution)
Java Runtime: OpenJDK Runtime Environment
JVM: OpenJDK 64-Bit Server VM
Default Encoding: UTF-8
Language: en
Country: null
--></g></svg>