<?xml version="1.0" encoding="UTF-8" standalone="no"?><svg xmlns="http://www.w3.org/2000/svg" xmlns:xlink="http://www.w3.org/1999/xlink" contentScriptType="application/ecmascript" contentStyleType="text/css" height="458px" preserveAspectRatio="none" style="width:931px;height:458px;background:#FFFFFF;" version="1.1" viewBox="0 0 931 458" width="931px" zoomAndPan="magnify"><defs><filter height="300%" id="ft0anb1d6riam" width="300%" x="-1" y="-1"><feGaussianBlur result="blurOut" stdDeviation="2.0"/><feColorMatrix in="blurOut" result="blurOut2" type="matrix" values="0 0 0 0 0 0 0 0 0 0 0 0 0 0 0 0 0 0 .4 0"/><feOffset dx="4.0" dy="4.0" in="blurOut2" result="blurOut3"/><feBlend in="SourceGraphic" in2="blurOut3" mode="normal"/></filter></defs><g><rect fill="#FFFFFF" filter="url(#ft0anb1d6riam)" height="116.5313" style="stroke:#A80036;stroke-width:1.0;" width="10" x="55.5" y="147.7266"/><rect fill="#FFFFFF" filter="url(#ft0anb1d6riam)" height="125.5313" style="stroke:#A80036;stroke-width:1.0;" width="10" x="869.5" y="223.125"/><line style="stroke:#A80036;stroke-width:1.0;stroke-dasharray:5.0,5.0;" x1="60" x2="60" y1="104.5938" y2="357.6563"/><line style="stroke:#A80036;stroke-width:1.0;stroke-dasharray:5.0,5.0;" x1="467.5" x2="467.5" y1="104.5938" y2="357.6563"/><line style="stroke:#A80036;stroke-width:1.0;stroke-dasharray:5.0,5.0;" x1="874" x2="874" y1="104.5938" y2="357.6563"/><text fill="#000000" font-family="sans-serif" font-size="14" lengthAdjust="spacing" textLength="105" x="5" y="84.9951">Адміністратор</text><text fill="#000000" font-family="sans-serif" font-size="14" lengthAdjust="spacing" textLength="99" x="10" y="101.292">регламенту 1</text><ellipse cx="60.5" cy="15" fill="#FEFECE" filter="url(#ft0anb1d6riam)" rx="8" ry="8" style="stroke:#A80036;stroke-width:2.0;"/><path d="M60.5,23 L60.5,50 M47.5,31 L73.5,31 M60.5,50 L47.5,65 M60.5,50 L73.5,65 " fill="none" filter="url(#ft0anb1d6riam)" style="stroke:#A80036;stroke-width:2.0;"/><text fill="#000000" font-family="sans-serif" font-size="14" lengthAdjust="spacing" textLength="105" x="5" y="369.6514">Адміністратор</text><text fill="#000000" font-family="sans-serif" font-size="14" lengthAdjust="spacing" textLength="99" x="10" y="385.9482">регламенту 1</text><ellipse cx="60.5" cy="399.25" fill="#FEFECE" filter="url(#ft0anb1d6riam)" rx="8" ry="8" style="stroke:#A80036;stroke-width:2.0;"/><path d="M60.5,407.25 L60.5,434.25 M47.5,415.25 L73.5,415.25 M60.5,434.25 L47.5,449.25 M60.5,434.25 L73.5,449.25 " fill="none" filter="url(#ft0anb1d6riam)" style="stroke:#A80036;stroke-width:2.0;"/><rect fill="#FEFECE" filter="url(#ft0anb1d6riam)" height="30.2969" style="stroke:#A80036;stroke-width:1.5;" width="202" x="364.5" y="69.2969"/><text fill="#000000" font-family="sans-serif" font-size="14" lengthAdjust="spacing" textLength="188" x="371.5" y="89.292">Адміністративний портал</text><rect fill="#FEFECE" filter="url(#ft0anb1d6riam)" height="30.2969" style="stroke:#A80036;stroke-width:1.5;" width="202" x="364.5" y="356.6563"/><text fill="#000000" font-family="sans-serif" font-size="14" lengthAdjust="spacing" textLength="188" x="371.5" y="376.6514">Адміністративний портал</text><text fill="#000000" font-family="sans-serif" font-size="14" lengthAdjust="spacing" textLength="105" x="819" y="84.9951">Адміністратор</text><text fill="#000000" font-family="sans-serif" font-size="14" lengthAdjust="spacing" textLength="99" x="824" y="101.292">регламенту 2</text><ellipse cx="874.5" cy="15" fill="#FEFECE" filter="url(#ft0anb1d6riam)" rx="8" ry="8" style="stroke:#A80036;stroke-width:2.0;"/><path d="M874.5,23 L874.5,50 M861.5,31 L887.5,31 M874.5,50 L861.5,65 M874.5,50 L887.5,65 " fill="none" filter="url(#ft0anb1d6riam)" style="stroke:#A80036;stroke-width:2.0;"/><text fill="#000000" font-family="sans-serif" font-size="14" lengthAdjust="spacing" textLength="105" x="819" y="369.6514">Адміністратор</text><text fill="#000000" font-family="sans-serif" font-size="14" lengthAdjust="spacing" textLength="99" x="824" y="385.9482">регламенту 2</text><ellipse cx="874.5" cy="399.25" fill="#FEFECE" filter="url(#ft0anb1d6riam)" rx="8" ry="8" style="stroke:#A80036;stroke-width:2.0;"/><path d="M874.5,407.25 L874.5,434.25 M861.5,415.25 L887.5,415.25 M874.5,434.25 L861.5,449.25 M874.5,434.25 L887.5,449.25 " fill="none" filter="url(#ft0anb1d6riam)" style="stroke:#A80036;stroke-width:2.0;"/><rect fill="#FFFFFF" filter="url(#ft0anb1d6riam)" height="116.5313" style="stroke:#A80036;stroke-width:1.0;" width="10" x="55.5" y="147.7266"/><rect fill="#FFFFFF" filter="url(#ft0anb1d6riam)" height="125.5313" style="stroke:#A80036;stroke-width:1.0;" width="10" x="869.5" y="223.125"/><polygon fill="#A80036" points="455.5,131.7266,465.5,135.7266,455.5,139.7266,459.5,135.7266" style="stroke:#A80036;stroke-width:1.0;"/><line style="stroke:#A80036;stroke-width:1.0;" x1="60.5" x2="461.5" y1="135.7266" y2="135.7266"/><text fill="#000000" font-family="sans-serif" font-size="13" font-weight="bold" lengthAdjust="spacing" textLength="9" x="67.5" y="130.6606">1</text><text fill="#000000" font-family="sans-serif" font-size="13" lengthAdjust="spacing" textLength="241" x="80.5" y="130.6606">GET /versions/1/forms/form1 HTTP/1.1</text><polygon fill="#A80036" points="76.5,143.7266,66.5,147.7266,76.5,151.7266,72.5,147.7266" style="stroke:#A80036;stroke-width:1.0;"/><line style="stroke:#A80036;stroke-width:1.0;" x1="70.5" x2="466.5" y1="147.7266" y2="147.7266"/><text fill="#000000" font-family="sans-serif" font-size="13" font-weight="bold" lengthAdjust="spacing" textLength="9" x="82.5" y="160.7935">2</text><text fill="#000000" font-family="sans-serif" font-size="13" lengthAdjust="spacing" textLength="208" x="95.5" y="160.7935">HTTP/1.1 200 OK; Etag: "abcde1"</text><polygon fill="#A80036" points="478.5,172.8594,468.5,176.8594,478.5,180.8594,474.5,176.8594" style="stroke:#A80036;stroke-width:1.0;"/><line style="stroke:#A80036;stroke-width:1.0;" x1="472.5" x2="873.5" y1="176.8594" y2="176.8594"/><text fill="#000000" font-family="sans-serif" font-size="13" font-weight="bold" lengthAdjust="spacing" textLength="9" x="484.5" y="189.9263">3</text><text fill="#000000" font-family="sans-serif" font-size="13" lengthAdjust="spacing" textLength="241" x="497.5" y="189.9263">GET /versions/1/forms/form1 HTTP/1.1</text><polygon fill="#A80036" points="857.5,219.125,867.5,223.125,857.5,227.125,861.5,223.125" style="stroke:#A80036;stroke-width:1.0;"/><line style="stroke:#A80036;stroke-width:1.0;" x1="467.5" x2="863.5" y1="223.125" y2="223.125"/><text fill="#000000" font-family="sans-serif" font-size="13" font-weight="bold" lengthAdjust="spacing" textLength="9" x="474.5" y="218.0591">4</text><text fill="#000000" font-family="sans-serif" font-size="13" lengthAdjust="spacing" textLength="208" x="487.5" y="218.0591">HTTP/1.1 200 OK; Etag: "abcde1"</text><polygon fill="#A80036" points="455.5,248.2578,465.5,252.2578,455.5,256.2578,459.5,252.2578" style="stroke:#A80036;stroke-width:1.0;"/><line style="stroke:#A80036;stroke-width:1.0;" x1="65.5" x2="461.5" y1="252.2578" y2="252.2578"/><text fill="#000000" font-family="sans-serif" font-size="13" font-weight="bold" lengthAdjust="spacing" textLength="9" x="72.5" y="247.1919">5</text><text fill="#000000" font-family="sans-serif" font-size="13" lengthAdjust="spacing" textLength="365" x="85.5" y="247.1919">PUT /versions/1/forms/form1 HTTP/1.1; If-Match: "abcde1"</text><polygon fill="#A80036" points="71.5,260.2578,61.5,264.2578,71.5,268.2578,67.5,264.2578" style="stroke:#A80036;stroke-width:1.0;"/><line style="stroke:#A80036;stroke-width:1.0;" x1="65.5" x2="466.5" y1="264.2578" y2="264.2578"/><text fill="#000000" font-family="sans-serif" font-size="13" font-weight="bold" lengthAdjust="spacing" textLength="9" x="77.5" y="277.3247">6</text><text fill="#000000" font-family="sans-serif" font-size="13" lengthAdjust="spacing" textLength="208" x="90.5" y="277.3247">HTTP/1.1 200 OK; Etag: "abcde2"</text><polygon fill="#A80036" points="478.5,289.3906,468.5,293.3906,478.5,297.3906,474.5,293.3906" style="stroke:#A80036;stroke-width:1.0;"/><line style="stroke:#A80036;stroke-width:1.0;" x1="472.5" x2="868.5" y1="293.3906" y2="293.3906"/><text fill="#000000" font-family="sans-serif" font-size="13" font-weight="bold" lengthAdjust="spacing" textLength="9" x="484.5" y="306.4575">7</text><text fill="#000000" font-family="sans-serif" font-size="13" lengthAdjust="spacing" textLength="365" x="497.5" y="306.4575">PUT /versions/1/forms/form1 HTTP/1.1; If-Match: "abcde1"</text><polygon fill="#A80036" points="857.5,335.6563,867.5,339.6563,857.5,343.6563,861.5,339.6563" style="stroke:#A80036;stroke-width:1.0;"/><line style="stroke:#A80036;stroke-width:1.0;" x1="467.5" x2="863.5" y1="339.6563" y2="339.6563"/><text fill="#000000" font-family="sans-serif" font-size="13" font-weight="bold" lengthAdjust="spacing" textLength="9" x="474.5" y="334.5903">8</text><text fill="#000000" font-family="sans-serif" font-size="13" lengthAdjust="spacing" textLength="212" x="487.5" y="334.5903">HTTP/1.1 412 Precondition Failed;</text><!--MD5=[559d26413ed007b27508e809ade78ad3]
@startuml
autonumber
skinparam responseMessageBelowArrow true

actor "Адміністратор\n регламенту 1" as Client1
participant "Адміністративний портал" as Service
actor "Адміністратор\n регламенту 2" as Client2

Client1 -> Service: GET /versions/1/forms/form1 HTTP/1.1
Client1 <- Service: HTTP/1.1 200 OK; Etag: "abcde1"
activate Client1
Client2 -> Service: GET /versions/1/forms/form1 HTTP/1.1
Client2 <- Service: HTTP/1.1 200 OK; Etag: "abcde1"
activate Client2

Client1->Service: PUT /versions/1/forms/form1 HTTP/1.1; If-Match: "abcde1"
Client1<-Service: HTTP/1.1 200 OK; Etag: "abcde2"
deactivate Client1

Client2->Service: PUT /versions/1/forms/form1 HTTP/1.1; If-Match: "abcde1"
Client2<-Service: HTTP/1.1 412 Precondition Failed;
deactivate Client1
@enduml

PlantUML version 1.2021.7(Sun May 23 12:40:07 UTC 2021)
(GPL source distribution)
Java Runtime: OpenJDK Runtime Environment
JVM: OpenJDK 64-Bit Server VM
Default Encoding: UTF-8
Language: en
Country: null
--></g></svg>