<?xml version="1.0" encoding="UTF-8" standalone="no"?><svg xmlns="http://www.w3.org/2000/svg" xmlns:xlink="http://www.w3.org/1999/xlink" contentScriptType="application/ecmascript" contentStyleType="text/css" height="481px" preserveAspectRatio="none" style="width:847px;height:481px;background:#FFFFFF;" version="1.1" viewBox="0 0 847 481" width="847px" zoomAndPan="magnify"><defs/><g><rect fill="#FFFFFF" height="237.0625" style="stroke:#2688D4;stroke-width:1.0;" width="10" x="48" y="110.5938"/><rect fill="#FFFFFF" height="120.5313" style="stroke:#2688D4;stroke-width:1.0;" width="10" x="187" y="110.5938"/><rect fill="#FFFFFF" height="70.2656" style="stroke:#2688D4;stroke-width:1.0;" width="10" x="444" y="131.7266"/><rect fill="#FFFFFF" height="41.1328" style="stroke:#2688D4;stroke-width:1.0;" width="10" x="609" y="160.8594"/><rect fill="#FFFFFF" height="96.3984" style="stroke:#2688D4;stroke-width:1.0;" width="10" x="609" y="277.3906"/><rect fill="#FFFFFF" height="142.6641" style="stroke:#2688D4;stroke-width:1.0;" width="10" x="774" y="231.125"/><line style="stroke:#2688D4;stroke-width:1.0;stroke-dasharray:5.0,5.0;" x1="53" x2="53" y1="100.5938" y2="382.7891"/><line style="stroke:#2688D4;stroke-width:1.0;stroke-dasharray:5.0,5.0;" x1="192" x2="192" y1="100.5938" y2="382.7891"/><line style="stroke:#2688D4;stroke-width:1.0;stroke-dasharray:5.0,5.0;" x1="448.5" x2="448.5" y1="100.5938" y2="382.7891"/><line style="stroke:#2688D4;stroke-width:1.0;stroke-dasharray:5.0,5.0;" x1="614" x2="614" y1="100.5938" y2="382.7891"/><line style="stroke:#2688D4;stroke-width:1.0;stroke-dasharray:5.0,5.0;" x1="779" x2="779" y1="100.5938" y2="382.7891"/><text fill="#000000" font-family="sans-serif" font-size="14" lengthAdjust="spacing" textLength="79" x="10.5" y="80.9951">Розробник</text><text fill="#000000" font-family="sans-serif" font-size="14" lengthAdjust="spacing" textLength="86" x="9" y="97.292">регламенту</text><ellipse cx="53" cy="15" fill="#FFFFFF" rx="8" ry="8" style="stroke:#2688D4;stroke-width:2.0;"/><path d="M53,23 L53,50 M40,31 L66,31 M53,50 L40,65 M53,50 L66,65 " fill="none" style="stroke:#2688D4;stroke-width:2.0;"/><text fill="#000000" font-family="sans-serif" font-size="14" lengthAdjust="spacing" textLength="79" x="10.5" y="394.7842">Розробник</text><text fill="#000000" font-family="sans-serif" font-size="14" lengthAdjust="spacing" textLength="86" x="9" y="411.0811">регламенту</text><ellipse cx="53" cy="424.3828" fill="#FFFFFF" rx="8" ry="8" style="stroke:#2688D4;stroke-width:2.0;"/><path d="M53,432.3828 L53,459.3828 M40,440.3828 L66,440.3828 M53,459.3828 L40,474.3828 M53,459.3828 L66,474.3828 " fill="none" style="stroke:#2688D4;stroke-width:2.0;"/><rect fill="#FFFFFF" height="30.2969" style="stroke:#2688D4;stroke-width:1.5;" width="112" x="136" y="69.2969"/><text fill="#000000" font-family="sans-serif" font-size="14" lengthAdjust="spacing" textLength="98" x="143" y="89.292">Registry Gerrit</text><rect fill="#FFFFFF" height="30.2969" style="stroke:#2688D4;stroke-width:1.5;" width="112" x="136" y="381.7891"/><text fill="#000000" font-family="sans-serif" font-size="14" lengthAdjust="spacing" textLength="98" x="143" y="401.7842">Registry Gerrit</text><rect fill="#FFFFFF" height="30.2969" style="stroke:#2688D4;stroke-width:1.5;" width="123" x="387.5" y="69.2969"/><text fill="#000000" font-family="sans-serif" font-size="14" lengthAdjust="spacing" textLength="109" x="394.5" y="89.292">Registry Jenkins</text><rect fill="#FFFFFF" height="30.2969" style="stroke:#2688D4;stroke-width:1.5;" width="123" x="387.5" y="381.7891"/><text fill="#000000" font-family="sans-serif" font-size="14" lengthAdjust="spacing" textLength="109" x="394.5" y="401.7842">Registry Jenkins</text><rect fill="#FFFFFF" height="30.2969" style="stroke:#2688D4;stroke-width:1.5;" width="142" x="543" y="69.2969"/><text fill="#000000" font-family="sans-serif" font-size="14" lengthAdjust="spacing" textLength="128" x="550" y="89.292">Registry Wiremock</text><rect fill="#FFFFFF" height="30.2969" style="stroke:#2688D4;stroke-width:1.5;" width="142" x="543" y="381.7891"/><text fill="#000000" font-family="sans-serif" font-size="14" lengthAdjust="spacing" textLength="128" x="550" y="401.7842">Registry Wiremock</text><rect fill="#FFFFFF" height="30.2969" style="stroke:#2688D4;stroke-width:1.5;" width="124" x="717" y="69.2969"/><text fill="#000000" font-family="sans-serif" font-size="14" lengthAdjust="spacing" textLength="110" x="724" y="89.292">Registry Service</text><rect fill="#FFFFFF" height="30.2969" style="stroke:#2688D4;stroke-width:1.5;" width="124" x="717" y="381.7891"/><text fill="#000000" font-family="sans-serif" font-size="14" lengthAdjust="spacing" textLength="110" x="724" y="401.7842">Registry Service</text><rect fill="#FFFFFF" height="237.0625" style="stroke:#2688D4;stroke-width:1.0;" width="10" x="48" y="110.5938"/><rect fill="#FFFFFF" height="120.5313" style="stroke:#2688D4;stroke-width:1.0;" width="10" x="187" y="110.5938"/><rect fill="#FFFFFF" height="70.2656" style="stroke:#2688D4;stroke-width:1.0;" width="10" x="444" y="131.7266"/><rect fill="#FFFFFF" height="41.1328" style="stroke:#2688D4;stroke-width:1.0;" width="10" x="609" y="160.8594"/><rect fill="#FFFFFF" height="96.3984" style="stroke:#2688D4;stroke-width:1.0;" width="10" x="609" y="277.3906"/><rect fill="#FFFFFF" height="142.6641" style="stroke:#2688D4;stroke-width:1.0;" width="10" x="774" y="231.125"/><polygon fill="#2688D4" points="175,127.7266,185,131.7266,175,135.7266,179,131.7266" style="stroke:#2688D4;stroke-width:1.0;"/><line style="stroke:#2688D4;stroke-width:1.0;" x1="58" x2="181" y1="131.7266" y2="131.7266"/><text fill="#000000" font-family="sans-serif" font-size="13" lengthAdjust="spacing" textLength="105" x="65" y="126.6606">Add a new mock</text><polygon fill="#2688D4" points="432,156.8594,442,160.8594,432,164.8594,436,160.8594" style="stroke:#2688D4;stroke-width:1.0;"/><line style="stroke:#2688D4;stroke-width:1.0;" x1="197" x2="438" y1="160.8594" y2="160.8594"/><text fill="#000000" font-family="sans-serif" font-size="13" lengthAdjust="spacing" textLength="223" x="204" y="155.7935">Start new registry-regulations build</text><polygon fill="#2688D4" points="597,185.9922,607,189.9922,597,193.9922,601,189.9922" style="stroke:#2688D4;stroke-width:1.0;"/><line style="stroke:#2688D4;stroke-width:1.0;" x1="454" x2="603" y1="189.9922" y2="189.9922"/><text fill="#000000" font-family="sans-serif" font-size="13" lengthAdjust="spacing" textLength="131" x="461" y="184.9263">Import new mapping</text><polygon fill="#2688D4" points="460,197.9922,450,201.9922,460,205.9922,456,201.9922" style="stroke:#2688D4;stroke-width:1.0;"/><line style="stroke:#2688D4;stroke-width:1.0;stroke-dasharray:2.0,2.0;" x1="454" x2="613" y1="201.9922" y2="201.9922"/><text fill="#000000" font-family="sans-serif" font-size="13" lengthAdjust="spacing" textLength="98" x="466" y="215.0591">Mapping added</text><polygon fill="#2688D4" points="203,227.125,193,231.125,203,235.125,199,231.125" style="stroke:#2688D4;stroke-width:1.0;"/><line style="stroke:#2688D4;stroke-width:1.0;stroke-dasharray:2.0,2.0;" x1="197" x2="448" y1="231.125" y2="231.125"/><text fill="#000000" font-family="sans-serif" font-size="13" lengthAdjust="spacing" textLength="101" x="209" y="244.1919">Build successful</text><polygon fill="#2688D4" points="762,273.3906,772,277.3906,762,281.3906,766,277.3906" style="stroke:#2688D4;stroke-width:1.0;"/><line style="stroke:#2688D4;stroke-width:1.0;" x1="58" x2="768" y1="277.3906" y2="277.3906"/><text fill="#000000" font-family="sans-serif" font-size="13" lengthAdjust="spacing" textLength="135" x="65" y="272.3247">Act business process</text><polygon fill="#2688D4" points="630,285.3906,620,289.3906,630,293.3906,626,289.3906" style="stroke:#2688D4;stroke-width:1.0;"/><line style="stroke:#2688D4;stroke-width:1.0;" x1="624" x2="773" y1="289.3906" y2="289.3906"/><text fill="#000000" font-family="sans-serif" font-size="13" lengthAdjust="spacing" textLength="131" x="636" y="302.4575">Request mocked API</text><polygon fill="#2688D4" points="762,331.6563,772,335.6563,762,339.6563,766,335.6563" style="stroke:#2688D4;stroke-width:1.0;"/><line style="stroke:#2688D4;stroke-width:1.0;stroke-dasharray:2.0,2.0;" x1="619" x2="768" y1="335.6563" y2="335.6563"/><text fill="#000000" font-family="sans-serif" font-size="13" lengthAdjust="spacing" textLength="102" x="626" y="330.5903">Return mapping</text><polygon fill="#2688D4" points="64,343.6563,54,347.6563,64,351.6563,60,347.6563" style="stroke:#2688D4;stroke-width:1.0;"/><line style="stroke:#2688D4;stroke-width:1.0;stroke-dasharray:2.0,2.0;" x1="58" x2="773" y1="347.6563" y2="347.6563"/><text fill="#000000" font-family="sans-serif" font-size="13" lengthAdjust="spacing" textLength="183" x="70" y="360.7231">Business process completed</text><!--MD5=[2f8b435b2dddc4ad861a11bebcfa959e]
@startuml
skinparam shadowing false
skinparam DatabaseBackgroundColor white
skinparam DatabaseBorderColor #2688d4
skinparam QueueBackgroundColor white
skinparam QueueBorderColor #2688d4
skinparam NoteBackgroundColor white
skinparam NoteBorderColor #2688d4
skinparam EntityBackgroundColor white
skinparam EntityBorderColor #2688d4
skinparam ControlBackgroundColor white
skinparam ControlBorderColor #2688d4
skinparam ActorBackgroundColor white

skinparam sequence {
    ArrowColor #2688d4
    ActorBorderColor #2688d4
    LifeLineBorderColor #2688d4
    ParticipantBorderColor #2688d4
    ParticipantBackgroundColor white
    BoxBorderColor #2688d4
    BoxBackgroundColor white
}

skinparam responseMessageBelowArrow true

actor "Розробник\n регламенту" as Client

participant "Registry Gerrit" as Gerrit
participant "Registry Jenkins" as Jenkins
participant "Registry Wiremock" as Wiremock
participant "Registry Service" as Service



activate Client

activate Gerrit
Client -> Gerrit: Add a new mock
activate Jenkins
Gerrit -> Jenkins: Start new registry-regulations build
activate Wiremock
Jenkins -> Wiremock: Import new mapping
Jenkins <- - Wiremock: Mapping added
deactivate Wiremock
deactivate Jenkins
Gerrit <- - Jenkins: Build successful
deactivate Gerrit
activate Service
Client -> Service: Act business process
activate Wiremock
Service -> Wiremock: Request mocked API
Service <- - Wiremock: Return mapping
Client <- - Service: Business process completed

deactivate Client
@enduml

PlantUML version 1.2021.7(Sun May 23 12:40:07 UTC 2021)
(GPL source distribution)
Java Runtime: OpenJDK Runtime Environment
JVM: OpenJDK 64-Bit Server VM
Default Encoding: UTF-8
Language: en
Country: null
--></g></svg>