<?xml version="1.0" encoding="UTF-8" standalone="no"?><svg xmlns="http://www.w3.org/2000/svg" xmlns:xlink="http://www.w3.org/1999/xlink" contentScriptType="application/ecmascript" contentStyleType="text/css" height="1023px" preserveAspectRatio="none" style="width:1307px;height:1023px;background:#FFFFFF;" version="1.1" viewBox="0 0 1307 1023" width="1307px" zoomAndPan="magnify"><defs/><g><text fill="#000000" font-family="sans-serif" font-size="18" lengthAdjust="spacing" textLength="448" x="426.25" y="28.708">Сценарії користувача з inbox повідомленнями</text><rect fill="#FFFFFF" height="262.3281" style="stroke:#2688D4;stroke-width:1.0;" width="10" x="355.5" y="208.6484"/><rect fill="#FFFFFF" height="291.4609" style="stroke:#2688D4;stroke-width:1.0;" width="10" x="355.5" y="587.5078"/><rect fill="#FFFFFF" height="188.9297" style="stroke:#2688D4;stroke-width:1.0;" width="10" x="554.5" y="268.0469"/><rect fill="#FFFFFF" height="188.9297" style="stroke:#2688D4;stroke-width:1.0;" width="10" x="554.5" y="676.0391"/><rect fill="#FFFFFF" height="73.3984" style="stroke:#2688D4;stroke-width:1.0;" width="10" x="943.5" y="369.5781"/><rect fill="#FFFFFF" height="73.3984" style="stroke:#2688D4;stroke-width:1.0;" width="10" x="943.5" y="777.5703"/><line style="stroke:#2688D4;stroke-width:1.0;stroke-dasharray:5.0,5.0;" x1="50" x2="50" y1="119.25" y2="941.2344"/><line style="stroke:#2688D4;stroke-width:1.0;stroke-dasharray:5.0,5.0;" x1="360" x2="360" y1="119.25" y2="941.2344"/><line style="stroke:#2688D4;stroke-width:1.0;stroke-dasharray:5.0,5.0;" x1="559.5" x2="559.5" y1="119.25" y2="941.2344"/><line style="stroke:#2688D4;stroke-width:1.0;stroke-dasharray:5.0,5.0;" x1="948.5" x2="948.5" y1="119.25" y2="941.2344"/><line style="stroke:#2688D4;stroke-width:1.0;stroke-dasharray:5.0,5.0;" x1="1190.5" x2="1190.5" y1="119.25" y2="941.2344"/><text fill="#000000" font-family="sans-serif" font-size="14" lengthAdjust="spacing" textLength="85" x="5" y="115.9482">Користувач</text><ellipse cx="50.5" cy="49.9531" fill="#FEFECE" rx="8" ry="8" style="stroke:#2688D4;stroke-width:2.0;"/><path d="M50.5,57.9531 L50.5,84.9531 M37.5,65.9531 L63.5,65.9531 M50.5,84.9531 L37.5,99.9531 M50.5,84.9531 L63.5,99.9531 " fill="none" style="stroke:#2688D4;stroke-width:2.0;"/><text fill="#000000" font-family="sans-serif" font-size="14" lengthAdjust="spacing" textLength="85" x="5" y="953.2295">Користувач</text><ellipse cx="50.5" cy="966.5313" fill="#FEFECE" rx="8" ry="8" style="stroke:#2688D4;stroke-width:2.0;"/><path d="M50.5,974.5313 L50.5,1001.5313 M37.5,982.5313 L63.5,982.5313 M50.5,1001.5313 L37.5,1016.5313 M50.5,1001.5313 L63.5,1016.5313 " fill="none" style="stroke:#2688D4;stroke-width:2.0;"/><rect fill="#FFFFFF" height="46.5938" style="stroke:#2688D4;stroke-width:1.5;" width="175" x="273" y="71.6563"/><text fill="#000000" font-family="sans-serif" font-size="14" lengthAdjust="spacing" textLength="157" x="282" y="91.6514">Клієнтський додаток</text><text fill="#000000" font-family="sans-serif" font-size="14" lengthAdjust="spacing" textLength="157" x="284" y="107.9482">кабінету користувача</text><rect fill="#FFFFFF" height="46.5938" style="stroke:#2688D4;stroke-width:1.5;" width="175" x="273" y="940.2344"/><text fill="#000000" font-family="sans-serif" font-size="14" lengthAdjust="spacing" textLength="157" x="282" y="960.2295">Клієнтський додаток</text><text fill="#000000" font-family="sans-serif" font-size="14" lengthAdjust="spacing" textLength="157" x="284" y="976.5264">кабінету користувача</text><rect fill="#FFFFFF" height="46.5938" style="stroke:#2688D4;stroke-width:1.5;" width="130" x="494.5" y="71.6563"/><text fill="#000000" font-family="sans-serif" font-size="14" lengthAdjust="spacing" textLength="36" x="539.5" y="91.6514">Kong</text><text fill="#000000" font-family="sans-serif" font-size="14" lengthAdjust="spacing" textLength="116" x="501.5" y="107.9482">API Management</text><rect fill="#FFFFFF" height="46.5938" style="stroke:#2688D4;stroke-width:1.5;" width="130" x="494.5" y="940.2344"/><text fill="#000000" font-family="sans-serif" font-size="14" lengthAdjust="spacing" textLength="36" x="539.5" y="960.2295">Kong</text><text fill="#000000" font-family="sans-serif" font-size="14" lengthAdjust="spacing" textLength="116" x="501.5" y="976.5264">API Management</text><rect fill="#FFFFFF" height="46.5938" style="stroke:#2688D4;stroke-width:1.5;" width="188" x="854.5" y="71.6563"/><text fill="#000000" font-family="sans-serif" font-size="14" lengthAdjust="spacing" textLength="136" x="878.5" y="91.6514">Сервіс для роботи</text><text fill="#000000" font-family="sans-serif" font-size="14" lengthAdjust="spacing" textLength="174" x="861.5" y="107.9482">з inbox повідомленнями</text><rect fill="#FFFFFF" height="46.5938" style="stroke:#2688D4;stroke-width:1.5;" width="188" x="854.5" y="940.2344"/><text fill="#000000" font-family="sans-serif" font-size="14" lengthAdjust="spacing" textLength="136" x="878.5" y="960.2295">Сервіс для роботи</text><text fill="#000000" font-family="sans-serif" font-size="14" lengthAdjust="spacing" textLength="174" x="861.5" y="976.5264">з inbox повідомленнями</text><text fill="#000000" font-family="sans-serif" font-size="14" lengthAdjust="spacing" textLength="204" x="1085.5" y="115.9482">Сховище inbox повідомлень</text><path d="M1172.5,66.9531 C1172.5,56.9531 1190.5,56.9531 1190.5,56.9531 C1190.5,56.9531 1208.5,56.9531 1208.5,66.9531 L1208.5,92.9531 C1208.5,102.9531 1190.5,102.9531 1190.5,102.9531 C1190.5,102.9531 1172.5,102.9531 1172.5,92.9531 L1172.5,66.9531 " fill="#FFFFFF" style="stroke:#2688D4;stroke-width:1.5;"/><path d="M1172.5,66.9531 C1172.5,76.9531 1190.5,76.9531 1190.5,76.9531 C1190.5,76.9531 1208.5,76.9531 1208.5,66.9531 " fill="none" style="stroke:#2688D4;stroke-width:1.5;"/><text fill="#000000" font-family="sans-serif" font-size="14" lengthAdjust="spacing" textLength="204" x="1085.5" y="953.2295">Сховище inbox повідомлень</text><path d="M1172.5,966.5313 C1172.5,956.5313 1190.5,956.5313 1190.5,956.5313 C1190.5,956.5313 1208.5,956.5313 1208.5,966.5313 L1208.5,992.5313 C1208.5,1002.5313 1190.5,1002.5313 1190.5,1002.5313 C1190.5,1002.5313 1172.5,1002.5313 1172.5,992.5313 L1172.5,966.5313 " fill="#FFFFFF" style="stroke:#2688D4;stroke-width:1.5;"/><path d="M1172.5,966.5313 C1172.5,976.5313 1190.5,976.5313 1190.5,976.5313 C1190.5,976.5313 1208.5,976.5313 1208.5,966.5313 " fill="none" style="stroke:#2688D4;stroke-width:1.5;"/><rect fill="#FFFFFF" height="262.3281" style="stroke:#2688D4;stroke-width:1.0;" width="10" x="355.5" y="208.6484"/><rect fill="#FFFFFF" height="291.4609" style="stroke:#2688D4;stroke-width:1.0;" width="10" x="355.5" y="587.5078"/><rect fill="#FFFFFF" height="188.9297" style="stroke:#2688D4;stroke-width:1.0;" width="10" x="554.5" y="268.0469"/><rect fill="#FFFFFF" height="188.9297" style="stroke:#2688D4;stroke-width:1.0;" width="10" x="554.5" y="676.0391"/><rect fill="#FFFFFF" height="73.3984" style="stroke:#2688D4;stroke-width:1.0;" width="10" x="943.5" y="369.5781"/><rect fill="#FFFFFF" height="73.3984" style="stroke:#2688D4;stroke-width:1.0;" width="10" x="943.5" y="777.5703"/><rect fill="#EEEEEE" height="3" style="stroke:#EEEEEE;stroke-width:1.0;" width="1300.5" x="0" y="149.8164"/><line style="stroke:#000000;stroke-width:1.0;" x1="0" x2="1300.5" y1="149.8164" y2="149.8164"/><line style="stroke:#000000;stroke-width:1.0;" x1="0" x2="1300.5" y1="152.8164" y2="152.8164"/><rect fill="#EEEEEE" height="23.1328" style="stroke:#000000;stroke-width:2.0;" width="317" x="491.75" y="139.25"/><text fill="#000000" font-family="sans-serif" font-size="13" font-weight="bold" lengthAdjust="spacing" textLength="298" x="497.75" y="155.3169">Отримання користувачем повідомлень</text><polygon fill="#2688D4" points="343.5,204.6484,353.5,208.6484,343.5,212.6484,347.5,208.6484" style="stroke:#2688D4;stroke-width:1.0;"/><line style="stroke:#2688D4;stroke-width:1.0;" x1="50.5" x2="349.5" y1="208.6484" y2="208.6484"/><text fill="#000000" font-family="sans-serif" font-size="13" lengthAdjust="spacing" textLength="134" x="57.5" y="188.4497">Перехід на вкладку</text><text fill="#000000" font-family="sans-serif" font-size="13" lengthAdjust="spacing" textLength="101" x="57.5" y="203.5825">'Повідомлення'</text><polygon fill="#2688D4" points="542.5,264.0469,552.5,268.0469,542.5,272.0469,546.5,268.0469" style="stroke:#2688D4;stroke-width:1.0;"/><line style="stroke:#2688D4;stroke-width:1.0;" x1="365.5" x2="548.5" y1="268.0469" y2="268.0469"/><text fill="#000000" font-family="sans-serif" font-size="13" lengthAdjust="spacing" textLength="87" x="372.5" y="232.7153">Запит даних</text><text fill="#000000" font-family="sans-serif" font-size="13" lengthAdjust="spacing" textLength="79" x="372.5" y="247.8481">Параметри:</text><text fill="#000000" font-family="sans-serif" font-size="13" lengthAdjust="spacing" textLength="170" x="372.5" y="262.981">Ідентифікатор сесії Kong</text><line style="stroke:#2688D4;stroke-width:1.0;" x1="564.5" x2="606.5" y1="297.1797" y2="297.1797"/><line style="stroke:#2688D4;stroke-width:1.0;" x1="606.5" x2="606.5" y1="297.1797" y2="310.1797"/><line style="stroke:#2688D4;stroke-width:1.0;" x1="565.5" x2="606.5" y1="310.1797" y2="310.1797"/><polygon fill="#2688D4" points="575.5,306.1797,565.5,310.1797,575.5,314.1797,571.5,310.1797" style="stroke:#2688D4;stroke-width:1.0;"/><text fill="#000000" font-family="sans-serif" font-size="13" lengthAdjust="spacing" textLength="101" x="571.5" y="292.1138">Перевірка сесії</text><polygon fill="#2688D4" points="931.5,365.5781,941.5,369.5781,931.5,373.5781,935.5,369.5781" style="stroke:#2688D4;stroke-width:1.0;"/><line style="stroke:#2688D4;stroke-width:1.0;" x1="564.5" x2="937.5" y1="369.5781" y2="369.5781"/><text fill="#000000" font-family="sans-serif" font-size="13" lengthAdjust="spacing" textLength="87" x="571.5" y="334.2466">Запит даних</text><rect fill="#000000" height="3.5" style="stroke:#000000;stroke-width:0.0;" width="3.5" x="588.5" y="344.4453"/><text fill="#000000" font-family="sans-serif" font-size="13" lengthAdjust="spacing" textLength="171" x="593.5" y="349.3794">GET /api/notifications/inbox</text><text fill="#000000" font-family="sans-serif" font-size="13" lengthAdjust="spacing" textLength="184" x="571.5" y="364.5122">Параметри: X-Access-Token</text><polygon fill="#2688D4" points="1178.5,409.8438,1188.5,413.8438,1178.5,417.8438,1182.5,413.8438" style="stroke:#2688D4;stroke-width:1.0;"/><line style="stroke:#2688D4;stroke-width:1.0;" x1="953.5" x2="1184.5" y1="413.8438" y2="413.8438"/><text fill="#000000" font-family="sans-serif" font-size="13" lengthAdjust="spacing" textLength="186" x="960.5" y="393.645">Запит до БД на отримання</text><text fill="#000000" font-family="sans-serif" font-size="13" lengthAdjust="spacing" textLength="213" x="960.5" y="408.7778">повідомлень за &lt;idFromToken&gt;</text><polygon fill="#2688D4" points="959.5,438.9766,949.5,442.9766,959.5,446.9766,955.5,442.9766" style="stroke:#2688D4;stroke-width:1.0;"/><line style="stroke:#2688D4;stroke-width:1.0;stroke-dasharray:2.0,2.0;" x1="953.5" x2="1189.5" y1="442.9766" y2="442.9766"/><text fill="#000000" font-family="sans-serif" font-size="13" lengthAdjust="spacing" textLength="123" x="965.5" y="437.9106">Результат запиту</text><polygon fill="#2688D4" points="570.5,452.9766,560.5,456.9766,570.5,460.9766,566.5,456.9766" style="stroke:#2688D4;stroke-width:1.0;"/><line style="stroke:#2688D4;stroke-width:1.0;stroke-dasharray:2.0,2.0;" x1="564.5" x2="947.5" y1="456.9766" y2="456.9766"/><polygon fill="#2688D4" points="371.5,466.9766,361.5,470.9766,371.5,474.9766,367.5,470.9766" style="stroke:#2688D4;stroke-width:1.0;"/><line style="stroke:#2688D4;stroke-width:1.0;stroke-dasharray:2.0,2.0;" x1="365.5" x2="558.5" y1="470.9766" y2="470.9766"/><polygon fill="#2688D4" points="61.5,511.2422,51.5,515.2422,61.5,519.2422,57.5,515.2422" style="stroke:#2688D4;stroke-width:1.0;"/><line style="stroke:#2688D4;stroke-width:1.0;stroke-dasharray:2.0,2.0;" x1="55.5" x2="359.5" y1="515.2422" y2="515.2422"/><text fill="#000000" font-family="sans-serif" font-size="13" lengthAdjust="spacing" textLength="180" x="67.5" y="495.0435">Відображення скорочених</text><text fill="#000000" font-family="sans-serif" font-size="13" lengthAdjust="spacing" textLength="165" x="67.5" y="510.1763">повідомлень на сторінці</text><rect fill="#EEEEEE" height="3" style="stroke:#EEEEEE;stroke-width:1.0;" width="1300.5" x="0" y="543.8086"/><line style="stroke:#000000;stroke-width:1.0;" x1="0" x2="1300.5" y1="543.8086" y2="543.8086"/><line style="stroke:#000000;stroke-width:1.0;" x1="0" x2="1300.5" y1="546.8086" y2="546.8086"/><rect fill="#EEEEEE" height="23.1328" style="stroke:#000000;stroke-width:2.0;" width="305" x="497.75" y="533.2422"/><text fill="#000000" font-family="sans-serif" font-size="13" font-weight="bold" lengthAdjust="spacing" textLength="286" x="503.75" y="549.3091">Читання користувачем повідомлення</text><polygon fill="#2688D4" points="343.5,583.5078,353.5,587.5078,343.5,591.5078,347.5,587.5078" style="stroke:#2688D4;stroke-width:1.0;"/><line style="stroke:#2688D4;stroke-width:1.0;" x1="50.5" x2="349.5" y1="587.5078" y2="587.5078"/><text fill="#000000" font-family="sans-serif" font-size="13" lengthAdjust="spacing" textLength="286" x="57.5" y="582.4419">Натискає "Показати повне повідомлення"</text><polygon fill="#2688D4" points="61.5,612.6406,51.5,616.6406,61.5,620.6406,57.5,616.6406" style="stroke:#2688D4;stroke-width:1.0;"/><line style="stroke:#2688D4;stroke-width:1.0;stroke-dasharray:2.0,2.0;" x1="55.5" x2="354.5" y1="616.6406" y2="616.6406"/><text fill="#000000" font-family="sans-serif" font-size="13" lengthAdjust="spacing" textLength="255" x="67.5" y="611.5747">Відображення повного повідомлення</text><polygon fill="#2688D4" points="542.5,672.0391,552.5,676.0391,542.5,680.0391,546.5,676.0391" style="stroke:#2688D4;stroke-width:1.0;"/><line style="stroke:#2688D4;stroke-width:1.0;" x1="365.5" x2="548.5" y1="676.0391" y2="676.0391"/><text fill="#000000" font-family="sans-serif" font-size="13" lengthAdjust="spacing" textLength="87" x="372.5" y="640.7075">Запит даних</text><text fill="#000000" font-family="sans-serif" font-size="13" lengthAdjust="spacing" textLength="79" x="372.5" y="655.8403">Параметри:</text><text fill="#000000" font-family="sans-serif" font-size="13" lengthAdjust="spacing" textLength="170" x="372.5" y="670.9731">Ідентифікатор сесії Kong</text><line style="stroke:#2688D4;stroke-width:1.0;" x1="564.5" x2="606.5" y1="705.1719" y2="705.1719"/><line style="stroke:#2688D4;stroke-width:1.0;" x1="606.5" x2="606.5" y1="705.1719" y2="718.1719"/><line style="stroke:#2688D4;stroke-width:1.0;" x1="565.5" x2="606.5" y1="718.1719" y2="718.1719"/><polygon fill="#2688D4" points="575.5,714.1719,565.5,718.1719,575.5,722.1719,571.5,718.1719" style="stroke:#2688D4;stroke-width:1.0;"/><text fill="#000000" font-family="sans-serif" font-size="13" lengthAdjust="spacing" textLength="101" x="571.5" y="700.106">Перевірка сесії</text><polygon fill="#2688D4" points="931.5,773.5703,941.5,777.5703,931.5,781.5703,935.5,777.5703" style="stroke:#2688D4;stroke-width:1.0;"/><line style="stroke:#2688D4;stroke-width:1.0;" x1="564.5" x2="937.5" y1="777.5703" y2="777.5703"/><text fill="#000000" font-family="sans-serif" font-size="13" lengthAdjust="spacing" textLength="356" x="571.5" y="742.2388">Запит на маркування повідомлення як прочитаного</text><rect fill="#000000" height="3.5" style="stroke:#000000;stroke-width:0.0;" width="3.5" x="588.5" y="752.4375"/><text fill="#000000" font-family="sans-serif" font-size="13" lengthAdjust="spacing" textLength="237" x="593.5" y="757.3716">POST /api/notifications/inbox/{id}/ack</text><text fill="#000000" font-family="sans-serif" font-size="13" lengthAdjust="spacing" textLength="184" x="571.5" y="772.5044">Параметри: X-Access-Token</text><polygon fill="#2688D4" points="1178.5,817.8359,1188.5,821.8359,1178.5,825.8359,1182.5,821.8359" style="stroke:#2688D4;stroke-width:1.0;"/><line style="stroke:#2688D4;stroke-width:1.0;" x1="953.5" x2="1184.5" y1="821.8359" y2="821.8359"/><text fill="#000000" font-family="sans-serif" font-size="13" lengthAdjust="spacing" textLength="108" x="960.5" y="801.6372">Запит до БД на</text><text fill="#000000" font-family="sans-serif" font-size="13" lengthAdjust="spacing" textLength="170" x="960.5" y="816.77">оновлення повідомлення</text><polygon fill="#2688D4" points="959.5,846.9688,949.5,850.9688,959.5,854.9688,955.5,850.9688" style="stroke:#2688D4;stroke-width:1.0;"/><line style="stroke:#2688D4;stroke-width:1.0;stroke-dasharray:2.0,2.0;" x1="953.5" x2="1189.5" y1="850.9688" y2="850.9688"/><text fill="#000000" font-family="sans-serif" font-size="13" lengthAdjust="spacing" textLength="123" x="965.5" y="845.9028">Результат запиту</text><polygon fill="#2688D4" points="570.5,860.9688,560.5,864.9688,570.5,868.9688,566.5,864.9688" style="stroke:#2688D4;stroke-width:1.0;"/><line style="stroke:#2688D4;stroke-width:1.0;stroke-dasharray:2.0,2.0;" x1="564.5" x2="947.5" y1="864.9688" y2="864.9688"/><polygon fill="#2688D4" points="371.5,874.9688,361.5,878.9688,371.5,882.9688,367.5,878.9688" style="stroke:#2688D4;stroke-width:1.0;"/><line style="stroke:#2688D4;stroke-width:1.0;stroke-dasharray:2.0,2.0;" x1="365.5" x2="558.5" y1="878.9688" y2="878.9688"/><polygon fill="#2688D4" points="61.5,919.2344,51.5,923.2344,61.5,927.2344,57.5,923.2344" style="stroke:#2688D4;stroke-width:1.0;"/><line style="stroke:#2688D4;stroke-width:1.0;stroke-dasharray:2.0,2.0;" x1="55.5" x2="359.5" y1="923.2344" y2="923.2344"/><text fill="#000000" font-family="sans-serif" font-size="13" lengthAdjust="spacing" textLength="162" x="67.5" y="903.0356">Повідомлення перестає</text><text fill="#000000" font-family="sans-serif" font-size="13" lengthAdjust="spacing" textLength="169" x="67.5" y="918.1685">відображатись як 'Нове'</text><!--MD5=[6b8dfec0f33007d09e4a61d7d489b14e]
@startuml
skinparam shadowing false
skinparam DatabaseBackgroundColor white
skinparam DatabaseBorderColor #2688d4
skinparam QueueBackgroundColor white
skinparam QueueBorderColor #2688d4
skinparam NoteBackgroundColor white
skinparam NoteBorderColor #2688d4
skinparam sequence {
    ArrowColor #2688d4
    ActorBorderColor #2688d4
    LifeLineBorderColor #2688d4
    ParticipantBorderColor #2688d4
    ParticipantBackgroundColor white
    BoxBorderColor #2688d4
    BoxBackgroundColor white
}

actor "Користувач" as user
participant "Клієнтський додаток\n кабінету користувача" as cabinet
participant "Kong \nAPI Management" as kong
participant "Сервіс для роботи \nз inbox повідомленнями" as inbox_message_service

database "Сховище inbox повідомлень" as inbox_db

title Сценарії користувача з inbox повідомленнями

== Отримання користувачем повідомлень ==

user -> cabinet: Перехід на вкладку \n'Повідомлення'
activate cabinet
  cabinet -> kong: Запит даних \nПараметри: \nІдентифікатор сесії Kong
  activate kong
    kong -> kong: Перевірка сесії
    kong -> inbox_message_service: Запит даних \n**GET /api/notifications/inbox \nПараметри: X-Access-Token
    activate inbox_message_service
      inbox_message_service -> inbox_db: Запит до БД на отримання \nповідомлень за <idFromToken>
      inbox_db - -> inbox_message_service: Результат запиту
    deactivate inbox_message_service
    inbox_message_service - -> kong
  deactivate kong
  kong - -> cabinet
deactivate cabinet
cabinet - -> user: Відображення скорочених \nповідомлень на сторінці

== Читання користувачем повідомлення ==

user -> cabinet: Натискає "Показати повне повідомлення"
activate cabinet
    cabinet - -> user: Відображення повного повідомлення
  cabinet -> kong: Запит даних \nПараметри: \nІдентифікатор сесії Kong
  activate kong
    kong -> kong: Перевірка сесії
    kong -> inbox_message_service: Запит на маркування повідомлення як прочитаного \n**POST /api/notifications/inbox/{id}/ack \nПараметри: X-Access-Token
    activate inbox_message_service
      inbox_message_service -> inbox_db: Запит до БД на \nоновлення повідомлення
      inbox_db - -> inbox_message_service: Результат запиту
    deactivate inbox_message_service
    inbox_message_service - -> kong
  deactivate kong
  kong - -> cabinet
deactivate cabinet
cabinet - -> user: Повідомлення перестає \nвідображатись як 'Нове'
@enduml

PlantUML version 1.2021.7(Sun May 23 12:40:07 UTC 2021)
(GPL source distribution)
Java Runtime: OpenJDK Runtime Environment
JVM: OpenJDK 64-Bit Server VM
Default Encoding: UTF-8
Language: en
Country: null
--></g></svg>