<?xml version="1.0" encoding="UTF-8" standalone="no"?><svg xmlns="http://www.w3.org/2000/svg" xmlns:xlink="http://www.w3.org/1999/xlink" contentScriptType="application/ecmascript" contentStyleType="text/css" height="202px" preserveAspectRatio="none" style="width:499px;height:202px;background:#FFFFFF;" version="1.1" viewBox="0 0 499 202" width="499px" zoomAndPan="magnify"><defs><filter height="300%" id="fvy52ncabuuyz" width="300%" x="-1" y="-1"><feGaussianBlur result="blurOut" stdDeviation="2.0"/><feColorMatrix in="blurOut" result="blurOut2" type="matrix" values="0 0 0 0 0 0 0 0 0 0 0 0 0 0 0 0 0 0 .4 0"/><feOffset dx="4.0" dy="4.0" in="blurOut2" result="blurOut3"/><feBlend in="SourceGraphic" in2="blurOut3" mode="normal"/></filter></defs><g><!--MD5=[73ddb4f63b29484386a9c08542b879f4]
class AbstractBpmnParseListener--><rect codeLine="1" fill="#FEFECE" filter="url(#fvy52ncabuuyz)" height="60.8047" id="AbstractBpmnParseListener" style="stroke:#A80036;stroke-width:1.5;" width="206" x="8.5" y="7"/><ellipse cx="23.5" cy="23" fill="#ADD1B2" rx="11" ry="11" style="stroke:#A80036;stroke-width:1.0;"/><path d="M26.4688,28.6406 Q25.8906,28.9375 25.25,29.0781 Q24.6094,29.2344 23.9063,29.2344 Q21.4063,29.2344 20.0781,27.5938 Q18.7656,25.9375 18.7656,22.8125 Q18.7656,19.6875 20.0781,18.0313 Q21.4063,16.375 23.9063,16.375 Q24.6094,16.375 25.25,16.5313 Q25.9063,16.6875 26.4688,16.9844 L26.4688,19.7031 Q25.8438,19.125 25.25,18.8594 Q24.6563,18.5781 24.0313,18.5781 Q22.6875,18.5781 22,19.6563 Q21.3125,20.7188 21.3125,22.8125 Q21.3125,24.9063 22,25.9844 Q22.6875,27.0469 24.0313,27.0469 Q24.6563,27.0469 25.25,26.7813 Q25.8438,26.5 26.4688,25.9219 L26.4688,28.6406 Z " fill="#000000"/><text fill="#000000" font-family="sans-serif" font-size="12" lengthAdjust="spacing" textLength="174" x="37.5" y="27.1543">AbstractBpmnParseListener</text><line style="stroke:#A80036;stroke-width:1.5;" x1="9.5" x2="213.5" y1="39" y2="39"/><line style="stroke:#A80036;stroke-width:1.5;" x1="9.5" x2="213.5" y1="47" y2="47"/><text fill="#000000" font-family="sans-serif" font-size="11" lengthAdjust="spacing" textLength="100" x="14.5" y="61.2104">parseStartEvent()</text><!--MD5=[3fedb2bd176bb0f1f915a4122bcbc65c]
class BpmSecuritySupportListener--><rect codeLine="5" fill="#ADD8E6" filter="url(#fvy52ncabuuyz)" height="60.8047" id="BpmSecuritySupportListener" style="stroke:#008000;stroke-width:1.5;" width="209" x="7" y="128"/><ellipse cx="22" cy="144" fill="#ADD1B2" rx="11" ry="11" style="stroke:#008000;stroke-width:1.0;"/><path d="M24.9688,149.6406 Q24.3906,149.9375 23.75,150.0781 Q23.1094,150.2344 22.4063,150.2344 Q19.9063,150.2344 18.5781,148.5938 Q17.2656,146.9375 17.2656,143.8125 Q17.2656,140.6875 18.5781,139.0313 Q19.9063,137.375 22.4063,137.375 Q23.1094,137.375 23.75,137.5313 Q24.4063,137.6875 24.9688,137.9844 L24.9688,140.7031 Q24.3438,140.125 23.75,139.8594 Q23.1563,139.5781 22.5313,139.5781 Q21.1875,139.5781 20.5,140.6563 Q19.8125,141.7188 19.8125,143.8125 Q19.8125,145.9063 20.5,146.9844 Q21.1875,148.0469 22.5313,148.0469 Q23.1563,148.0469 23.75,147.7813 Q24.3438,147.5 24.9688,146.9219 L24.9688,149.6406 Z " fill="#000000"/><text fill="#000000" font-family="sans-serif" font-size="12" lengthAdjust="spacing" textLength="177" x="36" y="148.1543">BpmSecuritySupportListener</text><line style="stroke:#008000;stroke-width:1.5;" x1="8" x2="215" y1="160" y2="160"/><line style="stroke:#008000;stroke-width:1.5;" x1="8" x2="215" y1="168" y2="168"/><text fill="#000000" font-family="sans-serif" font-size="11" lengthAdjust="spacing" textLength="100" x="13" y="182.2104">parseStartEvent()</text><!--MD5=[315b5770b0b647af913e744a494accf6]
class ExecutionListener--><rect codeLine="9" fill="#FEFECE" filter="url(#fvy52ncabuuyz)" height="60.8047" id="ExecutionListener" style="stroke:#A80036;stroke-width:1.5;" width="155" x="291" y="7"/><ellipse cx="311.4" cy="23" fill="#B4A7E5" rx="11" ry="11" style="stroke:#A80036;stroke-width:1.0;"/><path d="M307.3219,18.7656 L307.3219,16.6094 L314.7125,16.6094 L314.7125,18.7656 L312.2438,18.7656 L312.2438,26.8438 L314.7125,26.8438 L314.7125,29 L307.3219,29 L307.3219,26.8438 L309.7906,26.8438 L309.7906,18.7656 L307.3219,18.7656 Z " fill="#000000"/><text fill="#000000" font-family="sans-serif" font-size="12" font-style="italic" lengthAdjust="spacing" textLength="111" x="326.6" y="27.1543">ExecutionListener</text><line style="stroke:#A80036;stroke-width:1.5;" x1="292" x2="445" y1="39" y2="39"/><line style="stroke:#A80036;stroke-width:1.5;" x1="292" x2="445" y1="47" y2="47"/><text fill="#000000" font-family="sans-serif" font-size="11" lengthAdjust="spacing" textLength="143" x="297" y="61.2104">notify(DelegateExecution)</text><!--MD5=[10787c218b7fc44e08b23b69172a8e14]
class InitiatorTokenStartEventListener--><rect codeLine="13" fill="#ADD8E6" filter="url(#fvy52ncabuuyz)" height="60.8047" id="InitiatorTokenStartEventListener" style="stroke:#008000;stroke-width:1.5;" width="234" x="251.5" y="128"/><ellipse cx="266.5" cy="144" fill="#ADD1B2" rx="11" ry="11" style="stroke:#008000;stroke-width:1.0;"/><path d="M269.4688,149.6406 Q268.8906,149.9375 268.25,150.0781 Q267.6094,150.2344 266.9063,150.2344 Q264.4063,150.2344 263.0781,148.5938 Q261.7656,146.9375 261.7656,143.8125 Q261.7656,140.6875 263.0781,139.0313 Q264.4063,137.375 266.9063,137.375 Q267.6094,137.375 268.25,137.5313 Q268.9063,137.6875 269.4688,137.9844 L269.4688,140.7031 Q268.8438,140.125 268.25,139.8594 Q267.6563,139.5781 267.0313,139.5781 Q265.6875,139.5781 265,140.6563 Q264.3125,141.7188 264.3125,143.8125 Q264.3125,145.9063 265,146.9844 Q265.6875,148.0469 267.0313,148.0469 Q267.6563,148.0469 268.25,147.7813 Q268.8438,147.5 269.4688,146.9219 L269.4688,149.6406 Z " fill="#000000"/><text fill="#000000" font-family="sans-serif" font-size="12" lengthAdjust="spacing" textLength="202" x="280.5" y="148.1543">InitiatorTokenStartEventListener</text><line style="stroke:#008000;stroke-width:1.5;" x1="252.5" x2="484.5" y1="160" y2="160"/><line style="stroke:#008000;stroke-width:1.5;" x1="252.5" x2="484.5" y1="168" y2="168"/><text fill="#000000" font-family="sans-serif" font-size="11" lengthAdjust="spacing" textLength="170" x="257.5" y="182.2104">void notify(DelegateExecution)</text><!--MD5=[ebf89e8318e8c501f52e247c7123c582]
reverse link AbstractBpmnParseListener to BpmSecuritySupportListener--><path d="M111.5,88.33 C111.5,101.73 111.5,115.81 111.5,127.74 " fill="none" id="AbstractBpmnParseListener-backto-BpmSecuritySupportListener" style="stroke:#A80036;stroke-width:1.0;"/><polygon fill="none" points="104.5,88.22,111.5,68.22,118.5,88.22,104.5,88.22" style="stroke:#A80036;stroke-width:1.0;"/><!--MD5=[1ce37f9db7317ad94ddf5192e52b15cd]
reverse link ExecutionListener to InitiatorTokenStartEventListener--><path d="M368.5,88.33 C368.5,101.73 368.5,115.81 368.5,127.74 " fill="none" id="ExecutionListener-backto-InitiatorTokenStartEventListener" style="stroke:#A80036;stroke-width:1.0;stroke-dasharray:7.0,7.0;"/><polygon fill="none" points="361.5,88.22,368.5,68.22,375.5,88.22,361.5,88.22" style="stroke:#A80036;stroke-width:1.0;"/><!--MD5=[ab144f56f26259fa074cdd6d2a5972ec]
reverse link BpmSecuritySupportListener to InitiatorTokenStartEventListener--><path codeLine="17" d="M229.32,158.5 C236.64,158.5 243.95,158.5 251.27,158.5 " fill="none" id="BpmSecuritySupportListener-backto-InitiatorTokenStartEventListener" style="stroke:#A80036;stroke-width:1.0;"/><polygon fill="#FFFFFF" points="216.16,158.5,222.16,162.5,228.16,158.5,222.16,154.5,216.16,158.5" style="stroke:#A80036;stroke-width:1.0;"/><!--MD5=[ee0ba1ce50ae25c8cface2e883a81544]
@startuml
class AbstractBpmnParseListener {
  parseStartEvent()
}

class BpmSecuritySupportListener #back:lightblue;line:green;text:black extends AbstractBpmnParseListener {
  parseStartEvent()
}

interface ExecutionListener {
  notify(DelegateExecution)
}

class InitiatorTokenStartEventListener #back:lightblue;line:green;text:black implements ExecutionListener {
  void notify(DelegateExecution)
}

BpmSecuritySupportListener o- InitiatorTokenStartEventListener
@enduml

PlantUML version 1.2021.7(Sun May 23 12:40:07 UTC 2021)
(GPL source distribution)
Java Runtime: OpenJDK Runtime Environment
JVM: OpenJDK 64-Bit Server VM
Default Encoding: UTF-8
Language: en
Country: null
--></g></svg>