<?xml version="1.0" encoding="UTF-8" standalone="no"?><svg xmlns="http://www.w3.org/2000/svg" xmlns:xlink="http://www.w3.org/1999/xlink" contentScriptType="application/ecmascript" contentStyleType="text/css" height="411px" preserveAspectRatio="none" style="width:772px;height:411px;background:#FFFFFF;" version="1.1" viewBox="0 0 772 411" width="772px" zoomAndPan="magnify"><defs><filter height="300%" id="f1et72gwu48zo2" width="300%" x="-1" y="-1"><feGaussianBlur result="blurOut" stdDeviation="2.0"/><feColorMatrix in="blurOut" result="blurOut2" type="matrix" values="0 0 0 0 0 0 0 0 0 0 0 0 0 0 0 0 0 0 .4 0"/><feOffset dx="4.0" dy="4.0" in="blurOut2" result="blurOut3"/><feBlend in="SourceGraphic" in2="blurOut3" mode="normal"/></filter></defs><g><!--MD5=[1e460e09f145690d74e315b05007a75a]
cluster el--><polygon fill="#FFFFFF" filter="url(#f1et72gwu48zo2)" points="16,6,36,6,43,28.2969,632,28.2969,632,404,16,404,16,6" style="stroke:#000000;stroke-width:1.5;"/><line style="stroke:#000000;stroke-width:1.5;" x1="16" x2="43" y1="28.2969" y2="28.2969"/><text fill="#000000" font-family="sans-serif" font-size="14" font-weight="bold" lengthAdjust="spacing" textLength="14" x="20" y="20.9951">el</text><!--MD5=[fbefe79c2615ead6467110c697f20e43]
cluster juel--><polygon fill="#FFFFFF" filter="url(#f1et72gwu48zo2)" points="40,49,74,49,81,71.2969,388,71.2969,388,335.5,40,335.5,40,49" style="stroke:#000000;stroke-width:1.5;"/><line style="stroke:#000000;stroke-width:1.5;" x1="40" x2="81" y1="71.2969" y2="71.2969"/><text fill="#000000" font-family="sans-serif" font-size="14" font-weight="bold" lengthAdjust="spacing" textLength="28" x="44" y="63.9951">juel</text><!--MD5=[e6eced616a98d47334dd1aaaa829ffd5]
cluster dto--><polygon fill="#FFFFFF" filter="url(#f1et72gwu48zo2)" points="412,179,444,179,451,201.2969,608,201.2969,608,380,412,380,412,179" style="stroke:#000000;stroke-width:1.5;"/><line style="stroke:#000000;stroke-width:1.5;" x1="412" x2="451" y1="201.2969" y2="201.2969"/><text fill="#000000" font-family="sans-serif" font-size="14" font-weight="bold" lengthAdjust="spacing" textLength="26" x="416" y="193.9951">dto</text><!--MD5=[58757dcc332247ef909ad8857cd4165d]
class AbstractApplicationContextAwareJuelFunction--><rect codeLine="3" fill="#FEFECE" filter="url(#f1et72gwu48zo2)" height="48" id="AbstractApplicationContextAwareJuelFunction" style="stroke:#A80036;stroke-width:1.5;" width="316" x="56" y="84"/><ellipse cx="71" cy="100" fill="#A9DCDF" rx="11" ry="11" style="stroke:#A80036;stroke-width:1.0;"/><path d="M71.1094,95.3438 L69.9531,100.4219 L72.2813,100.4219 L71.1094,95.3438 Z M69.625,93.1094 L72.6094,93.1094 L75.9688,105.5 L73.5156,105.5 L72.75,102.4375 L69.4688,102.4375 L68.7188,105.5 L66.2813,105.5 L69.625,93.1094 Z " fill="#000000"/><text fill="#000000" font-family="sans-serif" font-size="12" font-style="italic" lengthAdjust="spacing" textLength="284" x="85" y="104.1543">AbstractApplicationContextAwareJuelFunction</text><line style="stroke:#A80036;stroke-width:1.5;" x1="57" x2="371" y1="116" y2="116"/><line style="stroke:#A80036;stroke-width:1.5;" x1="57" x2="371" y1="124" y2="124"/><!--MD5=[2bf0a7845ef24fe7b7405935977aaf6e]
class InitiatorJuelFunction--><rect codeLine="4" fill="#ADD8E6" filter="url(#f1et72gwu48zo2)" height="60.8047" id="InitiatorJuelFunction" style="stroke:#008000;stroke-width:1.5;" width="156" x="175" y="258.5"/><ellipse cx="190" cy="274.5" fill="#ADD1B2" rx="11" ry="11" style="stroke:#008000;stroke-width:1.0;"/><path d="M192.9688,280.1406 Q192.3906,280.4375 191.75,280.5781 Q191.1094,280.7344 190.4063,280.7344 Q187.9063,280.7344 186.5781,279.0938 Q185.2656,277.4375 185.2656,274.3125 Q185.2656,271.1875 186.5781,269.5313 Q187.9063,267.875 190.4063,267.875 Q191.1094,267.875 191.75,268.0313 Q192.4063,268.1875 192.9688,268.4844 L192.9688,271.2031 Q192.3438,270.625 191.75,270.3594 Q191.1563,270.0781 190.5313,270.0781 Q189.1875,270.0781 188.5,271.1563 Q187.8125,272.2188 187.8125,274.3125 Q187.8125,276.4063 188.5,277.4844 Q189.1875,278.5469 190.5313,278.5469 Q191.1563,278.5469 191.75,278.2813 Q192.3438,278 192.9688,277.4219 L192.9688,280.1406 Z " fill="#000000"/><text fill="#000000" font-family="sans-serif" font-size="12" lengthAdjust="spacing" textLength="124" x="204" y="278.6543">InitiatorJuelFunction</text><line style="stroke:#008000;stroke-width:1.5;" x1="176" x2="330" y1="290.5" y2="290.5"/><line style="stroke:#008000;stroke-width:1.5;" x1="176" x2="330" y1="298.5" y2="298.5"/><ellipse cx="186" cy="309.5" fill="#84BE84" rx="3" ry="3" style="stroke:#038048;stroke-width:1.0;"/><text fill="#000000" font-family="sans-serif" font-size="11" lengthAdjust="spacing" text-decoration="underline" textLength="101" x="195" y="312.7104">UserDto initiator()</text><!--MD5=[d52bb4e0af23ce21220aa3b18c0ca397]
class UserDto--><rect codeLine="9" fill="#ADD8E6" filter="url(#f1et72gwu48zo2)" height="150.4375" id="UserDto" style="stroke:#008000;stroke-width:1.5;" width="164" x="428" y="214"/><ellipse cx="480.25" cy="230" fill="#ADD1B2" rx="11" ry="11" style="stroke:#008000;stroke-width:1.0;"/><path d="M483.2188,235.6406 Q482.6406,235.9375 482,236.0781 Q481.3594,236.2344 480.6563,236.2344 Q478.1563,236.2344 476.8281,234.5938 Q475.5156,232.9375 475.5156,229.8125 Q475.5156,226.6875 476.8281,225.0313 Q478.1563,223.375 480.6563,223.375 Q481.3594,223.375 482,223.5313 Q482.6563,223.6875 483.2188,223.9844 L483.2188,226.7031 Q482.5938,226.125 482,225.8594 Q481.4063,225.5781 480.7813,225.5781 Q479.4375,225.5781 478.75,226.6563 Q478.0625,227.7188 478.0625,229.8125 Q478.0625,231.9063 478.75,232.9844 Q479.4375,234.0469 480.7813,234.0469 Q481.4063,234.0469 482,233.7813 Q482.5938,233.5 483.2188,232.9219 L483.2188,235.6406 Z " fill="#000000"/><text fill="#000000" font-family="sans-serif" font-size="12" lengthAdjust="spacing" textLength="51" x="500.75" y="234.1543">UserDto</text><line style="stroke:#008000;stroke-width:1.5;" x1="429" x2="591" y1="246" y2="246"/><rect fill="none" height="6" style="stroke:#C82930;stroke-width:1.0;" width="6" x="436" y="254"/><text fill="#000000" font-family="sans-serif" font-size="11" lengthAdjust="spacing" textLength="97" x="448" y="260.2104">String userName</text><rect fill="none" height="6" style="stroke:#C82930;stroke-width:1.0;" width="6" x="436" y="266.8047"/><text fill="#000000" font-family="sans-serif" font-size="11" lengthAdjust="spacing" textLength="112" x="448" y="273.0151">String accessToken</text><rect fill="none" height="6" style="stroke:#C82930;stroke-width:1.0;" width="6" x="436" y="279.6094"/><text fill="#000000" font-family="sans-serif" font-size="11" lengthAdjust="spacing" textLength="115" x="448" y="285.8198">JwtClaimsDto claims</text><line style="stroke:#008000;stroke-width:1.0;" x1="429" x2="591" y1="292.4141" y2="292.4141"/><ellipse cx="439" cy="303.4141" fill="#84BE84" rx="3" ry="3" style="stroke:#038048;stroke-width:1.0;"/><text fill="#000000" font-family="sans-serif" font-size="11" lengthAdjust="spacing" textLength="124" x="448" y="306.6245">String getUserName()</text><ellipse cx="439" cy="316.2188" fill="#84BE84" rx="3" ry="3" style="stroke:#038048;stroke-width:1.0;"/><text fill="#000000" font-family="sans-serif" font-size="11" lengthAdjust="spacing" textLength="138" x="448" y="319.4292">String getAccessToken()</text><ellipse cx="439" cy="329.0234" fill="#84BE84" rx="3" ry="3" style="stroke:#038048;stroke-width:1.0;"/><text fill="#000000" font-family="sans-serif" font-size="11" lengthAdjust="spacing" textLength="116" x="448" y="332.2339">String getFullName()</text><ellipse cx="439" cy="341.8281" fill="#84BE84" rx="3" ry="3" style="stroke:#038048;stroke-width:1.0;"/><text fill="#000000" font-family="sans-serif" font-size="11" lengthAdjust="spacing" textLength="88" x="448" y="345.0386">String getDrfo()</text><ellipse cx="439" cy="354.6328" fill="#84BE84" rx="3" ry="3" style="stroke:#038048;stroke-width:1.0;"/><text fill="#000000" font-family="sans-serif" font-size="11" lengthAdjust="spacing" textLength="104" x="448" y="357.8433">String getEdrpou()</text><!--MD5=[70ab79029edb06b208624a4d8e0a31bb]
class JwtClaimsDto--><rect fill="#FEFECE" filter="url(#f1et72gwu48zo2)" height="48" id="JwtClaimsDto" style="stroke:#A80036;stroke-width:1.5;" width="111" x="647.5" y="265"/><ellipse cx="662.5" cy="281" fill="#ADD1B2" rx="11" ry="11" style="stroke:#A80036;stroke-width:1.0;"/><path d="M665.4688,286.6406 Q664.8906,286.9375 664.25,287.0781 Q663.6094,287.2344 662.9063,287.2344 Q660.4063,287.2344 659.0781,285.5938 Q657.7656,283.9375 657.7656,280.8125 Q657.7656,277.6875 659.0781,276.0313 Q660.4063,274.375 662.9063,274.375 Q663.6094,274.375 664.25,274.5313 Q664.9063,274.6875 665.4688,274.9844 L665.4688,277.7031 Q664.8438,277.125 664.25,276.8594 Q663.6563,276.5781 663.0313,276.5781 Q661.6875,276.5781 661,277.6563 Q660.3125,278.7188 660.3125,280.8125 Q660.3125,282.9063 661,283.9844 Q661.6875,285.0469 663.0313,285.0469 Q663.6563,285.0469 664.25,284.7813 Q664.8438,284.5 665.4688,283.9219 L665.4688,286.6406 Z " fill="#000000"/><text fill="#000000" font-family="sans-serif" font-size="12" lengthAdjust="spacing" textLength="79" x="676.5" y="285.1543">JwtClaimsDto</text><line style="stroke:#A80036;stroke-width:1.5;" x1="648.5" x2="757.5" y1="297" y2="297"/><line style="stroke:#A80036;stroke-width:1.5;" x1="648.5" x2="757.5" y1="305" y2="305"/><!--MD5=[891d0921d7a2158abe6c5a628e3e6f2f]
reverse link AbstractApplicationContextAwareJuelFunction to InitiatorJuelFunction--><path d="M223.29,151.65 C230.45,184.51 240.17,229.1 246.51,258.2 " fill="none" id="AbstractApplicationContextAwareJuelFunction-backto-InitiatorJuelFunction" style="stroke:#A80036;stroke-width:1.0;"/><polygon fill="none" points="216.44,153.07,219.02,132.03,230.12,150.09,216.44,153.07" style="stroke:#A80036;stroke-width:1.0;"/><!--MD5=[d0a8c5c7ec283fb74d0f81a92f47f8d5]
link AbstractApplicationContextAwareJuelFunction to UserDto--><!--MD5=[03463231d1f0a16b8c7059a5a36256f5]
link InitiatorJuelFunction to UserDto--><path codeLine="22" d="M331.16,289 C360.05,289 392.98,289 422.65,289 " fill="none" id="InitiatorJuelFunction-to-UserDto" style="stroke:#A80036;stroke-width:1.0;stroke-dasharray:7.0,7.0;"/><polygon fill="#A80036" points="427.76,289,418.76,285,422.76,289,418.76,293,427.76,289" style="stroke:#A80036;stroke-width:1.0;"/><text fill="#000000" font-family="sans-serif" font-size="13" lengthAdjust="spacing" textLength="46" x="356.5" y="282.0669">returns</text><!--MD5=[7c2e71c4e72072df7fa780c1d6f07cc8]
link UserDto to JwtClaimsDto--><path codeLine="24" d="M592.18,289 C606.06,289 619.95,289 633.84,289 " fill="none" id="UserDto-to-JwtClaimsDto" style="stroke:#A80036;stroke-width:1.0;stroke-dasharray:7.0,7.0;"/><polygon fill="#FFFFFF" points="647.15,289,641.1544,284.9934,635.15,288.9868,641.1456,292.9934,647.15,289" style="stroke:#A80036;stroke-width:1.0;"/><!--MD5=[92b2c1732435291139e2e10c78d8678a]
@startuml
package el {
  package juel {
    abstract class AbstractApplicationContextAwareJuelFunction
    class InitiatorJuelFunction #back:lightblue;line:green;text:black extends AbstractApplicationContextAwareJuelFunction {
      + {static} UserDto initiator()
    }
  }
  package dto {
    class UserDto #back:lightblue;line:green;text:black {
      - String userName
      - String accessToken
      - JwtClaimsDto claims
      - -
      + String getUserName()
      + String getAccessToken()
      + String getFullName()
      + String getDrfo()
      + String getEdrpou()
    }
  }
  AbstractApplicationContextAwareJuelFunction ..[hidden]> UserDto
  InitiatorJuelFunction .> UserDto : returns
}
UserDto .o JwtClaimsDto
@enduml

PlantUML version 1.2021.7(Sun May 23 12:40:07 UTC 2021)
(GPL source distribution)
Java Runtime: OpenJDK Runtime Environment
JVM: OpenJDK 64-Bit Server VM
Default Encoding: UTF-8
Language: en
Country: null
--></g></svg>