<?xml version="1.0" encoding="UTF-8" standalone="no"?><svg xmlns="http://www.w3.org/2000/svg" xmlns:xlink="http://www.w3.org/1999/xlink" contentScriptType="application/ecmascript" contentStyleType="text/css" height="741px" preserveAspectRatio="none" style="width:1329px;height:741px;background:#FFFFFF;" version="1.1" viewBox="0 0 1329 741" width="1329px" zoomAndPan="magnify"><defs><filter height="300%" id="fhnsokkjqencc" width="300%" x="-1" y="-1"><feGaussianBlur result="blurOut" stdDeviation="2.0"/><feColorMatrix in="blurOut" result="blurOut2" type="matrix" values="0 0 0 0 0 0 0 0 0 0 0 0 0 0 0 0 0 0 .4 0"/><feOffset dx="4.0" dy="4.0" in="blurOut2" result="blurOut3"/><feBlend in="SourceGraphic" in2="blurOut3" mode="normal"/></filter></defs><g><!--MD5=[45381c3a9eef178d0c49d9029d80ed4a]
cluster el.juel--><polygon fill="#FFFFFF" filter="url(#fhnsokkjqencc)" points="529.5,146,582.5,146,589.5,168.2969,1312.5,168.2969,1312.5,349.5,529.5,349.5,529.5,146" style="stroke:#000000;stroke-width:1.5;"/><line style="stroke:#000000;stroke-width:1.5;" x1="529.5" x2="589.5" y1="168.2969" y2="168.2969"/><text fill="#000000" font-family="sans-serif" font-size="14" font-weight="bold" lengthAdjust="spacing" textLength="47" x="533.5" y="160.9951">el.juel</text><!--MD5=[1969eb49accf14e28bce7c74db8cc840]
cluster mapper--><polygon fill="#FFFFFF" filter="url(#fhnsokkjqencc)" points="880.5,189,946.5,189,953.5,211.2969,1288.5,211.2969,1288.5,320,880.5,320,880.5,189" style="stroke:#000000;stroke-width:1.5;"/><line style="stroke:#000000;stroke-width:1.5;" x1="880.5" x2="953.5" y1="211.2969" y2="211.2969"/><text fill="#000000" font-family="sans-serif" font-size="14" font-weight="bold" lengthAdjust="spacing" textLength="60" x="884.5" y="203.9951">mapper</text><!--MD5=[12a323ab95201ec415d45543a1513357]
cluster scripting--><polygon fill="#FFFFFF" filter="url(#fhnsokkjqencc)" points="361.5,536.5,436.5,536.5,443.5,558.7969,1178.5,558.7969,1178.5,734.5,361.5,734.5,361.5,536.5" style="stroke:#000000;stroke-width:1.5;"/><line style="stroke:#000000;stroke-width:1.5;" x1="361.5" x2="443.5" y1="558.7969" y2="558.7969"/><text fill="#000000" font-family="sans-serif" font-size="14" font-weight="bold" lengthAdjust="spacing" textLength="69" x="365.5" y="551.4951">scripting</text><!--MD5=[f08f24aec8644ee1555178eb972a5bbb]
cluster groovy--><polygon fill="#FFFFFF" filter="url(#fhnsokkjqencc)" points="385.5,579.5,446.5,579.5,453.5,601.7969,723.5,601.7969,723.5,710.5,385.5,710.5,385.5,579.5" style="stroke:#000000;stroke-width:1.5;"/><line style="stroke:#000000;stroke-width:1.5;" x1="385.5" x2="453.5" y1="601.7969" y2="601.7969"/><text fill="#000000" font-family="sans-serif" font-size="14" font-weight="bold" lengthAdjust="spacing" textLength="55" x="389.5" y="594.4951">groovy</text><!--MD5=[58757dcc332247ef909ad8857cd4165d]
class AbstractApplicationContextAwareJuelFunction--><rect codeLine="18" fill="#ADD8E6" filter="url(#fhnsokkjqencc)" height="120.0234" id="AbstractApplicationContextAwareJuelFunction" style="stroke:#008000;stroke-width:1.5;" width="316" x="545.5" y="213.5"/><ellipse cx="560.5" cy="229.5" fill="#A9DCDF" rx="11" ry="11" style="stroke:#008000;stroke-width:1.0;"/><path d="M560.6094,224.8438 L559.4531,229.9219 L561.7813,229.9219 L560.6094,224.8438 Z M559.125,222.6094 L562.1094,222.6094 L565.4688,235 L563.0156,235 L562.25,231.9375 L558.9688,231.9375 L558.2188,235 L555.7813,235 L559.125,222.6094 Z " fill="#000000"/><text fill="#000000" font-family="sans-serif" font-size="12" font-style="italic" lengthAdjust="spacing" textLength="284" x="574.5" y="233.6543">AbstractApplicationContextAwareJuelFunction</text><line style="stroke:#008000;stroke-width:1.5;" x1="546.5" x2="860.5" y1="245.5" y2="245.5"/><rect fill="none" height="6" style="stroke:#C82930;stroke-width:1.0;" width="6" x="553.5" y="253.5"/><text fill="#000000" font-family="sans-serif" font-size="11" lengthAdjust="spacing" text-decoration="underline" textLength="212" x="565.5" y="259.7104">ApplicationContext applicationContext</text><line style="stroke:#008000;stroke-width:1.0;" x1="546.5" x2="860.5" y1="266.3047" y2="266.3047"/><ellipse cx="556.5" cy="277.3047" fill="#84BE84" rx="3" ry="3" style="stroke:#038048;stroke-width:1.0;"/><text fill="#000000" font-family="sans-serif" font-size="11" lengthAdjust="spacing" textLength="289" x="565.5" y="280.5151">final void setApplicationContext(ApplicationContext)</text><ellipse cx="556.5" cy="290.1094" fill="#84BE84" rx="3" ry="3" style="stroke:#038048;stroke-width:1.0;"/><text fill="#000000" font-family="sans-serif" font-size="11" lengthAdjust="spacing" textLength="179" x="565.5" y="293.3198">Method getJuelFunctionMethod()</text><line style="stroke:#008000;stroke-width:1.0;stroke-dasharray:1.0,2.0;" x1="546.5" x2="860.5" y1="299.9141" y2="299.9141"/><polygon fill="#FFFF44" points="556.5,305.9141,560.5,309.9141,556.5,313.9141,552.5,309.9141" style="stroke:#B38D22;stroke-width:1.0;"/><text fill="#000000" font-family="sans-serif" font-size="11" lengthAdjust="spacing" text-decoration="underline" textLength="165" x="565.5" y="314.1245">CoreExecution getExecution()</text><polygon fill="#FFFF44" points="556.5,318.7188,560.5,322.7188,556.5,326.7188,552.5,322.7188" style="stroke:#B38D22;stroke-width:1.0;"/><text fill="#000000" font-family="sans-serif" font-size="11" lengthAdjust="spacing" text-decoration="underline" textLength="152" x="565.5" y="326.9292">&lt;T&gt; T getBean(Class&lt;T&gt;)</text><!--MD5=[ab509285816a36683c427be278055c27]
class CompositeApplicationContextAwareJuelFunctionMapper--><rect codeLine="28" fill="#ADD8E6" filter="url(#fhnsokkjqencc)" height="60.8047" id="CompositeApplicationContextAwareJuelFunctionMapper" style="stroke:#008000;stroke-width:1.5;" width="376" x="896.5" y="243"/><ellipse cx="911.5" cy="259" fill="#ADD1B2" rx="11" ry="11" style="stroke:#008000;stroke-width:1.0;"/><path d="M914.4688,264.6406 Q913.8906,264.9375 913.25,265.0781 Q912.6094,265.2344 911.9063,265.2344 Q909.4063,265.2344 908.0781,263.5938 Q906.7656,261.9375 906.7656,258.8125 Q906.7656,255.6875 908.0781,254.0313 Q909.4063,252.375 911.9063,252.375 Q912.6094,252.375 913.25,252.5313 Q913.9063,252.6875 914.4688,252.9844 L914.4688,255.7031 Q913.8438,255.125 913.25,254.8594 Q912.6563,254.5781 912.0313,254.5781 Q910.6875,254.5781 910,255.6563 Q909.3125,256.7188 909.3125,258.8125 Q909.3125,260.9063 910,261.9844 Q910.6875,263.0469 912.0313,263.0469 Q912.6563,263.0469 913.25,262.7813 Q913.8438,262.5 914.4688,261.9219 L914.4688,264.6406 Z " fill="#000000"/><text fill="#000000" font-family="sans-serif" font-size="12" lengthAdjust="spacing" textLength="344" x="925.5" y="263.1543">CompositeApplicationContextAwareJuelFunctionMapper</text><line style="stroke:#008000;stroke-width:1.5;" x1="897.5" x2="1271.5" y1="275" y2="275"/><line style="stroke:#008000;stroke-width:1.5;" x1="897.5" x2="1271.5" y1="283" y2="283"/><ellipse cx="907.5" cy="294" fill="#84BE84" rx="3" ry="3" style="stroke:#038048;stroke-width:1.0;"/><text fill="#000000" font-family="sans-serif" font-size="11" lengthAdjust="spacing" textLength="218" x="916.5" y="297.2104">Method resolveFunction(String, String)</text><!--MD5=[4b02aa7e6cb29f518f240d46102fdf05]
class StaticJavaFunctionsProcessEnginePlugin--><rect codeLine="52" fill="#ADD8E6" filter="url(#fhnsokkjqencc)" height="60.8047" id="StaticJavaFunctionsProcessEnginePlugin" style="stroke:#008000;stroke-width:1.5;" width="287" x="875" y="633.5"/><ellipse cx="890.9" cy="649.5" fill="#ADD1B2" rx="11" ry="11" style="stroke:#008000;stroke-width:1.0;"/><path d="M893.8688,655.1406 Q893.2906,655.4375 892.65,655.5781 Q892.0094,655.7344 891.3063,655.7344 Q888.8063,655.7344 887.4781,654.0938 Q886.1656,652.4375 886.1656,649.3125 Q886.1656,646.1875 887.4781,644.5313 Q888.8063,642.875 891.3063,642.875 Q892.0094,642.875 892.65,643.0313 Q893.3063,643.1875 893.8688,643.4844 L893.8688,646.2031 Q893.2438,645.625 892.65,645.3594 Q892.0563,645.0781 891.4313,645.0781 Q890.0875,645.0781 889.4,646.1563 Q888.7125,647.2188 888.7125,649.3125 Q888.7125,651.4063 889.4,652.4844 Q890.0875,653.5469 891.4313,653.5469 Q892.0563,653.5469 892.65,653.2813 Q893.2438,653 893.8688,652.4219 L893.8688,655.1406 Z " fill="#000000"/><text fill="#000000" font-family="sans-serif" font-size="12" lengthAdjust="spacing" textLength="253" x="905.1" y="653.6543">StaticJavaFunctionsProcessEnginePlugin</text><line style="stroke:#008000;stroke-width:1.5;" x1="876" x2="1161" y1="665.5" y2="665.5"/><line style="stroke:#008000;stroke-width:1.5;" x1="876" x2="1161" y1="673.5" y2="673.5"/><ellipse cx="886" cy="684.5" fill="#84BE84" rx="3" ry="3" style="stroke:#038048;stroke-width:1.0;"/><text fill="#000000" font-family="sans-serif" font-size="11" lengthAdjust="spacing" textLength="261" x="895" y="687.7104">void postInit(ProcessEngineConfigurationImpl)</text><!--MD5=[d480ffba6cd7e351bc6ead1eee4606fd]
class StaticJavaFunctionsGroovyScriptEnvResolver--><rect codeLine="48" fill="#ADD8E6" filter="url(#fhnsokkjqencc)" height="60.8047" id="StaticJavaFunctionsGroovyScriptEnvResolver" style="stroke:#008000;stroke-width:1.5;" width="307" x="401" y="633.5"/><ellipse cx="416" cy="649.5" fill="#ADD1B2" rx="11" ry="11" style="stroke:#008000;stroke-width:1.0;"/><path d="M418.9688,655.1406 Q418.3906,655.4375 417.75,655.5781 Q417.1094,655.7344 416.4063,655.7344 Q413.9063,655.7344 412.5781,654.0938 Q411.2656,652.4375 411.2656,649.3125 Q411.2656,646.1875 412.5781,644.5313 Q413.9063,642.875 416.4063,642.875 Q417.1094,642.875 417.75,643.0313 Q418.4063,643.1875 418.9688,643.4844 L418.9688,646.2031 Q418.3438,645.625 417.75,645.3594 Q417.1563,645.0781 416.5313,645.0781 Q415.1875,645.0781 414.5,646.1563 Q413.8125,647.2188 413.8125,649.3125 Q413.8125,651.4063 414.5,652.4844 Q415.1875,653.5469 416.5313,653.5469 Q417.1563,653.5469 417.75,653.2813 Q418.3438,653 418.9688,652.4219 L418.9688,655.1406 Z " fill="#000000"/><text fill="#000000" font-family="sans-serif" font-size="12" lengthAdjust="spacing" textLength="275" x="430" y="653.6543">StaticJavaFunctionsGroovyScriptEnvResolver</text><line style="stroke:#008000;stroke-width:1.5;" x1="402" x2="707" y1="665.5" y2="665.5"/><line style="stroke:#008000;stroke-width:1.5;" x1="402" x2="707" y1="673.5" y2="673.5"/><ellipse cx="412" cy="684.5" fill="#84BE84" rx="3" ry="3" style="stroke:#038048;stroke-width:1.0;"/><text fill="#000000" font-family="sans-serif" font-size="11" lengthAdjust="spacing" textLength="130" x="421" y="687.7104">String[] resolve(String)</text><!--MD5=[bd5220611d0c28d928ccc89c278a01cf]
class ApplicationContext--><rect codeLine="1" fill="#FEFECE" filter="url(#fhnsokkjqencc)" height="48" id="ApplicationContext" style="stroke:#A80036;stroke-width:1.5;" width="149" x="228" y="13.5"/><ellipse cx="243" cy="29.5" fill="#B4A7E5" rx="11" ry="11" style="stroke:#A80036;stroke-width:1.0;"/><path d="M238.9219,25.2656 L238.9219,23.1094 L246.3125,23.1094 L246.3125,25.2656 L243.8438,25.2656 L243.8438,33.3438 L246.3125,33.3438 L246.3125,35.5 L238.9219,35.5 L238.9219,33.3438 L241.3906,33.3438 L241.3906,25.2656 L238.9219,25.2656 Z " fill="#000000"/><text fill="#000000" font-family="sans-serif" font-size="12" font-style="italic" lengthAdjust="spacing" textLength="117" x="257" y="33.6543">ApplicationContext</text><line style="stroke:#A80036;stroke-width:1.5;" x1="229" x2="376" y1="45.5" y2="45.5"/><line style="stroke:#A80036;stroke-width:1.5;" x1="229" x2="376" y1="53.5" y2="53.5"/><path d="M6,25 L6,50.1328 A0,0 0 0 0 6,50.1328 L193,50.1328 A0,0 0 0 0 193,50.1328 L193,43 L227.69,37.5 L193,35 L193,35 L183,25 L6,25 A0,0 0 0 0 6,25 " fill="#FBFB77" filter="url(#fhnsokkjqencc)" style="stroke:#A80036;stroke-width:1.0;"/><path d="M183,25 L183,35 L193,35 L183,25 " fill="#FBFB77" style="stroke:#A80036;stroke-width:1.0;"/><text fill="#000000" font-family="sans-serif" font-size="13" lengthAdjust="spacing" textLength="166" x="12" y="42.0669">Spring application context</text><!--MD5=[966643c7379f7f1ceeebd4a8711a83ae]
class ApplicationContextAware--><rect codeLine="4" fill="#FEFECE" filter="url(#fhnsokkjqencc)" height="60.8047" id="ApplicationContextAware" style="stroke:#A80036;stroke-width:1.5;" width="287" x="464" y="7"/><ellipse cx="525.75" cy="23" fill="#B4A7E5" rx="11" ry="11" style="stroke:#A80036;stroke-width:1.0;"/><path d="M521.6719,18.7656 L521.6719,16.6094 L529.0625,16.6094 L529.0625,18.7656 L526.5938,18.7656 L526.5938,26.8438 L529.0625,26.8438 L529.0625,29 L521.6719,29 L521.6719,26.8438 L524.1406,26.8438 L524.1406,18.7656 L521.6719,18.7656 Z " fill="#000000"/><text fill="#000000" font-family="sans-serif" font-size="12" font-style="italic" lengthAdjust="spacing" textLength="155" x="546.25" y="27.1543">ApplicationContextAware</text><line style="stroke:#A80036;stroke-width:1.5;" x1="465" x2="750" y1="39" y2="39"/><line style="stroke:#A80036;stroke-width:1.5;" x1="465" x2="750" y1="47" y2="47"/><ellipse cx="475" cy="58" fill="#84BE84" rx="3" ry="3" style="stroke:#038048;stroke-width:1.0;"/><text fill="#000000" font-family="sans-serif" font-size="11" lengthAdjust="spacing" textLength="261" x="484" y="61.2104">void setApplicationContext(ApplicationContext)</text><!--MD5=[bbb75e9c592a596d6c71e9c118339cc5]
class CoreExecution--><rect codeLine="9" fill="#FEFECE" filter="url(#fhnsokkjqencc)" height="48" id="CoreExecution" style="stroke:#A80036;stroke-width:1.5;" width="122" x="151.5" y="249.5"/><ellipse cx="166.5" cy="265.5" fill="#A9DCDF" rx="11" ry="11" style="stroke:#A80036;stroke-width:1.0;"/><path d="M166.6094,260.8438 L165.4531,265.9219 L167.7813,265.9219 L166.6094,260.8438 Z M165.125,258.6094 L168.1094,258.6094 L171.4688,271 L169.0156,271 L168.25,267.9375 L164.9688,267.9375 L164.2188,271 L161.7813,271 L165.125,258.6094 Z " fill="#000000"/><text fill="#000000" font-family="sans-serif" font-size="12" font-style="italic" lengthAdjust="spacing" textLength="90" x="180.5" y="269.6543">CoreExecution</text><line style="stroke:#A80036;stroke-width:1.5;" x1="152.5" x2="272.5" y1="281.5" y2="281.5"/><line style="stroke:#A80036;stroke-width:1.5;" x1="152.5" x2="272.5" y1="289.5" y2="289.5"/><path d="M309,261 L309,269.5 L273.68,273.5 L309,277.5 L309,286.1328 A0,0 0 0 0 309,286.1328 L510,286.1328 A0,0 0 0 0 510,286.1328 L510,271 L500,261 L309,261 A0,0 0 0 0 309,261 " fill="#FBFB77" filter="url(#fhnsokkjqencc)" style="stroke:#A80036;stroke-width:1.0;"/><path d="M500,261 L500,271 L510,271 L500,261 " fill="#FBFB77" style="stroke:#A80036;stroke-width:1.0;"/><text fill="#000000" font-family="sans-serif" font-size="13" lengthAdjust="spacing" textLength="180" x="315" y="278.0669">Camunda execution context</text><!--MD5=[1fee015ecac60365954be1956ac2439e]
class FunctionMapper--><rect codeLine="13" fill="#FEFECE" filter="url(#fhnsokkjqencc)" height="60.8047" id="FunctionMapper" style="stroke:#A80036;stroke-width:1.5;" width="244" x="962.5" y="7"/><ellipse cx="1029.75" cy="23" fill="#A9DCDF" rx="11" ry="11" style="stroke:#A80036;stroke-width:1.0;"/><path d="M1029.8594,18.3438 L1028.7031,23.4219 L1031.0313,23.4219 L1029.8594,18.3438 Z M1028.375,16.1094 L1031.3594,16.1094 L1034.7188,28.5 L1032.2656,28.5 L1031.5,25.4375 L1028.2188,25.4375 L1027.4688,28.5 L1025.0313,28.5 L1028.375,16.1094 Z " fill="#000000"/><text fill="#000000" font-family="sans-serif" font-size="12" font-style="italic" lengthAdjust="spacing" textLength="101" x="1050.25" y="27.1543">FunctionMapper</text><line style="stroke:#A80036;stroke-width:1.5;" x1="963.5" x2="1205.5" y1="39" y2="39"/><line style="stroke:#A80036;stroke-width:1.5;" x1="963.5" x2="1205.5" y1="47" y2="47"/><ellipse cx="973.5" cy="58" fill="#84BE84" rx="3" ry="3" style="stroke:#038048;stroke-width:1.0;"/><text fill="#000000" font-family="sans-serif" font-size="11" lengthAdjust="spacing" textLength="218" x="982.5" y="61.2104">Method resolveFunction(String, String)</text><!--MD5=[f0c2fc1872b7e08c5143297d20d7f533]
class ScriptEnvResolver--><rect codeLine="38" fill="#FEFECE" filter="url(#fhnsokkjqencc)" height="60.8047" id="ScriptEnvResolver" style="stroke:#A80036;stroke-width:1.5;" width="156" x="170.5" y="412.5"/><ellipse cx="191.35" cy="428.5" fill="#B4A7E5" rx="11" ry="11" style="stroke:#A80036;stroke-width:1.0;"/><path d="M187.2719,424.2656 L187.2719,422.1094 L194.6625,422.1094 L194.6625,424.2656 L192.1938,424.2656 L192.1938,432.3438 L194.6625,432.3438 L194.6625,434.5 L187.2719,434.5 L187.2719,432.3438 L189.7406,432.3438 L189.7406,424.2656 L187.2719,424.2656 Z " fill="#000000"/><text fill="#000000" font-family="sans-serif" font-size="12" font-style="italic" lengthAdjust="spacing" textLength="111" x="206.65" y="432.6543">ScriptEnvResolver</text><line style="stroke:#A80036;stroke-width:1.5;" x1="171.5" x2="325.5" y1="444.5" y2="444.5"/><line style="stroke:#A80036;stroke-width:1.5;" x1="171.5" x2="325.5" y1="452.5" y2="452.5"/><ellipse cx="181.5" cy="463.5" fill="#84BE84" rx="3" ry="3" style="stroke:#038048;stroke-width:1.0;"/><text fill="#000000" font-family="sans-serif" font-size="11" lengthAdjust="spacing" textLength="130" x="190.5" y="466.7104">String[] resolve(String)</text><!--MD5=[17738a83465b9bdb9a9cbcd1d7a76ec8]
class AbstractProcessEnginePlugin--><rect codeLine="42" fill="#FEFECE" filter="url(#fhnsokkjqencc)" height="60.8047" id="AbstractProcessEnginePlugin" style="stroke:#A80036;stroke-width:1.5;" width="287" x="875" y="412.5"/><ellipse cx="922.25" cy="428.5" fill="#A9DCDF" rx="11" ry="11" style="stroke:#A80036;stroke-width:1.0;"/><path d="M922.3594,423.8438 L921.2031,428.9219 L923.5313,428.9219 L922.3594,423.8438 Z M920.875,421.6094 L923.8594,421.6094 L927.2188,434 L924.7656,434 L924,430.9375 L920.7188,430.9375 L919.9688,434 L917.5313,434 L920.875,421.6094 Z " fill="#000000"/><text fill="#000000" font-family="sans-serif" font-size="12" font-style="italic" lengthAdjust="spacing" textLength="184" x="942.75" y="432.6543">AbstractProcessEnginePlugin</text><line style="stroke:#A80036;stroke-width:1.5;" x1="876" x2="1161" y1="444.5" y2="444.5"/><line style="stroke:#A80036;stroke-width:1.5;" x1="876" x2="1161" y1="452.5" y2="452.5"/><ellipse cx="886" cy="463.5" fill="#84BE84" rx="3" ry="3" style="stroke:#038048;stroke-width:1.0;"/><text fill="#000000" font-family="sans-serif" font-size="11" lengthAdjust="spacing" textLength="261" x="895" y="466.7104">void postInit(ProcessEngineConfigurationImpl)</text><!--MD5=[18841459ff0c3ec9c6e9d29057073d35]
entity customGroovyScript--><ellipse cx="697.5" cy="443" fill="#ADD8E6" filter="url(#fhnsokkjqencc)" rx="8" ry="8" style="stroke:#008000;stroke-width:1.5;"/><text fill="#000000" font-family="sans-serif" font-size="14" lengthAdjust="spacing" textLength="139" x="628" y="472.9951">customGroovyScript</text><path d="M368,430.5 L368,455.6328 A0,0 0 0 0 368,455.6328 L653,455.6328 A0,0 0 0 0 653,455.6328 L653,448.5 L688.18,443 L653,440.5 L653,440.5 L643,430.5 L368,430.5 A0,0 0 0 0 368,430.5 " fill="#ADD8E6" filter="url(#fhnsokkjqencc)" style="stroke:#008000;stroke-width:1.0;"/><path d="M643,430.5 L643,440.5 L653,440.5 L643,430.5 " fill="#ADD8E6" style="stroke:#008000;stroke-width:1.0;"/><text fill="#000000" font-family="sans-serif" font-size="13" lengthAdjust="spacing" textLength="264" x="374" y="447.5669">/groovy/importStaticJavaFunctions.groovy</text><!--MD5=[6d7a51a358fb52e2e8c7bdf2d4272265]
reverse link ApplicationContext to ApplicationContextAware--><path codeLine="7" d="M382.4,37.5 C407.44,37.5 435.88,37.5 463.92,37.5 " fill="none" id="ApplicationContext-backto-ApplicationContextAware" style="stroke:#A80036;stroke-width:1.0;stroke-dasharray:7.0,7.0;"/><polygon fill="#A80036" points="377.11,37.5,386.11,41.5,382.11,37.5,386.11,33.5,377.11,37.5" style="stroke:#A80036;stroke-width:1.0;"/><text fill="#000000" font-family="sans-serif" font-size="13" lengthAdjust="spacing" textLength="30" x="405.5" y="30.5669">uses</text><!--MD5=[0ca9beb2a85c6a0441c85d1f7c786ce8]
link ApplicationContext to CoreExecution--><!--MD5=[7ecde8a2be24c5ab6b4390a838677479]
reverse link ApplicationContextAware to AbstractApplicationContextAwareJuelFunction--><path d="M627.35,86.89 C642.37,123.5 663.08,173.97 679.11,213.04 " fill="none" id="ApplicationContextAware-backto-AbstractApplicationContextAwareJuelFunction" style="stroke:#A80036;stroke-width:1.0;stroke-dasharray:7.0,7.0;"/><polygon fill="none" points="620.77,89.3,619.66,68.14,633.73,83.98,620.77,89.3" style="stroke:#A80036;stroke-width:1.0;"/><!--MD5=[cb178ce202708571cc610a7afe3d3da8]
reverse link FunctionMapper to CompositeApplicationContextAwareJuelFunctionMapper--><path d="M1084.5,88.26 C1084.5,135.14 1084.5,203.83 1084.5,242.74 " fill="none" id="FunctionMapper-backto-CompositeApplicationContextAwareJuelFunctionMapper" style="stroke:#A80036;stroke-width:1.0;"/><polygon fill="none" points="1077.5,88.14,1084.5,68.14,1091.5,88.14,1077.5,88.14" style="stroke:#A80036;stroke-width:1.0;"/><!--MD5=[f05fd009b4f9bc59200951a70f6b43a0]
reverse link CoreExecution to AbstractApplicationContextAwareJuelFunction--><path codeLine="34" d="M220.42,244.38 C230.87,212.16 252.66,161.68 291.5,138 C368.94,90.79 405.08,125.98 495.5,133 C509.85,134.11 514.27,132.32 527.5,138 C569.31,155.95 609.97,186.14 641.66,213.48 " fill="none" id="CoreExecution-backto-AbstractApplicationContextAwareJuelFunction" style="stroke:#A80036;stroke-width:1.0;stroke-dasharray:7.0,7.0;"/><polygon fill="#A80036" points="218.83,249.38,225.345,241.9939,220.3295,244.6101,217.7132,239.5947,218.83,249.38" style="stroke:#A80036;stroke-width:1.0;"/><text fill="#000000" font-family="sans-serif" font-size="13" lengthAdjust="spacing" textLength="102" x="388.5" y="111.0669">provides access</text><text fill="#000000" font-family="sans-serif" font-size="13" lengthAdjust="spacing" textLength="101" x="391" y="126.1997">for child classes</text><!--MD5=[97195c6c0c6dc0df370ac27e6fbc4b37]
reverse link AbstractApplicationContextAwareJuelFunction to CompositeApplicationContextAwareJuelFunctionMapper--><path codeLine="36" d="M874.69,273.5 C881.94,273.5 889.2,273.5 896.45,273.5 " fill="none" id="AbstractApplicationContextAwareJuelFunction-backto-CompositeApplicationContextAwareJuelFunctionMapper" style="stroke:#A80036;stroke-width:1.0;"/><polygon fill="#FFFFFF" points="861.63,273.5,867.63,277.5,873.63,273.5,867.63,269.5,861.63,273.5" style="stroke:#A80036;stroke-width:1.0;"/><!--MD5=[f00e9aa23ab35c3dc2631068a52c0463]
reverse link ScriptEnvResolver to StaticJavaFunctionsGroovyScriptEnvResolver--><path d="M306.21,485.3 C366.46,528.43 459.48,594.99 512.91,633.23 " fill="none" id="ScriptEnvResolver-backto-StaticJavaFunctionsGroovyScriptEnvResolver" style="stroke:#A80036;stroke-width:1.0;stroke-dasharray:7.0,7.0;"/><polygon fill="none" points="301.96,490.87,289.77,473.54,310.11,479.48,301.96,490.87" style="stroke:#A80036;stroke-width:1.0;"/><!--MD5=[74479f8ad4a6824a5d619dad085d185f]
reverse link AbstractProcessEnginePlugin to StaticJavaFunctionsProcessEnginePlugin--><path d="M1018.5,493.59 C1018.5,536.58 1018.5,597.37 1018.5,633.23 " fill="none" id="AbstractProcessEnginePlugin-backto-StaticJavaFunctionsProcessEnginePlugin" style="stroke:#A80036;stroke-width:1.0;"/><polygon fill="none" points="1011.5,493.54,1018.5,473.54,1025.5,493.54,1011.5,493.54" style="stroke:#A80036;stroke-width:1.0;"/><!--MD5=[6425739ccce836d9bf744885fa4b7708]
link CoreExecution to ScriptEnvResolver--><!--MD5=[55a4ecf9eb14d25f251351ed633f6641]
reverse link StaticJavaFunctionsGroovyScriptEnvResolver to StaticJavaFunctionsProcessEnginePlugin--><path codeLine="59" d="M721.05,664 C771.31,664 826.03,664 874.68,664 " fill="none" id="StaticJavaFunctionsGroovyScriptEnvResolver-backto-StaticJavaFunctionsProcessEnginePlugin" style="stroke:#A80036;stroke-width:1.0;"/><polygon fill="#FFFFFF" points="708.04,664,714.04,668,720.04,664,714.04,660,708.04,664" style="stroke:#A80036;stroke-width:1.0;"/><text fill="#000000" font-family="sans-serif" font-size="13" lengthAdjust="spacing" textLength="102" x="738.5" y="642.0669">adds to process</text><text fill="#000000" font-family="sans-serif" font-size="13" lengthAdjust="spacing" textLength="130" x="726.5" y="657.1997">engine configuration</text><!--MD5=[5a820df3c6b705d94d03568a438b563a]
reverse link customGroovyScript to StaticJavaFunctionsGroovyScriptEnvResolver--><path codeLine="63" d="M689.26,456.62 C667.08,490.59 605.64,584.69 573.95,633.21 " fill="none" id="customGroovyScript-backto-StaticJavaFunctionsGroovyScriptEnvResolver" style="stroke:#A80036;stroke-width:1.0;stroke-dasharray:7.0,7.0;"/><polygon fill="#A80036" points="692.24,452.05,683.9615,457.3854,689.4995,456.2321,690.6528,461.7701,692.24,452.05" style="stroke:#A80036;stroke-width:1.0;"/><text fill="#000000" font-family="sans-serif" font-size="13" lengthAdjust="spacing" textLength="46" x="655.5" y="516.5669">resolve</text><!--MD5=[5dd9e590a2563d16f7d6390b5857174e]
reverse link AbstractApplicationContextAwareJuelFunction to customGroovyScript--><path codeLine="64" d="M701.19,338.87 C699.89,375.18 698.41,416.62 697.79,433.84 " fill="none" id="AbstractApplicationContextAwareJuelFunction-backto-customGroovyScript" style="stroke:#A80036;stroke-width:1.0;stroke-dasharray:7.0,7.0;"/><polygon fill="#A80036" points="701.38,333.55,697.0731,342.4072,701.2082,338.547,705.0684,342.6821,701.38,333.55" style="stroke:#A80036;stroke-width:1.0;"/><text fill="#000000" font-family="sans-serif" font-size="13" lengthAdjust="spacing" textLength="267" x="700.5" y="378.5669">imports static methods from child classes</text><!--MD5=[2285a0194b74e053f27e8f197abde683]
@startuml
interface ApplicationContext
note left : Spring application context

interface ApplicationContextAware {
  +void setApplicationContext(ApplicationContext)
}
ApplicationContext  <. ApplicationContextAware : uses

abstract class CoreExecution
note left : Camunda execution context
ApplicationContext -[hidden]- CoreExecution

abstract class FunctionMapper {
  + Method resolveFunction(String, String)
}

package el.juel{
  abstract class AbstractApplicationContextAwareJuelFunction #back:lightblue;line:green;text:black implements ApplicationContextAware {
    - {static} ApplicationContext applicationContext
    - -
    + final void setApplicationContext(ApplicationContext)
    + Method getJuelFunctionMethod()
    ..
    # {static} CoreExecution getExecution()
    # {static} <T> T getBean(Class<T>)
  }
  package mapper {
    class CompositeApplicationContextAwareJuelFunctionMapper #back:lightblue;line:green;text:black extends FunctionMapper {
      + Method resolveFunction(String, String)
    }
  }
}

CoreExecution <. AbstractApplicationContextAwareJuelFunction : provides access \nfor child classes

AbstractApplicationContextAwareJuelFunction o- CompositeApplicationContextAwareJuelFunctionMapper

interface ScriptEnvResolver {
  + String[] resolve(String)
}

abstract class AbstractProcessEnginePlugin {
  +void postInit(ProcessEngineConfigurationImpl)
}

package scripting {
  package groovy {
    class StaticJavaFunctionsGroovyScriptEnvResolver #back:lightblue;line:green;text:black implements ScriptEnvResolver {
      + String[] resolve(String)
    }
  }
  class StaticJavaFunctionsProcessEnginePlugin #back:lightblue;line:green;text:black extends AbstractProcessEnginePlugin {
    +void postInit(ProcessEngineConfigurationImpl)
  }
}

CoreExecution -[hidden]- ScriptEnvResolver

StaticJavaFunctionsGroovyScriptEnvResolver o- StaticJavaFunctionsProcessEnginePlugin : adds to process \nengine configuration

() customGroovyScript #back:lightblue;line:green;text:black
note left #back:lightblue;line:green;text:black : /groovy/importStaticJavaFunctions.groovy
customGroovyScript <.. StaticJavaFunctionsGroovyScriptEnvResolver : resolve
AbstractApplicationContextAwareJuelFunction <.. customGroovyScript  : imports static methods from child classes
@enduml

PlantUML version 1.2021.7(Sun May 23 12:40:07 UTC 2021)
(GPL source distribution)
Java Runtime: OpenJDK Runtime Environment
JVM: OpenJDK 64-Bit Server VM
Default Encoding: UTF-8
Language: en
Country: null
--></g></svg>