<?xml version="1.0" encoding="UTF-8" standalone="no"?><svg xmlns="http://www.w3.org/2000/svg" xmlns:xlink="http://www.w3.org/1999/xlink" contentScriptType="application/ecmascript" contentStyleType="text/css" height="1193px" preserveAspectRatio="none" style="width:910px;height:1193px;background:#FFFFFF;" version="1.1" viewBox="0 0 910 1193" width="910px" zoomAndPan="magnify"><defs><filter height="300%" id="fvx0knnxrpffy" width="300%" x="-1" y="-1"><feGaussianBlur result="blurOut" stdDeviation="2.0"/><feColorMatrix in="blurOut" result="blurOut2" type="matrix" values="0 0 0 0 0 0 0 0 0 0 0 0 0 0 0 0 0 0 .4 0"/><feOffset dx="4.0" dy="4.0" in="blurOut2" result="blurOut3"/><feBlend in="SourceGraphic" in2="blurOut3" mode="normal"/></filter></defs><g><rect fill="#FFFFFF" filter="url(#fvx0knnxrpffy)" height="418.4688" style="stroke:#383838;stroke-width:1.0;" width="10" x="465.5" y="245.7656"/><rect fill="#FFFFFF" filter="url(#fvx0knnxrpffy)" height="362.2031" style="stroke:#383838;stroke-width:1.0;" width="10" x="465.5" y="715.1719"/><rect fill="#FFFFFF" filter="url(#fvx0knnxrpffy)" height="329.9375" style="stroke:#383838;stroke-width:1.0;" width="10" x="673.5" y="305.1641"/><rect fill="#FFFFFF" filter="url(#fvx0knnxrpffy)" height="288.8047" style="stroke:#383838;stroke-width:1.0;" width="10" x="673.5" y="759.4375"/><rect fill="#FFFFFF" filter="url(#fvx0knnxrpffy)" height="899.6797" style="stroke:#000000;stroke-width:2.0;" width="714" x="182.5" y="192.6953"/><rect fill="#FFFFFF" height="469.4063" style="stroke:none;stroke-width:1.0;" width="714" x="182.5" y="209.8281"/><rect fill="#FFFFFF" filter="url(#fvx0knnxrpffy)" height="294.8047" style="stroke:#000000;stroke-width:2.0;" width="694" x="192.5" y="377.4297"/><rect fill="#FFFFFF" filter="url(#fvx0knnxrpffy)" height="148.4688" style="stroke:#000000;stroke-width:2.0;" width="506.5" x="202.5" y="443.6953"/><rect fill="#FFFFFF" height="73.0703" style="stroke:none;stroke-width:1.0;" width="506.5" x="202.5" y="519.0938"/><rect fill="#FFFFFF" height="73.0703" style="stroke:none;stroke-width:1.0;" width="694" x="192.5" y="599.1641"/><rect fill="#FFFFFF" height="413.1406" style="stroke:none;stroke-width:1.0;" width="714" x="182.5" y="679.2344"/><rect fill="#FFFFFF" filter="url(#fvx0knnxrpffy)" height="310.9375" style="stroke:#000000;stroke-width:2.0;" width="526.5" x="192.5" y="774.4375"/><rect fill="#FFFFFF" filter="url(#fvx0knnxrpffy)" height="148.4688" style="stroke:#000000;stroke-width:2.0;" width="506.5" x="202.5" y="856.8359"/><rect fill="#FFFFFF" height="73.0703" style="stroke:none;stroke-width:1.0;" width="506.5" x="202.5" y="932.2344"/><rect fill="#FFFFFF" height="73.0703" style="stroke:none;stroke-width:1.0;" width="526.5" x="192.5" y="1012.3047"/><line style="stroke:#383838;stroke-width:1.0;stroke-dasharray:5.0,5.0;" x1="24" x2="24" y1="88.2969" y2="1109.375"/><line style="stroke:#383838;stroke-width:1.0;stroke-dasharray:5.0,5.0;" x1="92" x2="92" y1="88.2969" y2="1109.375"/><line style="stroke:#383838;stroke-width:1.0;stroke-dasharray:5.0,5.0;" x1="252.5" x2="252.5" y1="88.2969" y2="1109.375"/><line style="stroke:#383838;stroke-width:1.0;stroke-dasharray:5.0,5.0;" x1="470.5" x2="470.5" y1="88.2969" y2="1109.375"/><line style="stroke:#383838;stroke-width:1.0;stroke-dasharray:5.0,5.0;" x1="678" x2="678" y1="88.2969" y2="1109.375"/><text fill="#000000" font-family="sans-serif" font-size="14" lengthAdjust="spacing" textLength="32" x="5" y="84.9951">User</text><ellipse cx="24" cy="15" fill="#F8F8F8" filter="url(#fvx0knnxrpffy)" rx="8" ry="8" style="stroke:#383838;stroke-width:2.0;"/><path d="M24,23 L24,50 M11,31 L37,31 M24,50 L11,65 M24,50 L37,65 " fill="none" filter="url(#fvx0knnxrpffy)" style="stroke:#383838;stroke-width:2.0;"/><text fill="#000000" font-family="sans-serif" font-size="14" lengthAdjust="spacing" textLength="32" x="5" y="1121.3701">User</text><ellipse cx="24" cy="1134.6719" fill="#F8F8F8" filter="url(#fvx0knnxrpffy)" rx="8" ry="8" style="stroke:#383838;stroke-width:2.0;"/><path d="M24,1142.6719 L24,1169.6719 M11,1150.6719 L37,1150.6719 M24,1169.6719 L11,1184.6719 M24,1169.6719 L37,1184.6719 " fill="none" filter="url(#fvx0knnxrpffy)" style="stroke:#383838;stroke-width:2.0;"/><rect fill="#F8F8F8" filter="url(#fvx0knnxrpffy)" height="30.2969" style="stroke:#383838;stroke-width:1.5;" width="75" x="53" y="53"/><text fill="#000000" font-family="sans-serif" font-size="14" lengthAdjust="spacing" textLength="61" x="60" y="72.9951">Keycloak</text><rect fill="#F8F8F8" filter="url(#fvx0knnxrpffy)" height="30.2969" style="stroke:#383838;stroke-width:1.5;" width="75" x="53" y="1108.375"/><text fill="#000000" font-family="sans-serif" font-size="14" lengthAdjust="spacing" textLength="61" x="60" y="1128.3701">Keycloak</text><rect fill="#F8F8F8" filter="url(#fvx0knnxrpffy)" height="30.2969" style="stroke:#383838;stroke-width:1.5;" width="76" x="212.5" y="53"/><text fill="#000000" font-family="sans-serif" font-size="14" lengthAdjust="spacing" textLength="62" x="219.5" y="72.9951">Lowcode</text><rect fill="#F8F8F8" filter="url(#fvx0knnxrpffy)" height="30.2969" style="stroke:#383838;stroke-width:1.5;" width="76" x="212.5" y="1108.375"/><text fill="#000000" font-family="sans-serif" font-size="14" lengthAdjust="spacing" textLength="62" x="219.5" y="1128.3701">Lowcode</text><rect fill="#F8F8F8" filter="url(#fvx0knnxrpffy)" height="30.2969" style="stroke:#383838;stroke-width:1.5;" width="92" x="422.5" y="53"/><text fill="#000000" font-family="sans-serif" font-size="14" lengthAdjust="spacing" textLength="78" x="429.5" y="72.9951">Datafactory</text><rect fill="#F8F8F8" filter="url(#fvx0knnxrpffy)" height="30.2969" style="stroke:#383838;stroke-width:1.5;" width="92" x="422.5" y="1108.375"/><text fill="#000000" font-family="sans-serif" font-size="14" lengthAdjust="spacing" textLength="78" x="429.5" y="1128.3701">Datafactory</text><text fill="#000000" font-family="sans-serif" font-size="14" lengthAdjust="spacing" textLength="35" x="658" y="84.9951">Citus</text><path d="M660.5,36 C660.5,26 678.5,26 678.5,26 C678.5,26 696.5,26 696.5,36 L696.5,62 C696.5,72 678.5,72 678.5,72 C678.5,72 660.5,72 660.5,62 L660.5,36 " fill="#F8F8F8" filter="url(#fvx0knnxrpffy)" style="stroke:#000000;stroke-width:1.5;"/><path d="M660.5,36 C660.5,46 678.5,46 678.5,46 C678.5,46 696.5,46 696.5,36 " fill="none" style="stroke:#000000;stroke-width:1.5;"/><text fill="#000000" font-family="sans-serif" font-size="14" lengthAdjust="spacing" textLength="35" x="658" y="1121.3701">Citus</text><path d="M660.5,1134.6719 C660.5,1124.6719 678.5,1124.6719 678.5,1124.6719 C678.5,1124.6719 696.5,1124.6719 696.5,1134.6719 L696.5,1160.6719 C696.5,1170.6719 678.5,1170.6719 678.5,1170.6719 C678.5,1170.6719 660.5,1170.6719 660.5,1160.6719 L660.5,1134.6719 " fill="#F8F8F8" filter="url(#fvx0knnxrpffy)" style="stroke:#000000;stroke-width:1.5;"/><path d="M660.5,1134.6719 C660.5,1144.6719 678.5,1144.6719 678.5,1144.6719 C678.5,1144.6719 696.5,1144.6719 696.5,1134.6719 " fill="none" style="stroke:#000000;stroke-width:1.5;"/><rect fill="#FFFFFF" filter="url(#fvx0knnxrpffy)" height="418.4688" style="stroke:#383838;stroke-width:1.0;" width="10" x="465.5" y="245.7656"/><rect fill="#FFFFFF" filter="url(#fvx0knnxrpffy)" height="362.2031" style="stroke:#383838;stroke-width:1.0;" width="10" x="465.5" y="715.1719"/><rect fill="#FFFFFF" filter="url(#fvx0knnxrpffy)" height="329.9375" style="stroke:#383838;stroke-width:1.0;" width="10" x="673.5" y="305.1641"/><rect fill="#FFFFFF" filter="url(#fvx0knnxrpffy)" height="288.8047" style="stroke:#383838;stroke-width:1.0;" width="10" x="673.5" y="759.4375"/><polygon fill="#383838" points="240.5,115.4297,250.5,119.4297,240.5,123.4297,244.5,119.4297" style="stroke:#383838;stroke-width:1.0;"/><line style="stroke:#383838;stroke-width:1.0;" x1="24" x2="246.5" y1="119.4297" y2="119.4297"/><text fill="#000000" font-family="sans-serif" font-size="13" lengthAdjust="spacing" textLength="94" x="31" y="114.3638">HTTPS request</text><polygon fill="#383838" points="103.5,144.5625,93.5,148.5625,103.5,152.5625,99.5,148.5625" style="stroke:#383838;stroke-width:1.0;"/><line style="stroke:#383838;stroke-width:1.0;" x1="97.5" x2="251.5" y1="148.5625" y2="148.5625"/><text fill="#000000" font-family="sans-serif" font-size="13" lengthAdjust="spacing" textLength="29" x="109.5" y="143.4966">auth</text><polygon fill="#383838" points="240.5,173.6953,250.5,177.6953,240.5,181.6953,244.5,177.6953" style="stroke:#383838;stroke-width:1.0;"/><line style="stroke:#383838;stroke-width:1.0;" x1="92.5" x2="246.5" y1="177.6953" y2="177.6953"/><text fill="#000000" font-family="sans-serif" font-size="13" lengthAdjust="spacing" textLength="33" x="99.5" y="172.6294">JWT {</text><text fill="#000000" font-family="sans-serif" font-size="13" font-weight="bold" lengthAdjust="spacing" textLength="28" x="132.5" y="172.6294">role</text><text fill="#000000" font-family="sans-serif" font-size="13" lengthAdjust="spacing" textLength="75" x="160.5" y="172.6294">: officer, ...}</text><path d="M182.5,192.6953 L252.5,192.6953 L252.5,199.6953 L242.5,209.6953 L182.5,209.6953 L182.5,192.6953 " fill="#EEEEEE" style="stroke:#000000;stroke-width:1.0;"/><rect fill="none" height="899.6797" style="stroke:#000000;stroke-width:2.0;" width="714" x="182.5" y="192.6953"/><text fill="#000000" font-family="sans-serif" font-size="13" font-weight="bold" lengthAdjust="spacing" textLength="25" x="197.5" y="205.7622">opt</text><text fill="#000000" font-family="sans-serif" font-size="11" font-weight="bold" lengthAdjust="spacing" textLength="134" x="267.5" y="204.9058">[data manipulations]</text><line style="stroke:#000000;stroke-width:1.0;stroke-dasharray:2.0,2.0;" x1="182.5" x2="896.5" y1="210.8281" y2="210.8281"/><text fill="#000000" font-family="sans-serif" font-size="11" font-weight="bold" lengthAdjust="spacing" textLength="161" x="187.5" y="221.0386">[INSERT/UPDATE/DELETE]</text><polygon fill="#383838" points="453.5,241.7656,463.5,245.7656,453.5,249.7656,457.5,245.7656" style="stroke:#383838;stroke-width:1.0;"/><line style="stroke:#383838;stroke-width:1.0;" x1="252.5" x2="459.5" y1="245.7656" y2="245.7656"/><text fill="#000000" font-family="sans-serif" font-size="13" lengthAdjust="spacing" textLength="85" x="259.5" y="240.6997">API request {</text><text fill="#000000" font-family="sans-serif" font-size="13" font-weight="bold" lengthAdjust="spacing" textLength="28" x="344.5" y="240.6997">role</text><text fill="#000000" font-family="sans-serif" font-size="13" lengthAdjust="spacing" textLength="75" x="372.5" y="240.6997">: officer, ...}</text><polygon fill="#383838" points="661.5,301.1641,671.5,305.1641,661.5,309.1641,665.5,305.1641" style="stroke:#383838;stroke-width:1.0;"/><line style="stroke:#383838;stroke-width:1.0;" x1="475.5" x2="667.5" y1="305.1641" y2="305.1641"/><text fill="#000000" font-family="sans-serif" font-size="13" lengthAdjust="spacing" textLength="125" x="482.5" y="269.8325">JDBC procedure call</text><text fill="#000000" font-family="sans-serif" font-size="13" lengthAdjust="spacing" textLength="129" x="482.5" y="284.9653">insert/update/delete</text><text fill="#000000" font-family="sans-serif" font-size="13" lengthAdjust="spacing" textLength="5" x="482.5" y="300.0981">(</text><text fill="#000000" font-family="sans-serif" font-size="13" font-weight="bold" lengthAdjust="spacing" textLength="28" x="487.5" y="300.0981">role</text><text fill="#000000" font-family="sans-serif" font-size="13" lengthAdjust="spacing" textLength="75" x="515.5" y="300.0981">=officer, ...)</text><line style="stroke:#383838;stroke-width:1.0;" x1="683.5" x2="725.5" y1="349.4297" y2="349.4297"/><line style="stroke:#383838;stroke-width:1.0;" x1="725.5" x2="725.5" y1="349.4297" y2="362.4297"/><line style="stroke:#383838;stroke-width:1.0;" x1="684.5" x2="725.5" y1="362.4297" y2="362.4297"/><polygon fill="#383838" points="694.5,358.4297,684.5,362.4297,694.5,366.4297,690.5,362.4297" style="stroke:#383838;stroke-width:1.0;"/><text fill="#000000" font-family="sans-serif" font-size="13" lengthAdjust="spacing" textLength="177" x="690.5" y="329.231">query ddm_role_permission</text><text fill="#000000" font-family="sans-serif" font-size="13" lengthAdjust="spacing" textLength="149" x="690.5" y="344.3638">to check permission for</text><text fill="#000000" font-family="sans-serif" font-size="13" font-weight="bold" lengthAdjust="spacing" textLength="28" x="843.5" y="344.3638">role</text><path d="M192.5,377.4297 L256.5,377.4297 L256.5,384.4297 L246.5,394.4297 L192.5,394.4297 L192.5,377.4297 " fill="#EEEEEE" style="stroke:#000000;stroke-width:1.0;"/><rect fill="none" height="294.8047" style="stroke:#000000;stroke-width:2.0;" width="694" x="192.5" y="377.4297"/><text fill="#000000" font-family="sans-serif" font-size="13" font-weight="bold" lengthAdjust="spacing" textLength="19" x="207.5" y="390.4966">alt</text><text fill="#000000" font-family="sans-serif" font-size="11" font-weight="bold" lengthAdjust="spacing" textLength="153" x="271.5" y="389.6401">[operation is permitted]</text><line style="stroke:#383838;stroke-width:1.0;" x1="641.5" x2="683.5" y1="415.6953" y2="415.6953"/><line style="stroke:#383838;stroke-width:1.0;" x1="641.5" x2="641.5" y1="415.6953" y2="428.6953"/><line style="stroke:#383838;stroke-width:1.0;" x1="641.5" x2="682.5" y1="428.6953" y2="428.6953"/><polygon fill="#383838" points="674.5,424.6953,684.5,428.6953,674.5,432.6953,678.5,428.6953" style="stroke:#383838;stroke-width:1.0;"/><text fill="#000000" font-family="sans-serif" font-size="13" lengthAdjust="spacing" textLength="184" x="499.5" y="410.6294">execute insert/update/delete</text><path d="M202.5,443.6953 L266.5,443.6953 L266.5,450.6953 L256.5,460.6953 L202.5,460.6953 L202.5,443.6953 " fill="#EEEEEE" style="stroke:#000000;stroke-width:1.0;"/><rect fill="none" height="148.4688" style="stroke:#000000;stroke-width:2.0;" width="506.5" x="202.5" y="443.6953"/><text fill="#000000" font-family="sans-serif" font-size="13" font-weight="bold" lengthAdjust="spacing" textLength="19" x="217.5" y="456.7622">alt</text><text fill="#000000" font-family="sans-serif" font-size="11" font-weight="bold" lengthAdjust="spacing" textLength="159" x="281.5" y="455.9058">[operation is successful]</text><polygon fill="#383838" points="486.5,477.9609,476.5,481.9609,486.5,485.9609,482.5,481.9609" style="stroke:#383838;stroke-width:1.0;"/><line style="stroke:#383838;stroke-width:1.0;" x1="480.5" x2="672.5" y1="481.9609" y2="481.9609"/><text fill="#000000" font-family="sans-serif" font-size="13" lengthAdjust="spacing" textLength="120" x="492.5" y="476.895">data/return control</text><polygon fill="#383838" points="263.5,507.0938,253.5,511.0938,263.5,515.0938,259.5,511.0938" style="stroke:#383838;stroke-width:1.0;"/><line style="stroke:#383838;stroke-width:1.0;" x1="257.5" x2="464.5" y1="511.0938" y2="511.0938"/><text fill="#000000" font-family="sans-serif" font-size="13" lengthAdjust="spacing" textLength="186" x="269.5" y="506.0278">API response {code: 200, ...}</text><line style="stroke:#000000;stroke-width:1.0;stroke-dasharray:2.0,2.0;" x1="202.5" x2="709" y1="520.0938" y2="520.0938"/><text fill="#000000" font-family="sans-serif" font-size="11" font-weight="bold" lengthAdjust="spacing" textLength="184" x="207.5" y="530.3042">[operation is not successful]</text><polygon fill="#383838" points="486.5,551.0313,476.5,555.0313,486.5,559.0313,482.5,555.0313" style="stroke:#383838;stroke-width:1.0;"/><line style="stroke:#383838;stroke-width:1.0;" x1="480.5" x2="672.5" y1="555.0313" y2="555.0313"/><text fill="#000000" font-family="sans-serif" font-size="13" lengthAdjust="spacing" textLength="62" x="492.5" y="549.9653">exception</text><polygon fill="#383838" points="263.5,580.1641,253.5,584.1641,263.5,588.1641,259.5,584.1641" style="stroke:#383838;stroke-width:1.0;"/><line style="stroke:#383838;stroke-width:1.0;" x1="257.5" x2="464.5" y1="584.1641" y2="584.1641"/><text fill="#000000" font-family="sans-serif" font-size="13" lengthAdjust="spacing" textLength="186" x="269.5" y="579.0981">API response {code: 503, ...}</text><line style="stroke:#000000;stroke-width:1.0;stroke-dasharray:2.0,2.0;" x1="192.5" x2="886.5" y1="600.1641" y2="600.1641"/><text fill="#000000" font-family="sans-serif" font-size="11" font-weight="bold" lengthAdjust="spacing" textLength="178" x="197.5" y="610.3745">[operation is not permitted]</text><polygon fill="#383838" points="486.5,631.1016,476.5,635.1016,486.5,639.1016,482.5,635.1016" style="stroke:#383838;stroke-width:1.0;"/><line style="stroke:#383838;stroke-width:1.0;" x1="480.5" x2="677.5" y1="635.1016" y2="635.1016"/><text fill="#000000" font-family="sans-serif" font-size="13" lengthAdjust="spacing" textLength="62" x="492.5" y="630.0356">exception</text><polygon fill="#383838" points="263.5,660.2344,253.5,664.2344,263.5,668.2344,259.5,664.2344" style="stroke:#383838;stroke-width:1.0;"/><line style="stroke:#383838;stroke-width:1.0;" x1="257.5" x2="469.5" y1="664.2344" y2="664.2344"/><text fill="#000000" font-family="sans-serif" font-size="13" lengthAdjust="spacing" textLength="186" x="269.5" y="659.1685">API response {code: 403, ...}</text><line style="stroke:#000000;stroke-width:1.0;stroke-dasharray:2.0,2.0;" x1="182.5" x2="896.5" y1="680.2344" y2="680.2344"/><text fill="#000000" font-family="sans-serif" font-size="11" font-weight="bold" lengthAdjust="spacing" textLength="58" x="187.5" y="690.4448">[SELECT]</text><polygon fill="#383838" points="453.5,711.1719,463.5,715.1719,453.5,719.1719,457.5,715.1719" style="stroke:#383838;stroke-width:1.0;"/><line style="stroke:#383838;stroke-width:1.0;" x1="252.5" x2="459.5" y1="715.1719" y2="715.1719"/><text fill="#000000" font-family="sans-serif" font-size="13" lengthAdjust="spacing" textLength="85" x="259.5" y="710.106">API request {</text><text fill="#000000" font-family="sans-serif" font-size="13" font-weight="bold" lengthAdjust="spacing" textLength="28" x="344.5" y="710.106">role</text><text fill="#000000" font-family="sans-serif" font-size="13" lengthAdjust="spacing" textLength="75" x="372.5" y="710.106">: officer, ...}</text><polygon fill="#383838" points="661.5,755.4375,671.5,759.4375,661.5,763.4375,665.5,759.4375" style="stroke:#383838;stroke-width:1.0;"/><line style="stroke:#383838;stroke-width:1.0;" x1="475.5" x2="667.5" y1="759.4375" y2="759.4375"/><text fill="#000000" font-family="sans-serif" font-size="13" lengthAdjust="spacing" textLength="111" x="482.5" y="739.2388">JDBC function call</text><text fill="#000000" font-family="sans-serif" font-size="13" lengthAdjust="spacing" textLength="5" x="482.5" y="754.3716">(</text><text fill="#000000" font-family="sans-serif" font-size="13" font-weight="bold" lengthAdjust="spacing" textLength="28" x="487.5" y="754.3716">role</text><text fill="#000000" font-family="sans-serif" font-size="13" lengthAdjust="spacing" textLength="75" x="515.5" y="754.3716">=officer, ...)</text><path d="M192.5,774.4375 L256.5,774.4375 L256.5,781.4375 L246.5,791.4375 L192.5,791.4375 L192.5,774.4375 " fill="#EEEEEE" style="stroke:#000000;stroke-width:1.0;"/><rect fill="none" height="310.9375" style="stroke:#000000;stroke-width:2.0;" width="526.5" x="192.5" y="774.4375"/><text fill="#000000" font-family="sans-serif" font-size="13" font-weight="bold" lengthAdjust="spacing" textLength="19" x="207.5" y="787.5044">alt</text><text fill="#000000" font-family="sans-serif" font-size="11" font-weight="bold" lengthAdjust="spacing" textLength="153" x="271.5" y="786.6479">[operation is permitted]</text><polygon fill="#383838" points="486.5,808.7031,476.5,812.7031,486.5,816.7031,482.5,812.7031" style="stroke:#383838;stroke-width:1.0;"/><line style="stroke:#383838;stroke-width:1.0;" x1="480.5" x2="672.5" y1="812.7031" y2="812.7031"/><text fill="#000000" font-family="sans-serif" font-size="13" lengthAdjust="spacing" textLength="28" x="492.5" y="807.6372">True</text><polygon fill="#383838" points="661.5,837.8359,671.5,841.8359,661.5,845.8359,665.5,841.8359" style="stroke:#383838;stroke-width:1.0;"/><line style="stroke:#383838;stroke-width:1.0;" x1="475.5" x2="667.5" y1="841.8359" y2="841.8359"/><text fill="#000000" font-family="sans-serif" font-size="13" lengthAdjust="spacing" textLength="104" x="482.5" y="836.77">JDBC query data</text><path d="M202.5,856.8359 L266.5,856.8359 L266.5,863.8359 L256.5,873.8359 L202.5,873.8359 L202.5,856.8359 " fill="#EEEEEE" style="stroke:#000000;stroke-width:1.0;"/><rect fill="none" height="148.4688" style="stroke:#000000;stroke-width:2.0;" width="506.5" x="202.5" y="856.8359"/><text fill="#000000" font-family="sans-serif" font-size="13" font-weight="bold" lengthAdjust="spacing" textLength="19" x="217.5" y="869.9028">alt</text><text fill="#000000" font-family="sans-serif" font-size="11" font-weight="bold" lengthAdjust="spacing" textLength="159" x="281.5" y="869.0464">[operation is successful]</text><polygon fill="#383838" points="486.5,891.1016,476.5,895.1016,486.5,899.1016,482.5,895.1016" style="stroke:#383838;stroke-width:1.0;"/><line style="stroke:#383838;stroke-width:1.0;" x1="480.5" x2="672.5" y1="895.1016" y2="895.1016"/><text fill="#000000" font-family="sans-serif" font-size="13" lengthAdjust="spacing" textLength="29" x="492.5" y="890.0356">data</text><polygon fill="#383838" points="263.5,920.2344,253.5,924.2344,263.5,928.2344,259.5,924.2344" style="stroke:#383838;stroke-width:1.0;"/><line style="stroke:#383838;stroke-width:1.0;" x1="257.5" x2="464.5" y1="924.2344" y2="924.2344"/><text fill="#000000" font-family="sans-serif" font-size="13" lengthAdjust="spacing" textLength="189" x="269.5" y="919.1685">API response {code=200, ...}</text><line style="stroke:#000000;stroke-width:1.0;stroke-dasharray:2.0,2.0;" x1="202.5" x2="709" y1="933.2344" y2="933.2344"/><text fill="#000000" font-family="sans-serif" font-size="11" font-weight="bold" lengthAdjust="spacing" textLength="184" x="207.5" y="943.4448">[operation is not successful]</text><polygon fill="#383838" points="486.5,964.1719,476.5,968.1719,486.5,972.1719,482.5,968.1719" style="stroke:#383838;stroke-width:1.0;"/><line style="stroke:#383838;stroke-width:1.0;" x1="480.5" x2="672.5" y1="968.1719" y2="968.1719"/><text fill="#000000" font-family="sans-serif" font-size="13" lengthAdjust="spacing" textLength="62" x="492.5" y="963.106">exception</text><polygon fill="#383838" points="263.5,993.3047,253.5,997.3047,263.5,1001.3047,259.5,997.3047" style="stroke:#383838;stroke-width:1.0;"/><line style="stroke:#383838;stroke-width:1.0;" x1="257.5" x2="464.5" y1="997.3047" y2="997.3047"/><text fill="#000000" font-family="sans-serif" font-size="13" lengthAdjust="spacing" textLength="189" x="269.5" y="992.2388">API response {code=503, ...}</text><line style="stroke:#000000;stroke-width:1.0;stroke-dasharray:2.0,2.0;" x1="192.5" x2="719" y1="1013.3047" y2="1013.3047"/><text fill="#000000" font-family="sans-serif" font-size="11" font-weight="bold" lengthAdjust="spacing" textLength="178" x="197.5" y="1023.5151">[operation is not permitted]</text><polygon fill="#383838" points="486.5,1044.2422,476.5,1048.2422,486.5,1052.2422,482.5,1048.2422" style="stroke:#383838;stroke-width:1.0;"/><line style="stroke:#383838;stroke-width:1.0;" x1="480.5" x2="677.5" y1="1048.2422" y2="1048.2422"/><text fill="#000000" font-family="sans-serif" font-size="13" lengthAdjust="spacing" textLength="33" x="492.5" y="1043.1763">False</text><polygon fill="#383838" points="263.5,1073.375,253.5,1077.375,263.5,1081.375,259.5,1077.375" style="stroke:#383838;stroke-width:1.0;"/><line style="stroke:#383838;stroke-width:1.0;" x1="257.5" x2="469.5" y1="1077.375" y2="1077.375"/><text fill="#000000" font-family="sans-serif" font-size="13" lengthAdjust="spacing" textLength="189" x="269.5" y="1072.3091">API response {code=403, ...}</text><!--MD5=[dc0c6c50b2c390f4cb34cdea44588c28]
@startuml
skinparam monochrome true
'skinparam backgroundColor #aaaaaa

Actor User
participant Keycloak
User -> Lowcode: HTTPS request
Keycloak <- Lowcode: auth
Keycloak -> Lowcode: JWT {**role**: officer, ...}
opt data manipulations
else INSERT/UPDATE/DELETE
    Lowcode -> Datafactory++: API request {**role**: officer, ...}
    database Citus
    Datafactory -> Citus++: JDBC procedure call\ninsert/update/delete\n(**role**=officer, ...)
    Citus -> Citus: query ddm_role_permission\nto check permission for **role**

    alt operation is permitted
        Citus <- Citus: execute insert/update/delete
        alt operation is successful
            Datafactory <- Citus: data/return control
            Lowcode <- Datafactory: API response {code: 200, ...}
        else operation is not successful
            Datafactory <- Citus: exception
            Lowcode <- Datafactory: API response {code: 503, ...}
        end
    else operation is not permitted
        Datafactory <- Citus- -: exception
        Lowcode <- Datafactory- -: API response {code: 403, ...}
    end
else SELECT
    Lowcode -> Datafactory++:API request {**role**: officer, ...}
    Datafactory -> Citus++: JDBC function call\n(**role**=officer, ...)
    alt operation is permitted
        Datafactory <- Citus: True
        Datafactory -> Citus: JDBC query data
        alt operation is successful
            Datafactory <- Citus: data
            Lowcode <- Datafactory: API response {code=200, ...}
        else operation is not successful
            Datafactory <- Citus: exception
            Lowcode <- Datafactory: API response {code=503, ...}
        end
    else operation is not permitted
        Datafactory <- Citus- -: False
        Lowcode <- Datafactory- -: API response {code=403, ...}

    end
end
@enduml

@startuml
skinparam monochrome true

Actor User
participant Keycloak
User -> Lowcode: HTTPS request
Keycloak <- Lowcode: auth
Keycloak -> Lowcode: JWT {**role**: officer, ...}
opt data manipulations
else INSERT/UPDATE/DELETE
    Lowcode -> Datafactory++: API request {**role**: officer, ...}
    database Citus
    Datafactory -> Citus++: JDBC procedure call\ninsert/update/delete\n(**role**=officer, ...)
    Citus -> Citus: query ddm_role_permission\nto check permission for **role**

    alt operation is permitted
        Citus <- Citus: execute insert/update/delete
        alt operation is successful
            Datafactory <- Citus: data/return control
            Lowcode <- Datafactory: API response {code: 200, ...}
        else operation is not successful
            Datafactory <- Citus: exception
            Lowcode <- Datafactory: API response {code: 503, ...}
        end
    else operation is not permitted
        Datafactory <- Citus- -: exception
        Lowcode <- Datafactory- -: API response {code: 403, ...}
    end
else SELECT
    Lowcode -> Datafactory++:API request {**role**: officer, ...}
    Datafactory -> Citus++: JDBC function call\n(**role**=officer, ...)
    alt operation is permitted
        Datafactory <- Citus: True
        Datafactory -> Citus: JDBC query data
        alt operation is successful
            Datafactory <- Citus: data
            Lowcode <- Datafactory: API response {code=200, ...}
        else operation is not successful
            Datafactory <- Citus: exception
            Lowcode <- Datafactory: API response {code=503, ...}
        end
    else operation is not permitted
        Datafactory <- Citus- -: False
        Lowcode <- Datafactory- -: API response {code=403, ...}

    end
end
@enduml

PlantUML version 1.2021.7(Sun May 23 12:40:07 UTC 2021)
(GPL source distribution)
Java Runtime: OpenJDK Runtime Environment
JVM: OpenJDK 64-Bit Server VM
Default Encoding: UTF-8
Language: en
Country: null
--></g></svg>