<?xml version="1.0" encoding="UTF-8" standalone="no"?><svg xmlns="http://www.w3.org/2000/svg" xmlns:xlink="http://www.w3.org/1999/xlink" contentScriptType="application/ecmascript" contentStyleType="text/css" height="95px" preserveAspectRatio="none" style="width:152px;height:95px;background:#FFFFFF;" version="1.1" viewBox="0 0 152 95" width="152px" zoomAndPan="magnify"><defs/><g><path d="M17,8.9688 L17,10.9688 L25,10.9688 L25,9.9688 L20,9.9688 L20,8.9688 L17,8.9688 M17,11.9688 L17,16.4688 C17,16.7488 17.22,16.9688 17.5,16.9688 L24.5,16.9688 C24.78,16.9688 25,16.7488 25,16.4688 L25,11.9688 L17,11.9688 " fill="#000000" style="stroke:;stroke-width:0.0;stroke-dasharray:;"/><text fill="#000000" font-family="sans-serif" font-size="12" lengthAdjust="spacing" textLength="115" x="30" y="17.1387">registry-regulation</text><path d="M27,22.9375 L27,24.9375 L35,24.9375 L35,23.9375 L30,23.9375 L30,22.9375 L27,22.9375 M27,25.9375 L27,30.4375 C27,30.7175 27.22,30.9375 27.5,30.9375 L34.5,30.9375 C34.78,30.9375 35,30.7175 35,30.4375 L35,25.9375 L27,25.9375 " fill="#000000" style="stroke:;stroke-width:0.0;stroke-dasharray:;"/><text fill="#000000" font-family="sans-serif" font-size="12" lengthAdjust="spacing" textLength="35" x="40" y="31.1074">bpmn</text><text fill="#000000" font-family="sans-serif" font-size="12" lengthAdjust="spacing" textLength="12" x="26" y="45.0762">...</text><path d="M27,50.875 L27,52.875 L35,52.875 L35,51.875 L30,51.875 L30,50.875 L27,50.875 M27,53.875 L27,58.375 C27,58.655 27.22,58.875 27.5,58.875 L34.5,58.875 C34.78,58.875 35,58.655 35,58.375 L35,53.875 L27,53.875 " fill="#000000" style="stroke:;stroke-width:0.0;stroke-dasharray:;"/><text fill="#000000" font-family="sans-serif" font-size="12" lengthAdjust="spacing" textLength="35" x="40" y="59.0449">forms</text><path d="M27,64.8438 L27,66.8438 L35,66.8438 L35,65.8438 L30,65.8438 L30,64.8438 L27,64.8438 M27,67.8438 L27,72.3438 C27,72.6238 27.22,72.8438 27.5,72.8438 L34.5,72.8438 C34.78,72.8438 35,72.6238 35,72.3438 L35,67.8438 L27,67.8438 " fill="#000000" style="stroke:;stroke-width:0.0;stroke-dasharray:;"/><text fill="#000000" font-family="sans-serif" font-size="12" lengthAdjust="spacing" textLength="74" x="40" y="73.0137">form-scripts</text><text fill="#000000" font-family="sans-serif" font-size="12" lengthAdjust="spacing" textLength="12" x="26" y="86.9824">...</text><rect fill="none" height="2" style="stroke:#888888;stroke-width:1.0;" width="2" x="9" y="11.9844"/><line style="stroke:#888888;stroke-width:1.0;" x1="10" x2="10" y1="14.9844" y2="26.9531"/><line style="stroke:#888888;stroke-width:1.0;" x1="10" x2="18" y1="26.9531" y2="26.9531"/><line style="stroke:#888888;stroke-width:1.0;" x1="10" x2="10" y1="14.9844" y2="40.9219"/><line style="stroke:#888888;stroke-width:1.0;" x1="10" x2="18" y1="40.9219" y2="40.9219"/><line style="stroke:#888888;stroke-width:1.0;" x1="10" x2="10" y1="14.9844" y2="54.8906"/><line style="stroke:#888888;stroke-width:1.0;" x1="10" x2="18" y1="54.8906" y2="54.8906"/><line style="stroke:#888888;stroke-width:1.0;" x1="10" x2="10" y1="14.9844" y2="68.8594"/><line style="stroke:#888888;stroke-width:1.0;" x1="10" x2="18" y1="68.8594" y2="68.8594"/><line style="stroke:#888888;stroke-width:1.0;" x1="10" x2="10" y1="14.9844" y2="82.8281"/><line style="stroke:#888888;stroke-width:1.0;" x1="10" x2="18" y1="82.8281" y2="82.8281"/><!--MD5=[abfd64b2f0c6a2376b5615a728b2c0fc]
@startsalt
{
{T
+ <&folder> registry-regulation
++ <&folder> bpmn
++ ...
++ <&folder> forms
++ <&folder> form-scripts
++ ...
}
}
@endsalt

PlantUML version 1.2021.7(Sun May 23 12:40:07 UTC 2021)
(GPL source distribution)
Java Runtime: OpenJDK Runtime Environment
JVM: OpenJDK 64-Bit Server VM
Default Encoding: UTF-8
Language: en
Country: null
--></g></svg>