<?xml version="1.0" encoding="UTF-8" standalone="no"?><svg xmlns="http://www.w3.org/2000/svg" xmlns:xlink="http://www.w3.org/1999/xlink" contentScriptType="application/ecmascript" contentStyleType="text/css" height="1119px" preserveAspectRatio="none" style="width:840px;height:1119px;background:#FFFFFF;" version="1.1" viewBox="0 0 840 1119" width="840px" zoomAndPan="magnify"><defs><filter height="300%" id="f1ayer7o2sp94o" width="300%" x="-1" y="-1"><feGaussianBlur result="blurOut" stdDeviation="2.0"/><feColorMatrix in="blurOut" result="blurOut2" type="matrix" values="0 0 0 0 0 0 0 0 0 0 0 0 0 0 0 0 0 0 .4 0"/><feOffset dx="4.0" dy="4.0" in="blurOut2" result="blurOut3"/><feBlend in="SourceGraphic" in2="blurOut3" mode="normal"/></filter></defs><g><rect fill="#FFFFFF" filter="url(#f1ayer7o2sp94o)" height="897.7891" style="stroke:#A80036;stroke-width:1.0;" width="10" x="247" y="119.4297"/><rect fill="#E9967A" filter="url(#f1ayer7o2sp94o)" height="513.3906" style="stroke:#A80036;stroke-width:1.0;" width="10" x="252" y="467.6953"/><rect fill="#FFFFFF" filter="url(#f1ayer7o2sp94o)" height="75.3984" style="stroke:#000000;stroke-width:2.0;" width="344" x="217" y="134.4297"/><rect fill="#FFFFFF" filter="url(#f1ayer7o2sp94o)" height="46.2656" style="stroke:#000000;stroke-width:2.0;" width="277" x="10" y="223.8281"/><rect fill="#FFFFFF" filter="url(#f1ayer7o2sp94o)" height="105.3359" style="stroke:#000000;stroke-width:2.0;" width="397.5" x="429" y="284.0938"/><rect fill="#FFFFFF" height="59.0703" style="stroke:none;stroke-width:1.0;" width="397.5" x="429" y="330.3594"/><rect fill="#FFFFFF" filter="url(#f1ayer7o2sp94o)" height="75.3984" style="stroke:#000000;stroke-width:2.0;" width="344" x="217" y="487.6953"/><rect fill="#FFFFFF" filter="url(#f1ayer7o2sp94o)" height="46.2656" style="stroke:#000000;stroke-width:2.0;" width="277" x="10" y="577.0938"/><rect fill="#FFFFFF" filter="url(#f1ayer7o2sp94o)" height="191.9297" style="stroke:#000000;stroke-width:2.0;" width="667" x="10" y="755.0234"/><line style="stroke:#A80036;stroke-width:1.0;stroke-dasharray:5.0,5.0;" x1="39" x2="39" y1="88.2969" y2="1035.2188"/><line style="stroke:#A80036;stroke-width:1.0;stroke-dasharray:5.0,5.0;" x1="252" x2="252" y1="88.2969" y2="1035.2188"/><line style="stroke:#A80036;stroke-width:1.0;stroke-dasharray:5.0,5.0;" x1="495" x2="495" y1="88.2969" y2="1035.2188"/><line style="stroke:#A80036;stroke-width:1.0;stroke-dasharray:5.0,5.0;" x1="617" x2="617" y1="88.2969" y2="1035.2188"/><line style="stroke:#A80036;stroke-width:1.0;stroke-dasharray:5.0,5.0;" x1="771.5" x2="771.5" y1="88.2969" y2="1035.2188"/><text fill="#000000" font-family="sans-serif" font-size="14" lengthAdjust="spacing" textLength="32" x="20" y="84.9951">User</text><ellipse cx="39" cy="15" fill="#FEFECE" filter="url(#f1ayer7o2sp94o)" rx="8" ry="8" style="stroke:#A80036;stroke-width:2.0;"/><path d="M39,23 L39,50 M26,31 L52,31 M39,50 L26,65 M39,50 L52,65 " fill="none" filter="url(#f1ayer7o2sp94o)" style="stroke:#A80036;stroke-width:2.0;"/><text fill="#000000" font-family="sans-serif" font-size="14" lengthAdjust="spacing" textLength="32" x="20" y="1047.2139">User</text><ellipse cx="39" cy="1060.5156" fill="#FEFECE" filter="url(#f1ayer7o2sp94o)" rx="8" ry="8" style="stroke:#A80036;stroke-width:2.0;"/><path d="M39,1068.5156 L39,1095.5156 M26,1076.5156 L52,1076.5156 M39,1095.5156 L26,1110.5156 M39,1095.5156 L52,1110.5156 " fill="none" filter="url(#f1ayer7o2sp94o)" style="stroke:#A80036;stroke-width:2.0;"/><rect fill="#FEFECE" filter="url(#f1ayer7o2sp94o)" height="30.2969" style="stroke:#A80036;stroke-width:1.5;" width="46" x="227" y="53"/><text fill="#000000" font-family="sans-serif" font-size="14" lengthAdjust="spacing" textLength="32" x="234" y="72.9951">RRM</text><rect fill="#FEFECE" filter="url(#f1ayer7o2sp94o)" height="30.2969" style="stroke:#A80036;stroke-width:1.5;" width="46" x="227" y="1034.2188"/><text fill="#000000" font-family="sans-serif" font-size="14" lengthAdjust="spacing" textLength="32" x="234" y="1054.2139">RRM</text><rect fill="#FEFECE" filter="url(#f1ayer7o2sp94o)" height="30.2969" style="stroke:#A80036;stroke-width:1.5;" width="108" x="439" y="53"/><text fill="#000000" font-family="sans-serif" font-size="14" lengthAdjust="spacing" textLength="94" x="446" y="72.9951">Local Git repo</text><rect fill="#FEFECE" filter="url(#f1ayer7o2sp94o)" height="30.2969" style="stroke:#A80036;stroke-width:1.5;" width="108" x="439" y="1034.2188"/><text fill="#000000" font-family="sans-serif" font-size="14" lengthAdjust="spacing" textLength="94" x="446" y="1054.2139">Local Git repo</text><rect fill="#FEFECE" filter="url(#f1ayer7o2sp94o)" height="30.2969" style="stroke:#A80036;stroke-width:1.5;" width="96" x="567" y="53"/><text fill="#000000" font-family="sans-serif" font-size="14" lengthAdjust="spacing" textLength="82" x="574" y="72.9951">Origin Gerrit</text><rect fill="#FEFECE" filter="url(#f1ayer7o2sp94o)" height="30.2969" style="stroke:#A80036;stroke-width:1.5;" width="96" x="567" y="1034.2188"/><text fill="#000000" font-family="sans-serif" font-size="14" lengthAdjust="spacing" textLength="82" x="574" y="1054.2139">Origin Gerrit</text><text fill="#000000" font-family="sans-serif" font-size="14" lengthAdjust="spacing" textLength="83" x="727.5" y="84.9951">Counterpart</text><ellipse cx="772" cy="15" fill="#FEFECE" filter="url(#f1ayer7o2sp94o)" rx="8" ry="8" style="stroke:#A80036;stroke-width:2.0;"/><path d="M772,23 L772,50 M759,31 L785,31 M772,50 L759,65 M772,50 L785,65 " fill="none" filter="url(#f1ayer7o2sp94o)" style="stroke:#A80036;stroke-width:2.0;"/><text fill="#000000" font-family="sans-serif" font-size="14" lengthAdjust="spacing" textLength="83" x="727.5" y="1047.2139">Counterpart</text><ellipse cx="772" cy="1060.5156" fill="#FEFECE" filter="url(#f1ayer7o2sp94o)" rx="8" ry="8" style="stroke:#A80036;stroke-width:2.0;"/><path d="M772,1068.5156 L772,1095.5156 M759,1076.5156 L785,1076.5156 M772,1095.5156 L759,1110.5156 M772,1095.5156 L785,1110.5156 " fill="none" filter="url(#f1ayer7o2sp94o)" style="stroke:#A80036;stroke-width:2.0;"/><rect fill="#FFFFFF" filter="url(#f1ayer7o2sp94o)" height="897.7891" style="stroke:#A80036;stroke-width:1.0;" width="10" x="247" y="119.4297"/><rect fill="#E9967A" filter="url(#f1ayer7o2sp94o)" height="513.3906" style="stroke:#A80036;stroke-width:1.0;" width="10" x="252" y="467.6953"/><polygon fill="#A80036" points="235,115.4297,245,119.4297,235,123.4297,239,119.4297" style="stroke:#A80036;stroke-width:1.0;"/><line style="stroke:#A80036;stroke-width:1.0;" x1="39" x2="241" y1="119.4297" y2="119.4297"/><text fill="#000000" font-family="sans-serif" font-size="13" lengthAdjust="spacing" textLength="102" x="46" y="114.3638">creates form/bp</text><path d="M217,134.4297 L420,134.4297 L420,141.4297 L410,151.4297 L217,151.4297 L217,134.4297 " fill="#EEEEEE" style="stroke:#000000;stroke-width:1.0;"/><rect fill="none" height="75.3984" style="stroke:#000000;stroke-width:2.0;" width="344" x="217" y="134.4297"/><text fill="#000000" font-family="sans-serif" font-size="13" font-weight="bold" lengthAdjust="spacing" textLength="158" x="232" y="147.4966">Concurrent validation</text><polygon fill="#A80036" points="483,168.6953,493,172.6953,483,176.6953,487,172.6953" style="stroke:#A80036;stroke-width:1.0;"/><line style="stroke:#A80036;stroke-width:1.0;" x1="257" x2="489" y1="172.6953" y2="172.6953"/><text fill="#000000" font-family="sans-serif" font-size="13" lengthAdjust="spacing" textLength="66" x="264" y="167.6294">file exists?</text><polygon fill="#A80036" points="268,197.8281,258,201.8281,268,205.8281,264,201.8281" style="stroke:#A80036;stroke-width:1.0;"/><line style="stroke:#A80036;stroke-width:1.0;stroke-dasharray:2.0,2.0;" x1="262" x2="494" y1="201.8281" y2="201.8281"/><text fill="#000000" font-family="sans-serif" font-size="13" lengthAdjust="spacing" textLength="59" x="274" y="196.7622">response</text><path d="M10,223.8281 L74,223.8281 L74,230.8281 L64,240.8281 L10,240.8281 L10,223.8281 " fill="#EEEEEE" style="stroke:#000000;stroke-width:1.0;"/><rect fill="none" height="46.2656" style="stroke:#000000;stroke-width:2.0;" width="277" x="10" y="223.8281"/><text fill="#000000" font-family="sans-serif" font-size="13" font-weight="bold" lengthAdjust="spacing" textLength="19" x="25" y="236.895">alt</text><text fill="#000000" font-family="sans-serif" font-size="11" font-weight="bold" lengthAdjust="spacing" textLength="125" x="89" y="236.0386">[file already exists]</text><polygon fill="#A80036" points="50,258.0938,40,262.0938,50,266.0938,46,262.0938" style="stroke:#A80036;stroke-width:1.0;"/><line style="stroke:#A80036;stroke-width:1.0;stroke-dasharray:2.0,2.0;" x1="44" x2="246" y1="262.0938" y2="262.0938"/><text fill="#000000" font-family="sans-serif" font-size="13" lengthAdjust="spacing" textLength="184" x="56" y="257.0278">HTTP 412 Precondition Failed</text><path d="M429,284.0938 L493,284.0938 L493,291.0938 L483,301.0938 L429,301.0938 L429,284.0938 " fill="#EEEEEE" style="stroke:#000000;stroke-width:1.0;"/><rect fill="none" height="105.3359" style="stroke:#000000;stroke-width:2.0;" width="397.5" x="429" y="284.0938"/><text fill="#000000" font-family="sans-serif" font-size="13" font-weight="bold" lengthAdjust="spacing" textLength="19" x="444" y="297.1606">alt</text><text fill="#000000" font-family="sans-serif" font-size="11" font-weight="bold" lengthAdjust="spacing" textLength="215" x="508" y="296.3042">[concurrent work in Admin Portal]</text><polygon fill="#A80036" points="506,318.3594,496,322.3594,506,326.3594,502,322.3594" style="stroke:#A80036;stroke-width:1.0;"/><line style="stroke:#A80036;stroke-width:1.0;" x1="500" x2="771" y1="322.3594" y2="322.3594"/><text fill="#000000" font-family="sans-serif" font-size="13" lengthAdjust="spacing" textLength="237" x="512" y="317.2935">creates form/bp with the same name</text><line style="stroke:#000000;stroke-width:1.0;stroke-dasharray:2.0,2.0;" x1="429" x2="826.5" y1="331.3594" y2="331.3594"/><text fill="#000000" font-family="sans-serif" font-size="11" font-weight="bold" lengthAdjust="spacing" textLength="170" x="434" y="341.5698">[concurrent work in Gerrit]</text><polygon fill="#A80036" points="628,377.4297,618,381.4297,628,385.4297,624,381.4297" style="stroke:#A80036;stroke-width:1.0;"/><line style="stroke:#A80036;stroke-width:1.0;" x1="622" x2="771" y1="381.4297" y2="381.4297"/><text fill="#000000" font-family="sans-serif" font-size="13" lengthAdjust="spacing" textLength="102" x="634" y="361.231">creates form/bp</text><text fill="#000000" font-family="sans-serif" font-size="13" lengthAdjust="spacing" textLength="131" x="634" y="376.3638">with the same name</text><line style="stroke:#A80036;stroke-width:1.0;" x1="257" x2="299" y1="417.5625" y2="417.5625"/><line style="stroke:#A80036;stroke-width:1.0;" x1="299" x2="299" y1="417.5625" y2="430.5625"/><line style="stroke:#A80036;stroke-width:1.0;" x1="258" x2="299" y1="430.5625" y2="430.5625"/><polygon fill="#A80036" points="268,426.5625,258,430.5625,268,434.5625,264,430.5625" style="stroke:#A80036;stroke-width:1.0;"/><text fill="#000000" font-family="sans-serif" font-size="13" lengthAdjust="spacing" textLength="118" x="264" y="412.4966">do some side stuff</text><line style="stroke:#A80036;stroke-width:1.0;" x1="257" x2="304" y1="454.6953" y2="454.6953"/><line style="stroke:#A80036;stroke-width:1.0;" x1="304" x2="304" y1="454.6953" y2="467.6953"/><line style="stroke:#A80036;stroke-width:1.0;" x1="263" x2="304" y1="467.6953" y2="467.6953"/><polygon fill="#A80036" points="273,463.6953,263,467.6953,273,471.6953,269,467.6953" style="stroke:#A80036;stroke-width:1.0;"/><text fill="#000000" font-family="sans-serif" font-size="13" lengthAdjust="spacing" textLength="76" x="269" y="449.6294">acquire lock</text><path d="M217,487.6953 L420,487.6953 L420,494.6953 L410,504.6953 L217,504.6953 L217,487.6953 " fill="#EEEEEE" style="stroke:#000000;stroke-width:1.0;"/><rect fill="none" height="75.3984" style="stroke:#000000;stroke-width:2.0;" width="344" x="217" y="487.6953"/><text fill="#000000" font-family="sans-serif" font-size="13" font-weight="bold" lengthAdjust="spacing" textLength="158" x="232" y="500.7622">Concurrent validation</text><polygon fill="#A80036" points="483,521.9609,493,525.9609,483,529.9609,487,525.9609" style="stroke:#A80036;stroke-width:1.0;"/><line style="stroke:#A80036;stroke-width:1.0;" x1="262" x2="489" y1="525.9609" y2="525.9609"/><text fill="#000000" font-family="sans-serif" font-size="13" lengthAdjust="spacing" textLength="66" x="269" y="520.895">file exists?</text><polygon fill="#A80036" points="273,551.0938,263,555.0938,273,559.0938,269,555.0938" style="stroke:#A80036;stroke-width:1.0;"/><line style="stroke:#A80036;stroke-width:1.0;stroke-dasharray:2.0,2.0;" x1="267" x2="494" y1="555.0938" y2="555.0938"/><text fill="#000000" font-family="sans-serif" font-size="13" lengthAdjust="spacing" textLength="59" x="279" y="550.0278">response</text><path d="M10,577.0938 L74,577.0938 L74,584.0938 L64,594.0938 L10,594.0938 L10,577.0938 " fill="#EEEEEE" style="stroke:#000000;stroke-width:1.0;"/><rect fill="none" height="46.2656" style="stroke:#000000;stroke-width:2.0;" width="277" x="10" y="577.0938"/><text fill="#000000" font-family="sans-serif" font-size="13" font-weight="bold" lengthAdjust="spacing" textLength="19" x="25" y="590.1606">alt</text><text fill="#000000" font-family="sans-serif" font-size="11" font-weight="bold" lengthAdjust="spacing" textLength="125" x="89" y="589.3042">[file already exists]</text><polygon fill="#A80036" points="50,611.3594,40,615.3594,50,619.3594,46,615.3594" style="stroke:#A80036;stroke-width:1.0;"/><line style="stroke:#A80036;stroke-width:1.0;stroke-dasharray:2.0,2.0;" x1="44" x2="251" y1="615.3594" y2="615.3594"/><text fill="#000000" font-family="sans-serif" font-size="13" lengthAdjust="spacing" textLength="184" x="56" y="610.2935">HTTP 412 Precondition Failed</text><polygon fill="#A80036" points="483,647.4922,493,651.4922,483,655.4922,487,651.4922" style="stroke:#A80036;stroke-width:1.0;"/><line style="stroke:#A80036;stroke-width:1.0;" x1="262" x2="489" y1="651.4922" y2="651.4922"/><text fill="#000000" font-family="sans-serif" font-size="13" lengthAdjust="spacing" textLength="105" x="269" y="646.4263">write file content</text><polygon fill="#A80036" points="483,706.8906,493,710.8906,483,714.8906,487,710.8906" style="stroke:#A80036;stroke-width:1.0;"/><line style="stroke:#A80036;stroke-width:1.0;" x1="262" x2="489" y1="710.8906" y2="710.8906"/><text fill="#000000" font-family="sans-serif" font-size="13" lengthAdjust="spacing" textLength="44" x="269" y="675.5591">git add</text><text fill="#000000" font-family="sans-serif" font-size="13" lengthAdjust="spacing" textLength="69" x="269" y="690.6919">git commit</text><text fill="#000000" font-family="sans-serif" font-size="13" lengthAdjust="spacing" textLength="51" x="269" y="705.8247">git push</text><polygon fill="#A80036" points="605,736.0234,615,740.0234,605,744.0234,609,740.0234" style="stroke:#A80036;stroke-width:1.0;"/><line style="stroke:#A80036;stroke-width:1.0;" x1="495" x2="611" y1="740.0234" y2="740.0234"/><text fill="#000000" font-family="sans-serif" font-size="13" lengthAdjust="spacing" textLength="89" x="502" y="734.9575">push changes</text><path d="M10,755.0234 L74,755.0234 L74,762.0234 L64,772.0234 L10,772.0234 L10,755.0234 " fill="#EEEEEE" style="stroke:#000000;stroke-width:1.0;"/><rect fill="none" height="191.9297" style="stroke:#000000;stroke-width:2.0;" width="667" x="10" y="755.0234"/><text fill="#000000" font-family="sans-serif" font-size="13" font-weight="bold" lengthAdjust="spacing" textLength="19" x="25" y="768.0903">alt</text><text fill="#000000" font-family="sans-serif" font-size="11" font-weight="bold" lengthAdjust="spacing" textLength="102" x="89" y="767.2339">[merge conflict]</text><polygon fill="#A80036" points="506,789.2891,496,793.2891,506,797.2891,502,793.2891" style="stroke:#A80036;stroke-width:1.0;"/><line style="stroke:#A80036;stroke-width:1.0;stroke-dasharray:2.0,2.0;" x1="500" x2="616" y1="793.2891" y2="793.2891"/><text fill="#000000" font-family="sans-serif" font-size="13" lengthAdjust="spacing" textLength="98" x="512" y="788.2231">merge conflicts</text><polygon fill="#A80036" points="273,818.4219,263,822.4219,273,826.4219,269,822.4219" style="stroke:#A80036;stroke-width:1.0;"/><line style="stroke:#A80036;stroke-width:1.0;stroke-dasharray:2.0,2.0;" x1="267" x2="494" y1="822.4219" y2="822.4219"/><text fill="#000000" font-family="sans-serif" font-size="13" lengthAdjust="spacing" textLength="98" x="279" y="817.356">merge conflicts</text><polygon fill="#A80036" points="483,847.5547,493,851.5547,483,855.5547,487,851.5547" style="stroke:#A80036;stroke-width:1.0;"/><line style="stroke:#A80036;stroke-width:1.0;" x1="262" x2="489" y1="851.5547" y2="851.5547"/><text fill="#000000" font-family="sans-serif" font-size="13" lengthAdjust="spacing" textLength="52" x="269" y="846.4888">git fetch</text><polygon fill="#A80036" points="605,876.6875,615,880.6875,605,884.6875,609,880.6875" style="stroke:#A80036;stroke-width:1.0;"/><line style="stroke:#A80036;stroke-width:1.0;" x1="495" x2="611" y1="880.6875" y2="880.6875"/><text fill="#000000" font-family="sans-serif" font-size="13" lengthAdjust="spacing" textLength="52" x="502" y="875.6216">git fetch</text><polygon fill="#A80036" points="483,905.8203,493,909.8203,483,913.8203,487,909.8203" style="stroke:#A80036;stroke-width:1.0;"/><line style="stroke:#A80036;stroke-width:1.0;" x1="262" x2="489" y1="909.8203" y2="909.8203"/><text fill="#000000" font-family="sans-serif" font-size="13" lengthAdjust="spacing" textLength="209" x="269" y="904.7544">hard reset on origin head branch</text><polygon fill="#A80036" points="50,934.9531,40,938.9531,50,942.9531,46,938.9531" style="stroke:#A80036;stroke-width:1.0;"/><line style="stroke:#A80036;stroke-width:1.0;stroke-dasharray:2.0,2.0;" x1="44" x2="251" y1="938.9531" y2="938.9531"/><text fill="#000000" font-family="sans-serif" font-size="13" lengthAdjust="spacing" textLength="184" x="56" y="933.8872">HTTP 412 Precondition Failed</text><line style="stroke:#A80036;stroke-width:1.0;" x1="262" x2="304" y1="980.0859" y2="980.0859"/><line style="stroke:#A80036;stroke-width:1.0;" x1="304" x2="304" y1="980.0859" y2="993.0859"/><line style="stroke:#A80036;stroke-width:1.0;" x1="257" x2="304" y1="993.0859" y2="993.0859"/><polygon fill="#A80036" points="267,989.0859,257,993.0859,267,997.0859,263,993.0859" style="stroke:#A80036;stroke-width:1.0;"/><text fill="#000000" font-family="sans-serif" font-size="13" lengthAdjust="spacing" textLength="76" x="269" y="975.02">release lock</text><polygon fill="#A80036" points="50,1013.2188,40,1017.2188,50,1021.2188,46,1017.2188" style="stroke:#A80036;stroke-width:1.0;"/><line style="stroke:#A80036;stroke-width:1.0;stroke-dasharray:2.0,2.0;" x1="44" x2="251" y1="1017.2188" y2="1017.2188"/><text fill="#000000" font-family="sans-serif" font-size="13" lengthAdjust="spacing" textLength="15" x="56" y="1012.1528">ok</text><!--MD5=[cb99fdbf4533b5600a74c27b75ebafb1]
@startuml
actor User as user
participant rrm as "RRM"
participant git as "Local Git repo"
participant gerrit as "Origin Gerrit"
actor counterpart as "Counterpart"

user -> rrm: creates form/bp
activate rrm
group Concurrent validation
    rrm -> git: file exists?
    git - -> rrm: response
end

alt file already exists
    rrm - -> user: HTTP 412 Precondition Failed
end

alt concurrent work in Admin Portal
    counterpart -> git: creates form/bp with the same name
else concurrent work in Gerrit
    counterpart -> gerrit: creates form/bp\nwith the same name
end

rrm -> rrm: do some side stuff
rrm -> rrm: acquire lock
activate rrm #DarkSalmon
group Concurrent validation
    rrm -> git: file exists?
    git - -> rrm: response
end

alt file already exists
    rrm - -> user: HTTP 412 Precondition Failed
end
rrm -> git: write file content

rrm -> git: git add\ngit commit\ngit push
git -> gerrit: push changes
alt merge conflict
    gerrit - -> git: merge conflicts
    git - -> rrm: merge conflicts
    rrm -> git: git fetch
    git -> gerrit: git fetch
    rrm -> git: hard reset on origin head branch
    rrm - -> user: HTTP 412 Precondition Failed
end
rrm -> rrm: release lock
deactivate rrm
rrm - -> user: ok
deactivate rrm
@enduml

PlantUML version 1.2021.7(Sun May 23 12:40:07 UTC 2021)
(GPL source distribution)
Java Runtime: OpenJDK Runtime Environment
JVM: OpenJDK 64-Bit Server VM
Default Encoding: UTF-8
Language: en
Country: null
--></g></svg>