<?xml version="1.0" encoding="UTF-8" standalone="no"?><svg xmlns="http://www.w3.org/2000/svg" xmlns:xlink="http://www.w3.org/1999/xlink" contentScriptType="application/ecmascript" contentStyleType="text/css" height="347px" preserveAspectRatio="none" style="width:802px;height:347px;background:#FFFFFF;" version="1.1" viewBox="0 0 802 347" width="802px" zoomAndPan="magnify"><defs><filter height="300%" id="f3iif71yqplrf" width="300%" x="-1" y="-1"><feGaussianBlur result="blurOut" stdDeviation="2.0"/><feColorMatrix in="blurOut" result="blurOut2" type="matrix" values="0 0 0 0 0 0 0 0 0 0 0 0 0 0 0 0 0 0 .4 0"/><feOffset dx="4.0" dy="4.0" in="blurOut2" result="blurOut3"/><feBlend in="SourceGraphic" in2="blurOut3" mode="normal"/></filter></defs><g><!--MD5=[1e460e09f145690d74e315b05007a75a]
cluster el--><polygon fill="#FFFFFF" filter="url(#f3iif71yqplrf)" points="16,6,36,6,43,28.2969,785,28.2969,785,340,16,340,16,6" style="stroke:#000000;stroke-width:1.5;"/><line style="stroke:#000000;stroke-width:1.5;" x1="16" x2="43" y1="28.2969" y2="28.2969"/><text fill="#000000" font-family="sans-serif" font-size="14" font-weight="bold" lengthAdjust="spacing" textLength="14" x="20" y="20.9951">el</text><!--MD5=[fbefe79c2615ead6467110c697f20e43]
cluster juel--><polygon fill="#FFFFFF" filter="url(#f3iif71yqplrf)" points="40,49,74,49,81,71.2969,494,71.2969,494,303.5,40,303.5,40,49" style="stroke:#000000;stroke-width:1.5;"/><line style="stroke:#000000;stroke-width:1.5;" x1="40" x2="81" y1="71.2969" y2="71.2969"/><text fill="#000000" font-family="sans-serif" font-size="14" font-weight="bold" lengthAdjust="spacing" textLength="28" x="44" y="63.9951">juel</text><!--MD5=[e6eced616a98d47334dd1aaaa829ffd5]
cluster dto--><polygon fill="#FFFFFF" filter="url(#f3iif71yqplrf)" points="545,179,577,179,584,201.2969,761,201.2969,761,316,545,316,545,179" style="stroke:#000000;stroke-width:1.5;"/><line style="stroke:#000000;stroke-width:1.5;" x1="545" x2="584" y1="201.2969" y2="201.2969"/><text fill="#000000" font-family="sans-serif" font-size="14" font-weight="bold" lengthAdjust="spacing" textLength="26" x="549" y="193.9951">dto</text><!--MD5=[58757dcc332247ef909ad8857cd4165d]
class AbstractApplicationContextAwareJuelFunction--><rect codeLine="3" fill="#FEFECE" filter="url(#f3iif71yqplrf)" height="48" id="AbstractApplicationContextAwareJuelFunction" style="stroke:#A80036;stroke-width:1.5;" width="316" x="135" y="84"/><ellipse cx="150" cy="100" fill="#A9DCDF" rx="11" ry="11" style="stroke:#A80036;stroke-width:1.0;"/><path d="M150.1094,95.3438 L148.9531,100.4219 L151.2813,100.4219 L150.1094,95.3438 Z M148.625,93.1094 L151.6094,93.1094 L154.9688,105.5 L152.5156,105.5 L151.75,102.4375 L148.4688,102.4375 L147.7188,105.5 L145.2813,105.5 L148.625,93.1094 Z " fill="#000000"/><text fill="#000000" font-family="sans-serif" font-size="12" font-style="italic" lengthAdjust="spacing" textLength="284" x="164" y="104.1543">AbstractApplicationContextAwareJuelFunction</text><line style="stroke:#A80036;stroke-width:1.5;" x1="136" x2="450" y1="116" y2="116"/><line style="stroke:#A80036;stroke-width:1.5;" x1="136" x2="450" y1="124" y2="124"/><!--MD5=[ee6015752519d97dcb30e364fcfebcae]
class SignSubmissionJuelFunction--><rect codeLine="4" fill="#ADD8E6" filter="url(#f3iif71yqplrf)" height="60.8047" id="SignSubmissionJuelFunction" style="stroke:#008000;stroke-width:1.5;" width="422" x="56" y="226.5"/><ellipse cx="175.75" cy="242.5" fill="#ADD1B2" rx="11" ry="11" style="stroke:#008000;stroke-width:1.0;"/><path d="M178.7188,248.1406 Q178.1406,248.4375 177.5,248.5781 Q176.8594,248.7344 176.1563,248.7344 Q173.6563,248.7344 172.3281,247.0938 Q171.0156,245.4375 171.0156,242.3125 Q171.0156,239.1875 172.3281,237.5313 Q173.6563,235.875 176.1563,235.875 Q176.8594,235.875 177.5,236.0313 Q178.1563,236.1875 178.7188,236.4844 L178.7188,239.2031 Q178.0938,238.625 177.5,238.3594 Q176.9063,238.0781 176.2813,238.0781 Q174.9375,238.0781 174.25,239.1563 Q173.5625,240.2188 173.5625,242.3125 Q173.5625,244.4063 174.25,245.4844 Q174.9375,246.5469 176.2813,246.5469 Q176.9063,246.5469 177.5,246.2813 Q178.0938,246 178.7188,245.4219 L178.7188,248.1406 Z " fill="#000000"/><text fill="#000000" font-family="sans-serif" font-size="12" lengthAdjust="spacing" textLength="174" x="196.25" y="246.6543">SignSubmissionJuelFunction</text><line style="stroke:#008000;stroke-width:1.5;" x1="57" x2="477" y1="258.5" y2="258.5"/><line style="stroke:#008000;stroke-width:1.5;" x1="57" x2="477" y1="266.5" y2="266.5"/><ellipse cx="67" cy="277.5" fill="#84BE84" rx="3" ry="3" style="stroke:#038048;stroke-width:1.0;"/><text fill="#000000" font-family="sans-serif" font-size="11" lengthAdjust="spacing" text-decoration="underline" textLength="396" x="76" y="280.7104">SignUserFormDataDto sign_submission(String &lt;activity_id|event_id&gt;)</text><!--MD5=[c2a8adfdd5fa05b68bc8542d3be47d9d]
class SignUserFormDataDto--><rect codeLine="9" fill="#ADD8E6" filter="url(#f3iif71yqplrf)" height="86.4141" id="SignUserFormDataDto" style="stroke:#008000;stroke-width:1.5;" width="185" x="560.5" y="214"/><ellipse cx="581.8" cy="230" fill="#ADD1B2" rx="11" ry="11" style="stroke:#008000;stroke-width:1.0;"/><path d="M584.7688,235.6406 Q584.1906,235.9375 583.55,236.0781 Q582.9094,236.2344 582.2063,236.2344 Q579.7063,236.2344 578.3781,234.5938 Q577.0656,232.9375 577.0656,229.8125 Q577.0656,226.6875 578.3781,225.0313 Q579.7063,223.375 582.2063,223.375 Q582.9094,223.375 583.55,223.5313 Q584.2063,223.6875 584.7688,223.9844 L584.7688,226.7031 Q584.1438,226.125 583.55,225.8594 Q582.9563,225.5781 582.3313,225.5781 Q580.9875,225.5781 580.3,226.6563 Q579.6125,227.7188 579.6125,229.8125 Q579.6125,231.9063 580.3,232.9844 Q580.9875,234.0469 582.3313,234.0469 Q582.9563,234.0469 583.55,233.7813 Q584.1438,233.5 584.7688,232.9219 L584.7688,235.6406 Z " fill="#000000"/><text fill="#000000" font-family="sans-serif" font-size="12" lengthAdjust="spacing" textLength="139" x="597.2" y="234.1543">SignUserFormDataDto</text><line style="stroke:#008000;stroke-width:1.5;" x1="561.5" x2="744.5" y1="246" y2="246"/><rect fill="none" height="6" style="stroke:#C82930;stroke-width:1.0;" width="6" x="568.5" y="254"/><text fill="#000000" font-family="sans-serif" font-size="11" lengthAdjust="spacing" textLength="135" x="580.5" y="260.2104">SpinJsonNode formData</text><rect fill="none" height="6" style="stroke:#C82930;stroke-width:1.0;" width="6" x="568.5" y="266.8047"/><text fill="#000000" font-family="sans-serif" font-size="11" lengthAdjust="spacing" textLength="92" x="580.5" y="273.0151">String signature</text><rect fill="none" height="6" style="stroke:#C82930;stroke-width:1.0;" width="6" x="568.5" y="279.6094"/><text fill="#000000" font-family="sans-serif" font-size="11" lengthAdjust="spacing" textLength="159" x="580.5" y="285.8198">String signatureDocumentId</text><line style="stroke:#008000;stroke-width:1.5;" x1="561.5" x2="744.5" y1="292.4141" y2="292.4141"/><!--MD5=[f08cd372fdb1fddb9259f5dea522a0b9]
reverse link AbstractApplicationContextAwareJuelFunction to SignSubmissionJuelFunction--><path d="M285.39,152.03 C281.16,175.97 276,205.13 272.22,226.48 " fill="none" id="AbstractApplicationContextAwareJuelFunction-backto-SignSubmissionJuelFunction" style="stroke:#A80036;stroke-width:1.0;"/><polygon fill="none" points="278.5,150.77,288.88,132.29,292.29,153.21,278.5,150.77" style="stroke:#A80036;stroke-width:1.0;"/><!--MD5=[03876aadc28171a754ca3d2115d0ec16]
link AbstractApplicationContextAwareJuelFunction to SignUserFormDataDto--><!--MD5=[532ca13de4aac2629d773a3328b60f0f]
link SignSubmissionJuelFunction to SignUserFormDataDto--><path codeLine="16" d="M478.07,257 C505.02,257 531.49,257 555.37,257 " fill="none" id="SignSubmissionJuelFunction-to-SignUserFormDataDto" style="stroke:#A80036;stroke-width:1.0;stroke-dasharray:7.0,7.0;"/><polygon fill="#A80036" points="560.42,257,551.42,253,555.42,257,551.42,261,560.42,257" style="stroke:#A80036;stroke-width:1.0;"/><text fill="#000000" font-family="sans-serif" font-size="13" lengthAdjust="spacing" textLength="46" x="496.25" y="250.0669">returns</text><!--MD5=[274b5d0813f2533d4ca31114850f6b2c]
@startuml
package el {
  package juel {
    abstract class AbstractApplicationContextAwareJuelFunction
    class SignSubmissionJuelFunction #back:lightblue;line:green;text:black extends AbstractApplicationContextAwareJuelFunction {
      + {static} SignUserFormDataDto sign_submission(String <activity_id|event_id>)
    }
  }
  package dto {
    class SignUserFormDataDto #back:lightblue;line:green;text:black {
      - SpinJsonNode formData
      - String signature
      - String signatureDocumentId
    }
  }
  AbstractApplicationContextAwareJuelFunction ..[hidden]> SignUserFormDataDto
  SignSubmissionJuelFunction .> SignUserFormDataDto : returns
}
@enduml

PlantUML version 1.2021.7(Sun May 23 12:40:07 UTC 2021)
(GPL source distribution)
Java Runtime: OpenJDK Runtime Environment
JVM: OpenJDK 64-Bit Server VM
Default Encoding: UTF-8
Language: en
Country: null
--></g></svg>