<?xml version="1.0" encoding="UTF-8" standalone="no"?><svg xmlns="http://www.w3.org/2000/svg" xmlns:xlink="http://www.w3.org/1999/xlink" contentScriptType="application/ecmascript" contentStyleType="text/css" height="371px" preserveAspectRatio="none" style="width:1053px;height:371px;background:#FFFFFF;" version="1.1" viewBox="0 0 1053 371" width="1053px" zoomAndPan="magnify"><defs><filter height="300%" id="f1vfokqxu79ysj" width="300%" x="-1" y="-1"><feGaussianBlur result="blurOut" stdDeviation="2.0"/><feColorMatrix in="blurOut" result="blurOut2" type="matrix" values="0 0 0 0 0 0 0 0 0 0 0 0 0 0 0 0 0 0 .4 0"/><feOffset dx="4.0" dy="4.0" in="blurOut2" result="blurOut3"/><feBlend in="SourceGraphic" in2="blurOut3" mode="normal"/></filter></defs><g><!--MD5=[026656941d211b4e6c0f6ff699e9ef14]
class WebServiceGatewaySupport--><rect codeLine="1" fill="#FEFECE" filter="url(#f1vfokqxu79ysj)" height="48" id="WebServiceGatewaySupport" style="stroke:#A80036;stroke-width:1.5;" width="207" x="7" y="20"/><ellipse cx="22" cy="36" fill="#A9DCDF" rx="11" ry="11" style="stroke:#A80036;stroke-width:1.0;"/><path d="M22.1094,31.3438 L20.9531,36.4219 L23.2813,36.4219 L22.1094,31.3438 Z M20.625,29.1094 L23.6094,29.1094 L26.9688,41.5 L24.5156,41.5 L23.75,38.4375 L20.4688,38.4375 L19.7188,41.5 L17.2813,41.5 L20.625,29.1094 Z " fill="#000000"/><text fill="#000000" font-family="sans-serif" font-size="12" font-style="italic" lengthAdjust="spacing" textLength="175" x="36" y="40.1543">WebServiceGatewaySupport</text><line style="stroke:#A80036;stroke-width:1.5;" x1="8" x2="213" y1="52" y2="52"/><line style="stroke:#A80036;stroke-width:1.5;" x1="8" x2="213" y1="60" y2="60"/><!--MD5=[30c86bfbc18b71ed71b50636fbd16f26]
class EdrRegistryClient--><rect codeLine="2" fill="#FEFECE" filter="url(#f1vfokqxu79ysj)" height="73.6094" id="EdrRegistryClient" style="stroke:#A80036;stroke-width:1.5;" width="397" x="294" y="158"/><ellipse cx="435.25" cy="174" fill="#ADD1B2" rx="11" ry="11" style="stroke:#A80036;stroke-width:1.0;"/><path d="M438.2188,179.6406 Q437.6406,179.9375 437,180.0781 Q436.3594,180.2344 435.6563,180.2344 Q433.1563,180.2344 431.8281,178.5938 Q430.5156,176.9375 430.5156,173.8125 Q430.5156,170.6875 431.8281,169.0313 Q433.1563,167.375 435.6563,167.375 Q436.3594,167.375 437,167.5313 Q437.6563,167.6875 438.2188,167.9844 L438.2188,170.7031 Q437.5938,170.125 437,169.8594 Q436.4063,169.5781 435.7813,169.5781 Q434.4375,169.5781 433.75,170.6563 Q433.0625,171.7188 433.0625,173.8125 Q433.0625,175.9063 433.75,176.9844 Q434.4375,178.0469 435.7813,178.0469 Q436.4063,178.0469 437,177.7813 Q437.5938,177.5 438.2188,176.9219 L438.2188,179.6406 Z " fill="#000000"/><text fill="#000000" font-family="sans-serif" font-size="12" lengthAdjust="spacing" textLength="106" x="455.75" y="178.1543">EdrRegistryClient</text><line style="stroke:#A80036;stroke-width:1.5;" x1="295" x2="690" y1="190" y2="190"/><line style="stroke:#A80036;stroke-width:1.5;" x1="295" x2="690" y1="198" y2="198"/><text fill="#000000" font-family="sans-serif" font-size="11" lengthAdjust="spacing" textLength="362" x="300" y="212.2104">get(EdrRegistryGetRequestBody): EdrRegistryGetResponseBody</text><text fill="#000000" font-family="sans-serif" font-size="11" lengthAdjust="spacing" textLength="385" x="300" y="225.0151">exist(EdrRegistryExistRequestBody): EdrRegistryExistResponseBody</text><!--MD5=[67999fd3ddf4452aa6300a7be4bd28e8]
class RegistryClientsConfig--><rect codeLine="6" fill="#FEFECE" filter="url(#f1vfokqxu79ysj)" height="73.6094" id="RegistryClientsConfig" style="stroke:#A80036;stroke-width:1.5;" width="218" x="249.5" y="7"/><ellipse cx="289.25" cy="23" fill="#ADD1B2" rx="11" ry="11" style="stroke:#A80036;stroke-width:1.0;"/><path d="M292.2188,28.6406 Q291.6406,28.9375 291,29.0781 Q290.3594,29.2344 289.6563,29.2344 Q287.1563,29.2344 285.8281,27.5938 Q284.5156,25.9375 284.5156,22.8125 Q284.5156,19.6875 285.8281,18.0313 Q287.1563,16.375 289.6563,16.375 Q290.3594,16.375 291,16.5313 Q291.6563,16.6875 292.2188,16.9844 L292.2188,19.7031 Q291.5938,19.125 291,18.8594 Q290.4063,18.5781 289.7813,18.5781 Q288.4375,18.5781 287.75,19.6563 Q287.0625,20.7188 287.0625,22.8125 Q287.0625,24.9063 287.75,25.9844 Q288.4375,27.0469 289.7813,27.0469 Q290.4063,27.0469 291,26.7813 Q291.5938,26.5 292.2188,25.9219 L292.2188,28.6406 Z " fill="#000000"/><text fill="#000000" font-family="sans-serif" font-size="12" lengthAdjust="spacing" textLength="131" x="308.75" y="27.1543">RegistryClientsConfig</text><line style="stroke:#A80036;stroke-width:1.5;" x1="250.5" x2="466.5" y1="39" y2="39"/><line style="stroke:#A80036;stroke-width:1.5;" x1="250.5" x2="466.5" y1="47" y2="47"/><text fill="#000000" font-family="sans-serif" font-size="11" lengthAdjust="spacing" textLength="168" x="255.5" y="61.2104">marshaller(): Jaxb2Marshaller</text><text fill="#000000" font-family="sans-serif" font-size="11" lengthAdjust="spacing" textLength="206" x="255.5" y="74.0151">edrRegistryClient() EdrRegistryClient</text><!--MD5=[ef18d215e0a71014d2d2614e54c380ee]
class EdrRegistryGetConnectorDelegate--><rect codeLine="11" fill="#90EE90" filter="url(#f1vfokqxu79ysj)" height="73.6094" id="EdrRegistryGetConnectorDelegate" style="stroke:#008000;stroke-width:1.5;" width="247" x="503" y="7"/><ellipse cx="518" cy="23" fill="#ADD1B2" rx="11" ry="11" style="stroke:#008000;stroke-width:1.0;"/><path d="M520.9688,28.6406 Q520.3906,28.9375 519.75,29.0781 Q519.1094,29.2344 518.4063,29.2344 Q515.9063,29.2344 514.5781,27.5938 Q513.2656,25.9375 513.2656,22.8125 Q513.2656,19.6875 514.5781,18.0313 Q515.9063,16.375 518.4063,16.375 Q519.1094,16.375 519.75,16.5313 Q520.4063,16.6875 520.9688,16.9844 L520.9688,19.7031 Q520.3438,19.125 519.75,18.8594 Q519.1563,18.5781 518.5313,18.5781 Q517.1875,18.5781 516.5,19.6563 Q515.8125,20.7188 515.8125,22.8125 Q515.8125,24.9063 516.5,25.9844 Q517.1875,27.0469 518.5313,27.0469 Q519.1563,27.0469 519.75,26.7813 Q520.3438,26.5 520.9688,25.9219 L520.9688,28.6406 Z " fill="#000000"/><text fill="#000000" font-family="sans-serif" font-size="12" lengthAdjust="spacing" textLength="215" x="532" y="27.1543">EdrRegistryGetConnectorDelegate</text><line style="stroke:#008000;stroke-width:1.5;" x1="504" x2="749" y1="39" y2="39"/><text fill="#000000" font-family="sans-serif" font-size="11" lengthAdjust="spacing" textLength="131" x="509" y="53.2104">EdrRegistryClient client</text><line style="stroke:#008000;stroke-width:1.5;" x1="504" x2="749" y1="59.8047" y2="59.8047"/><text fill="#000000" font-family="sans-serif" font-size="11" lengthAdjust="spacing" textLength="156" x="509" y="74.0151">execute(DelegateExecution)</text><!--MD5=[92ccc2aaa57dbf8993809c518e645c5d]
class EdrRegistryExistConnectorDelegate--><rect codeLine="15" fill="#90EE90" filter="url(#f1vfokqxu79ysj)" height="73.6094" id="EdrRegistryExistConnectorDelegate" style="stroke:#008000;stroke-width:1.5;" width="254" x="785.5" y="7"/><ellipse cx="800.5" cy="23" fill="#ADD1B2" rx="11" ry="11" style="stroke:#008000;stroke-width:1.0;"/><path d="M803.4688,28.6406 Q802.8906,28.9375 802.25,29.0781 Q801.6094,29.2344 800.9063,29.2344 Q798.4063,29.2344 797.0781,27.5938 Q795.7656,25.9375 795.7656,22.8125 Q795.7656,19.6875 797.0781,18.0313 Q798.4063,16.375 800.9063,16.375 Q801.6094,16.375 802.25,16.5313 Q802.9063,16.6875 803.4688,16.9844 L803.4688,19.7031 Q802.8438,19.125 802.25,18.8594 Q801.6563,18.5781 801.0313,18.5781 Q799.6875,18.5781 799,19.6563 Q798.3125,20.7188 798.3125,22.8125 Q798.3125,24.9063 799,25.9844 Q799.6875,27.0469 801.0313,27.0469 Q801.6563,27.0469 802.25,26.7813 Q802.8438,26.5 803.4688,25.9219 L803.4688,28.6406 Z " fill="#000000"/><text fill="#000000" font-family="sans-serif" font-size="12" lengthAdjust="spacing" textLength="222" x="814.5" y="27.1543">EdrRegistryExistConnectorDelegate</text><line style="stroke:#008000;stroke-width:1.5;" x1="786.5" x2="1038.5" y1="39" y2="39"/><text fill="#000000" font-family="sans-serif" font-size="11" lengthAdjust="spacing" textLength="131" x="791.5" y="53.2104">EdrRegistryClient client</text><line style="stroke:#008000;stroke-width:1.5;" x1="786.5" x2="1038.5" y1="59.8047" y2="59.8047"/><text fill="#000000" font-family="sans-serif" font-size="11" lengthAdjust="spacing" textLength="156" x="791.5" y="74.0151">execute(DelegateExecution)</text><!--MD5=[f8fc76cfb9a2e1eedd247e4feedeb9d9]
class EdrRegistryGetRequestBody--><rect codeLine="20" fill="#ADD8E6" filter="url(#f1vfokqxu79ysj)" height="48" id="EdrRegistryGetRequestBody" style="stroke:#0000FF;stroke-width:1.5;" width="207" x="67" y="309"/><ellipse cx="82" cy="325" fill="#ADD1B2" rx="11" ry="11" style="stroke:#0000FF;stroke-width:1.0;"/><path d="M84.9688,330.6406 Q84.3906,330.9375 83.75,331.0781 Q83.1094,331.2344 82.4063,331.2344 Q79.9063,331.2344 78.5781,329.5938 Q77.2656,327.9375 77.2656,324.8125 Q77.2656,321.6875 78.5781,320.0313 Q79.9063,318.375 82.4063,318.375 Q83.1094,318.375 83.75,318.5313 Q84.4063,318.6875 84.9688,318.9844 L84.9688,321.7031 Q84.3438,321.125 83.75,320.8594 Q83.1563,320.5781 82.5313,320.5781 Q81.1875,320.5781 80.5,321.6563 Q79.8125,322.7188 79.8125,324.8125 Q79.8125,326.9063 80.5,327.9844 Q81.1875,329.0469 82.5313,329.0469 Q83.1563,329.0469 83.75,328.7813 Q84.3438,328.5 84.9688,327.9219 L84.9688,330.6406 Z " fill="#000000"/><text fill="#000000" font-family="sans-serif" font-size="12" lengthAdjust="spacing" textLength="175" x="96" y="329.1543">EdrRegistryGetRequestBody</text><line style="stroke:#0000FF;stroke-width:1.5;" x1="68" x2="273" y1="341" y2="341"/><line style="stroke:#0000FF;stroke-width:1.5;" x1="68" x2="273" y1="349" y2="349"/><!--MD5=[3311043552349ea62df299fb493761c3]
class EdrRegistryGetResponseBody--><rect codeLine="21" fill="#ADD8E6" filter="url(#f1vfokqxu79ysj)" height="48" id="EdrRegistryGetResponseBody" style="stroke:#0000FF;stroke-width:1.5;" width="217" x="309" y="309"/><ellipse cx="324" cy="325" fill="#ADD1B2" rx="11" ry="11" style="stroke:#0000FF;stroke-width:1.0;"/><path d="M326.9688,330.6406 Q326.3906,330.9375 325.75,331.0781 Q325.1094,331.2344 324.4063,331.2344 Q321.9063,331.2344 320.5781,329.5938 Q319.2656,327.9375 319.2656,324.8125 Q319.2656,321.6875 320.5781,320.0313 Q321.9063,318.375 324.4063,318.375 Q325.1094,318.375 325.75,318.5313 Q326.4063,318.6875 326.9688,318.9844 L326.9688,321.7031 Q326.3438,321.125 325.75,320.8594 Q325.1563,320.5781 324.5313,320.5781 Q323.1875,320.5781 322.5,321.6563 Q321.8125,322.7188 321.8125,324.8125 Q321.8125,326.9063 322.5,327.9844 Q323.1875,329.0469 324.5313,329.0469 Q325.1563,329.0469 325.75,328.7813 Q326.3438,328.5 326.9688,327.9219 L326.9688,330.6406 Z " fill="#000000"/><text fill="#000000" font-family="sans-serif" font-size="12" lengthAdjust="spacing" textLength="185" x="338" y="329.1543">EdrRegistryGetResponseBody</text><line style="stroke:#0000FF;stroke-width:1.5;" x1="310" x2="525" y1="341" y2="341"/><line style="stroke:#0000FF;stroke-width:1.5;" x1="310" x2="525" y1="349" y2="349"/><!--MD5=[4d73b4cbf4120fd16e678af645fb12c3]
class EdrRegistryExistRequestBody--><rect codeLine="22" fill="#ADD8E6" filter="url(#f1vfokqxu79ysj)" height="48" id="EdrRegistryExistRequestBody" style="stroke:#0000FF;stroke-width:1.5;" width="214" x="561.5" y="309"/><ellipse cx="576.5" cy="325" fill="#ADD1B2" rx="11" ry="11" style="stroke:#0000FF;stroke-width:1.0;"/><path d="M579.4688,330.6406 Q578.8906,330.9375 578.25,331.0781 Q577.6094,331.2344 576.9063,331.2344 Q574.4063,331.2344 573.0781,329.5938 Q571.7656,327.9375 571.7656,324.8125 Q571.7656,321.6875 573.0781,320.0313 Q574.4063,318.375 576.9063,318.375 Q577.6094,318.375 578.25,318.5313 Q578.9063,318.6875 579.4688,318.9844 L579.4688,321.7031 Q578.8438,321.125 578.25,320.8594 Q577.6563,320.5781 577.0313,320.5781 Q575.6875,320.5781 575,321.6563 Q574.3125,322.7188 574.3125,324.8125 Q574.3125,326.9063 575,327.9844 Q575.6875,329.0469 577.0313,329.0469 Q577.6563,329.0469 578.25,328.7813 Q578.8438,328.5 579.4688,327.9219 L579.4688,330.6406 Z " fill="#000000"/><text fill="#000000" font-family="sans-serif" font-size="12" lengthAdjust="spacing" textLength="182" x="590.5" y="329.1543">EdrRegistryExistRequestBody</text><line style="stroke:#0000FF;stroke-width:1.5;" x1="562.5" x2="774.5" y1="341" y2="341"/><line style="stroke:#0000FF;stroke-width:1.5;" x1="562.5" x2="774.5" y1="349" y2="349"/><!--MD5=[280e77bfe12cff53c6b4d97970dfa31c]
class EdrRegistryExistResponseBody--><rect codeLine="23" fill="#ADD8E6" filter="url(#f1vfokqxu79ysj)" height="48" id="EdrRegistryExistResponseBody" style="stroke:#0000FF;stroke-width:1.5;" width="224" x="810.5" y="309"/><ellipse cx="825.5" cy="325" fill="#ADD1B2" rx="11" ry="11" style="stroke:#0000FF;stroke-width:1.0;"/><path d="M828.4688,330.6406 Q827.8906,330.9375 827.25,331.0781 Q826.6094,331.2344 825.9063,331.2344 Q823.4063,331.2344 822.0781,329.5938 Q820.7656,327.9375 820.7656,324.8125 Q820.7656,321.6875 822.0781,320.0313 Q823.4063,318.375 825.9063,318.375 Q826.6094,318.375 827.25,318.5313 Q827.9063,318.6875 828.4688,318.9844 L828.4688,321.7031 Q827.8438,321.125 827.25,320.8594 Q826.6563,320.5781 826.0313,320.5781 Q824.6875,320.5781 824,321.6563 Q823.3125,322.7188 823.3125,324.8125 Q823.3125,326.9063 824,327.9844 Q824.6875,329.0469 826.0313,329.0469 Q826.6563,329.0469 827.25,328.7813 Q827.8438,328.5 828.4688,327.9219 L828.4688,330.6406 Z " fill="#000000"/><text fill="#000000" font-family="sans-serif" font-size="12" lengthAdjust="spacing" textLength="192" x="839.5" y="329.1543">EdrRegistryExistResponseBody</text><line style="stroke:#0000FF;stroke-width:1.5;" x1="811.5" x2="1033.5" y1="341" y2="341"/><line style="stroke:#0000FF;stroke-width:1.5;" x1="811.5" x2="1033.5" y1="349" y2="349"/><path d="M800.5,182.5 L800.5,207.6328 A0,0 0 0 0 800.5,207.6328 L918.5,207.6328 L922.5,308.77 L926.5,207.6328 L1044.5,207.6328 A0,0 0 0 0 1044.5,207.6328 L1044.5,192.5 L1034.5,182.5 L800.5,182.5 A0,0 0 0 0 800.5,182.5 " fill="#FBFB77" filter="url(#f1vfokqxu79ysj)" style="stroke:#A80036;stroke-width:1.0;"/><path d="M1034.5,182.5 L1034.5,192.5 L1044.5,192.5 L1034.5,182.5 " fill="#FBFB77" style="stroke:#A80036;stroke-width:1.0;"/><text fill="#000000" font-family="sans-serif" font-size="13" lengthAdjust="spacing" textLength="223" x="806.5" y="199.5669">Generated classes based on WSDL</text><!--MD5=[17056f62f4d1f5ebf33f37921fdfa25a]
reverse link WebServiceGatewaySupport to EdrRegistryClient--><path d="M188.75,75.52 C249.99,99.41 335.31,132.69 399.94,157.9 " fill="none" id="WebServiceGatewaySupport-backto-EdrRegistryClient" style="stroke:#A80036;stroke-width:1.0;"/><polygon fill="none" points="185.86,81.91,169.77,68.12,190.94,68.86,185.86,81.91" style="stroke:#A80036;stroke-width:1.0;"/><!--MD5=[61f6332014c4db507e7ae57a231af838]
link EdrRegistryGetConnectorDelegate to EdrRegistryClient--><path codeLine="29" d="M594.06,81.07 C574.29,103.05 548.99,131.18 528.59,153.87 " fill="none" id="EdrRegistryGetConnectorDelegate-to-EdrRegistryClient" style="stroke:#A80036;stroke-width:1.0;"/><polygon fill="#A80036" points="525.1,157.75,534.0939,153.7362,528.4448,154.0335,528.1475,148.3845,525.1,157.75" style="stroke:#A80036;stroke-width:1.0;"/><text fill="#000000" font-family="sans-serif" font-size="13" lengthAdjust="spacing" textLength="30" x="565.5" y="124.0669">uses</text><!--MD5=[45b93816ef7f81a462e85d4d5307b47b]
link EdrRegistryExistConnectorDelegate to EdrRegistryClient--><path codeLine="30" d="M810.83,81.07 C746.83,103.77 664.34,133.04 599.37,156.09 " fill="none" id="EdrRegistryExistConnectorDelegate-to-EdrRegistryClient" style="stroke:#A80036;stroke-width:1.0;"/><polygon fill="#A80036" points="594.33,157.88,604.15,158.6332,599.041,156.2047,601.4695,151.0956,594.33,157.88" style="stroke:#A80036;stroke-width:1.0;"/><text fill="#000000" font-family="sans-serif" font-size="13" lengthAdjust="spacing" textLength="30" x="715.5" y="124.0669">uses</text><!--MD5=[bfed8d428f24ce639b605e778a2b115a]
link EdrRegistryClient to EdrRegistryGetRequestBody--><path codeLine="31" d="M407.06,232.09 C351.28,255.64 279.87,285.81 230.16,306.8 " fill="none" id="EdrRegistryClient-to-EdrRegistryGetRequestBody" style="stroke:#A80036;stroke-width:1.0;"/><polygon fill="#A80036" points="225.42,308.8,235.2672,308.9831,230.026,306.8546,232.1545,301.6135,225.42,308.8" style="stroke:#A80036;stroke-width:1.0;"/><text fill="#000000" font-family="sans-serif" font-size="13" lengthAdjust="spacing" textLength="30" x="332.5" y="275.0669">uses</text><!--MD5=[2197a71b0c6bbbf6513821f9c9f567fc]
link EdrRegistryClient to EdrRegistryGetResponseBody--><path codeLine="32" d="M472.6,232.09 C460.17,254.62 444.41,283.2 432.93,304.02 " fill="none" id="EdrRegistryClient-to-EdrRegistryGetResponseBody" style="stroke:#A80036;stroke-width:1.0;"/><polygon fill="#A80036" points="430.4,308.6,438.2526,302.6555,432.8173,304.2232,431.2496,298.7879,430.4,308.6" style="stroke:#A80036;stroke-width:1.0;"/><text fill="#000000" font-family="sans-serif" font-size="13" lengthAdjust="spacing" textLength="30" x="456.5" y="275.0669">uses</text><!--MD5=[00583503000ed6e21a8c6871fa80b280]
link EdrRegistryClient to EdrRegistryExistRequestBody--><path codeLine="33" d="M539.2,232.09 C569.07,255.17 607.15,284.59 634.23,305.52 " fill="none" id="EdrRegistryClient-to-EdrRegistryExistRequestBody" style="stroke:#A80036;stroke-width:1.0;"/><polygon fill="#A80036" points="638.48,308.8,633.8033,300.1323,634.5233,305.7432,628.9124,306.4631,638.48,308.8" style="stroke:#A80036;stroke-width:1.0;"/><text fill="#000000" font-family="sans-serif" font-size="13" lengthAdjust="spacing" textLength="30" x="597.5" y="275.0669">uses</text><!--MD5=[823d64d6049f51ba279a69d9ec50eef2]
link EdrRegistryClient to EdrRegistryExistResponseBody--><path codeLine="34" d="M606.6,232.09 C681.65,255.83 777.92,286.27 844.35,307.28 " fill="none" id="EdrRegistryClient-to-EdrRegistryExistResponseBody" style="stroke:#A80036;stroke-width:1.0;"/><polygon fill="#A80036" points="849.48,308.91,842.0939,302.395,844.7101,307.4105,839.6947,310.0268,849.48,308.91" style="stroke:#A80036;stroke-width:1.0;"/><text fill="#000000" font-family="sans-serif" font-size="13" lengthAdjust="spacing" textLength="30" x="746.5" y="275.0669">uses</text><!--MD5=[255dd693f78dc79da34c6fcdb8c8b257]
link RegistryClientsConfig to EdrRegistryClient--><path codeLine="35" d="M390.94,81.07 C410.71,103.05 436.01,131.18 456.41,153.87 " fill="none" id="RegistryClientsConfig-to-EdrRegistryClient" style="stroke:#A80036;stroke-width:1.0;"/><polygon fill="#A80036" points="459.9,157.75,456.8525,148.3845,456.5552,154.0335,450.9061,153.7362,459.9,157.75" style="stroke:#A80036;stroke-width:1.0;"/><text fill="#000000" font-family="sans-serif" font-size="13" lengthAdjust="spacing" textLength="66" x="431.5" y="124.0669">configures</text><!--MD5=[6a3e5e071b3c4a2eba1ecce0e67cf0f2]
@startuml
abstract class WebServiceGatewaySupport
class EdrRegistryClient extends WebServiceGatewaySupport {
  get(EdrRegistryGetRequestBody): EdrRegistryGetResponseBody
  exist(EdrRegistryExistRequestBody): EdrRegistryExistResponseBody
}
class RegistryClientsConfig {
  marshaller(): Jaxb2Marshaller
  edrRegistryClient() EdrRegistryClient
}

class EdrRegistryGetConnectorDelegate #back:lightgreen;line:green;text:black {
  EdrRegistryClient client
  execute(DelegateExecution)
}
class EdrRegistryExistConnectorDelegate #back:lightgreen;line:green;text:black {
  EdrRegistryClient client
  execute(DelegateExecution)
}

class EdrRegistryGetRequestBody #back:lightblue;line:blue;text:black
class EdrRegistryGetResponseBody #back:lightblue;line:blue;text:black
class EdrRegistryExistRequestBody #back:lightblue;line:blue;text:black
class EdrRegistryExistResponseBody #back:lightblue;line:blue;text:black

note top of EdrRegistryExistResponseBody
  Generated classes based on WSDL
end note

EdrRegistryGetConnectorDelegate - -> EdrRegistryClient : uses
EdrRegistryExistConnectorDelegate - -> EdrRegistryClient : uses
EdrRegistryClient - -> EdrRegistryGetRequestBody : uses
EdrRegistryClient - -> EdrRegistryGetResponseBody : uses
EdrRegistryClient - -> EdrRegistryExistRequestBody : uses
EdrRegistryClient - -> EdrRegistryExistResponseBody : uses
RegistryClientsConfig - -> EdrRegistryClient : configures
@enduml

PlantUML version 1.2021.7(Sun May 23 12:40:07 UTC 2021)
(GPL source distribution)
Java Runtime: OpenJDK Runtime Environment
JVM: OpenJDK 64-Bit Server VM
Default Encoding: UTF-8
Language: en
Country: null
--></g></svg>