<?xml version="1.0" encoding="UTF-8" standalone="no"?><svg xmlns="http://www.w3.org/2000/svg" xmlns:xlink="http://www.w3.org/1999/xlink" contentScriptType="application/ecmascript" contentStyleType="text/css" height="456px" preserveAspectRatio="none" style="width:3458px;height:456px;background:#FFFFFF;" version="1.1" viewBox="0 0 3458 456" width="3458px" zoomAndPan="magnify"><defs><filter height="300%" id="f13k5gmly90t43" width="300%" x="-1" y="-1"><feGaussianBlur result="blurOut" stdDeviation="2.0"/><feColorMatrix in="blurOut" result="blurOut2" type="matrix" values="0 0 0 0 0 0 0 0 0 0 0 0 0 0 0 0 0 0 .4 0"/><feOffset dx="4.0" dy="4.0" in="blurOut2" result="blurOut3"/><feBlend in="SourceGraphic" in2="blurOut3" mode="normal"/></filter></defs><g><!--MD5=[a0b701b17cd0fa430b3f4c83dd35eb7d]
cluster installer--><polygon fill="#FFFFFF" filter="url(#f13k5gmly90t43)" points="16,6,109,6,116,28.2969,3441,28.2969,3441,449,16,449,16,6" style="stroke:#000000;stroke-width:1.5;"/><line style="stroke:#000000;stroke-width:1.5;" x1="16" x2="116" y1="28.2969" y2="28.2969"/><text fill="#000000" font-family="sans-serif" font-size="14" font-weight="bold" lengthAdjust="spacing" textLength="87" x="20" y="20.9951">Інсталятор</text><!--MD5=[05728344d6d7746cf5bd933e8bc19d4c]
cluster images--><polygon fill="#FFFFFF" filter="url(#f13k5gmly90t43)" points="2951,92,3013,92,3020,114.2969,3417,114.2969,3417,189,2951,189,2951,92" style="stroke:#000000;stroke-width:1.5;"/><line style="stroke:#000000;stroke-width:1.5;" x1="2951" x2="3020" y1="114.2969" y2="114.2969"/><text fill="#000000" font-family="sans-serif" font-size="14" font-weight="bold" lengthAdjust="spacing" textLength="56" x="2955" y="106.9951">images</text><!--MD5=[741d5beba86224a2628245a183ea6d41]
cluster nexus--><polygon fill="#FFFFFF" filter="url(#f13k5gmly90t43)" points="2709,92,2763,92,2770,114.2969,2927,114.2969,2927,189,2709,189,2709,92" style="stroke:#000000;stroke-width:1.5;"/><line style="stroke:#000000;stroke-width:1.5;" x1="2709" x2="2770" y1="114.2969" y2="114.2969"/><text fill="#000000" font-family="sans-serif" font-size="14" font-weight="bold" lengthAdjust="spacing" textLength="48" x="2713" y="106.9951">nexus</text><!--MD5=[96f760269fc4f42dc47a24738b17ae1e]
cluster repositories--><polygon fill="#FFFFFF" filter="url(#f13k5gmly90t43)" points="691,49,793,49,800,71.2969,2685,71.2969,2685,425,691,425,691,49" style="stroke:#000000;stroke-width:1.5;"/><line style="stroke:#000000;stroke-width:1.5;" x1="691" x2="800" y1="71.2969" y2="71.2969"/><text fill="#000000" font-family="sans-serif" font-size="14" font-weight="bold" lengthAdjust="spacing" textLength="96" x="695" y="63.9951">repositories</text><!--MD5=[5973478dfa2d505fc43c849141a31dcb]
cluster control-plane--><polygon fill="#FFFFFF" filter="url(#f13k5gmly90t43)" points="2022,92,2133,92,2140,114.2969,2661,114.2969,2661,401,2022,401,2022,92" style="stroke:#000000;stroke-width:1.5;"/><line style="stroke:#000000;stroke-width:1.5;" x1="2022" x2="2140" y1="114.2969" y2="114.2969"/><text fill="#000000" font-family="sans-serif" font-size="14" font-weight="bold" lengthAdjust="spacing" textLength="105" x="2026" y="106.9951">control-plane</text><!--MD5=[b96263a6e3ccc8d9646ad6160c88315b]
cluster infra--><polygon fill="#FFFFFF" filter="url(#f13k5gmly90t43)" points="1133,92,1175,92,1182,114.2969,1998,114.2969,1998,401,1133,401,1133,92" style="stroke:#000000;stroke-width:1.5;"/><line style="stroke:#000000;stroke-width:1.5;" x1="1133" x2="1182" y1="114.2969" y2="114.2969"/><text fill="#000000" font-family="sans-serif" font-size="14" font-weight="bold" lengthAdjust="spacing" textLength="36" x="1137" y="106.9951">infra</text><!--MD5=[272379cf1f80536b6294ad33393ecec2]
cluster registry--><polygon fill="#FFFFFF" filter="url(#f13k5gmly90t43)" points="715,92,783,92,790,114.2969,1109,114.2969,1109,189,715,189,715,92" style="stroke:#000000;stroke-width:1.5;"/><line style="stroke:#000000;stroke-width:1.5;" x1="715" x2="790" y1="114.2969" y2="114.2969"/><text fill="#000000" font-family="sans-serif" font-size="14" font-weight="bold" lengthAdjust="spacing" textLength="62" x="719" y="106.9951">registry</text><!--MD5=[ed8cc6e5076cc88bb78bf0d149f2a746]
cluster terraform--><polygon fill="#FFFFFF" filter="url(#f13k5gmly90t43)" points="450,92,532,92,539,114.2969,667,114.2969,667,189,450,189,450,92" style="stroke:#000000;stroke-width:1.5;"/><line style="stroke:#000000;stroke-width:1.5;" x1="450" x2="539" y1="114.2969" y2="114.2969"/><text fill="#000000" font-family="sans-serif" font-size="14" font-weight="bold" lengthAdjust="spacing" textLength="76" x="454" y="106.9951">terraform</text><!--MD5=[e9f5a6981eb71c9dc7873d1bf83cb075]
entity installer_image--><rect fill="#FEFECE" filter="url(#f13k5gmly90t43)" height="46.2969" style="stroke:#A80036;stroke-width:1.5;" width="218" x="32" y="127"/><rect fill="#FEFECE" height="10" style="stroke:#A80036;stroke-width:1.5;" width="15" x="230" y="132"/><rect fill="#FEFECE" height="2" style="stroke:#A80036;stroke-width:1.5;" width="4" x="228" y="134"/><rect fill="#FEFECE" height="2" style="stroke:#A80036;stroke-width:1.5;" width="4" x="228" y="138"/><text fill="#000000" font-family="sans-serif" font-size="14" lengthAdjust="spacing" textLength="178" x="47" y="159.9951">control-plane-installer.img</text><!--MD5=[3c408ee9f2d75cc3793269e1c519da60]
entity docker_load--><rect fill="#FEFECE" filter="url(#f13k5gmly90t43)" height="46.2969" style="stroke:#A80036;stroke-width:1.5;" width="145" x="285.5" y="127"/><rect fill="#FEFECE" height="10" style="stroke:#A80036;stroke-width:1.5;" width="15" x="410.5" y="132"/><rect fill="#FEFECE" height="2" style="stroke:#A80036;stroke-width:1.5;" width="4" x="408.5" y="134"/><rect fill="#FEFECE" height="2" style="stroke:#A80036;stroke-width:1.5;" width="4" x="408.5" y="138"/><text fill="#000000" font-family="sans-serif" font-size="14" lengthAdjust="spacing" textLength="105" x="300.5" y="159.9951">docker_load.sh</text><!--MD5=[ea6a73a916d4abe1122c6cccf1bbd880]
entity functions--><rect fill="#FEFECE" filter="url(#f13k5gmly90t43)" height="46.2969" style="stroke:#A80036;stroke-width:1.5;" width="125" x="78.5" y="233"/><rect fill="#FEFECE" height="10" style="stroke:#A80036;stroke-width:1.5;" width="15" x="183.5" y="238"/><rect fill="#FEFECE" height="2" style="stroke:#A80036;stroke-width:1.5;" width="4" x="181.5" y="240"/><rect fill="#FEFECE" height="2" style="stroke:#A80036;stroke-width:1.5;" width="4" x="181.5" y="244"/><text fill="#000000" font-family="sans-serif" font-size="14" lengthAdjust="spacing" textLength="85" x="93.5" y="265.9951">functions.sh</text><!--MD5=[326bf12c7d84edf97c6f0f7d66789c7c]
entity install--><rect fill="#FEFECE" filter="url(#f13k5gmly90t43)" height="46.2969" style="stroke:#A80036;stroke-width:1.5;" width="100" x="239" y="233"/><rect fill="#FEFECE" height="10" style="stroke:#A80036;stroke-width:1.5;" width="15" x="319" y="238"/><rect fill="#FEFECE" height="2" style="stroke:#A80036;stroke-width:1.5;" width="4" x="317" y="240"/><rect fill="#FEFECE" height="2" style="stroke:#A80036;stroke-width:1.5;" width="4" x="317" y="244"/><text fill="#000000" font-family="sans-serif" font-size="14" lengthAdjust="spacing" textLength="60" x="254" y="265.9951">install.sh</text><!--MD5=[db3681ecc97c4f5009e177ab961a2426]
entity external docker images--><rect fill="#FEFECE" filter="url(#f13k5gmly90t43)" height="46.2969" style="stroke:#A80036;stroke-width:1.5;" width="201" x="3199.5" y="127"/><rect fill="#FEFECE" height="10" style="stroke:#A80036;stroke-width:1.5;" width="15" x="3380.5" y="132"/><rect fill="#FEFECE" height="2" style="stroke:#A80036;stroke-width:1.5;" width="4" x="3378.5" y="134"/><rect fill="#FEFECE" height="2" style="stroke:#A80036;stroke-width:1.5;" width="4" x="3378.5" y="138"/><text fill="#000000" font-family="sans-serif" font-size="14" lengthAdjust="spacing" textLength="161" x="3214.5" y="159.9951">external docker images</text><!--MD5=[c09002b29b38471df516c6417643166e]
entity registry docker images--><rect fill="#FEFECE" filter="url(#f13k5gmly90t43)" height="46.2969" style="stroke:#A80036;stroke-width:1.5;" width="197" x="2967.5" y="127"/><rect fill="#FEFECE" height="10" style="stroke:#A80036;stroke-width:1.5;" width="15" x="3144.5" y="132"/><rect fill="#FEFECE" height="2" style="stroke:#A80036;stroke-width:1.5;" width="4" x="3142.5" y="134"/><rect fill="#FEFECE" height="2" style="stroke:#A80036;stroke-width:1.5;" width="4" x="3142.5" y="138"/><text fill="#000000" font-family="sans-serif" font-size="14" lengthAdjust="spacing" textLength="157" x="2982.5" y="159.9951">registry docker images</text><!--MD5=[e754c4d63c1cb83bdd414b67c447b1d4]
entity liquibase-ext-schema--><rect fill="#FEFECE" filter="url(#f13k5gmly90t43)" height="46.2969" style="stroke:#A80036;stroke-width:1.5;" width="187" x="2724.5" y="127"/><rect fill="#FEFECE" height="10" style="stroke:#A80036;stroke-width:1.5;" width="15" x="2891.5" y="132"/><rect fill="#FEFECE" height="2" style="stroke:#A80036;stroke-width:1.5;" width="4" x="2889.5" y="134"/><rect fill="#FEFECE" height="2" style="stroke:#A80036;stroke-width:1.5;" width="4" x="2889.5" y="138"/><text fill="#000000" font-family="sans-serif" font-size="14" lengthAdjust="spacing" textLength="147" x="2739.5" y="159.9951">liquibase-ext-schema</text><!--MD5=[1b25c7cc492bf92ece2b8ca190cf181c]
entity codebase-operator--><rect fill="#FEFECE" filter="url(#f13k5gmly90t43)" height="46.2969" style="stroke:#A80036;stroke-width:1.5;" width="173" x="2038.5" y="127"/><rect fill="#FEFECE" height="10" style="stroke:#A80036;stroke-width:1.5;" width="15" x="2191.5" y="132"/><rect fill="#FEFECE" height="2" style="stroke:#A80036;stroke-width:1.5;" width="4" x="2189.5" y="134"/><rect fill="#FEFECE" height="2" style="stroke:#A80036;stroke-width:1.5;" width="4" x="2189.5" y="138"/><text fill="#000000" font-family="sans-serif" font-size="14" lengthAdjust="spacing" textLength="133" x="2053.5" y="159.9951">codebase-operator</text><!--MD5=[7ab71edc47e7406dbd23ff70ecac26a0]
entity control-plane-console--><rect fill="#FEFECE" filter="url(#f13k5gmly90t43)" height="46.2969" style="stroke:#A80036;stroke-width:1.5;" width="191" x="2246.5" y="127"/><rect fill="#FEFECE" height="10" style="stroke:#A80036;stroke-width:1.5;" width="15" x="2417.5" y="132"/><rect fill="#FEFECE" height="2" style="stroke:#A80036;stroke-width:1.5;" width="4" x="2415.5" y="134"/><rect fill="#FEFECE" height="2" style="stroke:#A80036;stroke-width:1.5;" width="4" x="2415.5" y="138"/><text fill="#000000" font-family="sans-serif" font-size="14" lengthAdjust="spacing" textLength="151" x="2261.5" y="159.9951">control-plane-console</text><!--MD5=[8ce1fc628b98ccc6c8fa7f1bd36f9492]
entity control-plane-gerrit--><rect fill="#FEFECE" filter="url(#f13k5gmly90t43)" height="46.2969" style="stroke:#A80036;stroke-width:1.5;" width="172" x="2473" y="127"/><rect fill="#FEFECE" height="10" style="stroke:#A80036;stroke-width:1.5;" width="15" x="2625" y="132"/><rect fill="#FEFECE" height="2" style="stroke:#A80036;stroke-width:1.5;" width="4" x="2623" y="134"/><rect fill="#FEFECE" height="2" style="stroke:#A80036;stroke-width:1.5;" width="4" x="2623" y="138"/><text fill="#000000" font-family="sans-serif" font-size="14" lengthAdjust="spacing" textLength="132" x="2488" y="159.9951">control-plane-gerrit</text><!--MD5=[40fd2f5dec9d24e6e0f7820f078b02fd]
entity control-plane-installer--><rect fill="#FEFECE" filter="url(#f13k5gmly90t43)" height="46.2969" style="stroke:#A80036;stroke-width:1.5;" width="189" x="2040.5" y="233"/><rect fill="#FEFECE" height="10" style="stroke:#A80036;stroke-width:1.5;" width="15" x="2209.5" y="238"/><rect fill="#FEFECE" height="2" style="stroke:#A80036;stroke-width:1.5;" width="4" x="2207.5" y="240"/><rect fill="#FEFECE" height="2" style="stroke:#A80036;stroke-width:1.5;" width="4" x="2207.5" y="244"/><text fill="#000000" font-family="sans-serif" font-size="14" lengthAdjust="spacing" textLength="149" x="2055.5" y="265.9951">control-plane-installer</text><!--MD5=[2782f201b743b4ad404a0c339ec88e52]
entity control-plane-jenkins--><rect fill="#FEFECE" filter="url(#f13k5gmly90t43)" height="46.2969" style="stroke:#A80036;stroke-width:1.5;" width="185" x="2264.5" y="233"/><rect fill="#FEFECE" height="10" style="stroke:#A80036;stroke-width:1.5;" width="15" x="2429.5" y="238"/><rect fill="#FEFECE" height="2" style="stroke:#A80036;stroke-width:1.5;" width="4" x="2427.5" y="240"/><rect fill="#FEFECE" height="2" style="stroke:#A80036;stroke-width:1.5;" width="4" x="2427.5" y="244"/><text fill="#000000" font-family="sans-serif" font-size="14" lengthAdjust="spacing" textLength="145" x="2279.5" y="265.9951">control-plane-jenkins</text><!--MD5=[05755a1a98644c82c93c98234ae1b823]
entity ddm-architecture--><rect fill="#FEFECE" filter="url(#f13k5gmly90t43)" height="46.2969" style="stroke:#A80036;stroke-width:1.5;" width="159" x="2484.5" y="233"/><rect fill="#FEFECE" height="10" style="stroke:#A80036;stroke-width:1.5;" width="15" x="2623.5" y="238"/><rect fill="#FEFECE" height="2" style="stroke:#A80036;stroke-width:1.5;" width="4" x="2621.5" y="240"/><rect fill="#FEFECE" height="2" style="stroke:#A80036;stroke-width:1.5;" width="4" x="2621.5" y="244"/><text fill="#000000" font-family="sans-serif" font-size="14" lengthAdjust="spacing" textLength="119" x="2499.5" y="265.9951">ddm-architecture</text><!--MD5=[4463846ef963e1792b48e1b6a80142e2]
entity infrastructure-jenkins-agent--><rect fill="#FEFECE" filter="url(#f13k5gmly90t43)" height="46.2969" style="stroke:#A80036;stroke-width:1.5;" width="231" x="2037.5" y="339"/><rect fill="#FEFECE" height="10" style="stroke:#A80036;stroke-width:1.5;" width="15" x="2248.5" y="344"/><rect fill="#FEFECE" height="2" style="stroke:#A80036;stroke-width:1.5;" width="4" x="2246.5" y="346"/><rect fill="#FEFECE" height="2" style="stroke:#A80036;stroke-width:1.5;" width="4" x="2246.5" y="350"/><text fill="#000000" font-family="sans-serif" font-size="14" lengthAdjust="spacing" textLength="191" x="2052.5" y="371.9951">infrastructure-jenkins-agent</text><!--MD5=[8f76f4852fcb443c08e28f57ffe3efb6]
entity keycloak-operator--><rect fill="#FEFECE" filter="url(#f13k5gmly90t43)" height="46.2969" style="stroke:#A80036;stroke-width:1.5;" width="164" x="2304" y="339"/><rect fill="#FEFECE" height="10" style="stroke:#A80036;stroke-width:1.5;" width="15" x="2448" y="344"/><rect fill="#FEFECE" height="2" style="stroke:#A80036;stroke-width:1.5;" width="4" x="2446" y="346"/><rect fill="#FEFECE" height="2" style="stroke:#A80036;stroke-width:1.5;" width="4" x="2446" y="350"/><text fill="#000000" font-family="sans-serif" font-size="14" lengthAdjust="spacing" textLength="124" x="2319" y="371.9951">keycloak-operator</text><!--MD5=[2685372b851bb115837ea92701079c1c]
entity backup-management--><rect fill="#FEFECE" filter="url(#f13k5gmly90t43)" height="46.2969" style="stroke:#A80036;stroke-width:1.5;" width="188" x="1149" y="127"/><rect fill="#FEFECE" height="10" style="stroke:#A80036;stroke-width:1.5;" width="15" x="1317" y="132"/><rect fill="#FEFECE" height="2" style="stroke:#A80036;stroke-width:1.5;" width="4" x="1315" y="134"/><rect fill="#FEFECE" height="2" style="stroke:#A80036;stroke-width:1.5;" width="4" x="1315" y="138"/><text fill="#000000" font-family="sans-serif" font-size="14" lengthAdjust="spacing" textLength="148" x="1164" y="159.9951">backup-management</text><!--MD5=[2852d4526889e64c13e50c4c8d818b8f]
entity catalog-source--><rect fill="#FEFECE" filter="url(#f13k5gmly90t43)" height="46.2969" style="stroke:#A80036;stroke-width:1.5;" width="143" x="1372.5" y="127"/><rect fill="#FEFECE" height="10" style="stroke:#A80036;stroke-width:1.5;" width="15" x="1495.5" y="132"/><rect fill="#FEFECE" height="2" style="stroke:#A80036;stroke-width:1.5;" width="4" x="1493.5" y="134"/><rect fill="#FEFECE" height="2" style="stroke:#A80036;stroke-width:1.5;" width="4" x="1493.5" y="138"/><text fill="#000000" font-family="sans-serif" font-size="14" lengthAdjust="spacing" textLength="103" x="1387.5" y="159.9951">catalog-source</text><!--MD5=[eab674141c8181668156dd7ebf1e3e41]
entity control-plane-nexus--><rect fill="#FEFECE" filter="url(#f13k5gmly90t43)" height="46.2969" style="stroke:#A80036;stroke-width:1.5;" width="178" x="1551" y="127"/><rect fill="#FEFECE" height="10" style="stroke:#A80036;stroke-width:1.5;" width="15" x="1709" y="132"/><rect fill="#FEFECE" height="2" style="stroke:#A80036;stroke-width:1.5;" width="4" x="1707" y="134"/><rect fill="#FEFECE" height="2" style="stroke:#A80036;stroke-width:1.5;" width="4" x="1707" y="138"/><text fill="#000000" font-family="sans-serif" font-size="14" lengthAdjust="spacing" textLength="138" x="1566" y="159.9951">control-plane-nexus</text><!--MD5=[aa1cf31102133c93ab4c4cca512a1def]
entity external-integration-mock--><rect fill="#FEFECE" filter="url(#f13k5gmly90t43)" height="46.2969" style="stroke:#A80036;stroke-width:1.5;" width="217" x="1764.5" y="127"/><rect fill="#FEFECE" height="10" style="stroke:#A80036;stroke-width:1.5;" width="15" x="1961.5" y="132"/><rect fill="#FEFECE" height="2" style="stroke:#A80036;stroke-width:1.5;" width="4" x="1959.5" y="134"/><rect fill="#FEFECE" height="2" style="stroke:#A80036;stroke-width:1.5;" width="4" x="1959.5" y="138"/><text fill="#000000" font-family="sans-serif" font-size="14" lengthAdjust="spacing" textLength="177" x="1779.5" y="159.9951">external-integration-mock</text><!--MD5=[78ec013d4728d7c0762b45b773613742]
entity keycloak--><rect fill="#FEFECE" filter="url(#f13k5gmly90t43)" height="46.2969" style="stroke:#A80036;stroke-width:1.5;" width="100" x="1193" y="233"/><rect fill="#FEFECE" height="10" style="stroke:#A80036;stroke-width:1.5;" width="15" x="1273" y="238"/><rect fill="#FEFECE" height="2" style="stroke:#A80036;stroke-width:1.5;" width="4" x="1271" y="240"/><rect fill="#FEFECE" height="2" style="stroke:#A80036;stroke-width:1.5;" width="4" x="1271" y="244"/><text fill="#000000" font-family="sans-serif" font-size="14" lengthAdjust="spacing" textLength="60" x="1208" y="265.9951">keycloak</text><!--MD5=[e3b0e2294a7d8d4f01b56765b435c024]
entity logging--><rect fill="#FEFECE" filter="url(#f13k5gmly90t43)" height="46.2969" style="stroke:#A80036;stroke-width:1.5;" width="91" x="1328.5" y="233"/><rect fill="#FEFECE" height="10" style="stroke:#A80036;stroke-width:1.5;" width="15" x="1399.5" y="238"/><rect fill="#FEFECE" height="2" style="stroke:#A80036;stroke-width:1.5;" width="4" x="1397.5" y="240"/><rect fill="#FEFECE" height="2" style="stroke:#A80036;stroke-width:1.5;" width="4" x="1397.5" y="244"/><text fill="#000000" font-family="sans-serif" font-size="14" lengthAdjust="spacing" textLength="51" x="1343.5" y="265.9951">logging</text><!--MD5=[0899a72d608834086b56170fb6645824]
entity monitoring--><rect fill="#FEFECE" filter="url(#f13k5gmly90t43)" height="46.2969" style="stroke:#A80036;stroke-width:1.5;" width="114" x="1455" y="233"/><rect fill="#FEFECE" height="10" style="stroke:#A80036;stroke-width:1.5;" width="15" x="1549" y="238"/><rect fill="#FEFECE" height="2" style="stroke:#A80036;stroke-width:1.5;" width="4" x="1547" y="240"/><rect fill="#FEFECE" height="2" style="stroke:#A80036;stroke-width:1.5;" width="4" x="1547" y="244"/><text fill="#000000" font-family="sans-serif" font-size="14" lengthAdjust="spacing" textLength="74" x="1470" y="265.9951">monitoring</text><!--MD5=[068b41f9121943e59f1471c2a9e1bc58]
entity service-mesh--><rect fill="#FEFECE" filter="url(#f13k5gmly90t43)" height="46.2969" style="stroke:#A80036;stroke-width:1.5;" width="133" x="1604.5" y="233"/><rect fill="#FEFECE" height="10" style="stroke:#A80036;stroke-width:1.5;" width="15" x="1717.5" y="238"/><rect fill="#FEFECE" height="2" style="stroke:#A80036;stroke-width:1.5;" width="4" x="1715.5" y="240"/><rect fill="#FEFECE" height="2" style="stroke:#A80036;stroke-width:1.5;" width="4" x="1715.5" y="244"/><text fill="#000000" font-family="sans-serif" font-size="14" lengthAdjust="spacing" textLength="93" x="1619.5" y="265.9951">service-mesh</text><!--MD5=[a5a6ae0ba01c8a4589ab26bd33e87aad]
entity storage--><rect fill="#FEFECE" filter="url(#f13k5gmly90t43)" height="46.2969" style="stroke:#A80036;stroke-width:1.5;" width="93" x="1196.5" y="339"/><rect fill="#FEFECE" height="10" style="stroke:#A80036;stroke-width:1.5;" width="15" x="1269.5" y="344"/><rect fill="#FEFECE" height="2" style="stroke:#A80036;stroke-width:1.5;" width="4" x="1267.5" y="346"/><rect fill="#FEFECE" height="2" style="stroke:#A80036;stroke-width:1.5;" width="4" x="1267.5" y="350"/><text fill="#000000" font-family="sans-serif" font-size="14" lengthAdjust="spacing" textLength="53" x="1211.5" y="371.9951">storage</text><!--MD5=[7d367b2eb94c66c91c228444a65e3da3]
entity user-management--><rect fill="#FEFECE" filter="url(#f13k5gmly90t43)" height="46.2969" style="stroke:#A80036;stroke-width:1.5;" width="168" x="1325" y="339"/><rect fill="#FEFECE" height="10" style="stroke:#A80036;stroke-width:1.5;" width="15" x="1473" y="344"/><rect fill="#FEFECE" height="2" style="stroke:#A80036;stroke-width:1.5;" width="4" x="1471" y="346"/><rect fill="#FEFECE" height="2" style="stroke:#A80036;stroke-width:1.5;" width="4" x="1471" y="350"/><text fill="#000000" font-family="sans-serif" font-size="14" lengthAdjust="spacing" textLength="128" x="1340" y="371.9951">user-management</text><!--MD5=[1db234229c7dbd29527ee77b2f596ab6]
entity digital-signature-ops--><rect fill="#FEFECE" filter="url(#f13k5gmly90t43)" height="46.2969" style="stroke:#A80036;stroke-width:1.5;" width="181" x="911.5" y="127"/><rect fill="#FEFECE" height="10" style="stroke:#A80036;stroke-width:1.5;" width="15" x="1072.5" y="132"/><rect fill="#FEFECE" height="2" style="stroke:#A80036;stroke-width:1.5;" width="4" x="1070.5" y="134"/><rect fill="#FEFECE" height="2" style="stroke:#A80036;stroke-width:1.5;" width="4" x="1070.5" y="138"/><text fill="#000000" font-family="sans-serif" font-size="14" lengthAdjust="spacing" textLength="141" x="926.5" y="159.9951">digital-signature-ops</text><!--MD5=[c8fcbe3f742aeb53e681f13c8cac755b]
entity hashicorp-vault--><rect fill="#FEFECE" filter="url(#f13k5gmly90t43)" height="46.2969" style="stroke:#A80036;stroke-width:1.5;" width="145" x="731.5" y="127"/><rect fill="#FEFECE" height="10" style="stroke:#A80036;stroke-width:1.5;" width="15" x="856.5" y="132"/><rect fill="#FEFECE" height="2" style="stroke:#A80036;stroke-width:1.5;" width="4" x="854.5" y="134"/><rect fill="#FEFECE" height="2" style="stroke:#A80036;stroke-width:1.5;" width="4" x="854.5" y="138"/><text fill="#000000" font-family="sans-serif" font-size="14" lengthAdjust="spacing" textLength="105" x="746.5" y="159.9951">hashicorp-vault</text><!--MD5=[dd69d516781b0f0936e849bb07507e10]
entity minio--><rect fill="#FEFECE" filter="url(#f13k5gmly90t43)" height="46.2969" style="stroke:#A80036;stroke-width:1.5;" width="77" x="573.5" y="127"/><rect fill="#FEFECE" height="10" style="stroke:#A80036;stroke-width:1.5;" width="15" x="630.5" y="132"/><rect fill="#FEFECE" height="2" style="stroke:#A80036;stroke-width:1.5;" width="4" x="628.5" y="134"/><rect fill="#FEFECE" height="2" style="stroke:#A80036;stroke-width:1.5;" width="4" x="628.5" y="138"/><text fill="#000000" font-family="sans-serif" font-size="14" lengthAdjust="spacing" textLength="37" x="588.5" y="159.9951">minio</text><!--MD5=[238af37904abd2debf67da0af9788ab4]
entity vault--><rect fill="#FEFECE" filter="url(#f13k5gmly90t43)" height="46.2969" style="stroke:#A80036;stroke-width:1.5;" width="72" x="466" y="127"/><rect fill="#FEFECE" height="10" style="stroke:#A80036;stroke-width:1.5;" width="15" x="518" y="132"/><rect fill="#FEFECE" height="2" style="stroke:#A80036;stroke-width:1.5;" width="4" x="516" y="134"/><rect fill="#FEFECE" height="2" style="stroke:#A80036;stroke-width:1.5;" width="4" x="516" y="138"/><text fill="#000000" font-family="sans-serif" font-size="14" lengthAdjust="spacing" textLength="32" x="481" y="159.9951">vault</text><!--MD5=[bc81e5ecd7f0f4337fbfe90f145ba1f9]
link installer_image to docker_load--><!--MD5=[b674dedf77844923d00cf82c0d69d0c6]
link installer_image to functions--><!--MD5=[9b86edf2c281858207f2ee627e39f9e4]
link functions to install--><!--MD5=[7609c2ccda780369dffeb076c84577cd]
link codebase-operator to control-plane-console--><!--MD5=[8ca5b05f569432ccb96a873fc4a55ca4]
link control-plane-console to control-plane-gerrit--><!--MD5=[2ea041ede3270e41a8560f00d05c8390]
link codebase-operator to control-plane-installer--><!--MD5=[6a8b6d5bf1f312007e9d51475fbfd2ff]
link control-plane-installer to control-plane-jenkins--><!--MD5=[37eaed7c2823749a3821a6a68bcbd2c9]
link control-plane-jenkins to ddm-architecture--><!--MD5=[7513368e23bee314b8958898f8d86768]
link control-plane-installer to infrastructure-jenkins-agent--><!--MD5=[fd07867453cb1e26f7c170308f6b27da]
link infrastructure-jenkins-agent to keycloak-operator--><!--MD5=[fc8a136615e62bdbd8f01d258b006d37]
link backup-management to catalog-source--><!--MD5=[9c442d9d7effeaf1364548e88ac9b4c8]
link catalog-source to control-plane-nexus--><!--MD5=[17d49380982277e8ad259c71553dde70]
link control-plane-nexus to external-integration-mock--><!--MD5=[4b8aef2d7c277bca8084ad3958e6d6d1]
link backup-management to keycloak--><!--MD5=[ebe6f6bd9d2406ab1506f8fe9f79ff8c]
link keycloak to logging--><!--MD5=[f2128305b4170f3a6506301ef1c8b62b]
link logging to monitoring--><!--MD5=[d67540083ed7e01cb2c070cfb78dbe34]
link monitoring to service-mesh--><!--MD5=[f89d95faf45de807dc1a38696f4c4e79]
link keycloak to storage--><!--MD5=[cfe9369632f326f1247389e9b1fb4a28]
link storage to user-management--><!--MD5=[a1c66e2e6ed99cc7ee0323bfadca20a1]
@startuml
package "Інсталятор" as installer {
    package "images" as images {
        [external docker images]
        [registry docker images]
    }
    package "nexus" as nexus {
        [liquibase-ext-schema]
    }
    package "repositories" as repositories {
        package "control-plane" as control-plane {
            [codebase-operator]
            [control-plane-console]
            [control-plane-gerrit]
            [control-plane-installer]
            [control-plane-jenkins]
            [ddm-architecture]
            [infrastructure-jenkins-agent]
            [keycloak-operator]
        }
        package "infra" as infra {
            [backup-management]
            [catalog-source]
            [control-plane-nexus]
            [external-integration-mock]
            [keycloak]
            [logging]
            [monitoring]
            [service-mesh]
            [storage]
            [user-management]
        }
        package "registry" as registry {
            [digital-signature-ops]
            [hashicorp-vault]
            [keycloak-operator]
        }
    }
    package "terraform" as terraform {
        [minio]
        [vault]
    }
    [control-plane-installer.img] as installer_image
    [docker_load.sh] as docker_load
    [functions.sh] as functions
    [install.sh] as install
}
@enduml

PlantUML version 1.2021.7(Sun May 23 12:40:07 UTC 2021)
(GPL source distribution)
Java Runtime: OpenJDK Runtime Environment
JVM: OpenJDK 64-Bit Server VM
Default Encoding: UTF-8
Language: en
Country: null
--></g></svg>