<?xml version="1.0" encoding="UTF-8" standalone="no"?><svg xmlns="http://www.w3.org/2000/svg" xmlns:xlink="http://www.w3.org/1999/xlink" contentScriptType="application/ecmascript" contentStyleType="text/css" height="862px" preserveAspectRatio="none" style="width:1049px;height:862px;background:#FFFFFF;" version="1.1" viewBox="0 0 1049 862" width="1049px" zoomAndPan="magnify"><defs><filter height="300%" id="fal2o446ywidr" width="300%" x="-1" y="-1"><feGaussianBlur result="blurOut" stdDeviation="2.0"/><feColorMatrix in="blurOut" result="blurOut2" type="matrix" values="0 0 0 0 0 0 0 0 0 0 0 0 0 0 0 0 0 0 .4 0"/><feOffset dx="4.0" dy="4.0" in="blurOut2" result="blurOut3"/><feBlend in="SourceGraphic" in2="blurOut3" mode="normal"/></filter></defs><g><rect fill="#FFFFFF" filter="url(#fal2o446ywidr)" height="720.6641" style="stroke:#A80036;stroke-width:1.0;" width="10" x="144.5" y="56.2969"/><rect fill="#FFFFFF" filter="url(#fal2o446ywidr)" height="109.2031" style="stroke:#A80036;stroke-width:1.0;" width="10" x="493.5" y="85.4297"/><rect fill="#FFFFFF" filter="url(#fal2o446ywidr)" height="12" style="stroke:#A80036;stroke-width:1.0;" width="10" x="493.5" y="240.8984"/><rect fill="#FFFFFF" filter="url(#fal2o446ywidr)" height="12" style="stroke:#A80036;stroke-width:1.0;" width="10" x="493.5" y="365.4297"/><rect fill="#FFFFFF" filter="url(#fal2o446ywidr)" height="12" style="stroke:#A80036;stroke-width:1.0;" width="10" x="493.5" y="735.8281"/><rect fill="#FFFFFF" filter="url(#fal2o446ywidr)" height="12" style="stroke:#A80036;stroke-width:1.0;" width="10" x="710" y="438.5"/><rect fill="#FFFFFF" filter="url(#fal2o446ywidr)" height="12" style="stroke:#A80036;stroke-width:1.0;" width="10" x="710" y="562.0313"/><rect fill="#FFFFFF" filter="url(#fal2o446ywidr)" height="12" style="stroke:#A80036;stroke-width:1.0;" width="10" x="887.5" y="496.7656"/><rect fill="#FFFFFF" filter="url(#fal2o446ywidr)" height="12" style="stroke:#A80036;stroke-width:1.0;" width="10" x="993" y="620.2969"/><rect fill="#FFFFFF" filter="url(#fal2o446ywidr)" height="701.6641" style="stroke:#000000;stroke-width:2.0;" width="1032.5" x="3" y="100.4297"/><rect fill="#FFFFFF" height="626.2656" style="stroke:none;stroke-width:1.0;" width="1032.5" x="3" y="175.8281"/><rect fill="#FFFFFF" filter="url(#fal2o446ywidr)" height="206.7344" style="stroke:#000000;stroke-width:2.0;" width="960.5" x="10" y="327.1641"/><rect fill="#FFFFFF" height="131.3359" style="stroke:none;stroke-width:1.0;" width="960.5" x="10" y="402.5625"/><line style="stroke:#A80036;stroke-width:1.0;stroke-dasharray:5.0,5.0;" x1="149" x2="149" y1="40.2969" y2="819.0938"/><line style="stroke:#A80036;stroke-width:1.0;stroke-dasharray:5.0,5.0;" x1="498.5" x2="498.5" y1="40.2969" y2="819.0938"/><line style="stroke:#A80036;stroke-width:1.0;stroke-dasharray:5.0,5.0;" x1="714.5" x2="714.5" y1="40.2969" y2="819.0938"/><line style="stroke:#A80036;stroke-width:1.0;stroke-dasharray:5.0,5.0;" x1="892.5" x2="892.5" y1="40.2969" y2="819.0938"/><line style="stroke:#A80036;stroke-width:1.0;stroke-dasharray:5.0,5.0;" x1="997.5" x2="997.5" y1="40.2969" y2="819.0938"/><rect fill="#FEFECE" filter="url(#fal2o446ywidr)" height="30.2969" style="stroke:#A80036;stroke-width:1.5;" width="255" x="20" y="5"/><text fill="#000000" font-family="sans-serif" font-size="14" lengthAdjust="spacing" textLength="241" x="27" y="24.9951">submission(&lt;activity_id|event_id&gt;)</text><rect fill="#FEFECE" filter="url(#fal2o446ywidr)" height="30.2969" style="stroke:#A80036;stroke-width:1.5;" width="255" x="20" y="818.0938"/><text fill="#000000" font-family="sans-serif" font-size="14" lengthAdjust="spacing" textLength="241" x="27" y="838.0889">submission(&lt;activity_id|event_id&gt;)</text><rect fill="#FEFECE" filter="url(#fal2o446ywidr)" height="30.2969" style="stroke:#A80036;stroke-width:1.5;" width="210" x="391.5" y="5"/><text fill="#000000" font-family="sans-serif" font-size="14" lengthAdjust="spacing" textLength="196" x="398.5" y="24.9951">Camunda Execution Context</text><rect fill="#FEFECE" filter="url(#fal2o446ywidr)" height="30.2969" style="stroke:#A80036;stroke-width:1.5;" width="210" x="391.5" y="818.0938"/><text fill="#000000" font-family="sans-serif" font-size="14" lengthAdjust="spacing" textLength="196" x="398.5" y="838.0889">Camunda Execution Context</text><rect fill="#FEFECE" filter="url(#fal2o446ywidr)" height="30.2969" style="stroke:#A80036;stroke-width:1.5;" width="195" x="615.5" y="5"/><text fill="#000000" font-family="sans-serif" font-size="14" lengthAdjust="spacing" textLength="181" x="622.5" y="24.9951">Spring Application Context</text><rect fill="#FEFECE" filter="url(#fal2o446ywidr)" height="30.2969" style="stroke:#A80036;stroke-width:1.5;" width="195" x="615.5" y="818.0938"/><text fill="#000000" font-family="sans-serif" font-size="14" lengthAdjust="spacing" textLength="181" x="622.5" y="838.0889">Spring Application Context</text><rect fill="#FEFECE" filter="url(#fal2o446ywidr)" height="30.2969" style="stroke:#A80036;stroke-width:1.5;" width="132" x="824.5" y="5"/><text fill="#000000" font-family="sans-serif" font-size="14" lengthAdjust="spacing" textLength="118" x="831.5" y="24.9951">CephKeyProvider</text><rect fill="#FEFECE" filter="url(#fal2o446ywidr)" height="30.2969" style="stroke:#A80036;stroke-width:1.5;" width="132" x="824.5" y="818.0938"/><text fill="#000000" font-family="sans-serif" font-size="14" lengthAdjust="spacing" textLength="118" x="831.5" y="838.0889">CephKeyProvider</text><rect fill="#FEFECE" filter="url(#fal2o446ywidr)" height="30.2969" style="stroke:#A80036;stroke-width:1.5;" width="51" x="970.5" y="5"/><text fill="#000000" font-family="sans-serif" font-size="14" lengthAdjust="spacing" textLength="37" x="977.5" y="24.9951">Ceph</text><rect fill="#FEFECE" filter="url(#fal2o446ywidr)" height="30.2969" style="stroke:#A80036;stroke-width:1.5;" width="51" x="970.5" y="818.0938"/><text fill="#000000" font-family="sans-serif" font-size="14" lengthAdjust="spacing" textLength="37" x="977.5" y="838.0889">Ceph</text><rect fill="#FFFFFF" filter="url(#fal2o446ywidr)" height="720.6641" style="stroke:#A80036;stroke-width:1.0;" width="10" x="144.5" y="56.2969"/><rect fill="#FFFFFF" filter="url(#fal2o446ywidr)" height="109.2031" style="stroke:#A80036;stroke-width:1.0;" width="10" x="493.5" y="85.4297"/><rect fill="#FFFFFF" filter="url(#fal2o446ywidr)" height="12" style="stroke:#A80036;stroke-width:1.0;" width="10" x="493.5" y="240.8984"/><rect fill="#FFFFFF" filter="url(#fal2o446ywidr)" height="12" style="stroke:#A80036;stroke-width:1.0;" width="10" x="493.5" y="365.4297"/><rect fill="#FFFFFF" filter="url(#fal2o446ywidr)" height="12" style="stroke:#A80036;stroke-width:1.0;" width="10" x="493.5" y="735.8281"/><rect fill="#FFFFFF" filter="url(#fal2o446ywidr)" height="12" style="stroke:#A80036;stroke-width:1.0;" width="10" x="710" y="438.5"/><rect fill="#FFFFFF" filter="url(#fal2o446ywidr)" height="12" style="stroke:#A80036;stroke-width:1.0;" width="10" x="710" y="562.0313"/><rect fill="#FFFFFF" filter="url(#fal2o446ywidr)" height="12" style="stroke:#A80036;stroke-width:1.0;" width="10" x="887.5" y="496.7656"/><rect fill="#FFFFFF" filter="url(#fal2o446ywidr)" height="12" style="stroke:#A80036;stroke-width:1.0;" width="10" x="993" y="620.2969"/><polygon fill="#A80036" points="132.5,52.2969,142.5,56.2969,132.5,60.2969,136.5,56.2969" style="stroke:#A80036;stroke-width:1.0;"/><line style="stroke:#A80036;stroke-width:1.0;" x1="0" x2="138.5" y1="56.2969" y2="56.2969"/><polygon fill="#A80036" points="481.5,81.4297,491.5,85.4297,481.5,89.4297,485.5,85.4297" style="stroke:#A80036;stroke-width:1.0;"/><line style="stroke:#A80036;stroke-width:1.0;" x1="154.5" x2="487.5" y1="85.4297" y2="85.4297"/><text fill="#000000" font-family="sans-serif" font-size="13" lengthAdjust="spacing" textLength="301" x="161.5" y="80.3638">Отримати існуючий UserFormDataDto об'єкт</text><path d="M3,100.4297 L67,100.4297 L67,107.4297 L57,117.4297 L3,117.4297 L3,100.4297 " fill="#EEEEEE" style="stroke:#000000;stroke-width:1.0;"/><rect fill="none" height="701.6641" style="stroke:#000000;stroke-width:2.0;" width="1032.5" x="3" y="100.4297"/><text fill="#000000" font-family="sans-serif" font-size="13" font-weight="bold" lengthAdjust="spacing" textLength="19" x="18" y="113.4966">alt</text><text fill="#000000" font-family="sans-serif" font-size="11" font-weight="bold" lengthAdjust="spacing" textLength="235" x="82" y="112.6401">[Об'єкт UserFormDataDto знайдено]</text><polygon fill="#A80036" points="165.5,117.5625,155.5,121.5625,165.5,125.5625,161.5,121.5625" style="stroke:#A80036;stroke-width:1.0;"/><line style="stroke:#A80036;stroke-width:1.0;stroke-dasharray:2.0,2.0;" x1="159.5" x2="492.5" y1="121.5625" y2="121.5625"/><text fill="#000000" font-family="sans-serif" font-size="13" lengthAdjust="spacing" textLength="243" x="171.5" y="134.6294">Знайдений об'єкт UserFormDataDto</text><polygon fill="#A80036" points="11,146.6953,1,150.6953,11,154.6953,7,150.6953" style="stroke:#A80036;stroke-width:1.0;"/><line style="stroke:#A80036;stroke-width:1.0;stroke-dasharray:2.0,2.0;" x1="5" x2="143.5" y1="150.6953" y2="150.6953"/><text fill="#000000" font-family="sans-serif" font-size="13" lengthAdjust="spacing" textLength="117" x="17" y="163.7622">UserFormDataDto</text><line style="stroke:#000000;stroke-width:1.0;stroke-dasharray:2.0,2.0;" x1="3" x2="1035.5" y1="176.8281" y2="176.8281"/><text fill="#000000" font-family="sans-serif" font-size="11" font-weight="bold" lengthAdjust="spacing" textLength="255" x="8" y="187.0386">[Об'єкт UserFormDataDto не знайдено]</text><polygon fill="#A80036" points="165.5,190.6328,155.5,194.6328,165.5,198.6328,161.5,194.6328" style="stroke:#A80036;stroke-width:1.0;"/><line style="stroke:#A80036;stroke-width:1.0;stroke-dasharray:2.0,2.0;" x1="159.5" x2="497.5" y1="194.6328" y2="194.6328"/><text fill="#000000" font-family="sans-serif" font-size="13" lengthAdjust="spacing" textLength="22" x="171.5" y="207.6997">null</text><polygon fill="#A80036" points="481.5,236.8984,491.5,240.8984,481.5,244.8984,485.5,240.8984" style="stroke:#A80036;stroke-width:1.0;"/><line style="stroke:#A80036;stroke-width:1.0;" x1="154.5" x2="487.5" y1="240.8984" y2="240.8984"/><text fill="#000000" font-family="sans-serif" font-size="13" lengthAdjust="spacing" textLength="295" x="161.5" y="235.8325">Отримати ідентифікатор стартової форми</text><polygon fill="#A80036" points="165.5,248.8984,155.5,252.8984,165.5,256.8984,161.5,252.8984" style="stroke:#A80036;stroke-width:1.0;"/><line style="stroke:#A80036;stroke-width:1.0;stroke-dasharray:2.0,2.0;" x1="159.5" x2="497.5" y1="252.8984" y2="252.8984"/><text fill="#000000" font-family="sans-serif" font-size="13" lengthAdjust="spacing" textLength="101" x="171.5" y="265.9653">Ідентифікатор</text><line style="stroke:#A80036;stroke-width:1.0;" x1="154.5" x2="196.5" y1="299.1641" y2="299.1641"/><line style="stroke:#A80036;stroke-width:1.0;" x1="196.5" x2="196.5" y1="299.1641" y2="312.1641"/><line style="stroke:#A80036;stroke-width:1.0;" x1="155.5" x2="196.5" y1="312.1641" y2="312.1641"/><polygon fill="#A80036" points="165.5,308.1641,155.5,312.1641,165.5,316.1641,161.5,312.1641" style="stroke:#A80036;stroke-width:1.0;"/><text fill="#000000" font-family="sans-serif" font-size="13" lengthAdjust="spacing" textLength="277" x="161.5" y="294.0981">Визначити тип елемента бізнес-процесу</text><path d="M10,327.1641 L74,327.1641 L74,334.1641 L64,344.1641 L10,344.1641 L10,327.1641 " fill="#EEEEEE" style="stroke:#000000;stroke-width:1.0;"/><rect fill="none" height="206.7344" style="stroke:#000000;stroke-width:2.0;" width="960.5" x="10" y="327.1641"/><text fill="#000000" font-family="sans-serif" font-size="13" font-weight="bold" lengthAdjust="spacing" textLength="19" x="25" y="340.231">alt</text><text fill="#000000" font-family="sans-serif" font-size="11" font-weight="bold" lengthAdjust="spacing" textLength="184" x="89" y="339.3745">[Елемент - стартова форма]</text><polygon fill="#A80036" points="481.5,361.4297,491.5,365.4297,481.5,369.4297,485.5,365.4297" style="stroke:#A80036;stroke-width:1.0;"/><line style="stroke:#A80036;stroke-width:1.0;" x1="154.5" x2="487.5" y1="365.4297" y2="365.4297"/><text fill="#000000" font-family="sans-serif" font-size="13" lengthAdjust="spacing" textLength="284" x="161.5" y="360.3638">Отримати цеф ключ з відповідної змінної</text><polygon fill="#A80036" points="165.5,373.4297,155.5,377.4297,165.5,381.4297,161.5,377.4297" style="stroke:#A80036;stroke-width:1.0;"/><line style="stroke:#A80036;stroke-width:1.0;stroke-dasharray:2.0,2.0;" x1="159.5" x2="497.5" y1="377.4297" y2="377.4297"/><text fill="#000000" font-family="sans-serif" font-size="13" lengthAdjust="spacing" textLength="68" x="171.5" y="390.4966">Цеф ключ</text><line style="stroke:#000000;stroke-width:1.0;stroke-dasharray:2.0,2.0;" x1="10" x2="970.5" y1="403.5625" y2="403.5625"/><text fill="#000000" font-family="sans-serif" font-size="11" font-weight="bold" lengthAdjust="spacing" textLength="225" x="15" y="413.7729">[Елемент - користувацька задача]</text><polygon fill="#A80036" points="698,434.5,708,438.5,698,442.5,702,438.5" style="stroke:#A80036;stroke-width:1.0;"/><line style="stroke:#A80036;stroke-width:1.0;" x1="154.5" x2="704" y1="438.5" y2="438.5"/><text fill="#000000" font-family="sans-serif" font-size="13" lengthAdjust="spacing" textLength="240" x="161.5" y="433.4341">Отримати бін типу CephKeyProvider</text><polygon fill="#A80036" points="165.5,446.5,155.5,450.5,165.5,454.5,161.5,450.5" style="stroke:#A80036;stroke-width:1.0;"/><line style="stroke:#A80036;stroke-width:1.0;stroke-dasharray:2.0,2.0;" x1="159.5" x2="714" y1="450.5" y2="450.5"/><text fill="#000000" font-family="sans-serif" font-size="13" lengthAdjust="spacing" textLength="168" x="171.5" y="463.5669">Бін типу CephKeyProvider</text><polygon fill="#A80036" points="875.5,492.7656,885.5,496.7656,875.5,500.7656,879.5,496.7656" style="stroke:#A80036;stroke-width:1.0;"/><line style="stroke:#A80036;stroke-width:1.0;" x1="154.5" x2="881.5" y1="496.7656" y2="496.7656"/><text fill="#000000" font-family="sans-serif" font-size="13" lengthAdjust="spacing" textLength="159" x="161.5" y="491.6997">Згенерувати цеф ключ</text><polygon fill="#A80036" points="165.5,504.7656,155.5,508.7656,165.5,512.7656,161.5,508.7656" style="stroke:#A80036;stroke-width:1.0;"/><line style="stroke:#A80036;stroke-width:1.0;stroke-dasharray:2.0,2.0;" x1="159.5" x2="891.5" y1="508.7656" y2="508.7656"/><text fill="#000000" font-family="sans-serif" font-size="13" lengthAdjust="spacing" textLength="167" x="171.5" y="521.8325">Згенерований цеф ключ</text><polygon fill="#A80036" points="698,558.0313,708,562.0313,698,566.0313,702,562.0313" style="stroke:#A80036;stroke-width:1.0;"/><line style="stroke:#A80036;stroke-width:1.0;" x1="154.5" x2="704" y1="562.0313" y2="562.0313"/><text fill="#000000" font-family="sans-serif" font-size="13" lengthAdjust="spacing" textLength="276" x="161.5" y="556.9653">Отримати бін типу FormDataCephService</text><polygon fill="#A80036" points="165.5,570.0313,155.5,574.0313,165.5,578.0313,161.5,574.0313" style="stroke:#A80036;stroke-width:1.0;"/><line style="stroke:#A80036;stroke-width:1.0;stroke-dasharray:2.0,2.0;" x1="159.5" x2="714" y1="574.0313" y2="574.0313"/><text fill="#000000" font-family="sans-serif" font-size="13" lengthAdjust="spacing" textLength="204" x="171.5" y="587.0981">Бін типу FormDataCephService</text><polygon fill="#A80036" points="981,616.2969,991,620.2969,981,624.2969,985,620.2969" style="stroke:#A80036;stroke-width:1.0;"/><line style="stroke:#A80036;stroke-width:1.0;" x1="154.5" x2="987" y1="620.2969" y2="620.2969"/><text fill="#000000" font-family="sans-serif" font-size="13" lengthAdjust="spacing" textLength="554" x="161.5" y="615.231">Отримати цеф документ, який містить дані форми з цефу за отриманим ключем</text><polygon fill="#A80036" points="165.5,628.2969,155.5,632.2969,165.5,636.2969,161.5,632.2969" style="stroke:#A80036;stroke-width:1.0;"/><line style="stroke:#A80036;stroke-width:1.0;stroke-dasharray:2.0,2.0;" x1="159.5" x2="997" y1="632.2969" y2="632.2969"/><text fill="#000000" font-family="sans-serif" font-size="13" lengthAdjust="spacing" textLength="278" x="171.5" y="645.3638">Цеф документ, який містить дані форми</text><line style="stroke:#A80036;stroke-width:1.0;" x1="154.5" x2="196.5" y1="678.5625" y2="678.5625"/><line style="stroke:#A80036;stroke-width:1.0;" x1="196.5" x2="196.5" y1="678.5625" y2="691.5625"/><line style="stroke:#A80036;stroke-width:1.0;" x1="155.5" x2="196.5" y1="691.5625" y2="691.5625"/><polygon fill="#A80036" points="165.5,687.5625,155.5,691.5625,165.5,695.5625,161.5,691.5625" style="stroke:#A80036;stroke-width:1.0;"/><text fill="#000000" font-family="sans-serif" font-size="13" lengthAdjust="spacing" textLength="272" x="161.5" y="673.4966">Отримати дані форми з цеф документа</text><polygon fill="#A80036" points="481.5,731.8281,491.5,735.8281,481.5,739.8281,485.5,735.8281" style="stroke:#A80036;stroke-width:1.0;"/><line style="stroke:#A80036;stroke-width:1.0;" x1="154.5" x2="487.5" y1="735.8281" y2="735.8281"/><text fill="#000000" font-family="sans-serif" font-size="13" lengthAdjust="spacing" textLength="316" x="161.5" y="715.6294">Зберегти UserFormDataDto об'єкт у контексті</text><text fill="#000000" font-family="sans-serif" font-size="13" lengthAdjust="spacing" textLength="166" x="161.5" y="730.7622">у якості transient змінної</text><polygon fill="#A80036" points="165.5,743.8281,155.5,747.8281,165.5,751.8281,161.5,747.8281" style="stroke:#A80036;stroke-width:1.0;"/><line style="stroke:#A80036;stroke-width:1.0;stroke-dasharray:2.0,2.0;" x1="159.5" x2="497.5" y1="747.8281" y2="747.8281"/><text fill="#000000" font-family="sans-serif" font-size="13" lengthAdjust="spacing" textLength="77" x="171.5" y="760.895">Збережено</text><polygon fill="#A80036" points="11,772.9609,1,776.9609,11,780.9609,7,776.9609" style="stroke:#A80036;stroke-width:1.0;"/><line style="stroke:#A80036;stroke-width:1.0;stroke-dasharray:2.0,2.0;" x1="5" x2="148.5" y1="776.9609" y2="776.9609"/><text fill="#000000" font-family="sans-serif" font-size="13" lengthAdjust="spacing" textLength="117" x="17" y="790.0278">UserFormDataDto</text><!--MD5=[01677477de68f09f60bba1c5e1dc2b0f]
@startuml
skinparam responseMessageBelowArrow true

  participant "submission(<activity_id|event_id>)" as submission order 10
  participant "Camunda Execution Context" as camunda order 20
  participant "Spring Application Context" as spring order 30
  participant "CephKeyProvider" as ceph_key_provider order 40
  participant "Ceph" as ceph order 50

  -> submission
  activate submission

  submission -> camunda : Отримати існуючий UserFormDataDto об'єкт
  activate camunda

  alt Об'єкт UserFormDataDto знайдено
    submission <- - camunda : Знайдений об'єкт UserFormDataDto
    <- - submission : UserFormDataDto

  else Об'єкт UserFormDataDto не знайдено
    submission <- - camunda : null
    deactivate camunda

    submission -> camunda : Отримати ідентифікатор стартової форми
      activate camunda
      submission <- - camunda : Ідентифікатор
      deactivate camunda

    submission -> submission : Визначити тип елемента бізнес-процесу
    alt Елемент - стартова форма
      submission -> camunda : Отримати цеф ключ з відповідної змінної
      activate camunda
      submission <- - camunda : Цеф ключ
      deactivate camunda
    else Елемент - користувацька задача
      submission -> spring : Отримати бін типу CephKeyProvider
      activate spring
      submission <- - spring : Бін типу CephKeyProvider
      deactivate spring

      submission -> ceph_key_provider : Згенерувати цеф ключ
      activate ceph_key_provider
      submission <- - ceph_key_provider : Згенерований цеф ключ
      deactivate ceph_key_provider
    end

    submission -> spring : Отримати бін типу FormDataCephService
      activate spring
      submission <- - spring : Бін типу FormDataCephService
      deactivate spring

    submission -> ceph : Отримати цеф документ, який містить дані форми з цефу за отриманим ключем
      activate ceph
      submission <- - ceph : Цеф документ, який містить дані форми
      deactivate ceph

    submission -> submission : Отримати дані форми з цеф документа

    submission -> camunda : Зберегти UserFormDataDto об'єкт у контексті \nу якості transient змінної
      activate camunda
      submission <- - camunda : Збережено
      deactivate camunda

      <- - submission : UserFormDataDto
      deactivate submission
  end
@enduml

PlantUML version 1.2021.7(Sun May 23 12:40:07 UTC 2021)
(GPL source distribution)
Java Runtime: OpenJDK Runtime Environment
JVM: OpenJDK 64-Bit Server VM
Default Encoding: UTF-8
Language: en
Country: null
--></g></svg>