<?xml version="1.0" encoding="UTF-8" standalone="no"?><svg xmlns="http://www.w3.org/2000/svg" xmlns:xlink="http://www.w3.org/1999/xlink" contentScriptType="application/ecmascript" contentStyleType="text/css" height="322px" preserveAspectRatio="none" style="width:725px;height:322px;background:#FFFFFF;" version="1.1" viewBox="0 0 725 322" width="725px" zoomAndPan="magnify"><defs><filter height="300%" id="fzyglet7chmtf" width="300%" x="-1" y="-1"><feGaussianBlur result="blurOut" stdDeviation="2.0"/><feColorMatrix in="blurOut" result="blurOut2" type="matrix" values="0 0 0 0 0 0 0 0 0 0 0 0 0 0 0 0 0 0 .4 0"/><feOffset dx="4.0" dy="4.0" in="blurOut2" result="blurOut3"/><feBlend in="SourceGraphic" in2="blurOut3" mode="normal"/></filter></defs><g><!--MD5=[1e460e09f145690d74e315b05007a75a]
cluster el--><polygon fill="#FFFFFF" filter="url(#fzyglet7chmtf)" points="16,6,36,6,43,28.2969,708,28.2969,708,315,16,315,16,6" style="stroke:#000000;stroke-width:1.5;"/><line style="stroke:#000000;stroke-width:1.5;" x1="16" x2="43" y1="28.2969" y2="28.2969"/><text fill="#000000" font-family="sans-serif" font-size="14" font-weight="bold" lengthAdjust="spacing" textLength="14" x="20" y="20.9951">el</text><!--MD5=[fbefe79c2615ead6467110c697f20e43]
cluster juel--><polygon fill="#FFFFFF" filter="url(#fzyglet7chmtf)" points="40,49,74,49,81,71.2969,440,71.2969,440,291,40,291,40,49" style="stroke:#000000;stroke-width:1.5;"/><line style="stroke:#000000;stroke-width:1.5;" x1="40" x2="81" y1="71.2969" y2="71.2969"/><text fill="#000000" font-family="sans-serif" font-size="14" font-weight="bold" lengthAdjust="spacing" textLength="28" x="44" y="63.9951">juel</text><!--MD5=[e6eced616a98d47334dd1aaaa829ffd5]
cluster dto--><polygon fill="#FFFFFF" filter="url(#fzyglet7chmtf)" points="490,179,522,179,529,201.2969,684,201.2969,684,291,490,291,490,179" style="stroke:#000000;stroke-width:1.5;"/><line style="stroke:#000000;stroke-width:1.5;" x1="490" x2="529" y1="201.2969" y2="201.2969"/><text fill="#000000" font-family="sans-serif" font-size="14" font-weight="bold" lengthAdjust="spacing" textLength="26" x="494" y="193.9951">dto</text><!--MD5=[58757dcc332247ef909ad8857cd4165d]
class AbstractApplicationContextAwareJuelFunction--><rect codeLine="3" fill="#FEFECE" filter="url(#fzyglet7chmtf)" height="48" id="AbstractApplicationContextAwareJuelFunction" style="stroke:#A80036;stroke-width:1.5;" width="316" x="95" y="84"/><ellipse cx="110" cy="100" fill="#A9DCDF" rx="11" ry="11" style="stroke:#A80036;stroke-width:1.0;"/><path d="M110.1094,95.3438 L108.9531,100.4219 L111.2813,100.4219 L110.1094,95.3438 Z M108.625,93.1094 L111.6094,93.1094 L114.9688,105.5 L112.5156,105.5 L111.75,102.4375 L108.4688,102.4375 L107.7188,105.5 L105.2813,105.5 L108.625,93.1094 Z " fill="#000000"/><text fill="#000000" font-family="sans-serif" font-size="12" font-style="italic" lengthAdjust="spacing" textLength="284" x="124" y="104.1543">AbstractApplicationContextAwareJuelFunction</text><line style="stroke:#A80036;stroke-width:1.5;" x1="96" x2="410" y1="116" y2="116"/><line style="stroke:#A80036;stroke-width:1.5;" x1="96" x2="410" y1="124" y2="124"/><!--MD5=[3563d50ca74911b29758c37317eafee9]
class SubmissionJuelFunction--><rect codeLine="4" fill="#ADD8E6" filter="url(#fzyglet7chmtf)" height="60.8047" id="SubmissionJuelFunction" style="stroke:#008000;stroke-width:1.5;" width="367" x="56.5" y="214"/><ellipse cx="162.25" cy="230" fill="#ADD1B2" rx="11" ry="11" style="stroke:#008000;stroke-width:1.0;"/><path d="M165.2188,235.6406 Q164.6406,235.9375 164,236.0781 Q163.3594,236.2344 162.6563,236.2344 Q160.1563,236.2344 158.8281,234.5938 Q157.5156,232.9375 157.5156,229.8125 Q157.5156,226.6875 158.8281,225.0313 Q160.1563,223.375 162.6563,223.375 Q163.3594,223.375 164,223.5313 Q164.6563,223.6875 165.2188,223.9844 L165.2188,226.7031 Q164.5938,226.125 164,225.8594 Q163.4063,225.5781 162.7813,225.5781 Q161.4375,225.5781 160.75,226.6563 Q160.0625,227.7188 160.0625,229.8125 Q160.0625,231.9063 160.75,232.9844 Q161.4375,234.0469 162.7813,234.0469 Q163.4063,234.0469 164,233.7813 Q164.5938,233.5 165.2188,232.9219 L165.2188,235.6406 Z " fill="#000000"/><text fill="#000000" font-family="sans-serif" font-size="12" lengthAdjust="spacing" textLength="147" x="182.75" y="234.1543">SubmissionJuelFunction</text><line style="stroke:#008000;stroke-width:1.5;" x1="57.5" x2="422.5" y1="246" y2="246"/><line style="stroke:#008000;stroke-width:1.5;" x1="57.5" x2="422.5" y1="254" y2="254"/><ellipse cx="67.5" cy="265" fill="#84BE84" rx="3" ry="3" style="stroke:#038048;stroke-width:1.0;"/><text fill="#000000" font-family="sans-serif" font-size="11" lengthAdjust="spacing" text-decoration="underline" textLength="341" x="76.5" y="268.2104">UserFormDataDto submission(String &lt;activity_id|event_id&gt;)</text><!--MD5=[944ebaa3e2ce602b713316732146c944]
class UserFormDataDto--><rect codeLine="9" fill="#ADD8E6" filter="url(#fzyglet7chmtf)" height="60.8047" id="UserFormDataDto" style="stroke:#008000;stroke-width:1.5;" width="161" x="506.5" y="214"/><ellipse cx="529.15" cy="230" fill="#ADD1B2" rx="11" ry="11" style="stroke:#008000;stroke-width:1.0;"/><path d="M532.1188,235.6406 Q531.5406,235.9375 530.9,236.0781 Q530.2594,236.2344 529.5563,236.2344 Q527.0563,236.2344 525.7281,234.5938 Q524.4156,232.9375 524.4156,229.8125 Q524.4156,226.6875 525.7281,225.0313 Q527.0563,223.375 529.5563,223.375 Q530.2594,223.375 530.9,223.5313 Q531.5563,223.6875 532.1188,223.9844 L532.1188,226.7031 Q531.4938,226.125 530.9,225.8594 Q530.3063,225.5781 529.6813,225.5781 Q528.3375,225.5781 527.65,226.6563 Q526.9625,227.7188 526.9625,229.8125 Q526.9625,231.9063 527.65,232.9844 Q528.3375,234.0469 529.6813,234.0469 Q530.3063,234.0469 530.9,233.7813 Q531.4938,233.5 532.1188,232.9219 L532.1188,235.6406 Z " fill="#000000"/><text fill="#000000" font-family="sans-serif" font-size="12" lengthAdjust="spacing" textLength="112" x="544.85" y="234.1543">UserFormDataDto</text><line style="stroke:#008000;stroke-width:1.5;" x1="507.5" x2="666.5" y1="246" y2="246"/><rect fill="none" height="6" style="stroke:#C82930;stroke-width:1.0;" width="6" x="514.5" y="254"/><text fill="#000000" font-family="sans-serif" font-size="11" lengthAdjust="spacing" textLength="135" x="526.5" y="260.2104">SpinJsonNode formData</text><line style="stroke:#008000;stroke-width:1.5;" x1="507.5" x2="666.5" y1="266.8047" y2="266.8047"/><!--MD5=[cf9f15c0e4640b0469e6ced124147305]
reverse link AbstractApplicationContextAwareJuelFunction to SubmissionJuelFunction--><path d="M248.83,152.18 C246.89,172.22 244.63,195.55 242.89,213.62 " fill="none" id="AbstractApplicationContextAwareJuelFunction-backto-SubmissionJuelFunction" style="stroke:#A80036;stroke-width:1.0;"/><polygon fill="none" points="241.87,151.36,250.77,132.12,255.81,152.7,241.87,151.36" style="stroke:#A80036;stroke-width:1.0;"/><!--MD5=[a366b071489ccc138dec14351c431572]
link AbstractApplicationContextAwareJuelFunction to UserFormDataDto--><!--MD5=[38070b346d448a66f258d9f522ed8d56]
link SubmissionJuelFunction to UserFormDataDto--><path codeLine="14" d="M423.66,244.5 C450.68,244.5 477.36,244.5 501.09,244.5 " fill="none" id="SubmissionJuelFunction-to-UserFormDataDto" style="stroke:#A80036;stroke-width:1.0;stroke-dasharray:7.0,7.0;"/><polygon fill="#A80036" points="506.1,244.5,497.1,240.5,501.1,244.5,497.1,248.5,506.1,244.5" style="stroke:#A80036;stroke-width:1.0;"/><text fill="#000000" font-family="sans-serif" font-size="13" lengthAdjust="spacing" textLength="46" x="442" y="237.5669">returns</text><!--MD5=[4c01605957dba5c0219b75a91e3b4045]
@startuml
package el {
  package juel {
    abstract class AbstractApplicationContextAwareJuelFunction
    class SubmissionJuelFunction #back:lightblue;line:green;text:black extends AbstractApplicationContextAwareJuelFunction {
      + {static} UserFormDataDto submission(String <activity_id|event_id>)
    }
  }
  package dto {
    class UserFormDataDto #back:lightblue;line:green;text:black {
      - SpinJsonNode formData
    }
  }
  AbstractApplicationContextAwareJuelFunction ..[hidden]> UserFormDataDto
  SubmissionJuelFunction .> UserFormDataDto : returns
}
@enduml

PlantUML version 1.2021.7(Sun May 23 12:40:07 UTC 2021)
(GPL source distribution)
Java Runtime: OpenJDK Runtime Environment
JVM: OpenJDK 64-Bit Server VM
Default Encoding: UTF-8
Language: en
Country: null
--></g></svg>