<?xml version="1.0" encoding="UTF-8" standalone="no"?><svg xmlns="http://www.w3.org/2000/svg" xmlns:xlink="http://www.w3.org/1999/xlink" contentScriptType="application/ecmascript" contentStyleType="text/css" height="405px" preserveAspectRatio="none" style="width:1479px;height:405px;background:#FFFFFF;" version="1.1" viewBox="0 0 1479 405" width="1479px" zoomAndPan="magnify"><defs><filter height="300%" id="fo531z2k3rryq" width="300%" x="-1" y="-1"><feGaussianBlur result="blurOut" stdDeviation="2.0"/><feColorMatrix in="blurOut" result="blurOut2" type="matrix" values="0 0 0 0 0 0 0 0 0 0 0 0 0 0 0 0 0 0 .4 0"/><feOffset dx="4.0" dy="4.0" in="blurOut2" result="blurOut3"/><feBlend in="SourceGraphic" in2="blurOut3" mode="normal"/></filter></defs><g><!--MD5=[a606d3ee136a6aec9479e1ecef9506a2]
class SpringProcessEngineConfiguration--><rect codeLine="1" fill="#FEFECE" filter="url(#fo531z2k3rryq)" height="60.8047" id="SpringProcessEngineConfiguration" style="stroke:#A80036;stroke-width:1.5;" width="249" x="263.5" y="13.5"/><ellipse cx="278.5" cy="29.5" fill="#ADD1B2" rx="11" ry="11" style="stroke:#A80036;stroke-width:1.0;"/><path d="M281.4688,35.1406 Q280.8906,35.4375 280.25,35.5781 Q279.6094,35.7344 278.9063,35.7344 Q276.4063,35.7344 275.0781,34.0938 Q273.7656,32.4375 273.7656,29.3125 Q273.7656,26.1875 275.0781,24.5313 Q276.4063,22.875 278.9063,22.875 Q279.6094,22.875 280.25,23.0313 Q280.9063,23.1875 281.4688,23.4844 L281.4688,26.2031 Q280.8438,25.625 280.25,25.3594 Q279.6563,25.0781 279.0313,25.0781 Q277.6875,25.0781 277,26.1563 Q276.3125,27.2188 276.3125,29.3125 Q276.3125,31.4063 277,32.4844 Q277.6875,33.5469 279.0313,33.5469 Q279.6563,33.5469 280.25,33.2813 Q280.8438,33 281.4688,32.4219 L281.4688,35.1406 Z " fill="#000000"/><text fill="#000000" font-family="sans-serif" font-size="12" lengthAdjust="spacing" textLength="217" x="292.5" y="33.6543">SpringProcessEngineConfiguration</text><line style="stroke:#A80036;stroke-width:1.5;" x1="264.5" x2="511.5" y1="45.5" y2="45.5"/><text fill="#000000" font-family="sans-serif" font-size="11" lengthAdjust="spacing" textLength="139" x="269.5" y="59.7104">TaskService taskService</text><line style="stroke:#A80036;stroke-width:1.5;" x1="264.5" x2="511.5" y1="66.3047" y2="66.3047"/><!--MD5=[c4af4f728bb4d15cfe60fa28abf53741]
class LowcodeSpringProcessEngineConfiguration--><rect codeLine="5" fill="#ADD8E6" filter="url(#fo531z2k3rryq)" height="48" id="LowcodeSpringProcessEngineConfiguration" style="stroke:#008000;stroke-width:1.5;" width="303" x="180.5" y="142"/><ellipse cx="195.5" cy="158" fill="#ADD1B2" rx="11" ry="11" style="stroke:#008000;stroke-width:1.0;"/><path d="M198.4688,163.6406 Q197.8906,163.9375 197.25,164.0781 Q196.6094,164.2344 195.9063,164.2344 Q193.4063,164.2344 192.0781,162.5938 Q190.7656,160.9375 190.7656,157.8125 Q190.7656,154.6875 192.0781,153.0313 Q193.4063,151.375 195.9063,151.375 Q196.6094,151.375 197.25,151.5313 Q197.9063,151.6875 198.4688,151.9844 L198.4688,154.7031 Q197.8438,154.125 197.25,153.8594 Q196.6563,153.5781 196.0313,153.5781 Q194.6875,153.5781 194,154.6563 Q193.3125,155.7188 193.3125,157.8125 Q193.3125,159.9063 194,160.9844 Q194.6875,162.0469 196.0313,162.0469 Q196.6563,162.0469 197.25,161.7813 Q197.8438,161.5 198.4688,160.9219 L198.4688,163.6406 Z " fill="#000000"/><text fill="#000000" font-family="sans-serif" font-size="12" lengthAdjust="spacing" textLength="271" x="209.5" y="162.1543">LowcodeSpringProcessEngineConfiguration</text><line style="stroke:#008000;stroke-width:1.5;" x1="181.5" x2="482.5" y1="174" y2="174"/><line style="stroke:#008000;stroke-width:1.5;" x1="181.5" x2="482.5" y1="182" y2="182"/><!--MD5=[c540c67f3331199980480cc19974907f]
class TaskService--><rect codeLine="7" fill="#FEFECE" filter="url(#fo531z2k3rryq)" height="73.6094" id="TaskService" style="stroke:#A80036;stroke-width:1.5;" width="222" x="557" y="7"/><ellipse cx="626.75" cy="23" fill="#B4A7E5" rx="11" ry="11" style="stroke:#A80036;stroke-width:1.0;"/><path d="M622.6719,18.7656 L622.6719,16.6094 L630.0625,16.6094 L630.0625,18.7656 L627.5938,18.7656 L627.5938,26.8438 L630.0625,26.8438 L630.0625,29 L622.6719,29 L622.6719,26.8438 L625.1406,26.8438 L625.1406,18.7656 L622.6719,18.7656 Z " fill="#000000"/><text fill="#000000" font-family="sans-serif" font-size="12" font-style="italic" lengthAdjust="spacing" textLength="74" x="647.25" y="27.1543">TaskService</text><line style="stroke:#A80036;stroke-width:1.5;" x1="558" x2="778" y1="39" y2="39"/><line style="stroke:#A80036;stroke-width:1.5;" x1="558" x2="778" y1="47" y2="47"/><text fill="#000000" font-family="sans-serif" font-size="11" lengthAdjust="spacing" textLength="87" x="563" y="61.2104">void complete()</text><text fill="#000000" font-family="sans-serif" font-size="11" lengthAdjust="spacing" textLength="210" x="563" y="74.0151">void completeWithVariablesInReturn()</text><!--MD5=[7b9447bb545d7ddf3aaafdb6a9b25a04]
class TaskServiceImpl--><rect codeLine="12" fill="#FEFECE" filter="url(#fo531z2k3rryq)" height="48" id="TaskServiceImpl" style="stroke:#A80036;stroke-width:1.5;" width="131" x="609.5" y="142"/><ellipse cx="624.5" cy="158" fill="#ADD1B2" rx="11" ry="11" style="stroke:#A80036;stroke-width:1.0;"/><path d="M627.4688,163.6406 Q626.8906,163.9375 626.25,164.0781 Q625.6094,164.2344 624.9063,164.2344 Q622.4063,164.2344 621.0781,162.5938 Q619.7656,160.9375 619.7656,157.8125 Q619.7656,154.6875 621.0781,153.0313 Q622.4063,151.375 624.9063,151.375 Q625.6094,151.375 626.25,151.5313 Q626.9063,151.6875 627.4688,151.9844 L627.4688,154.7031 Q626.8438,154.125 626.25,153.8594 Q625.6563,153.5781 625.0313,153.5781 Q623.6875,153.5781 623,154.6563 Q622.3125,155.7188 622.3125,157.8125 Q622.3125,159.9063 623,160.9844 Q623.6875,162.0469 625.0313,162.0469 Q625.6563,162.0469 626.25,161.7813 Q626.8438,161.5 627.4688,160.9219 L627.4688,163.6406 Z " fill="#000000"/><text fill="#000000" font-family="sans-serif" font-size="12" lengthAdjust="spacing" textLength="99" x="638.5" y="162.1543">TaskServiceImpl</text><line style="stroke:#A80036;stroke-width:1.5;" x1="610.5" x2="739.5" y1="174" y2="174"/><line style="stroke:#A80036;stroke-width:1.5;" x1="610.5" x2="739.5" y1="182" y2="182"/><!--MD5=[f8d45e8c43ea4c58b929d01a3e4914ab]
class SynchronizedTaskServiceImpl--><rect codeLine="14" fill="#ADD8E6" filter="url(#fo531z2k3rryq)" height="86.4141" id="SynchronizedTaskServiceImpl" style="stroke:#008000;stroke-width:1.5;" width="277" x="539.5" y="286.5"/><ellipse cx="583.3" cy="302.5" fill="#ADD1B2" rx="11" ry="11" style="stroke:#008000;stroke-width:1.0;"/><path d="M586.2688,308.1406 Q585.6906,308.4375 585.05,308.5781 Q584.4094,308.7344 583.7063,308.7344 Q581.2063,308.7344 579.8781,307.0938 Q578.5656,305.4375 578.5656,302.3125 Q578.5656,299.1875 579.8781,297.5313 Q581.2063,295.875 583.7063,295.875 Q584.4094,295.875 585.05,296.0313 Q585.7063,296.1875 586.2688,296.4844 L586.2688,299.2031 Q585.6438,298.625 585.05,298.3594 Q584.4563,298.0781 583.8313,298.0781 Q582.4875,298.0781 581.8,299.1563 Q581.1125,300.2188 581.1125,302.3125 Q581.1125,304.4063 581.8,305.4844 Q582.4875,306.5469 583.8313,306.5469 Q584.4563,306.5469 585.05,306.2813 Q585.6438,306 586.2688,305.4219 L586.2688,308.1406 Z " fill="#000000"/><text fill="#000000" font-family="sans-serif" font-size="12" lengthAdjust="spacing" textLength="181" x="603.7" y="306.6543">SynchronizedTaskServiceImpl</text><line style="stroke:#008000;stroke-width:1.5;" x1="540.5" x2="815.5" y1="318.5" y2="318.5"/><text fill="#000000" font-family="sans-serif" font-size="11" lengthAdjust="spacing" textLength="265" x="545.5" y="332.7104">SynchronizationService synchronizationService</text><line style="stroke:#008000;stroke-width:1.5;" x1="540.5" x2="815.5" y1="339.3047" y2="339.3047"/><text fill="#000000" font-family="sans-serif" font-size="11" lengthAdjust="spacing" textLength="87" x="545.5" y="353.5151">void complete()</text><text fill="#000000" font-family="sans-serif" font-size="11" lengthAdjust="spacing" textLength="210" x="545.5" y="366.3198">void completeWithVariablesInReturn()</text><!--MD5=[c643cfe0475ed80b0a9ea4347589a617]
class SynchronizationService--><rect codeLine="20" fill="#ADD8E6" filter="url(#fo531z2k3rryq)" height="124.8281" id="SynchronizationService" style="stroke:#008000;stroke-width:1.5;" width="614" x="851" y="267"/><ellipse cx="1082.25" cy="283" fill="#ADD1B2" rx="11" ry="11" style="stroke:#008000;stroke-width:1.0;"/><path d="M1085.2188,288.6406 Q1084.6406,288.9375 1084,289.0781 Q1083.3594,289.2344 1082.6563,289.2344 Q1080.1563,289.2344 1078.8281,287.5938 Q1077.5156,285.9375 1077.5156,282.8125 Q1077.5156,279.6875 1078.8281,278.0313 Q1080.1563,276.375 1082.6563,276.375 Q1083.3594,276.375 1084,276.5313 Q1084.6563,276.6875 1085.2188,276.9844 L1085.2188,279.7031 Q1084.5938,279.125 1084,278.8594 Q1083.4063,278.5781 1082.7813,278.5781 Q1081.4375,278.5781 1080.75,279.6563 Q1080.0625,280.7188 1080.0625,282.8125 Q1080.0625,284.9063 1080.75,285.9844 Q1081.4375,287.0469 1082.7813,287.0469 Q1083.4063,287.0469 1084,286.7813 Q1084.5938,286.5 1085.2188,285.9219 L1085.2188,288.6406 Z " fill="#000000"/><text fill="#000000" font-family="sans-serif" font-size="12" lengthAdjust="spacing" textLength="143" x="1102.75" y="287.1543">SynchronizationService</text><line style="stroke:#008000;stroke-width:1.5;" x1="852" x2="1464" y1="299" y2="299"/><text fill="#000000" font-family="sans-serif" font-size="11" lengthAdjust="spacing" textLength="238" x="857" y="313.2104">Cache&lt;Object, ReentrantLock&gt; lockCache</text><line style="stroke:#008000;stroke-width:1.5;" x1="852" x2="1464" y1="319.8047" y2="319.8047"/><text fill="#000000" font-family="sans-serif" font-size="11" lengthAdjust="spacing" textLength="194" x="857" y="334.0151">ReentrantLock getLock(Object key)</text><text fill="#000000" font-family="sans-serif" font-size="11" lengthAdjust="spacing" textLength="252" x="857" y="346.8198">void execute(Object key, Runnable runnable)</text><text fill="#000000" font-family="sans-serif" font-size="11" lengthAdjust="spacing" textLength="256" x="857" y="359.6245">R evaluate(Object key, Supplier&lt;R&gt; supplier)</text><text fill="#000000" font-family="sans-serif" font-size="11" lengthAdjust="spacing" textLength="598" x="857" y="372.4292">void executeOrThrow(Object key, Runnable runnable, Supplier&lt;T extends Throwable&gt; exceptionSupplier)</text><text fill="#000000" font-family="sans-serif" font-size="11" lengthAdjust="spacing" textLength="602" x="857" y="385.2339">R evaluateOrThrow(Object key, Supplier&lt;R&gt; supplier, Supplier&lt;T extends Throwable&gt; exceptionSupplier)</text><!--MD5=[fd8edb5619baaaa475b9e5076d1376a3]
class CamundaConfiguration--><rect codeLine="30" fill="#ADD8E6" filter="url(#fo531z2k3rryq)" height="60.8047" id="CamundaConfiguration" style="stroke:#008000;stroke-width:1.5;" width="204" x="7" y="299"/><ellipse cx="35.05" cy="315" fill="#ADD1B2" rx="11" ry="11" style="stroke:#008000;stroke-width:1.0;"/><path d="M38.0188,320.6406 Q37.4406,320.9375 36.8,321.0781 Q36.1594,321.2344 35.4563,321.2344 Q32.9563,321.2344 31.6281,319.5938 Q30.3156,317.9375 30.3156,314.8125 Q30.3156,311.6875 31.6281,310.0313 Q32.9563,308.375 35.4563,308.375 Q36.1594,308.375 36.8,308.5313 Q37.4563,308.6875 38.0188,308.9844 L38.0188,311.7031 Q37.3938,311.125 36.8,310.8594 Q36.2063,310.5781 35.5813,310.5781 Q34.2375,310.5781 33.55,311.6563 Q32.8625,312.7188 32.8625,314.8125 Q32.8625,316.9063 33.55,317.9844 Q34.2375,319.0469 35.5813,319.0469 Q36.2063,319.0469 36.8,318.7813 Q37.3938,318.5 38.0188,317.9219 L38.0188,320.6406 Z " fill="#000000"/><text fill="#000000" font-family="sans-serif" font-size="12" lengthAdjust="spacing" textLength="143" x="51.95" y="319.1543">CamundaConfiguration</text><line style="stroke:#008000;stroke-width:1.5;" x1="8" x2="210" y1="331" y2="331"/><line style="stroke:#008000;stroke-width:1.5;" x1="8" x2="210" y1="339" y2="339"/><text fill="#000000" font-family="sans-serif" font-size="11" lengthAdjust="spacing" textLength="192" x="13" y="353.2104">processEngineConfigurationImpl()</text><!--MD5=[44482a6bd75c016f3cf60b25ecc51a1c]
reverse link SpringProcessEngineConfiguration to LowcodeSpringProcessEngineConfiguration--><path d="M365.7,92.79 C357.84,109.62 349.37,127.79 342.88,141.69 " fill="none" id="SpringProcessEngineConfiguration-backto-LowcodeSpringProcessEngineConfiguration" style="stroke:#A80036;stroke-width:1.0;"/><polygon fill="none" points="359.36,89.83,374.16,74.66,372.04,95.75,359.36,89.83" style="stroke:#A80036;stroke-width:1.0;"/><!--MD5=[06558b381d1da7b16e0360b15e57525b]
reverse link TaskService to TaskServiceImpl--><path d="M671.29,101.4 C672.12,115.71 672.98,130.3 673.65,141.89 " fill="none" id="TaskService-backto-TaskServiceImpl" style="stroke:#A80036;stroke-width:1.0;stroke-dasharray:7.0,7.0;"/><polygon fill="none" points="664.28,101.38,670.1,81,678.25,100.56,664.28,101.38" style="stroke:#A80036;stroke-width:1.0;"/><!--MD5=[a896af6978b387a26f192f1b232f456f]
reverse link TaskServiceImpl to SynchronizedTaskServiceImpl--><path d="M675.8,210.32 C676.24,233.89 676.78,262.93 677.22,286.33 " fill="none" id="TaskServiceImpl-backto-SynchronizedTaskServiceImpl" style="stroke:#A80036;stroke-width:1.0;"/><polygon fill="none" points="668.8,210.27,675.43,190.14,682.8,210.01,668.8,210.27" style="stroke:#A80036;stroke-width:1.0;"/><!--MD5=[c2ebd81a30fe3e810f0d966cc3848f7c]
reverse link SpringProcessEngineConfiguration to TaskService--><path codeLine="34" d="M525.84,44 C536.22,44 546.6,44 556.98,44 " fill="none" id="SpringProcessEngineConfiguration-backto-TaskService" style="stroke:#A80036;stroke-width:1.0;"/><polygon fill="#FFFFFF" points="512.69,44,518.69,48,524.69,44,518.69,40,512.69,44" style="stroke:#A80036;stroke-width:1.0;"/><!--MD5=[ec06d56937f35f4fddf7863a8a1aaf47]
reverse link LowcodeSpringProcessEngineConfiguration to CamundaConfiguration--><path codeLine="35" d="M295.78,193.23 C255.85,222.15 191.73,268.59 149.98,298.82 " fill="none" id="LowcodeSpringProcessEngineConfiguration-backto-CamundaConfiguration" style="stroke:#A80036;stroke-width:1.0;"/><polygon fill="#A80036" points="300.05,190.14,290.4161,192.1865,296.0026,193.0758,295.1133,198.6623,300.05,190.14" style="stroke:#A80036;stroke-width:1.0;"/><text fill="#000000" font-family="sans-serif" font-size="13" lengthAdjust="spacing" textLength="48" x="255" y="233.0669">creates</text><!--MD5=[b67f14449383b64073ce7be38e644013]
reverse link CamundaConfiguration to SynchronizedTaskServiceImpl--><path codeLine="36" d="M224.22,329.5 C315.29,329.5 442.73,329.5 539.37,329.5 " fill="none" id="CamundaConfiguration-backto-SynchronizedTaskServiceImpl" style="stroke:#A80036;stroke-width:1.0;"/><polygon fill="#FFFFFF" points="211.05,329.5,217.05,333.5,223.05,329.5,217.05,325.5,211.05,329.5" style="stroke:#A80036;stroke-width:1.0;"/><text fill="#000000" font-family="sans-serif" font-size="13" lengthAdjust="spacing" textLength="292" x="229.25" y="322.5669">injects into SpringProcessEngineConfiguration</text><!--MD5=[a01af35dc7237348d5bef022b200ea85]
reverse link SynchronizedTaskServiceImpl to SynchronizationService--><path codeLine="37" d="M829.76,329.5 C836.76,329.5 843.75,329.5 850.74,329.5 " fill="none" id="SynchronizedTaskServiceImpl-backto-SynchronizationService" style="stroke:#A80036;stroke-width:1.0;"/><polygon fill="#FFFFFF" points="816.75,329.5,822.75,333.5,828.75,329.5,822.75,325.5,816.75,329.5" style="stroke:#A80036;stroke-width:1.0;"/><!--MD5=[31c044689edccd19d398f274f70a68a4]
@startuml
class SpringProcessEngineConfiguration {
  TaskService taskService
}

class LowcodeSpringProcessEngineConfiguration #back:lightblue;line:green;text:black extends SpringProcessEngineConfiguration

interface TaskService {
  void complete()
  void completeWithVariablesInReturn()
}

class TaskServiceImpl implements TaskService

class SynchronizedTaskServiceImpl #back:lightblue;line:green;text:black extends TaskServiceImpl {
  SynchronizationService synchronizationService
  void complete()
  void completeWithVariablesInReturn()
}

class SynchronizationService #back:lightblue;line:green; {
  Cache<Object, ReentrantLock> lockCache

  ReentrantLock getLock(Object key)
  void execute(Object key, Runnable runnable)
  R evaluate(Object key, Supplier<R> supplier)
  void executeOrThrow(Object key, Runnable runnable, Supplier<T extends Throwable> exceptionSupplier)
  R evaluateOrThrow(Object key, Supplier<R> supplier, Supplier<T extends Throwable> exceptionSupplier)
}

class CamundaConfiguration #back:lightblue;line:green;text:black {
  processEngineConfigurationImpl()
}

SpringProcessEngineConfiguration o- TaskService
LowcodeSpringProcessEngineConfiguration <- - CamundaConfiguration : creates
CamundaConfiguration o- SynchronizedTaskServiceImpl : injects into SpringProcessEngineConfiguration
SynchronizedTaskServiceImpl o- SynchronizationService
@enduml

PlantUML version 1.2021.7(Sun May 23 12:40:07 UTC 2021)
(GPL source distribution)
Java Runtime: OpenJDK Runtime Environment
JVM: OpenJDK 64-Bit Server VM
Default Encoding: UTF-8
Language: en
Country: null
--></g></svg>