<?xml version="1.0" encoding="UTF-8" standalone="no"?><svg xmlns="http://www.w3.org/2000/svg" xmlns:xlink="http://www.w3.org/1999/xlink" contentScriptType="application/ecmascript" contentStyleType="text/css" height="202px" preserveAspectRatio="none" style="width:1031px;height:202px;background:#FFFFFF;" version="1.1" viewBox="0 0 1031 202" width="1031px" zoomAndPan="magnify"><defs><filter height="300%" id="f1xtj77yzvpvsj" width="300%" x="-1" y="-1"><feGaussianBlur result="blurOut" stdDeviation="2.0"/><feColorMatrix in="blurOut" result="blurOut2" type="matrix" values="0 0 0 0 0 0 0 0 0 0 0 0 0 0 0 0 0 0 .4 0"/><feOffset dx="4.0" dy="4.0" in="blurOut2" result="blurOut3"/><feBlend in="SourceGraphic" in2="blurOut3" mode="normal"/></filter></defs><g><!--MD5=[17738a83465b9bdb9a9cbcd1d7a76ec8]
class AbstractProcessEnginePlugin--><rect codeLine="1" fill="#FEFECE" filter="url(#f1xtj77yzvpvsj)" height="60.8047" id="AbstractProcessEnginePlugin" style="stroke:#A80036;stroke-width:1.5;" width="216" x="86.5" y="7"/><ellipse cx="101.5" cy="23" fill="#ADD1B2" rx="11" ry="11" style="stroke:#A80036;stroke-width:1.0;"/><path d="M104.4688,28.6406 Q103.8906,28.9375 103.25,29.0781 Q102.6094,29.2344 101.9063,29.2344 Q99.4063,29.2344 98.0781,27.5938 Q96.7656,25.9375 96.7656,22.8125 Q96.7656,19.6875 98.0781,18.0313 Q99.4063,16.375 101.9063,16.375 Q102.6094,16.375 103.25,16.5313 Q103.9063,16.6875 104.4688,16.9844 L104.4688,19.7031 Q103.8438,19.125 103.25,18.8594 Q102.6563,18.5781 102.0313,18.5781 Q100.6875,18.5781 100,19.6563 Q99.3125,20.7188 99.3125,22.8125 Q99.3125,24.9063 100,25.9844 Q100.6875,27.0469 102.0313,27.0469 Q102.6563,27.0469 103.25,26.7813 Q103.8438,26.5 104.4688,25.9219 L104.4688,28.6406 Z " fill="#000000"/><text fill="#000000" font-family="sans-serif" font-size="12" lengthAdjust="spacing" textLength="184" x="115.5" y="27.1543">AbstractProcessEnginePlugin</text><line style="stroke:#A80036;stroke-width:1.5;" x1="87.5" x2="301.5" y1="39" y2="39"/><line style="stroke:#A80036;stroke-width:1.5;" x1="87.5" x2="301.5" y1="47" y2="47"/><text fill="#000000" font-family="sans-serif" font-size="11" lengthAdjust="spacing" textLength="44" x="92.5" y="61.2104">preInit()</text><!--MD5=[30c21815c2a90c420ed31ad14024ffb8]
class CamundaEngineSystemVariablesSupportListenerPlugin--><rect codeLine="5" fill="#ADD8E6" filter="url(#f1xtj77yzvpvsj)" height="60.8047" id="CamundaEngineSystemVariablesSupportListenerPlugin" style="stroke:#008000;stroke-width:1.5;" width="375" x="7" y="128"/><ellipse cx="22" cy="144" fill="#ADD1B2" rx="11" ry="11" style="stroke:#008000;stroke-width:1.0;"/><path d="M24.9688,149.6406 Q24.3906,149.9375 23.75,150.0781 Q23.1094,150.2344 22.4063,150.2344 Q19.9063,150.2344 18.5781,148.5938 Q17.2656,146.9375 17.2656,143.8125 Q17.2656,140.6875 18.5781,139.0313 Q19.9063,137.375 22.4063,137.375 Q23.1094,137.375 23.75,137.5313 Q24.4063,137.6875 24.9688,137.9844 L24.9688,140.7031 Q24.3438,140.125 23.75,139.8594 Q23.1563,139.5781 22.5313,139.5781 Q21.1875,139.5781 20.5,140.6563 Q19.8125,141.7188 19.8125,143.8125 Q19.8125,145.9063 20.5,146.9844 Q21.1875,148.0469 22.5313,148.0469 Q23.1563,148.0469 23.75,147.7813 Q24.3438,147.5 24.9688,146.9219 L24.9688,149.6406 Z " fill="#000000"/><text fill="#000000" font-family="sans-serif" font-size="12" lengthAdjust="spacing" textLength="343" x="36" y="148.1543">CamundaEngineSystemVariablesSupportListenerPlugin</text><line style="stroke:#008000;stroke-width:1.5;" x1="8" x2="381" y1="160" y2="160"/><line style="stroke:#008000;stroke-width:1.5;" x1="8" x2="381" y1="168" y2="168"/><text fill="#000000" font-family="sans-serif" font-size="11" lengthAdjust="spacing" textLength="44" x="13" y="182.2104">preInit()</text><!--MD5=[73ddb4f63b29484386a9c08542b879f4]
class AbstractBpmnParseListener--><rect codeLine="9" fill="#FEFECE" filter="url(#f1xtj77yzvpvsj)" height="60.8047" id="AbstractBpmnParseListener" style="stroke:#A80036;stroke-width:1.5;" width="206" x="482.5" y="7"/><ellipse cx="497.5" cy="23" fill="#ADD1B2" rx="11" ry="11" style="stroke:#A80036;stroke-width:1.0;"/><path d="M500.4688,28.6406 Q499.8906,28.9375 499.25,29.0781 Q498.6094,29.2344 497.9063,29.2344 Q495.4063,29.2344 494.0781,27.5938 Q492.7656,25.9375 492.7656,22.8125 Q492.7656,19.6875 494.0781,18.0313 Q495.4063,16.375 497.9063,16.375 Q498.6094,16.375 499.25,16.5313 Q499.9063,16.6875 500.4688,16.9844 L500.4688,19.7031 Q499.8438,19.125 499.25,18.8594 Q498.6563,18.5781 498.0313,18.5781 Q496.6875,18.5781 496,19.6563 Q495.3125,20.7188 495.3125,22.8125 Q495.3125,24.9063 496,25.9844 Q496.6875,27.0469 498.0313,27.0469 Q498.6563,27.0469 499.25,26.7813 Q499.8438,26.5 500.4688,25.9219 L500.4688,28.6406 Z " fill="#000000"/><text fill="#000000" font-family="sans-serif" font-size="12" lengthAdjust="spacing" textLength="174" x="511.5" y="27.1543">AbstractBpmnParseListener</text><line style="stroke:#A80036;stroke-width:1.5;" x1="483.5" x2="687.5" y1="39" y2="39"/><line style="stroke:#A80036;stroke-width:1.5;" x1="483.5" x2="687.5" y1="47" y2="47"/><text fill="#000000" font-family="sans-serif" font-size="11" lengthAdjust="spacing" textLength="100" x="488.5" y="61.2104">parseStartEvent()</text><!--MD5=[d98041c2f419146ca8776253e3c52535]
class CamundaEngineSystemVariablesSupportListener--><rect codeLine="13" fill="#ADD8E6" filter="url(#f1xtj77yzvpvsj)" height="60.8047" id="CamundaEngineSystemVariablesSupportListener" style="stroke:#008000;stroke-width:1.5;" width="337" x="417" y="128"/><ellipse cx="432" cy="144" fill="#ADD1B2" rx="11" ry="11" style="stroke:#008000;stroke-width:1.0;"/><path d="M434.9688,149.6406 Q434.3906,149.9375 433.75,150.0781 Q433.1094,150.2344 432.4063,150.2344 Q429.9063,150.2344 428.5781,148.5938 Q427.2656,146.9375 427.2656,143.8125 Q427.2656,140.6875 428.5781,139.0313 Q429.9063,137.375 432.4063,137.375 Q433.1094,137.375 433.75,137.5313 Q434.4063,137.6875 434.9688,137.9844 L434.9688,140.7031 Q434.3438,140.125 433.75,139.8594 Q433.1563,139.5781 432.5313,139.5781 Q431.1875,139.5781 430.5,140.6563 Q429.8125,141.7188 429.8125,143.8125 Q429.8125,145.9063 430.5,146.9844 Q431.1875,148.0469 432.5313,148.0469 Q433.1563,148.0469 433.75,147.7813 Q434.3438,147.5 434.9688,146.9219 L434.9688,149.6406 Z " fill="#000000"/><text fill="#000000" font-family="sans-serif" font-size="12" lengthAdjust="spacing" textLength="305" x="446" y="148.1543">CamundaEngineSystemVariablesSupportListener</text><line style="stroke:#008000;stroke-width:1.5;" x1="418" x2="753" y1="160" y2="160"/><line style="stroke:#008000;stroke-width:1.5;" x1="418" x2="753" y1="168" y2="168"/><text fill="#000000" font-family="sans-serif" font-size="11" lengthAdjust="spacing" textLength="100" x="423" y="182.2104">parseStartEvent()</text><!--MD5=[f81f4db1862ed9d1f7594a119ebcdcb2]
class CamundaProperties--><rect codeLine="17" fill="#ADD8E6" filter="url(#f1xtj77yzvpvsj)" height="60.8047" id="CamundaProperties" style="stroke:#008000;stroke-width:1.5;" width="228" x="789.5" y="128"/><ellipse cx="837.25" cy="144" fill="#ADD1B2" rx="11" ry="11" style="stroke:#008000;stroke-width:1.0;"/><path d="M840.2188,149.6406 Q839.6406,149.9375 839,150.0781 Q838.3594,150.2344 837.6563,150.2344 Q835.1563,150.2344 833.8281,148.5938 Q832.5156,146.9375 832.5156,143.8125 Q832.5156,140.6875 833.8281,139.0313 Q835.1563,137.375 837.6563,137.375 Q838.3594,137.375 839,137.5313 Q839.6563,137.6875 840.2188,137.9844 L840.2188,140.7031 Q839.5938,140.125 839,139.8594 Q838.4063,139.5781 837.7813,139.5781 Q836.4375,139.5781 835.75,140.6563 Q835.0625,141.7188 835.0625,143.8125 Q835.0625,145.9063 835.75,146.9844 Q836.4375,148.0469 837.7813,148.0469 Q838.4063,148.0469 839,147.7813 Q839.5938,147.5 840.2188,146.9219 L840.2188,149.6406 Z " fill="#000000"/><text fill="#000000" font-family="sans-serif" font-size="12" lengthAdjust="spacing" textLength="124" x="857.75" y="148.1543">CamundaProperties</text><line style="stroke:#008000;stroke-width:1.5;" x1="790.5" x2="1016.5" y1="160" y2="160"/><text fill="#000000" font-family="sans-serif" font-size="11" lengthAdjust="spacing" textLength="216" x="795.5" y="174.2104">Map&lt;String, String&gt; systemVariables</text><line style="stroke:#008000;stroke-width:1.5;" x1="790.5" x2="1016.5" y1="180.8047" y2="180.8047"/><!--MD5=[7dca02e5596e68206fa28082c6bafced]
reverse link AbstractProcessEnginePlugin to CamundaEngineSystemVariablesSupportListenerPlugin--><path d="M194.5,88.33 C194.5,101.73 194.5,115.81 194.5,127.74 " fill="none" id="AbstractProcessEnginePlugin-backto-CamundaEngineSystemVariablesSupportListenerPlugin" style="stroke:#A80036;stroke-width:1.0;"/><polygon fill="none" points="187.5,88.22,194.5,68.22,201.5,88.22,187.5,88.22" style="stroke:#A80036;stroke-width:1.0;"/><!--MD5=[3c4ad0fddec2e88867b65062fbc01b1d]
reverse link AbstractBpmnParseListener to CamundaEngineSystemVariablesSupportListener--><path d="M585.5,88.33 C585.5,101.73 585.5,115.81 585.5,127.74 " fill="none" id="AbstractBpmnParseListener-backto-CamundaEngineSystemVariablesSupportListener" style="stroke:#A80036;stroke-width:1.0;"/><polygon fill="none" points="578.5,88.22,585.5,68.22,592.5,88.22,578.5,88.22" style="stroke:#A80036;stroke-width:1.0;"/><!--MD5=[c0560cc08199387ecd899f2389e71a52]
link CamundaEngineSystemVariablesSupportListenerPlugin to CamundaEngineSystemVariablesSupportListener--><path codeLine="21" d="M382.36,158.5 C392.16,158.5 401.96,158.5 411.76,158.5 " fill="none" id="CamundaEngineSystemVariablesSupportListenerPlugin-to-CamundaEngineSystemVariablesSupportListener" style="stroke:#A80036;stroke-width:1.0;"/><polygon fill="#A80036" points="416.88,158.5,407.88,154.5,411.88,158.5,407.88,162.5,416.88,158.5" style="stroke:#A80036;stroke-width:1.0;"/><!--MD5=[6ff057a73059a30c3e96e1087908c3a1]
link CamundaEngineSystemVariablesSupportListener to CamundaProperties--><path codeLine="22" d="M754.13,158.5 C764.15,158.5 774.17,158.5 784.19,158.5 " fill="none" id="CamundaEngineSystemVariablesSupportListener-to-CamundaProperties" style="stroke:#A80036;stroke-width:1.0;"/><polygon fill="#A80036" points="789.43,158.5,780.43,154.5,784.43,158.5,780.43,162.5,789.43,158.5" style="stroke:#A80036;stroke-width:1.0;"/><!--MD5=[04d703b74dceb1ff2fd10e5c0e58869b]
@startuml
class AbstractProcessEnginePlugin {
  preInit()
}

class CamundaEngineSystemVariablesSupportListenerPlugin #back:lightblue;line:green;text:black extends AbstractProcessEnginePlugin {
  preInit()
}

class AbstractBpmnParseListener {
  parseStartEvent()
}

class CamundaEngineSystemVariablesSupportListener #back:lightblue;line:green;text:black extends AbstractBpmnParseListener {
  parseStartEvent()
}

class CamundaProperties #back:lightblue;line:green;text:black {
  Map<String, String> systemVariables
}

CamundaEngineSystemVariablesSupportListenerPlugin -> CamundaEngineSystemVariablesSupportListener
CamundaEngineSystemVariablesSupportListener -> CamundaProperties
@enduml

PlantUML version 1.2021.7(Sun May 23 12:40:07 UTC 2021)
(GPL source distribution)
Java Runtime: OpenJDK Runtime Environment
JVM: OpenJDK 64-Bit Server VM
Default Encoding: UTF-8
Language: en
Country: null
--></g></svg>