<?xml version="1.0" encoding="UTF-8" standalone="no"?><svg xmlns="http://www.w3.org/2000/svg" xmlns:xlink="http://www.w3.org/1999/xlink" contentScriptType="application/ecmascript" contentStyleType="text/css" height="202px" preserveAspectRatio="none" style="width:407px;height:202px;background:#FFFFFF;" version="1.1" viewBox="0 0 407 202" width="407px" zoomAndPan="magnify"><defs><filter height="300%" id="fpaj2redctiyr" width="300%" x="-1" y="-1"><feGaussianBlur result="blurOut" stdDeviation="2.0"/><feColorMatrix in="blurOut" result="blurOut2" type="matrix" values="0 0 0 0 0 0 0 0 0 0 0 0 0 0 0 0 0 0 .4 0"/><feOffset dx="4.0" dy="4.0" in="blurOut2" result="blurOut3"/><feBlend in="SourceGraphic" in2="blurOut3" mode="normal"/></filter></defs><g><!--MD5=[60c2f1f735df004f79ce7ced3311069f]
class BpmnParse--><rect codeLine="1" fill="#FEFECE" filter="url(#fpaj2redctiyr)" height="60.8047" id="BpmnParse" style="stroke:#A80036;stroke-width:1.5;" width="158" x="25" y="7"/><ellipse cx="64.75" cy="23" fill="#ADD1B2" rx="11" ry="11" style="stroke:#A80036;stroke-width:1.0;"/><path d="M67.7188,28.6406 Q67.1406,28.9375 66.5,29.0781 Q65.8594,29.2344 65.1563,29.2344 Q62.6563,29.2344 61.3281,27.5938 Q60.0156,25.9375 60.0156,22.8125 Q60.0156,19.6875 61.3281,18.0313 Q62.6563,16.375 65.1563,16.375 Q65.8594,16.375 66.5,16.5313 Q67.1563,16.6875 67.7188,16.9844 L67.7188,19.7031 Q67.0938,19.125 66.5,18.8594 Q65.9063,18.5781 65.2813,18.5781 Q63.9375,18.5781 63.25,19.6563 Q62.5625,20.7188 62.5625,22.8125 Q62.5625,24.9063 63.25,25.9844 Q63.9375,27.0469 65.2813,27.0469 Q65.9063,27.0469 66.5,26.7813 Q67.0938,26.5 67.7188,25.9219 L67.7188,28.6406 Z " fill="#000000"/><text fill="#000000" font-family="sans-serif" font-size="12" lengthAdjust="spacing" textLength="71" x="84.25" y="27.1543">BpmnParse</text><line style="stroke:#A80036;stroke-width:1.5;" x1="26" x2="182" y1="39" y2="39"/><line style="stroke:#A80036;stroke-width:1.5;" x1="26" x2="182" y1="47" y2="47"/><text fill="#000000" font-family="sans-serif" font-size="11" lengthAdjust="spacing" textLength="146" x="31" y="61.2104">parseActivityInputOutput()</text><!--MD5=[5ead98bb6cedd03a369a63d9d1c43417]
class TransientBpmnParse--><rect codeLine="5" fill="#ADD8E6" filter="url(#fpaj2redctiyr)" height="60.8047" id="TransientBpmnParse" style="stroke:#008000;stroke-width:1.5;" width="162" x="7" y="128"/><ellipse cx="22" cy="144" fill="#ADD1B2" rx="11" ry="11" style="stroke:#008000;stroke-width:1.0;"/><path d="M24.9688,149.6406 Q24.3906,149.9375 23.75,150.0781 Q23.1094,150.2344 22.4063,150.2344 Q19.9063,150.2344 18.5781,148.5938 Q17.2656,146.9375 17.2656,143.8125 Q17.2656,140.6875 18.5781,139.0313 Q19.9063,137.375 22.4063,137.375 Q23.1094,137.375 23.75,137.5313 Q24.4063,137.6875 24.9688,137.9844 L24.9688,140.7031 Q24.3438,140.125 23.75,139.8594 Q23.1563,139.5781 22.5313,139.5781 Q21.1875,139.5781 20.5,140.6563 Q19.8125,141.7188 19.8125,143.8125 Q19.8125,145.9063 20.5,146.9844 Q21.1875,148.0469 22.5313,148.0469 Q23.1563,148.0469 23.75,147.7813 Q24.3438,147.5 24.9688,146.9219 L24.9688,149.6406 Z " fill="#000000"/><text fill="#000000" font-family="sans-serif" font-size="12" lengthAdjust="spacing" textLength="130" x="36" y="148.1543">TransientBpmnParse</text><line style="stroke:#008000;stroke-width:1.5;" x1="8" x2="168" y1="160" y2="160"/><line style="stroke:#008000;stroke-width:1.5;" x1="8" x2="168" y1="168" y2="168"/><text fill="#000000" font-family="sans-serif" font-size="11" lengthAdjust="spacing" textLength="146" x="13" y="182.2104">parseActivityInputOutput()</text><!--MD5=[bc52821ea901ad8d3b9ff8f481e2f521]
class InputParameter--><rect codeLine="9" fill="#FEFECE" filter="url(#fpaj2redctiyr)" height="60.8047" id="InputParameter" style="stroke:#A80036;stroke-width:1.5;" width="130" x="226" y="7"/><ellipse cx="241" cy="23" fill="#ADD1B2" rx="11" ry="11" style="stroke:#A80036;stroke-width:1.0;"/><path d="M243.9688,28.6406 Q243.3906,28.9375 242.75,29.0781 Q242.1094,29.2344 241.4063,29.2344 Q238.9063,29.2344 237.5781,27.5938 Q236.2656,25.9375 236.2656,22.8125 Q236.2656,19.6875 237.5781,18.0313 Q238.9063,16.375 241.4063,16.375 Q242.1094,16.375 242.75,16.5313 Q243.4063,16.6875 243.9688,16.9844 L243.9688,19.7031 Q243.3438,19.125 242.75,18.8594 Q242.1563,18.5781 241.5313,18.5781 Q240.1875,18.5781 239.5,19.6563 Q238.8125,20.7188 238.8125,22.8125 Q238.8125,24.9063 239.5,25.9844 Q240.1875,27.0469 241.5313,27.0469 Q242.1563,27.0469 242.75,26.7813 Q243.3438,26.5 243.9688,25.9219 L243.9688,28.6406 Z " fill="#000000"/><text fill="#000000" font-family="sans-serif" font-size="12" lengthAdjust="spacing" textLength="98" x="255" y="27.1543">InputParameter</text><line style="stroke:#A80036;stroke-width:1.5;" x1="227" x2="355" y1="39" y2="39"/><line style="stroke:#A80036;stroke-width:1.5;" x1="227" x2="355" y1="47" y2="47"/><text fill="#000000" font-family="sans-serif" font-size="11" lengthAdjust="spacing" textLength="52" x="232" y="61.2104">execute()</text><!--MD5=[9a729daa276cfb34e9d2005d3f63c078]
class TransientInputParameter--><rect codeLine="13" fill="#ADD8E6" filter="url(#fpaj2redctiyr)" height="60.8047" id="TransientInputParameter" style="stroke:#008000;stroke-width:1.5;" width="189" x="204.5" y="128"/><ellipse cx="219.5" cy="144" fill="#ADD1B2" rx="11" ry="11" style="stroke:#008000;stroke-width:1.0;"/><path d="M222.4688,149.6406 Q221.8906,149.9375 221.25,150.0781 Q220.6094,150.2344 219.9063,150.2344 Q217.4063,150.2344 216.0781,148.5938 Q214.7656,146.9375 214.7656,143.8125 Q214.7656,140.6875 216.0781,139.0313 Q217.4063,137.375 219.9063,137.375 Q220.6094,137.375 221.25,137.5313 Q221.9063,137.6875 222.4688,137.9844 L222.4688,140.7031 Q221.8438,140.125 221.25,139.8594 Q220.6563,139.5781 220.0313,139.5781 Q218.6875,139.5781 218,140.6563 Q217.3125,141.7188 217.3125,143.8125 Q217.3125,145.9063 218,146.9844 Q218.6875,148.0469 220.0313,148.0469 Q220.6563,148.0469 221.25,147.7813 Q221.8438,147.5 222.4688,146.9219 L222.4688,149.6406 Z " fill="#000000"/><text fill="#000000" font-family="sans-serif" font-size="12" lengthAdjust="spacing" textLength="157" x="233.5" y="148.1543">TransientInputParameter</text><line style="stroke:#008000;stroke-width:1.5;" x1="205.5" x2="392.5" y1="160" y2="160"/><line style="stroke:#008000;stroke-width:1.5;" x1="205.5" x2="392.5" y1="168" y2="168"/><text fill="#000000" font-family="sans-serif" font-size="11" lengthAdjust="spacing" textLength="52" x="210.5" y="182.2104">execute()</text><!--MD5=[9e4573d758ad1ba5a7409f56e340ad38]
reverse link BpmnParse to TransientBpmnParse--><path d="M97.3,88.33 C95.5,101.73 93.6,115.81 92,127.74 " fill="none" id="BpmnParse-backto-TransientBpmnParse" style="stroke:#A80036;stroke-width:1.0;"/><polygon fill="none" points="90.4,87.11,100,68.22,104.28,88.98,90.4,87.11" style="stroke:#A80036;stroke-width:1.0;"/><!--MD5=[5ed5009e255276f541362198ae4acf8e]
reverse link InputParameter to TransientInputParameter--><path d="M294.35,88.33 C295.25,101.73 296.2,115.81 297,127.74 " fill="none" id="InputParameter-backto-TransientInputParameter" style="stroke:#A80036;stroke-width:1.0;"/><polygon fill="none" points="287.36,88.65,293,68.22,301.32,87.71,287.36,88.65" style="stroke:#A80036;stroke-width:1.0;"/><!--MD5=[1a12fe4ad50ea9f69b787de7c4bb9f24]
link BpmnParse to InputParameter--><path codeLine="17" d="M183.26,37.5 C195.65,37.5 208.05,37.5 220.45,37.5 " fill="none" id="BpmnParse-to-InputParameter" style="stroke:#A80036;stroke-width:1.0;stroke-dasharray:7.0,7.0;"/><polygon fill="#A80036" points="225.76,37.5,216.76,33.5,220.76,37.5,216.76,41.5,225.76,37.5" style="stroke:#A80036;stroke-width:1.0;"/><!--MD5=[fd76972927eb3b6d7941c0c5b3427aee]
link TransientBpmnParse to TransientInputParameter--><path codeLine="18" d="M169.19,158.5 C179.19,158.5 189.19,158.5 199.2,158.5 " fill="none" id="TransientBpmnParse-to-TransientInputParameter" style="stroke:#A80036;stroke-width:1.0;stroke-dasharray:7.0,7.0;"/><polygon fill="#A80036" points="204.43,158.5,195.43,154.5,199.43,158.5,195.43,162.5,204.43,158.5" style="stroke:#A80036;stroke-width:1.0;"/><!--MD5=[c9705cddbc31a121ba21f0485547323e]
@startuml
class BpmnParse {
  parseActivityInputOutput()
}

class TransientBpmnParse #back:lightblue;line:green;text:black extends BpmnParse {
  parseActivityInputOutput()
}

class InputParameter {
  execute()
}

class TransientInputParameter #back:lightblue;line:green;text:black extends InputParameter {
  execute()
}

BpmnParse .> InputParameter
TransientBpmnParse .> TransientInputParameter
@enduml

PlantUML version 1.2021.7(Sun May 23 12:40:07 UTC 2021)
(GPL source distribution)
Java Runtime: OpenJDK Runtime Environment
JVM: OpenJDK 64-Bit Server VM
Default Encoding: UTF-8
Language: en
Country: null
--></g></svg>