<?xml version="1.0" encoding="UTF-8" standalone="no"?><svg xmlns="http://www.w3.org/2000/svg" xmlns:xlink="http://www.w3.org/1999/xlink" contentScriptType="application/ecmascript" contentStyleType="text/css" height="190px" preserveAspectRatio="none" style="width:792px;height:190px;background:#FFFFFF;" version="1.1" viewBox="0 0 792 190" width="792px" zoomAndPan="magnify"><defs><filter height="300%" id="f1ntv12ugm0ia6" width="300%" x="-1" y="-1"><feGaussianBlur result="blurOut" stdDeviation="2.0"/><feColorMatrix in="blurOut" result="blurOut2" type="matrix" values="0 0 0 0 0 0 0 0 0 0 0 0 0 0 0 0 0 0 .4 0"/><feOffset dx="4.0" dy="4.0" in="blurOut2" result="blurOut3"/><feBlend in="SourceGraphic" in2="blurOut3" mode="normal"/></filter></defs><g><rect fill="#FEFECE" filter="url(#f1ntv12ugm0ia6)" height="52.5938" rx="12.5" ry="12.5" style="stroke:#A80036;stroke-width:1.5;" width="172" x="10" y="68.1484"/><text fill="#000000" font-family="sans-serif" font-size="14" lengthAdjust="spacing" textLength="152" x="20" y="91.1436">Застосунки доступні</text><text fill="#000000" font-family="sans-serif" font-size="14" lengthAdjust="spacing" textLength="146" x="20" y="107.4404">для адміністраторів</text><rect fill="#FEFECE" filter="url(#f1ntv12ugm0ia6)" height="36.2969" rx="12.5" ry="12.5" style="stroke:#A80036;stroke-width:1.5;" width="198" x="232" y="48.1484"/><text fill="#000000" font-family="sans-serif" font-size="14" lengthAdjust="spacing" textLength="178" x="242" y="71.1436">Центральні компоненти</text><rect fill="#FEFECE" filter="url(#f1ntv12ugm0ia6)" height="36.2969" rx="12.5" ry="12.5" style="stroke:#A80036;stroke-width:1.5;" width="254" x="480" y="20"/><text fill="#000000" font-family="sans-serif" font-size="14" lengthAdjust="spacing" textLength="234" x="490" y="42.9951">Автентифікація через OpenShift</text><path d="M430,66.2969 L440,66.2969 C455,66.2969 455,38.1484 470,38.1484 L480,38.1484 " fill="none" style="stroke:#A80036;stroke-width:1.0;"/><rect fill="#FEFECE" filter="url(#f1ntv12ugm0ia6)" height="36.2969" rx="12.5" ry="12.5" style="stroke:#A80036;stroke-width:1.5;" width="293" x="480" y="76.2969"/><text fill="#000000" font-family="sans-serif" font-size="14" lengthAdjust="spacing" textLength="273" x="490" y="99.292">Автентифікація через openshift realm</text><path d="M430,66.2969 L440,66.2969 C455,66.2969 455,94.4453 470,94.4453 L480,94.4453 " fill="none" style="stroke:#A80036;stroke-width:1.0;"/><path d="M182,94.4453 L192,94.4453 C207,94.4453 207,66.2969 222,66.2969 L232,66.2969 " fill="none" style="stroke:#A80036;stroke-width:1.0;"/><rect fill="#FEFECE" filter="url(#f1ntv12ugm0ia6)" height="36.2969" rx="12.5" ry="12.5" style="stroke:#A80036;stroke-width:1.5;" width="175" x="232" y="132.5938"/><text fill="#000000" font-family="sans-serif" font-size="14" lengthAdjust="spacing" textLength="155" x="242" y="155.5889">Компоненти реєстру</text><rect fill="#FEFECE" filter="url(#f1ntv12ugm0ia6)" height="36.2969" rx="12.5" ry="12.5" style="stroke:#A80036;stroke-width:1.5;" width="270" x="457" y="132.5938"/><text fill="#000000" font-family="sans-serif" font-size="14" lengthAdjust="spacing" textLength="250" x="467" y="155.5889">Автентифікація через admin realm</text><path d="M407,150.7422 L417,150.7422 C432,150.7422 432,150.7422 447,150.7422 L457,150.7422 " fill="none" style="stroke:#A80036;stroke-width:1.0;"/><path d="M182,94.4453 L192,94.4453 C207,94.4453 207,150.7422 222,150.7422 L232,150.7422 " fill="none" style="stroke:#A80036;stroke-width:1.0;"/><!--MD5=[9b801a7a6896d40fd1f9996a6f4ae7bf]
@startmindmap
* Застосунки доступні\nдля адміністраторів
** Центральні компоненти
*** Автентифікація через OpenShift
*** Автентифікація через openshift realm
** Компоненти реєстру
*** Автентифікація через admin realm
@endmindmap

PlantUML version 1.2021.7(Sun May 23 12:40:07 UTC 2021)
(GPL source distribution)
Java Runtime: OpenJDK Runtime Environment
JVM: OpenJDK 64-Bit Server VM
Default Encoding: UTF-8
Language: en
Country: null
--></g></svg>