<?xml version="1.0" encoding="UTF-8" standalone="no"?><svg xmlns="http://www.w3.org/2000/svg" xmlns:xlink="http://www.w3.org/1999/xlink" contentScriptType="application/ecmascript" contentStyleType="text/css" height="1595px" preserveAspectRatio="none" style="width:1641px;height:1595px;background:#FFFFFF;" version="1.1" viewBox="0 0 1641 1595" width="1641px" zoomAndPan="magnify"><defs><filter height="300%" id="fbm7dy33mdb91" width="300%" x="-1" y="-1"><feGaussianBlur result="blurOut" stdDeviation="2.0"/><feColorMatrix in="blurOut" result="blurOut2" type="matrix" values="0 0 0 0 0 0 0 0 0 0 0 0 0 0 0 0 0 0 .4 0"/><feOffset dx="4.0" dy="4.0" in="blurOut2" result="blurOut3"/><feBlend in="SourceGraphic" in2="blurOut3" mode="normal"/></filter></defs><g><rect fill="#87CEFA" height="1454.7656" style="stroke:#A80036;stroke-width:1.0;" width="519" x="1114.5" y="134.7813"/><text fill="#000000" font-family="sans-serif" font-size="13" font-weight="bold" lengthAdjust="spacing" textLength="513" x="1117.5" y="146.8481">Підсистема розгортання та налаштування Платформи та реєстрів</text><rect fill="#FFFFFF" filter="url(#fbm7dy33mdb91)" height="1107.9141" style="stroke:#A80036;stroke-width:1.0;" width="10" x="108" y="370.0391"/><rect fill="#FFFFFF" filter="url(#fbm7dy33mdb91)" height="1058.7813" style="stroke:#A80036;stroke-width:1.0;" width="10" x="113" y="419.1719"/><rect fill="#FFFFFF" filter="url(#fbm7dy33mdb91)" height="67.2656" style="stroke:#A80036;stroke-width:1.0;" width="10" x="118" y="1410.6875"/><rect fill="#FFFFFF" filter="url(#fbm7dy33mdb91)" height="29.1328" style="stroke:#A80036;stroke-width:1.0;" width="10" x="358" y="264.5078"/><rect fill="#FFA500" filter="url(#fbm7dy33mdb91)" height="29.1328" style="stroke:#A80036;stroke-width:1.0;" width="10" x="358" y="264.5078"/><rect fill="#FFFFFF" filter="url(#fbm7dy33mdb91)" height="1024.6484" style="stroke:#A80036;stroke-width:1.0;" width="10" x="531.5" y="453.3047"/><rect fill="#FFFFFF" filter="url(#fbm7dy33mdb91)" height="83.3984" style="stroke:#A80036;stroke-width:1.0;" width="10" x="1006.5" y="507.4375"/><rect fill="#FF4500" filter="url(#fbm7dy33mdb91)" height="83.3984" style="stroke:#A80036;stroke-width:1.0;" width="10" x="1006.5" y="507.4375"/><rect fill="#FFFFFF" filter="url(#fbm7dy33mdb91)" height="295.2578" style="stroke:#A80036;stroke-width:1.0;" width="10" x="1006.5" y="894.7656"/><rect fill="#FF4500" filter="url(#fbm7dy33mdb91)" height="295.2578" style="stroke:#A80036;stroke-width:1.0;" width="10" x="1006.5" y="894.7656"/><rect fill="#FFFFFF" filter="url(#fbm7dy33mdb91)" height="29.1328" style="stroke:#A80036;stroke-width:1.0;" width="10" x="1084" y="644.9688"/><rect fill="#FFA500" filter="url(#fbm7dy33mdb91)" height="29.1328" style="stroke:#A80036;stroke-width:1.0;" width="10" x="1084" y="644.9688"/><rect fill="#FFFFFF" filter="url(#fbm7dy33mdb91)" height="29.1328" style="stroke:#A80036;stroke-width:1.0;" width="10" x="1084" y="728.2344"/><rect fill="#FFA500" filter="url(#fbm7dy33mdb91)" height="29.1328" style="stroke:#A80036;stroke-width:1.0;" width="10" x="1084" y="728.2344"/><rect fill="#FFFFFF" filter="url(#fbm7dy33mdb91)" height="29.1328" style="stroke:#A80036;stroke-width:1.0;" width="10" x="1307.5" y="811.5"/><rect fill="#87CEFA" filter="url(#fbm7dy33mdb91)" height="29.1328" style="stroke:#A80036;stroke-width:1.0;" width="10" x="1307.5" y="811.5"/><rect fill="#FFFFFF" filter="url(#fbm7dy33mdb91)" height="29.1328" style="stroke:#A80036;stroke-width:1.0;" width="10" x="1307.5" y="1244.1563"/><rect fill="#87CEFA" filter="url(#fbm7dy33mdb91)" height="29.1328" style="stroke:#A80036;stroke-width:1.0;" width="10" x="1307.5" y="1244.1563"/><rect fill="#FFFFFF" filter="url(#fbm7dy33mdb91)" height="29.1328" style="stroke:#A80036;stroke-width:1.0;" width="10" x="1307.5" y="1327.4219"/><rect fill="#87CEFA" filter="url(#fbm7dy33mdb91)" height="29.1328" style="stroke:#A80036;stroke-width:1.0;" width="10" x="1307.5" y="1327.4219"/><rect fill="#FFFFFF" filter="url(#fbm7dy33mdb91)" height="29.1328" style="stroke:#A80036;stroke-width:1.0;" width="10" x="1457" y="1439.8203"/><rect fill="#87CEFA" filter="url(#fbm7dy33mdb91)" height="29.1328" style="stroke:#A80036;stroke-width:1.0;" width="10" x="1457" y="1439.8203"/><rect fill="#FFFFFF" filter="url(#fbm7dy33mdb91)" height="74.3984" style="stroke:#000000;stroke-width:2.0;" width="263" x="10" y="308.6406"/><line style="stroke:#A80036;stroke-width:1.0;stroke-dasharray:5.0,5.0;" x1="113" x2="113" y1="233.375" y2="1486.9531"/><line style="stroke:#A80036;stroke-width:1.0;stroke-dasharray:5.0,5.0;" x1="358" x2="358" y1="233.375" y2="1486.9531"/><line style="stroke:#A80036;stroke-width:1.0;stroke-dasharray:5.0,5.0;" x1="536" x2="536" y1="233.375" y2="1486.9531"/><line style="stroke:#A80036;stroke-width:1.0;stroke-dasharray:5.0,5.0;" x1="1006.5" x2="1006.5" y1="233.375" y2="1486.9531"/><line style="stroke:#A80036;stroke-width:1.0;stroke-dasharray:5.0,5.0;" x1="1083.5" x2="1083.5" y1="233.375" y2="1486.9531"/><line style="stroke:#A80036;stroke-width:1.0;stroke-dasharray:5.0,5.0;" x1="1307.5" x2="1307.5" y1="233.375" y2="1486.9531"/><line style="stroke:#A80036;stroke-width:1.0;stroke-dasharray:5.0,5.0;" x1="1456.5" x2="1456.5" y1="233.375" y2="1486.9531"/><text fill="#000000" font-family="sans-serif" font-size="14" lengthAdjust="spacing" textLength="180" x="20" y="213.7764">технічний адміністратор</text><text fill="#000000" font-family="sans-serif" font-size="14" lengthAdjust="spacing" textLength="86" x="67" y="230.0732">Платформи</text><ellipse cx="113" cy="143.7813" fill="#D3D3D3" filter="url(#fbm7dy33mdb91)" rx="8" ry="8" style="stroke:#A80036;stroke-width:2.0;"/><path d="M113,151.7813 L113,178.7813 M100,159.7813 L126,159.7813 M113,178.7813 L100,193.7813 M113,178.7813 L126,193.7813 " fill="none" filter="url(#fbm7dy33mdb91)" style="stroke:#A80036;stroke-width:2.0;"/><text fill="#000000" font-family="sans-serif" font-size="14" lengthAdjust="spacing" textLength="180" x="20" y="1498.9482">технічний адміністратор</text><text fill="#000000" font-family="sans-serif" font-size="14" lengthAdjust="spacing" textLength="86" x="67" y="1515.2451">Платформи</text><ellipse cx="113" cy="1528.5469" fill="#D3D3D3" filter="url(#fbm7dy33mdb91)" rx="8" ry="8" style="stroke:#A80036;stroke-width:2.0;"/><path d="M113,1536.5469 L113,1563.5469 M100,1544.5469 L126,1544.5469 M113,1563.5469 L100,1578.5469 M113,1563.5469 L126,1578.5469 " fill="none" filter="url(#fbm7dy33mdb91)" style="stroke:#A80036;stroke-width:2.0;"/><rect fill="#FFA500" filter="url(#fbm7dy33mdb91)" height="46.5938" style="stroke:#A80036;stroke-width:1.5;" width="166" x="273" y="181.7813"/><text fill="#000000" font-family="sans-serif" font-size="14" lengthAdjust="spacing" textLength="53" x="329.5" y="201.7764">AWS S3</text><text fill="#000000" font-family="sans-serif" font-size="14" lengthAdjust="spacing" textLength="152" x="280" y="218.0732">сховище артефактів</text><rect fill="#FFA500" filter="url(#fbm7dy33mdb91)" height="46.5938" style="stroke:#A80036;stroke-width:1.5;" width="166" x="273" y="1485.9531"/><text fill="#000000" font-family="sans-serif" font-size="14" lengthAdjust="spacing" textLength="53" x="329.5" y="1505.9482">AWS S3</text><text fill="#000000" font-family="sans-serif" font-size="14" lengthAdjust="spacing" textLength="152" x="280" y="1522.2451">сховище артефактів</text><rect fill="#D3D3D3" filter="url(#fbm7dy33mdb91)" height="46.5938" style="stroke:#A80036;stroke-width:1.5;" width="163" x="453" y="181.7813"/><text fill="#000000" font-family="sans-serif" font-size="14" lengthAdjust="spacing" textLength="149" x="460" y="201.7764">control-plane-installer</text><text fill="#000000" font-family="sans-serif" font-size="14" lengthAdjust="spacing" textLength="132" x="470.5" y="218.0732">docker контейнер</text><rect fill="#D3D3D3" filter="url(#fbm7dy33mdb91)" height="46.5938" style="stroke:#A80036;stroke-width:1.5;" width="163" x="453" y="1485.9531"/><text fill="#000000" font-family="sans-serif" font-size="14" lengthAdjust="spacing" textLength="149" x="460" y="1505.9482">control-plane-installer</text><text fill="#000000" font-family="sans-serif" font-size="14" lengthAdjust="spacing" textLength="132" x="470.5" y="1522.2451">docker контейнер</text><rect fill="#FF4500" filter="url(#fbm7dy33mdb91)" height="62.8906" style="stroke:#A80036;stroke-width:1.5;" width="82" x="963.5" y="165.4844"/><text fill="#000000" font-family="sans-serif" font-size="14" lengthAdjust="spacing" textLength="0" x="1006.5" y="185.4795"/><text fill="#000000" font-family="sans-serif" font-size="14" lengthAdjust="spacing" textLength="68" x="970.5" y="201.7764">OpenShift</text><text fill="#000000" font-family="sans-serif" font-size="14" lengthAdjust="spacing" textLength="0" x="1006.5" y="218.0732"/><rect fill="#FF4500" filter="url(#fbm7dy33mdb91)" height="62.8906" style="stroke:#A80036;stroke-width:1.5;" width="82" x="963.5" y="1485.9531"/><text fill="#000000" font-family="sans-serif" font-size="14" lengthAdjust="spacing" textLength="0" x="1006.5" y="1505.9482"/><text fill="#000000" font-family="sans-serif" font-size="14" lengthAdjust="spacing" textLength="68" x="970.5" y="1522.2451">OpenShift</text><text fill="#000000" font-family="sans-serif" font-size="14" lengthAdjust="spacing" textLength="0" x="1006.5" y="1538.542"/><rect fill="#FFA500" filter="url(#fbm7dy33mdb91)" height="62.8906" style="stroke:#A80036;stroke-width:1.5;" width="45" x="1059.5" y="165.4844"/><text fill="#000000" font-family="sans-serif" font-size="14" lengthAdjust="spacing" textLength="0" x="1084" y="185.4795"/><text fill="#000000" font-family="sans-serif" font-size="14" lengthAdjust="spacing" textLength="31" x="1066.5" y="201.7764">AWS</text><text fill="#000000" font-family="sans-serif" font-size="14" lengthAdjust="spacing" textLength="0" x="1084" y="218.0732"/><rect fill="#FFA500" filter="url(#fbm7dy33mdb91)" height="62.8906" style="stroke:#A80036;stroke-width:1.5;" width="45" x="1059.5" y="1485.9531"/><text fill="#000000" font-family="sans-serif" font-size="14" lengthAdjust="spacing" textLength="0" x="1084" y="1505.9482"/><text fill="#000000" font-family="sans-serif" font-size="14" lengthAdjust="spacing" textLength="31" x="1066.5" y="1522.2451">AWS</text><text fill="#000000" font-family="sans-serif" font-size="14" lengthAdjust="spacing" textLength="0" x="1084" y="1538.542"/><rect fill="#FEFECE" filter="url(#fbm7dy33mdb91)" height="62.8906" style="stroke:#A80036;stroke-width:1.5;" width="152" x="1229.5" y="165.4844"/><text fill="#000000" font-family="sans-serif" font-size="14" lengthAdjust="spacing" textLength="0" x="1307.5" y="185.4795"/><text fill="#000000" font-family="sans-serif" font-size="14" lengthAdjust="spacing" textLength="138" x="1236.5" y="201.7764">control-plane-nexus</text><text fill="#000000" font-family="sans-serif" font-size="14" lengthAdjust="spacing" textLength="0" x="1307.5" y="218.0732"/><rect fill="#FEFECE" filter="url(#fbm7dy33mdb91)" height="62.8906" style="stroke:#A80036;stroke-width:1.5;" width="152" x="1229.5" y="1485.9531"/><text fill="#000000" font-family="sans-serif" font-size="14" lengthAdjust="spacing" textLength="0" x="1307.5" y="1505.9482"/><text fill="#000000" font-family="sans-serif" font-size="14" lengthAdjust="spacing" textLength="138" x="1236.5" y="1522.2451">control-plane-nexus</text><text fill="#000000" font-family="sans-serif" font-size="14" lengthAdjust="spacing" textLength="0" x="1307.5" y="1538.542"/><rect fill="#FEFECE" filter="url(#fbm7dy33mdb91)" height="62.8906" style="stroke:#A80036;stroke-width:1.5;" width="119" x="1395.5" y="165.4844"/><text fill="#000000" font-family="sans-serif" font-size="14" lengthAdjust="spacing" textLength="0" x="1457" y="185.4795"/><text fill="#000000" font-family="sans-serif" font-size="14" lengthAdjust="spacing" textLength="105" x="1402.5" y="201.7764">адмін-консоль</text><text fill="#000000" font-family="sans-serif" font-size="14" lengthAdjust="spacing" textLength="0" x="1457" y="218.0732"/><rect fill="#FEFECE" filter="url(#fbm7dy33mdb91)" height="62.8906" style="stroke:#A80036;stroke-width:1.5;" width="119" x="1395.5" y="1485.9531"/><text fill="#000000" font-family="sans-serif" font-size="14" lengthAdjust="spacing" textLength="0" x="1457" y="1505.9482"/><text fill="#000000" font-family="sans-serif" font-size="14" lengthAdjust="spacing" textLength="105" x="1402.5" y="1522.2451">адмін-консоль</text><text fill="#000000" font-family="sans-serif" font-size="14" lengthAdjust="spacing" textLength="0" x="1457" y="1538.542"/><rect fill="#FFFFFF" filter="url(#fbm7dy33mdb91)" height="1107.9141" style="stroke:#A80036;stroke-width:1.0;" width="10" x="108" y="370.0391"/><rect fill="#FFFFFF" filter="url(#fbm7dy33mdb91)" height="1058.7813" style="stroke:#A80036;stroke-width:1.0;" width="10" x="113" y="419.1719"/><rect fill="#FFFFFF" filter="url(#fbm7dy33mdb91)" height="67.2656" style="stroke:#A80036;stroke-width:1.0;" width="10" x="118" y="1410.6875"/><rect fill="#FFFFFF" filter="url(#fbm7dy33mdb91)" height="29.1328" style="stroke:#A80036;stroke-width:1.0;" width="10" x="358" y="264.5078"/><rect fill="#FFA500" filter="url(#fbm7dy33mdb91)" height="29.1328" style="stroke:#A80036;stroke-width:1.0;" width="10" x="358" y="264.5078"/><rect fill="#FFFFFF" filter="url(#fbm7dy33mdb91)" height="1024.6484" style="stroke:#A80036;stroke-width:1.0;" width="10" x="531.5" y="453.3047"/><rect fill="#FFFFFF" filter="url(#fbm7dy33mdb91)" height="83.3984" style="stroke:#A80036;stroke-width:1.0;" width="10" x="1006.5" y="507.4375"/><rect fill="#FF4500" filter="url(#fbm7dy33mdb91)" height="83.3984" style="stroke:#A80036;stroke-width:1.0;" width="10" x="1006.5" y="507.4375"/><rect fill="#FFFFFF" filter="url(#fbm7dy33mdb91)" height="295.2578" style="stroke:#A80036;stroke-width:1.0;" width="10" x="1006.5" y="894.7656"/><rect fill="#FF4500" filter="url(#fbm7dy33mdb91)" height="295.2578" style="stroke:#A80036;stroke-width:1.0;" width="10" x="1006.5" y="894.7656"/><rect fill="#FFFFFF" filter="url(#fbm7dy33mdb91)" height="29.1328" style="stroke:#A80036;stroke-width:1.0;" width="10" x="1084" y="644.9688"/><rect fill="#FFA500" filter="url(#fbm7dy33mdb91)" height="29.1328" style="stroke:#A80036;stroke-width:1.0;" width="10" x="1084" y="644.9688"/><rect fill="#FFFFFF" filter="url(#fbm7dy33mdb91)" height="29.1328" style="stroke:#A80036;stroke-width:1.0;" width="10" x="1084" y="728.2344"/><rect fill="#FFA500" filter="url(#fbm7dy33mdb91)" height="29.1328" style="stroke:#A80036;stroke-width:1.0;" width="10" x="1084" y="728.2344"/><rect fill="#FFFFFF" filter="url(#fbm7dy33mdb91)" height="29.1328" style="stroke:#A80036;stroke-width:1.0;" width="10" x="1307.5" y="811.5"/><rect fill="#87CEFA" filter="url(#fbm7dy33mdb91)" height="29.1328" style="stroke:#A80036;stroke-width:1.0;" width="10" x="1307.5" y="811.5"/><rect fill="#FFFFFF" filter="url(#fbm7dy33mdb91)" height="29.1328" style="stroke:#A80036;stroke-width:1.0;" width="10" x="1307.5" y="1244.1563"/><rect fill="#87CEFA" filter="url(#fbm7dy33mdb91)" height="29.1328" style="stroke:#A80036;stroke-width:1.0;" width="10" x="1307.5" y="1244.1563"/><rect fill="#FFFFFF" filter="url(#fbm7dy33mdb91)" height="29.1328" style="stroke:#A80036;stroke-width:1.0;" width="10" x="1307.5" y="1327.4219"/><rect fill="#87CEFA" filter="url(#fbm7dy33mdb91)" height="29.1328" style="stroke:#A80036;stroke-width:1.0;" width="10" x="1307.5" y="1327.4219"/><rect fill="#FFFFFF" filter="url(#fbm7dy33mdb91)" height="29.1328" style="stroke:#A80036;stroke-width:1.0;" width="10" x="1457" y="1439.8203"/><rect fill="#87CEFA" filter="url(#fbm7dy33mdb91)" height="29.1328" style="stroke:#A80036;stroke-width:1.0;" width="10" x="1457" y="1439.8203"/><polygon fill="#A80036" points="346,260.5078,356,264.5078,346,268.5078,350,264.5078" style="stroke:#A80036;stroke-width:1.0;"/><line style="stroke:#A80036;stroke-width:1.0;" x1="113" x2="352" y1="264.5078" y2="264.5078"/><text fill="#000000" font-family="sans-serif" font-size="13" lengthAdjust="spacing" textLength="164" x="153.5" y="259.4419">запит на завантаження</text><polygon fill="#A80036" points="124,289.6406,114,293.6406,124,297.6406,120,293.6406" style="stroke:#A80036;stroke-width:1.0;"/><line style="stroke:#A80036;stroke-width:1.0;stroke-dasharray:2.0,2.0;" x1="118" x2="357" y1="293.6406" y2="293.6406"/><text fill="#000000" font-family="sans-serif" font-size="13" lengthAdjust="spacing" textLength="138" x="166.5" y="288.5747">zip архів Платформи</text><path d="M10,308.6406 L80,308.6406 L80,315.6406 L70,325.6406 L10,325.6406 L10,308.6406 " fill="#EEEEEE" style="stroke:#000000;stroke-width:1.0;"/><rect fill="none" height="74.3984" style="stroke:#000000;stroke-width:2.0;" width="263" x="10" y="308.6406"/><text fill="#000000" font-family="sans-serif" font-size="13" font-weight="bold" lengthAdjust="spacing" textLength="25" x="25" y="321.7075">opt</text><text fill="#000000" font-family="sans-serif" font-size="11" font-weight="bold" lengthAdjust="spacing" textLength="83" x="95" y="320.8511">[sha256sum]</text><line style="stroke:#A80036;stroke-width:2.0;" x1="349" x2="367" y1="284.6406" y2="302.6406"/><line style="stroke:#A80036;stroke-width:2.0;" x1="349" x2="367" y1="302.6406" y2="284.6406"/><line style="stroke:#A80036;stroke-width:1.0;" x1="113" x2="160" y1="357.0391" y2="357.0391"/><line style="stroke:#A80036;stroke-width:1.0;" x1="160" x2="160" y1="357.0391" y2="370.0391"/><line style="stroke:#A80036;stroke-width:1.0;" x1="119" x2="160" y1="370.0391" y2="370.0391"/><polygon fill="#A80036" points="129,366.0391,119,370.0391,129,374.0391,125,370.0391" style="stroke:#A80036;stroke-width:1.0;"/><text fill="#000000" font-family="sans-serif" font-size="13" lengthAdjust="spacing" textLength="136" x="125" y="336.8403">перевірка цілісності</text><text fill="#000000" font-family="sans-serif" font-size="13" lengthAdjust="spacing" textLength="123" x="125" y="351.9731">архіву Платформи</text><line style="stroke:#A80036;stroke-width:1.0;" x1="118" x2="165" y1="406.1719" y2="406.1719"/><line style="stroke:#A80036;stroke-width:1.0;" x1="165" x2="165" y1="406.1719" y2="419.1719"/><line style="stroke:#A80036;stroke-width:1.0;" x1="124" x2="165" y1="419.1719" y2="419.1719"/><polygon fill="#A80036" points="134,415.1719,124,419.1719,134,423.1719,130,419.1719" style="stroke:#A80036;stroke-width:1.0;"/><text fill="#000000" font-family="sans-serif" font-size="13" lengthAdjust="spacing" textLength="221" x="130" y="401.106">розпакування архіву Платформи</text><polygon fill="#A80036" points="519.5,449.3047,529.5,453.3047,519.5,457.3047,523.5,453.3047" style="stroke:#A80036;stroke-width:1.0;"/><line style="stroke:#A80036;stroke-width:1.0;" x1="123" x2="525.5" y1="453.3047" y2="453.3047"/><text fill="#000000" font-family="sans-serif" font-size="13" lengthAdjust="spacing" textLength="215" x="219.75" y="448.2388">запуск інсталятора Платформи</text><polygon fill="#A80036" points="994.5,503.4375,1004.5,507.4375,994.5,511.4375,998.5,507.4375" style="stroke:#A80036;stroke-width:1.0;"/><line style="stroke:#A80036;stroke-width:1.0;" x1="541.5" x2="1000.5" y1="507.4375" y2="507.4375"/><text fill="#000000" font-family="sans-serif" font-size="13" lengthAdjust="spacing" textLength="441" x="553.5" y="502.3716">оновлення MachineSet для control-plane та cluster-mgmt ресурсів</text><path d="M937,520.4375 L937,560.4375 L1072,560.4375 L1072,530.4375 L1062,520.4375 L937,520.4375 " fill="#FBFB77" filter="url(#fbm7dy33mdb91)" style="stroke:#A80036;stroke-width:1.0;"/><path d="M1062,520.4375 L1062,530.4375 L1072,530.4375 L1062,520.4375 " fill="#FBFB77" style="stroke:#A80036;stroke-width:1.0;"/><text fill="#000000" font-family="sans-serif" font-size="13" font-weight="bold" lengthAdjust="spacing" textLength="92" x="943" y="537.5044">helm charts:</text><text fill="#000000" font-family="sans-serif" font-size="13" lengthAdjust="spacing" textLength="98" x="959" y="552.6372">machine-config</text><polygon fill="#A80036" points="552.5,586.8359,542.5,590.8359,552.5,594.8359,548.5,590.8359" style="stroke:#A80036;stroke-width:1.0;"/><line style="stroke:#A80036;stroke-width:1.0;stroke-dasharray:2.0,2.0;" x1="546.5" x2="1005.5" y1="590.8359" y2="590.8359"/><text fill="#000000" font-family="sans-serif" font-size="13" lengthAdjust="spacing" textLength="120" x="714" y="585.77">успішно оновлено</text><polygon fill="#A80036" points="1072,640.9688,1082,644.9688,1072,648.9688,1076,644.9688" style="stroke:#A80036;stroke-width:1.0;"/><line style="stroke:#A80036;stroke-width:1.0;" x1="541.5" x2="1078" y1="644.9688" y2="644.9688"/><text fill="#000000" font-family="sans-serif" font-size="13" lengthAdjust="spacing" textLength="210" x="707.75" y="639.9028">оновлення центрального Vault</text><polygon fill="#A80036" points="552.5,670.1016,542.5,674.1016,552.5,678.1016,548.5,674.1016" style="stroke:#A80036;stroke-width:1.0;"/><line style="stroke:#A80036;stroke-width:1.0;stroke-dasharray:2.0,2.0;" x1="546.5" x2="1083" y1="674.1016" y2="674.1016"/><text fill="#000000" font-family="sans-serif" font-size="13" lengthAdjust="spacing" textLength="120" x="752.75" y="669.0356">успішно оновлено</text><polygon fill="#A80036" points="1072,724.2344,1082,728.2344,1072,732.2344,1076,728.2344" style="stroke:#A80036;stroke-width:1.0;"/><line style="stroke:#A80036;stroke-width:1.0;" x1="541.5" x2="1078" y1="728.2344" y2="728.2344"/><text fill="#000000" font-family="sans-serif" font-size="13" lengthAdjust="spacing" textLength="111" x="757.25" y="723.1685">оновлення MinIO</text><polygon fill="#A80036" points="552.5,753.3672,542.5,757.3672,552.5,761.3672,548.5,757.3672" style="stroke:#A80036;stroke-width:1.0;"/><line style="stroke:#A80036;stroke-width:1.0;stroke-dasharray:2.0,2.0;" x1="546.5" x2="1083" y1="757.3672" y2="757.3672"/><text fill="#000000" font-family="sans-serif" font-size="13" lengthAdjust="spacing" textLength="120" x="752.75" y="752.3013">успішно оновлено</text><polygon fill="#A80036" points="1295.5,807.5,1305.5,811.5,1295.5,815.5,1299.5,811.5" style="stroke:#A80036;stroke-width:1.0;"/><line style="stroke:#A80036;stroke-width:1.0;" x1="541.5" x2="1301.5" y1="811.5" y2="811.5"/><text fill="#000000" font-family="sans-serif" font-size="13" lengthAdjust="spacing" textLength="357" x="746" y="806.4341">завантаження оновлених версій docker компонентів</text><polygon fill="#A80036" points="552.5,836.6328,542.5,840.6328,552.5,844.6328,548.5,840.6328" style="stroke:#A80036;stroke-width:1.0;"/><line style="stroke:#A80036;stroke-width:1.0;stroke-dasharray:2.0,2.0;" x1="546.5" x2="1306.5" y1="840.6328" y2="840.6328"/><text fill="#000000" font-family="sans-serif" font-size="13" lengthAdjust="spacing" textLength="148" x="850.5" y="835.5669">успішно завантажено</text><polygon fill="#A80036" points="994.5,890.7656,1004.5,894.7656,994.5,898.7656,998.5,894.7656" style="stroke:#A80036;stroke-width:1.0;"/><line style="stroke:#A80036;stroke-width:1.0;" x1="541.5" x2="1000.5" y1="894.7656" y2="894.7656"/><text fill="#000000" font-family="sans-serif" font-size="13" lengthAdjust="spacing" textLength="235" x="656.5" y="889.6997">розгортання control-plane ресурсів</text><path d="M870,907.7656 L870,1159.7656 L1138,1159.7656 L1138,917.7656 L1128,907.7656 L870,907.7656 " fill="#FBFB77" filter="url(#fbm7dy33mdb91)" style="stroke:#A80036;stroke-width:1.0;"/><path d="M1128,907.7656 L1128,917.7656 L1138,917.7656 L1128,907.7656 " fill="#FBFB77" style="stroke:#A80036;stroke-width:1.0;"/><text fill="#000000" font-family="sans-serif" font-size="13" font-weight="bold" lengthAdjust="spacing" textLength="92" x="876" y="924.8325">helm charts:</text><text fill="#000000" font-family="sans-serif" font-size="13" lengthAdjust="spacing" textLength="169" x="896" y="939.9653">customresourcedefinitions</text><text fill="#000000" font-family="sans-serif" font-size="13" lengthAdjust="spacing" textLength="227" x="896" y="955.0981">platform-vault-and-minio-resources</text><text fill="#000000" font-family="sans-serif" font-size="13" lengthAdjust="spacing" textLength="98" x="896" y="970.231">machine-config</text><text fill="#000000" font-family="sans-serif" font-size="13" lengthAdjust="spacing" textLength="190" x="896" y="985.3638">codebase-operator-resources</text><text fill="#000000" font-family="sans-serif" font-size="13" lengthAdjust="spacing" textLength="183" x="896" y="1000.4966">keycloak-operator-resources</text><text fill="#000000" font-family="sans-serif" font-size="13" lengthAdjust="spacing" textLength="86" x="896" y="1015.6294">keycloak-idps</text><text fill="#000000" font-family="sans-serif" font-size="13" lengthAdjust="spacing" textLength="166" x="896" y="1030.7622">nexus-operator-resources</text><text fill="#000000" font-family="sans-serif" font-size="13" lengthAdjust="spacing" textLength="115" x="896" y="1045.895">keycloak-operator</text><text fill="#000000" font-family="sans-serif" font-size="13" lengthAdjust="spacing" textLength="122" x="896" y="1061.0278">codebase-operator</text><text fill="#000000" font-family="sans-serif" font-size="13" lengthAdjust="spacing" textLength="123" x="896" y="1076.1606">control-plane-gerrit</text><text fill="#000000" font-family="sans-serif" font-size="13" lengthAdjust="spacing" textLength="138" x="896" y="1091.2935">control-plane-console</text><text fill="#000000" font-family="sans-serif" font-size="13" lengthAdjust="spacing" textLength="133" x="896" y="1106.4263">control-plane-jenkins</text><text fill="#000000" font-family="sans-serif" font-size="13" lengthAdjust="spacing" textLength="177" x="896" y="1121.5591">infrastructure-jenkins-agent</text><text fill="#000000" font-family="sans-serif" font-size="13" lengthAdjust="spacing" textLength="111" x="896" y="1136.6919">ddm-architecture</text><text fill="#000000" font-family="sans-serif" font-size="13" lengthAdjust="spacing" textLength="155" x="896" y="1151.8247">cluster-mgmt-resources</text><polygon fill="#A80036" points="552.5,1186.0234,542.5,1190.0234,552.5,1194.0234,548.5,1190.0234" style="stroke:#A80036;stroke-width:1.0;"/><line style="stroke:#A80036;stroke-width:1.0;stroke-dasharray:2.0,2.0;" x1="546.5" x2="1005.5" y1="1190.0234" y2="1190.0234"/><text fill="#000000" font-family="sans-serif" font-size="13" lengthAdjust="spacing" textLength="134" x="707" y="1184.9575">успішно розгорнуто</text><polygon fill="#A80036" points="1295.5,1240.1563,1305.5,1244.1563,1295.5,1248.1563,1299.5,1244.1563" style="stroke:#A80036;stroke-width:1.0;"/><line style="stroke:#A80036;stroke-width:1.0;" x1="541.5" x2="1301.5" y1="1244.1563" y2="1244.1563"/><text fill="#000000" font-family="sans-serif" font-size="13" lengthAdjust="spacing" textLength="411" x="719" y="1239.0903">завантаження business-process-modeler-extensions до nexus</text><polygon fill="#A80036" points="552.5,1269.2891,542.5,1273.2891,552.5,1277.2891,548.5,1273.2891" style="stroke:#A80036;stroke-width:1.0;"/><line style="stroke:#A80036;stroke-width:1.0;stroke-dasharray:2.0,2.0;" x1="546.5" x2="1306.5" y1="1273.2891" y2="1273.2891"/><text fill="#000000" font-family="sans-serif" font-size="13" lengthAdjust="spacing" textLength="148" x="850.5" y="1268.2231">успішно завантажено</text><polygon fill="#A80036" points="1295.5,1323.4219,1305.5,1327.4219,1295.5,1331.4219,1299.5,1327.4219" style="stroke:#A80036;stroke-width:1.0;"/><line style="stroke:#A80036;stroke-width:1.0;" x1="541.5" x2="1301.5" y1="1327.4219" y2="1327.4219"/><text fill="#000000" font-family="sans-serif" font-size="13" lengthAdjust="spacing" textLength="305" x="772" y="1322.356">завантаження liquibase-ext-schema до nexus</text><polygon fill="#A80036" points="552.5,1352.5547,542.5,1356.5547,552.5,1360.5547,548.5,1356.5547" style="stroke:#A80036;stroke-width:1.0;"/><line style="stroke:#A80036;stroke-width:1.0;stroke-dasharray:2.0,2.0;" x1="546.5" x2="1306.5" y1="1356.5547" y2="1356.5547"/><text fill="#000000" font-family="sans-serif" font-size="13" lengthAdjust="spacing" textLength="148" x="850.5" y="1351.4888">успішно завантажено</text><polygon fill="#A80036" points="139,1406.6875,129,1410.6875,139,1414.6875,135,1410.6875" style="stroke:#A80036;stroke-width:1.0;"/><line style="stroke:#A80036;stroke-width:1.0;" x1="133" x2="530.5" y1="1410.6875" y2="1410.6875"/><text fill="#000000" font-family="sans-serif" font-size="13" lengthAdjust="spacing" textLength="223" x="218.25" y="1405.6216">оновлення Платформи доступно</text><polygon fill="#A80036" points="1445,1435.8203,1455,1439.8203,1445,1443.8203,1449,1439.8203" style="stroke:#A80036;stroke-width:1.0;"/><line style="stroke:#A80036;stroke-width:1.0;" x1="128" x2="1451" y1="1439.8203" y2="1439.8203"/><text fill="#000000" font-family="sans-serif" font-size="13" lengthAdjust="spacing" textLength="215" x="685" y="1434.7544">обрати нову версію Платформи</text><polygon fill="#A80036" points="139,1464.9531,129,1468.9531,139,1472.9531,135,1468.9531" style="stroke:#A80036;stroke-width:1.0;"/><line style="stroke:#A80036;stroke-width:1.0;stroke-dasharray:2.0,2.0;" x1="133" x2="1456" y1="1468.9531" y2="1468.9531"/><text fill="#000000" font-family="sans-serif" font-size="13" lengthAdjust="spacing" textLength="120" x="732.5" y="1463.8872">успішно оновлено</text><rect fill="#FFFFFF" height="111.7813" rx="5" ry="5" style="stroke:#FFFFFF;stroke-width:1.0;" width="378" x="1247.5" y="13"/><rect fill="#FFFFFF" height="16.2969" style="stroke:none;stroke-width:1.0;" width="366" x="1253.5" y="20"/><rect fill="#FFA500" height="16.2969" style="stroke:none;stroke-width:1.0;" width="20" x="1253.5" y="20"/><text fill="#000000" font-family="sans-serif" font-size="14" lengthAdjust="spacing" textLength="0" x="1257.5" y="32.9951"/><text fill="#000000" font-family="sans-serif" font-size="14" lengthAdjust="spacing" textLength="91" x="1277.5" y="32.9951">Сервіси AWS</text><rect fill="#87CEFA" height="32.5938" style="stroke:none;stroke-width:1.0;" width="20" x="1253.5" y="36.2969"/><text fill="#000000" font-family="sans-serif" font-size="14" lengthAdjust="spacing" textLength="0" x="1273.5" y="49.292"/><text fill="#000000" font-family="sans-serif" font-size="14" lengthAdjust="spacing" textLength="182" x="1277.5" y="49.292">Підсистема розгортання</text><text fill="#000000" font-family="sans-serif" font-size="14" lengthAdjust="spacing" textLength="304" x="1277.5" y="65.5889">та налаштування Платформи та Реєстрів</text><rect fill="#D3D3D3" height="32.5938" style="stroke:none;stroke-width:1.0;" width="20" x="1253.5" y="68.8906"/><text fill="#000000" font-family="sans-serif" font-size="14" lengthAdjust="spacing" textLength="0" x="1257.5" y="81.8857"/><text fill="#000000" font-family="sans-serif" font-size="14" lengthAdjust="spacing" textLength="227" x="1277.5" y="81.8857">Компонент інсталятора з яким</text><text fill="#000000" font-family="sans-serif" font-size="14" lengthAdjust="spacing" textLength="180" x="1273.5" y="98.1826">взаємодіє адміністратор</text><rect fill="#FF4500" height="16.2969" style="stroke:none;stroke-width:1.0;" width="20" x="1253.5" y="101.4844"/><text fill="#000000" font-family="sans-serif" font-size="14" lengthAdjust="spacing" textLength="0" x="1257.5" y="114.4795"/><text fill="#000000" font-family="sans-serif" font-size="14" lengthAdjust="spacing" textLength="342" x="1277.5" y="114.4795">OpenShift Платформа оркестрації контейнерів</text><line style="stroke:#FFFFFF;stroke-width:1.0;" x1="1253.5" x2="1619.5" y1="20" y2="20"/><line style="stroke:#FFFFFF;stroke-width:1.0;" x1="1253.5" x2="1619.5" y1="36.2969" y2="36.2969"/><line style="stroke:#FFFFFF;stroke-width:1.0;" x1="1253.5" x2="1619.5" y1="68.8906" y2="68.8906"/><line style="stroke:#FFFFFF;stroke-width:1.0;" x1="1253.5" x2="1619.5" y1="101.4844" y2="101.4844"/><line style="stroke:#FFFFFF;stroke-width:1.0;" x1="1253.5" x2="1619.5" y1="117.7813" y2="117.7813"/><line style="stroke:#FFFFFF;stroke-width:1.0;" x1="1253.5" x2="1253.5" y1="20" y2="117.7813"/><line style="stroke:#FFFFFF;stroke-width:1.0;" x1="1273.5" x2="1273.5" y1="20" y2="117.7813"/><line style="stroke:#FFFFFF;stroke-width:1.0;" x1="1619.5" x2="1619.5" y1="20" y2="117.7813"/><!--MD5=[9f0949d0abac8a59306569955e0f5304]
@startuml
autoactivate on
skinparam sequenceMessageAlign center
skinparam legendBackgroundColor #FFFFFF
skinparam legendBorderColor #FFFFFF
skinparam legendEntrySeparator #FFFFFF

legend top right
    <#FFFFFF,#FFFFFF>|<#orange>| Сервіси AWS|
    |<#lightskyblue>     | Підсистема розгортання\n та налаштування Платформи та Реєстрів|
    |<#lightgray>| Компонент інсталятора з яким\nвзаємодіє адміністратор|
    |<#orangered>| OpenShift Платформа оркестрації контейнерів|
end legend

actor "технічний адміністратор\nПлатформи" as admin #lightgray
participant "AWS S3\nсховище артефактів" as s3 #orange
participant "control-plane-installer\n docker контейнер" as installer #lightgray
participant "\nOpenShift\n" as okd #orangered
participant "\nAWS\n" as aws #orange
box "Підсистема розгортання та налаштування Платформи та реєстрів" #lightskyblue
participant "\ncontrol-plane-nexus\n" as nexus
participant "\nадмін-консоль\n" as console
end box

admin -> s3: запит на завантаження
activate s3 #orange
return zip архів Платформи
opt sha256sum
deactivate s3
destroy s3
admin -> admin: перевірка цілісності\nархіву Платформи
end
admin -> admin: розпакування архіву Платформи

admin -> installer: запуск інсталятора Платформи
|||
installer -> okd: оновлення MachineSet для control-plane та cluster-mgmt ресурсів
note over okd
**helm charts:**
    machine-config
end note
activate okd #orangered
return успішно оновлено
deactivate okd
|||
installer -> aws: оновлення центрального Vault
activate aws #orange
return успішно оновлено
deactivate aws
|||
installer -> aws: оновлення MinIO
activate aws #orange
return успішно оновлено
deactivate aws
|||
installer -> nexus: завантаження оновлених версій docker компонентів
activate nexus #lightskyblue
nexus - -> installer: успішно завантажено
deactivate nexus
|||
installer -> okd: розгортання control-plane ресурсів
note over okd
**helm charts:**
     customresourcedefinitions
     platform-vault-and-minio-resources
     machine-config
     codebase-operator-resources
     keycloak-operator-resources
     keycloak-idps
     nexus-operator-resources
     keycloak-operator
     codebase-operator
     control-plane-gerrit
     control-plane-console
     control-plane-jenkins
     infrastructure-jenkins-agent
     ddm-architecture
     cluster-mgmt-resources
end note
activate okd #orangered
return успішно розгорнуто
deactivate okd
|||
installer -> nexus: завантаження business-process-modeler-extensions до nexus
activate nexus #lightskyblue
nexus - -> installer: успішно завантажено
deactivate nexus
|||
installer -> nexus: завантаження liquibase-ext-schema до nexus
activate nexus #lightskyblue
return успішно завантажено
deactivate nexus
|||

installer -> admin: оновлення Платформи доступно

admin -> console: обрати нову версію Платформи
activate console #lightskyblue
return успішно оновлено
deactivate console
@enduml

PlantUML version 1.2021.7(Sun May 23 12:40:07 UTC 2021)
(GPL source distribution)
Java Runtime: OpenJDK Runtime Environment
JVM: OpenJDK 64-Bit Server VM
Default Encoding: UTF-8
Language: en
Country: null
--></g></svg>